<svg width="575" height="329" viewBox="0 0 575 329" fill="none" xmlns="http://www.w3.org/2000/svg">
<g clip-path="url(#clip0)">
<path d="M560.967 318.635C566.736 285.281 536.786 257.861 504.202 259.023H502.469C489.523 259.023 477.37 253.159 469.799 243.262L465.078 237.092C452.865 221.129 433.869 211.671 412.991 211.671C401.464 211.671 393.181 214.313 386.82 218.434C375.199 225.962 359.597 251.996 343.767 252.66C320.423 253.642 305.135 219.821 246.7 279.227" stroke="#59221D" stroke-width="0.701071" stroke-miterlimit="10" stroke-linecap="round"/>
<path d="M19.1084 318.973C-10.7333 318.973 -5.28882 273.035 37.7317 292.261C74.493 308.691 51.4895 237.964 98.4823 254.486C110.021 258.542 137.402 279.277 152.775 279.386C158.99 279.43 202.633 255.971 239.707 275.46C275.106 294.067 308.59 318.972 308.59 318.972" stroke="#59221D" stroke-width="0.701071" stroke-miterlimit="10" stroke-linecap="round"/>
<path d="M566.333 318.958H498.742C500.213 305.016 514.779 294.068 532.533 294.068C550.287 294.068 564.863 305.016 566.333 318.958Z" fill="#7EBAD2"/>
<path d="M524.821 318.958L516.689 308.13H509.633L500.249 313.129C500.222 313.143 500.192 313.154 500.162 313.161C500.294 312.823 500.433 312.489 500.583 312.157L508.144 308.13H502.846C503.008 307.893 503.175 307.661 503.346 307.429H516.166L510.856 300.36C511.05 300.229 511.246 300.1 511.445 299.975L525.747 318.958H524.821Z" fill="white"/>
<path d="M550.28 318.707L561.897 307.652C562.035 307.845 562.171 308.038 562.304 308.233L551.03 318.96L550.28 318.707Z" fill="white"/>
<path d="M534.118 318.805V303.871L527.986 294.43C527.964 294.396 527.948 294.357 527.94 294.317C528.192 294.289 528.446 294.263 528.7 294.241L534.118 302.584V294.098C534.352 294.106 534.586 294.116 534.819 294.129V314.05L547.718 296.944C547.943 297.034 548.166 297.125 548.387 297.225L540.956 307.09L556.239 301.82C556.456 301.991 556.671 302.163 556.883 302.338L556.863 302.347L540.2 308.095L534.824 315.228V318.816L534.118 318.805Z" fill="white"/>
<path d="M485.336 307.223L487.297 305.045L489.475 307.006C490.573 307.996 491.234 309.382 491.311 310.859C491.388 312.336 490.876 313.783 489.886 314.882L487.925 317.059L485.742 315.093C484.645 314.103 483.987 312.718 483.91 311.242C483.834 309.766 484.347 308.321 485.336 307.223V307.223Z" fill="#A74602"/>
<path d="M477.365 308.793V306.55H479.608C481.731 306.55 483.767 307.393 485.268 308.894C486.77 310.396 487.613 312.432 487.613 314.555V316.798H485.369C483.246 316.798 481.21 315.955 479.709 314.454C478.208 312.952 477.365 310.916 477.365 308.793V308.793Z" fill="white" stroke="#59221D" stroke-width="0.701071" stroke-miterlimit="10"/>
<path d="M45.1369 290.247L44.6316 290.216C43.0974 290.125 41.6625 289.427 40.6425 288.278C39.6224 287.128 39.1009 285.62 39.1926 284.086L39.2228 283.581L39.7281 283.611C41.2623 283.703 42.6972 284.4 43.7172 285.55C44.7373 286.699 45.2588 288.207 45.1671 289.741L45.1369 290.247V290.247Z" fill="#FFC200"/>
<path d="M47.6164 289.716L47.3181 289.184C46.8695 288.384 46.583 287.503 46.4749 286.593C46.3667 285.682 46.4391 284.759 46.6878 283.876C46.9366 282.993 47.3569 282.168 47.9246 281.448C48.4924 280.727 49.1965 280.126 49.9967 279.678L50.5287 279.38L50.827 279.912C51.7326 281.527 51.9595 283.435 51.4578 285.218C50.9562 287 49.7671 288.51 48.1521 289.415L47.6201 289.714L47.6164 289.716Z" stroke="#59221D" stroke-width="0.701071" stroke-miterlimit="10" stroke-linecap="round"/>
<path d="M485.953 247.614L486.246 245.543L488.317 245.836C489.781 246.043 491.103 246.823 491.992 248.005C492.881 249.187 493.264 250.673 493.057 252.137L492.764 254.208L490.693 253.915C489.229 253.708 487.907 252.928 487.018 251.747C486.129 250.565 485.746 249.078 485.953 247.614V247.614Z" fill="#FFC200"/>
<path d="M502.153 243.263H507.801V248.911C507.801 250.39 507.214 251.808 506.168 252.854C505.122 253.9 503.704 254.487 502.225 254.487H496.577V248.84C496.577 247.361 497.164 245.942 498.21 244.896C499.256 243.851 500.674 243.263 502.153 243.263Z" stroke="#59221D" stroke-width="0.701071" stroke-miterlimit="10" stroke-linecap="round"/>
<path d="M496.577 254.486L507.801 243.263" stroke="#59221D" stroke-width="0.701071" stroke-miterlimit="10" stroke-linecap="round"/>
<path d="M503.342 248.209H507.801" stroke="#59221D" stroke-width="0.701071" stroke-miterlimit="10" stroke-linecap="round"/>
<path d="M499.633 244.066V251.381" stroke="#59221D" stroke-width="0.701071" stroke-miterlimit="10" stroke-linecap="round"/>
<path d="M27.8844 303.237H30.9523V306.304C30.9519 307.783 30.3647 309.2 29.3195 310.246C28.2744 311.291 26.857 311.879 25.3788 311.879H22.3081V308.811C22.3085 307.333 22.8961 305.915 23.9419 304.869C24.9876 303.824 26.4057 303.237 27.8844 303.237Z" stroke="#59221D" stroke-width="0.701071" stroke-miterlimit="10" stroke-linecap="round"/>
<path d="M22.3081 311.879L30.9509 303.237" stroke="#59221D" stroke-width="0.701071" stroke-miterlimit="10" stroke-linecap="round"/>
<path d="M27.2575 307.046H30.7979" stroke="#59221D" stroke-width="0.701071" stroke-miterlimit="10" stroke-linecap="round"/>
<path d="M24.6609 304.465V309.489" stroke="#59221D" stroke-width="0.701071" stroke-miterlimit="10" stroke-linecap="round"/>
<path d="M172.159 67.2116L241.526 19.7701C249.497 14.3186 259.595 14.9888 266.954 21.4527L395.907 134.841H17.733L139.952 61.4137C146.171 57.677 153.567 57.4527 159.952 60.8066L172.159 67.2116Z" stroke="#7EBAD2" stroke-width="0.701071" stroke-miterlimit="10"/>
<path d="M172.908 67.0967L144.725 85.8854C144.58 85.9827 144.407 86.03 144.232 86.02C144.057 86.0101 143.89 85.9435 143.757 85.8303C143.624 85.7172 143.531 85.5636 143.492 85.3929C143.454 85.2222 143.472 85.0437 143.544 84.8843L154.914 58.8213L172.908 67.0967Z" fill="#7EBAD2"/>
<path d="M541.408 134.842C520.026 135.462 486.753 140.34 467.156 148.98L438.925 161.428C418.515 170.428 396.453 175.076 374.146 175.075H261.291C247.27 175.075 233.309 176.885 219.752 180.46V180.46C206.195 184.035 192.233 185.845 178.212 185.845H81.6888C68.2221 185.846 54.9762 182.424 43.1954 175.9C31.4146 169.375 21.4856 159.964 14.3412 148.548L5.76569 134.842H541.408Z" stroke="#59221D" stroke-width="0.701071" stroke-miterlimit="10" stroke-linecap="round"/>
<path d="M35.6144 143.248C36.2187 142.646 37.0367 142.309 37.8894 142.309C38.742 142.309 39.56 142.646 40.1643 143.248V143.248C40.7687 143.849 41.5866 144.187 42.4393 144.187C43.292 144.187 44.1099 143.849 44.7143 143.248V143.248C45.3186 142.646 46.1366 142.309 46.9893 142.309C47.8419 142.309 48.6599 142.646 49.2642 143.248L49.2867 143.269C49.891 143.87 50.709 144.208 51.5616 144.208C52.4143 144.208 53.2323 143.87 53.8366 143.269L53.9025 143.204C54.2011 142.905 54.5557 142.668 54.9461 142.506C55.3365 142.345 55.7549 142.261 56.1775 142.261C56.6001 142.261 57.0185 142.345 57.4089 142.506C57.7992 142.668 58.1539 142.905 58.4525 143.204L58.5184 143.269C59.1227 143.87 59.9407 144.208 60.7933 144.208C61.646 144.208 62.464 143.87 63.0683 143.269L63.1118 143.225C63.7161 142.624 64.5341 142.286 65.3867 142.286C66.2394 142.286 67.0574 142.624 67.6617 143.225L67.7052 143.269C68.3096 143.871 69.1279 144.209 69.9809 144.209C70.8339 144.209 71.6521 143.871 72.2565 143.269L72.2776 143.248C72.8819 142.646 73.6999 142.309 74.5526 142.309C75.4052 142.309 76.2232 142.646 76.8275 143.248" stroke="#59221D" stroke-width="0.701071" stroke-miterlimit="10" stroke-linecap="round"/>
<path d="M76.8528 143.269C77.4571 143.87 78.2751 144.208 79.1278 144.208C79.9804 144.208 80.7984 143.87 81.4027 143.269L81.4252 143.248C82.0295 142.646 82.8475 142.309 83.7001 142.309C84.5528 142.309 85.3708 142.646 85.9751 143.248" stroke="#59221D" stroke-width="0.701071" stroke-miterlimit="10" stroke-linecap="round"/>
<path d="M49.2629 147.401L49.2854 147.424C49.8897 148.025 50.7077 148.363 51.5603 148.363C52.413 148.363 53.231 148.025 53.8353 147.424L53.9012 147.358C54.5056 146.756 55.3235 146.418 56.1762 146.418C57.0289 146.418 57.8468 146.756 58.4512 147.358L58.5171 147.424C59.1214 148.025 59.9394 148.363 60.792 148.363C61.6447 148.363 62.4627 148.025 63.067 147.424L63.1105 147.379C63.7148 146.777 64.5328 146.439 65.3855 146.439C66.2381 146.439 67.0561 146.777 67.6604 147.379L67.7039 147.424C68.3083 148.025 69.1266 148.363 69.9796 148.363C70.8326 148.363 71.6509 148.025 72.2553 147.424L72.2763 147.401C72.8806 146.8 73.6986 146.462 74.5513 146.462C75.4039 146.462 76.2219 146.8 76.8262 147.401" stroke="#59221D" stroke-width="0.701071" stroke-miterlimit="10" stroke-linecap="round"/>
<path d="M365.678 152.541C366.283 153.143 367.101 153.481 367.953 153.481C368.806 153.481 369.624 153.143 370.228 152.541V152.541C370.833 151.94 371.651 151.602 372.504 151.602C373.357 151.602 374.175 151.94 374.78 152.541L374.801 152.564C375.405 153.165 376.223 153.503 377.076 153.503C377.928 153.503 378.746 153.165 379.351 152.564L379.417 152.498C380.021 151.897 380.839 151.559 381.692 151.559C382.544 151.559 383.362 151.897 383.967 152.498L384.033 152.564C384.637 153.165 385.455 153.503 386.308 153.503C387.16 153.503 387.978 153.165 388.582 152.564L388.626 152.519C389.23 151.918 390.048 151.58 390.901 151.58C391.754 151.58 392.572 151.918 393.176 152.519L393.221 152.564C393.825 153.165 394.643 153.503 395.496 153.503C396.348 153.503 397.166 153.165 397.771 152.564L397.792 152.541C398.396 151.94 399.214 151.602 400.067 151.602C400.92 151.602 401.739 151.94 402.343 152.541" stroke="#59221D" stroke-width="0.701071" stroke-miterlimit="10" stroke-linecap="round"/>
<path d="M374.774 156.695L374.795 156.717C375.4 157.318 376.218 157.656 377.07 157.656C377.923 157.656 378.741 157.318 379.345 156.717L379.411 156.651C380.015 156.05 380.833 155.712 381.686 155.712C382.539 155.712 383.357 156.05 383.961 156.651L384.027 156.717C384.631 157.318 385.449 157.656 386.302 157.656C387.155 157.656 387.973 157.318 388.577 156.717L388.62 156.674C389.225 156.072 390.043 155.734 390.895 155.734C391.748 155.734 392.566 156.072 393.17 156.674L393.215 156.717C393.82 157.318 394.637 157.656 395.49 157.656C396.343 157.656 397.161 157.318 397.765 156.717L397.786 156.695" stroke="#59221D" stroke-width="0.701071" stroke-miterlimit="10" stroke-linecap="round"/>
<path d="M178.808 81.843V121.36" stroke="#59221D" stroke-width="0.701071" stroke-miterlimit="10" stroke-linecap="round"/>
<path d="M173.202 87.4331V121.359" stroke="#59221D" stroke-width="0.701071" stroke-miterlimit="10" stroke-linecap="round"/>
<path d="M167.597 91.3464V121.359" stroke="#59221D" stroke-width="0.701071" stroke-miterlimit="10" stroke-linecap="round"/>
<path d="M161.992 94.281V121.359" stroke="#59221D" stroke-width="0.701071" stroke-miterlimit="10" stroke-linecap="round"/>
<path d="M156.387 96.658V121.359" stroke="#59221D" stroke-width="0.701071" stroke-miterlimit="10" stroke-linecap="round"/>
<path d="M150.781 98.3347V121.359" stroke="#59221D" stroke-width="0.701071" stroke-miterlimit="10" stroke-linecap="round"/>
<path d="M145.176 99.5925V121.359" stroke="#59221D" stroke-width="0.701071" stroke-miterlimit="10" stroke-linecap="round"/>
<path d="M188.222 80.5627V121.359" stroke="#59221D" stroke-width="0.701071" stroke-miterlimit="10" stroke-linecap="round"/>
<path d="M193.826 85.2781V121.219" stroke="#59221D" stroke-width="0.701071" stroke-miterlimit="10" stroke-linecap="round"/>
<path d="M199.432 88.8621V121.219" stroke="#59221D" stroke-width="0.701071" stroke-miterlimit="10" stroke-linecap="round"/>
<path d="M205.038 91.8318V121.219" stroke="#59221D" stroke-width="0.701071" stroke-miterlimit="10" stroke-linecap="round"/>
<path d="M210.642 94.3486V121.219" stroke="#59221D" stroke-width="0.701071" stroke-miterlimit="10" stroke-linecap="round"/>
<path d="M216.248 96.4053V121.219" stroke="#59221D" stroke-width="0.701071" stroke-miterlimit="10" stroke-linecap="round"/>
<path d="M221.854 98.1597V121.219" stroke="#59221D" stroke-width="0.701071" stroke-miterlimit="10" stroke-linecap="round"/>
<path d="M227.468 99.6765V121.219" stroke="#59221D" stroke-width="0.701071" stroke-miterlimit="10" stroke-linecap="round"/>
<path d="M233.074 100.752V121.219" stroke="#59221D" stroke-width="0.701071" stroke-miterlimit="10" stroke-linecap="round"/>
<path d="M238.68 101.946V121.219" stroke="#59221D" stroke-width="0.701071" stroke-miterlimit="10" stroke-linecap="round"/>
<path d="M244.294 102.761V121.219" stroke="#59221D" stroke-width="0.701071" stroke-miterlimit="10" stroke-linecap="round"/>
<path d="M249.899 103.556V121.219" stroke="#59221D" stroke-width="0.701071" stroke-miterlimit="10" stroke-linecap="round"/>
<path d="M255.505 104.048V121.219" stroke="#59221D" stroke-width="0.701071" stroke-miterlimit="10" stroke-linecap="round"/>
<path d="M261.119 104.444V121.219" stroke="#59221D" stroke-width="0.701071" stroke-miterlimit="10" stroke-linecap="round"/>
<path d="M266.725 104.819V121.219" stroke="#59221D" stroke-width="0.701071" stroke-miterlimit="10" stroke-linecap="round"/>
<path d="M272.331 104.89V121.219" stroke="#59221D" stroke-width="0.701071" stroke-miterlimit="10" stroke-linecap="round"/>
<path d="M139.571 100.71V121.359" stroke="#59221D" stroke-width="0.701071" stroke-miterlimit="10" stroke-linecap="round"/>
<path d="M133.965 101.269V121.359" stroke="#59221D" stroke-width="0.701071" stroke-miterlimit="10" stroke-linecap="round"/>
<path d="M128.361 101.689V121.359" stroke="#59221D" stroke-width="0.701071" stroke-miterlimit="10" stroke-linecap="round"/>
<path d="M122.755 101.968V121.359" stroke="#59221D" stroke-width="0.701071" stroke-miterlimit="10" stroke-linecap="round"/>
<path d="M117.149 101.968V121.359" stroke="#59221D" stroke-width="0.701071" stroke-miterlimit="10" stroke-linecap="round"/>
<path d="M111.545 101.269V121.359" stroke="#59221D" stroke-width="0.701071" stroke-miterlimit="10" stroke-linecap="round"/>
<path d="M105.939 100.291V121.359" stroke="#59221D" stroke-width="0.701071" stroke-miterlimit="10" stroke-linecap="round"/>
<path d="M100.333 98.8928V121.359" stroke="#59221D" stroke-width="0.701071" stroke-miterlimit="10" stroke-linecap="round"/>
<path d="M94.7287 97.0769V121.359" stroke="#59221D" stroke-width="0.701071" stroke-miterlimit="10" stroke-linecap="round"/>
<path d="M89.123 94.8408V121.36" stroke="#59221D" stroke-width="0.701071" stroke-miterlimit="10" stroke-linecap="round"/>
<path d="M83.5173 91.9058V121.359" stroke="#59221D" stroke-width="0.701071" stroke-miterlimit="10" stroke-linecap="round"/>
<path d="M77.9128 88.4119V121.359" stroke="#59221D" stroke-width="0.701071" stroke-miterlimit="10" stroke-linecap="round"/>
<path d="M68.3054 91.9058V121.164" stroke="#59221D" stroke-width="0.701071" stroke-miterlimit="10" stroke-linecap="round"/>
<path d="M62.6996 97.5886V121.164" stroke="#59221D" stroke-width="0.701071" stroke-miterlimit="10" stroke-linecap="round"/>
<path d="M57.0952 102.109V121.164" stroke="#59221D" stroke-width="0.701071" stroke-miterlimit="10" stroke-linecap="round"/>
<path d="M51.4894 105.973V121.164" stroke="#59221D" stroke-width="0.701071" stroke-miterlimit="10" stroke-linecap="round"/>
<path d="M45.8837 109.385V121.164" stroke="#59221D" stroke-width="0.701071" stroke-miterlimit="10" stroke-linecap="round"/>
<path d="M40.2792 112.375V121.165" stroke="#59221D" stroke-width="0.701071" stroke-miterlimit="10" stroke-linecap="round"/>
<path d="M34.6735 114.797V121.164" stroke="#59221D" stroke-width="0.701071" stroke-miterlimit="10" stroke-linecap="round"/>
<path d="M29.0678 117.146V121.164" stroke="#59221D" stroke-width="0.701071" stroke-miterlimit="10" stroke-linecap="round"/>
<path d="M23.4634 118.697V121.164" stroke="#59221D" stroke-width="0.701071" stroke-miterlimit="10" stroke-linecap="round"/>
<path d="M367.409 76.3308V121.299" stroke="#59221D" stroke-width="0.701071" stroke-miterlimit="10" stroke-linecap="round"/>
<path d="M373.085 82.4807V121.299" stroke="#59221D" stroke-width="0.701071" stroke-miterlimit="10" stroke-linecap="round"/>
<path d="M378.76 87.2329V121.299" stroke="#59221D" stroke-width="0.701071" stroke-miterlimit="10" stroke-linecap="round"/>
<path d="M384.436 91.0059V121.299" stroke="#59221D" stroke-width="0.701071" stroke-miterlimit="10" stroke-linecap="round"/>
<path d="M390.112 94.0808V121.299" stroke="#59221D" stroke-width="0.701071" stroke-miterlimit="10" stroke-linecap="round"/>
<path d="M395.788 96.4573V121.299" stroke="#59221D" stroke-width="0.701071" stroke-miterlimit="10" stroke-linecap="round"/>
<path d="M401.464 98.5535V121.299" stroke="#59221D" stroke-width="0.701071" stroke-miterlimit="10" stroke-linecap="round"/>
<path d="M407.14 99.95V121.299" stroke="#59221D" stroke-width="0.701071" stroke-miterlimit="10" stroke-linecap="round"/>
<path d="M412.814 100.929V121.299" stroke="#59221D" stroke-width="0.701071" stroke-miterlimit="10" stroke-linecap="round"/>
<path d="M418.49 101.628V121.299" stroke="#59221D" stroke-width="0.701071" stroke-miterlimit="10" stroke-linecap="round"/>
<path d="M424.166 101.907V121.299" stroke="#59221D" stroke-width="0.701071" stroke-miterlimit="10" stroke-linecap="round"/>
<path d="M429.842 101.907V121.299" stroke="#59221D" stroke-width="0.701071" stroke-miterlimit="10" stroke-linecap="round"/>
<path d="M435.518 101.209V121.299" stroke="#59221D" stroke-width="0.701071" stroke-miterlimit="10" stroke-linecap="round"/>
<path d="M441.194 100.09V121.299" stroke="#59221D" stroke-width="0.701071" stroke-miterlimit="10" stroke-linecap="round"/>
<path d="M446.869 98.6921V121.299" stroke="#59221D" stroke-width="0.701071" stroke-miterlimit="10" stroke-linecap="round"/>
<path d="M452.545 96.7363V121.299" stroke="#59221D" stroke-width="0.701071" stroke-miterlimit="10" stroke-linecap="round"/>
<path d="M458.221 94.4998V121.299" stroke="#59221D" stroke-width="0.701071" stroke-miterlimit="10" stroke-linecap="round"/>
<path d="M463.897 91.5652V121.299" stroke="#59221D" stroke-width="0.701071" stroke-miterlimit="10" stroke-linecap="round"/>
<path d="M469.436 88.0713V121.299" stroke="#59221D" stroke-width="0.701071" stroke-miterlimit="10" stroke-linecap="round"/>
<path d="M519.209 118.284V121.299" stroke="#59221D" stroke-width="0.701071" stroke-miterlimit="10" stroke-linecap="round"/>
<path d="M513.533 116.315V121.299" stroke="#59221D" stroke-width="0.701071" stroke-miterlimit="10" stroke-linecap="round"/>
<path d="M507.857 114.002V121.299" stroke="#59221D" stroke-width="0.701071" stroke-miterlimit="10" stroke-linecap="round"/>
<path d="M502.181 111.46V121.299" stroke="#59221D" stroke-width="0.701071" stroke-miterlimit="10" stroke-linecap="round"/>
<path d="M496.505 108.323V121.299" stroke="#59221D" stroke-width="0.701071" stroke-miterlimit="10" stroke-linecap="round"/>
<path d="M490.829 104.535V121.299" stroke="#59221D" stroke-width="0.701071" stroke-miterlimit="10" stroke-linecap="round"/>
<path d="M485.154 99.7563V121.299" stroke="#59221D" stroke-width="0.701071" stroke-miterlimit="10" stroke-linecap="round"/>
<path d="M479.615 94.1016V121.299" stroke="#59221D" stroke-width="0.701071" stroke-miterlimit="10" stroke-linecap="round"/>
<path d="M357.205 74.668V121.299" stroke="#59221D" stroke-width="0.701071" stroke-miterlimit="10" stroke-linecap="round"/>
<path d="M351.529 79.947V121.299" stroke="#59221D" stroke-width="0.701071" stroke-miterlimit="10" stroke-linecap="round"/>
<path d="M345.854 84.1841V121.299" stroke="#59221D" stroke-width="0.701071" stroke-miterlimit="10" stroke-linecap="round"/>
<path d="M340.178 87.6843V121.299" stroke="#59221D" stroke-width="0.701071" stroke-miterlimit="10" stroke-linecap="round"/>
<path d="M334.502 90.7424V121.299" stroke="#59221D" stroke-width="0.701071" stroke-miterlimit="10" stroke-linecap="round"/>
<path d="M328.826 93.4929V121.299" stroke="#59221D" stroke-width="0.701071" stroke-miterlimit="10" stroke-linecap="round"/>
<path d="M323.15 95.8123V121.299" stroke="#59221D" stroke-width="0.701071" stroke-miterlimit="10" stroke-linecap="round"/>
<path d="M317.474 98.1077V121.299" stroke="#59221D" stroke-width="0.701071" stroke-miterlimit="10" stroke-linecap="round"/>
<path d="M311.798 99.6836V121.299" stroke="#59221D" stroke-width="0.701071" stroke-miterlimit="10" stroke-linecap="round"/>
<path d="M306.123 101.11V121.299" stroke="#59221D" stroke-width="0.701071" stroke-miterlimit="10" stroke-linecap="round"/>
<path d="M300.447 102.378V121.299" stroke="#59221D" stroke-width="0.701071" stroke-miterlimit="10" stroke-linecap="round"/>
<path d="M294.771 103.359V121.299" stroke="#59221D" stroke-width="0.701071" stroke-miterlimit="10" stroke-linecap="round"/>
<path d="M289.095 104.029V121.299" stroke="#59221D" stroke-width="0.701071" stroke-miterlimit="10" stroke-linecap="round"/>
<path d="M283.419 104.966V121.299" stroke="#59221D" stroke-width="0.701071" stroke-miterlimit="10" stroke-linecap="round"/>
<path d="M277.743 104.908V121.299" stroke="#59221D" stroke-width="0.701071" stroke-miterlimit="10" stroke-linecap="round"/>
<path d="M183.365 75.6597V134.716" stroke="#59221D" stroke-width="0.701071" stroke-miterlimit="10" stroke-linecap="round"/>
<path d="M72.9844 84.9358V134.716" stroke="#59221D" stroke-width="0.701071" stroke-miterlimit="10" stroke-linecap="round"/>
<path d="M362.169 68.6455V134.716" stroke="#59221D" stroke-width="0.701071" stroke-miterlimit="10" stroke-linecap="round"/>
<path d="M473.939 84.9358V134.716" stroke="#59221D" stroke-width="0.701071" stroke-miterlimit="10" stroke-linecap="round"/>
<path d="M183.327 74.9487C198.992 96.5151 240.135 104.854 274.478 104.854" stroke="#59221D" stroke-width="0.701071" stroke-miterlimit="10" stroke-linecap="round"/>
<path d="M73.0221 84.8851C85.1997 94.3776 102.257 101.803 121.137 101.803C149.275 101.803 173.362 93.5896 183.286 75.0225" stroke="#59221D" stroke-width="0.701071" stroke-miterlimit="10" stroke-linecap="round"/>
<path d="M5.76569 121.233C33.8969 121.233 66.5681 99.1763 73.0068 84.894" stroke="#59221D" stroke-width="0.701071" stroke-miterlimit="10" stroke-linecap="round"/>
<path d="M362.207 68.5645C346.346 90.135 309.032 104.853 274.259 104.853" stroke="#59221D" stroke-width="0.701071" stroke-miterlimit="10" stroke-linecap="round"/>
<path d="M473.901 84.8853C461.563 94.3778 444.298 101.804 425.18 101.804C396.688 101.804 372.298 87.1736 362.249 68.6008" stroke="#59221D" stroke-width="0.701071" stroke-miterlimit="10" stroke-linecap="round"/>
<path d="M541.407 121.235C510.581 121.235 480.442 101.68 473.915 84.894" stroke="#59221D" stroke-width="0.701071" stroke-miterlimit="10" stroke-linecap="round"/>
<path d="M541.265 121.344H5.76569" stroke="#59221D" stroke-width="0.701071" stroke-miterlimit="10" stroke-linecap="round"/>
<path d="M60.135 121.344C67.2397 121.344 72.9997 127.255 72.9997 134.546" stroke="#59221D" stroke-width="0.701071" stroke-miterlimit="10" stroke-linecap="round"/>
<path d="M85.849 121.344C78.7444 121.344 72.9844 127.255 72.9844 134.546" stroke="#59221D" stroke-width="0.701071" stroke-miterlimit="10" stroke-linecap="round"/>
<path d="M170.624 121.344C177.728 121.344 183.488 127.255 183.488 134.546" stroke="#59221D" stroke-width="0.701071" stroke-miterlimit="10" stroke-linecap="round"/>
<path d="M196.338 121.344C189.233 121.344 183.473 127.255 183.473 134.546" stroke="#59221D" stroke-width="0.701071" stroke-miterlimit="10" stroke-linecap="round"/>
<path d="M460.919 121.344C468.113 121.344 473.945 127.255 473.945 134.546" stroke="#59221D" stroke-width="0.701071" stroke-miterlimit="10" stroke-linecap="round"/>
<path d="M486.955 121.344C479.762 121.344 473.929 127.255 473.929 134.546" stroke="#59221D" stroke-width="0.701071" stroke-miterlimit="10" stroke-linecap="round"/>
<path d="M349.158 121.344C356.351 121.344 362.184 127.255 362.184 134.546" stroke="#59221D" stroke-width="0.701071" stroke-miterlimit="10" stroke-linecap="round"/>
<path d="M375.195 121.344C368.001 121.344 362.169 127.255 362.169 134.546" stroke="#59221D" stroke-width="0.701071" stroke-miterlimit="10" stroke-linecap="round"/>
<path d="M35.613 318.958H574.649" stroke="#59221D" stroke-width="0.701071" stroke-miterlimit="10" stroke-linecap="round"/>
<path d="M132.362 328.127H343.763" stroke="#59221D" stroke-width="0.701071" stroke-miterlimit="10" stroke-linecap="round"/>
<path d="M192.762 153.354L179.391 213.297C178.844 215.75 177.478 217.943 175.517 219.515C173.556 221.087 171.118 221.943 168.605 221.943H109.485C108.475 221.943 107.478 221.716 106.567 221.279C105.657 220.842 104.856 220.206 104.225 219.418C103.593 218.63 103.146 217.71 102.918 216.727C102.689 215.743 102.685 214.721 102.905 213.735L116.277 153.792C116.824 151.34 118.19 149.147 120.151 147.575C122.112 146.004 124.549 145.148 127.062 145.148H186.183C187.193 145.148 188.19 145.374 189.1 145.811C190.01 146.248 190.811 146.884 191.443 147.672C192.074 148.46 192.521 149.38 192.749 150.363C192.977 151.347 192.982 152.369 192.762 153.354V153.354Z" fill="white"/>
<path d="M282.873 153.354L269.501 213.297C268.955 215.75 267.588 217.943 265.628 219.515C263.667 221.087 261.229 221.943 258.716 221.943H196.545C195.535 221.943 194.538 221.716 193.628 221.279C192.717 220.842 191.917 220.206 191.285 219.418C190.654 218.63 190.207 217.71 189.979 216.726C189.751 215.743 189.746 214.72 189.966 213.735L203.338 153.792C203.885 151.339 205.252 149.146 207.212 147.575C209.173 146.003 211.611 145.147 214.124 145.147H276.295C277.304 145.147 278.301 145.374 279.211 145.811C280.122 146.248 280.922 146.884 281.554 147.672C282.185 148.46 282.632 149.379 282.86 150.363C283.089 151.346 283.093 152.369 282.873 153.354V153.354Z" fill="white"/>
<path d="M377.808 221.943H289.848C288.638 221.943 287.443 221.671 286.352 221.147C285.261 220.624 284.302 219.861 283.545 218.917C282.788 217.973 282.253 216.871 281.98 215.692C281.706 214.513 281.701 213.288 281.965 212.107L294.974 153.792C295.521 151.339 296.887 149.146 298.848 147.575C300.809 146.003 303.247 145.147 305.759 145.147H339.3C341.178 145.147 343.021 145.656 344.633 146.619C346.246 147.581 347.568 148.963 348.459 150.616L382.595 213.924C384.548 217.546 381.925 221.943 377.808 221.943Z" fill="white"/>
<path d="M268.907 221.943V191.7C268.907 187.357 270.632 183.192 273.703 180.121C276.774 177.05 280.939 175.324 285.282 175.324H323.599C326.73 175.324 329.792 176.247 332.402 177.977C335.012 179.706 337.055 182.167 338.275 185.051L353.882 221.943H268.907Z" fill="white" stroke="#59221D" stroke-width="0.701071" stroke-miterlimit="10"/>
<path d="M352.035 218.475H269.256V217.634H351.679L352.035 218.475Z" fill="#7EBAD2"/>
<path d="M350.389 214.587H269.256V213.745H350.035L350.389 214.587Z" fill="#7EBAD2"/>
<path d="M348.745 210.699H269.256V209.857H348.388L348.745 210.699Z" fill="#7EBAD2"/>
<path d="M347.1 206.811H269.256V205.969H346.744L347.1 206.811Z" fill="#7EBAD2"/>
<path d="M345.455 202.922H269.256V202.081H345.099L345.455 202.922Z" fill="#7EBAD2"/>
<path d="M343.81 199.034H269.256V198.193H343.454L343.81 199.034Z" fill="#7EBAD2"/>
<path d="M342.166 195.146H269.256V194.305H341.81L342.166 195.146Z" fill="#7EBAD2"/>
<path d="M340.52 191.252H269.263C269.27 190.972 269.285 190.691 269.306 190.411H340.159L340.52 191.252Z" fill="#7EBAD2"/>
<path d="M338.876 187.371H269.85C269.929 187.091 270.017 186.81 270.113 186.53H338.52L338.876 187.371Z" fill="#7EBAD2"/>
<path d="M337.105 183.483H271.527C271.698 183.197 271.879 182.917 272.069 182.642H336.587C336.768 182.917 336.941 183.196 337.105 183.483Z" fill="#7EBAD2"/>
<path d="M333.941 179.595H274.79C275.131 179.3 275.483 179.019 275.847 178.754H332.915C333.266 179.019 333.608 179.3 333.941 179.595Z" fill="#7EBAD2"/>
<path d="M367.549 207.357L341.681 222.247" stroke="#FFD100" stroke-width="0.701071" stroke-miterlimit="10"/>
<path d="M367.455 222.265C368.148 220.628 368.63 218.91 368.889 217.151C370.284 207.897 364.617 200.17 356.231 199.895C347.845 199.62 339.917 206.906 338.522 216.16C338.206 218.181 338.243 220.242 338.631 222.251L367.455 222.265Z" stroke="#FFD100" stroke-width="0.701071" stroke-miterlimit="10"/>
<path d="M344.711 221.943H268.814C273.582 217.977 320.584 199.555 340.223 207.269C351.555 211.724 344.711 221.943 344.711 221.943Z" fill="#A74602"/>
<path d="M340.071 211.996C344.285 213.652 345.565 215.684 346.039 218.112" stroke="#59221D" stroke-width="0.701071" stroke-linecap="round" stroke-linejoin="round"/>
<path d="M338.547 216.266C342.76 217.922 344.181 219.533 344.655 221.961" stroke="#59221D" stroke-width="0.701071" stroke-linecap="round" stroke-linejoin="round"/>
<path d="M314.726 175.324V168.057L304.306 165.686L298.083 175.324L314.862 185.997L314.726 175.324Z" fill="#A74602"/>
<path d="M298.083 175.324L315.319 185.997" stroke="#59221D" stroke-width="0.701071" stroke-miterlimit="10" stroke-linecap="round"/>
<path d="M314.726 175.604V168.056L304.762 165.838C304.782 166.635 304.988 167.416 305.365 168.118C305.742 168.82 306.279 169.424 306.933 169.881L314.726 175.604Z" fill="#59221D"/>
<path d="M316.416 159.045C316.225 158.652 315.927 158.321 315.556 158.089C315.186 157.858 314.758 157.735 314.321 157.736H309.221C309.132 157.736 309.043 157.736 308.956 157.747C308.129 157.813 307.357 158.189 306.794 158.799C306.231 159.409 305.918 160.209 305.918 161.039V162.074C304.335 161.962 303.084 160.593 303.084 158.923C303.084 157.179 304.448 155.766 306.13 155.766C306.369 155.765 306.607 155.794 306.839 155.852C307.383 154.828 310.242 149.872 313.278 152.545C314.081 153.246 313.367 154.673 313.317 154.774C313.457 154.621 316.531 151.279 319.247 153.87C321.362 155.889 318.094 158.104 316.416 159.045Z" fill="#59221D"/>
<path d="M316.651 160.065V166.114C316.651 166.98 316.307 167.81 315.695 168.423C315.082 169.035 314.252 169.379 313.386 169.379H309.179C308.313 169.379 307.482 169.035 306.87 168.423C306.258 167.81 305.914 166.98 305.914 166.114V166.091H303.604C302.957 166.091 302.337 165.834 301.879 165.377C301.422 164.919 301.164 164.299 301.164 163.651V163.166C301.164 162.519 301.422 161.899 301.879 161.441C302.337 160.984 302.957 160.727 303.604 160.727H303.984C304.351 160.725 304.714 160.804 305.047 160.958C305.38 161.111 305.676 161.335 305.914 161.614V161.039C305.914 160.163 306.262 159.323 306.881 158.703C307.501 158.084 308.341 157.736 309.217 157.736H314.317C314.623 157.735 314.926 157.795 315.21 157.912C315.493 158.028 315.75 158.2 315.967 158.416C316.184 158.632 316.356 158.889 316.473 159.172C316.591 159.455 316.651 159.758 316.651 160.065V160.065Z" fill="#A74602"/>
<path d="M316.034 160.816C316.034 160.816 312.714 160.255 313.205 161.588C313.695 162.922 313.698 164.37 313.357 165.085" stroke="#59221D" stroke-width="0.701071" stroke-miterlimit="10" stroke-linecap="round"/>
<path d="M310.274 163.655C310.517 163.655 310.714 163.387 310.714 163.055C310.714 162.724 310.517 162.455 310.274 162.455C310.031 162.455 309.834 162.724 309.834 163.055C309.834 163.387 310.031 163.655 310.274 163.655Z" fill="#59221D"/>
<path d="M314.828 163.655C315.071 163.655 315.269 163.387 315.269 163.055C315.269 162.724 315.071 162.455 314.828 162.455C314.585 162.455 314.388 162.724 314.388 163.055C314.388 163.387 314.585 163.655 314.828 163.655Z" fill="#59221D"/>
<path d="M313.195 166.513C313.195 166.513 311.561 166.933 311.358 165.76" stroke="#59221D" stroke-width="0.701071" stroke-miterlimit="10" stroke-linecap="round"/>
<path d="M308.248 160.966C309.123 160.558 310.103 160.434 311.052 160.611" stroke="#59221D" stroke-width="0.701071" stroke-miterlimit="10" stroke-linecap="round"/>
<path d="M305.161 163.818C305.161 163.362 304.979 162.925 304.657 162.602C304.335 162.28 303.897 162.099 303.442 162.099" stroke="#59221D" stroke-width="0.701071" stroke-miterlimit="10" stroke-linecap="round"/>
<path d="M306.403 160.586C307.736 160.586 308.817 159.505 308.817 158.172C308.817 156.838 307.736 155.757 306.403 155.757C305.069 155.757 303.988 156.838 303.988 158.172C303.988 159.505 305.069 160.586 306.403 160.586Z" fill="#59221D"/>
<path d="M430.143 298.616C430.143 309.799 422.378 318.864 411.802 318.864H406.914C417.117 318.864 425.387 309.799 425.387 298.616C425.387 287.432 417.115 278.366 406.914 278.366H411.809C422.378 278.366 430.143 287.439 430.143 298.616Z" fill="white" stroke="#59221D" stroke-width="0.701071" stroke-miterlimit="10"/>
<path d="M406.915 318.865C417.118 318.865 425.389 309.799 425.389 298.616C425.389 287.432 417.118 278.366 406.915 278.366C396.713 278.366 388.442 287.432 388.442 298.616C388.442 309.799 396.713 318.865 406.915 318.865Z" fill="#A74602" stroke="#59221D" stroke-width="0.701071" stroke-miterlimit="10"/>
<path d="M406.914 311.048C413.098 311.048 418.112 305.553 418.112 298.774C418.112 291.995 413.098 286.5 406.914 286.5C400.73 286.5 395.717 291.995 395.717 298.774C395.717 305.553 400.73 311.048 406.914 311.048Z" stroke="#59221D" stroke-width="0.701071" stroke-miterlimit="10"/>
<path d="M452.106 251.684L391.495 221.945L350.085 145.15L348.555 142.31C347.283 139.928 345.388 137.936 343.072 136.547C340.755 135.158 338.105 134.425 335.405 134.425H121.557C118.168 134.424 114.879 135.579 112.234 137.699C109.589 139.819 107.746 142.777 107.007 146.085L74.3976 292.262H459.285V263.668C459.284 261.208 458.616 258.795 457.352 256.684C456.088 254.574 454.275 252.846 452.106 251.684V251.684ZM168.605 221.945H109.485C108.475 221.945 107.478 221.718 106.567 221.281C105.657 220.844 104.856 220.208 104.225 219.42C103.593 218.632 103.146 217.712 102.918 216.729C102.689 215.745 102.685 214.722 102.905 213.737L116.277 153.794C116.824 151.341 118.19 149.149 120.151 147.577C122.112 146.006 124.549 145.15 127.062 145.15H186.183C187.193 145.149 188.19 145.376 189.1 145.813C190.01 146.25 190.811 146.886 191.442 147.674C192.074 148.462 192.521 149.381 192.749 150.365C192.977 151.348 192.982 152.371 192.762 153.356L179.391 213.299C178.844 215.751 177.477 217.944 175.516 219.515C173.555 221.086 171.117 221.942 168.605 221.942V221.945ZM258.716 221.945H196.545C195.535 221.945 194.538 221.718 193.628 221.281C192.717 220.844 191.917 220.208 191.285 219.42C190.654 218.632 190.207 217.712 189.979 216.728C189.751 215.745 189.746 214.722 189.966 213.737L203.339 153.794C203.885 151.341 205.252 149.148 207.213 147.577C209.173 146.005 211.611 145.149 214.124 145.15H276.295C277.304 145.149 278.301 145.376 279.212 145.813C280.122 146.25 280.922 146.886 281.554 147.674C282.185 148.462 282.632 149.381 282.86 150.365C283.089 151.348 283.093 152.371 282.874 153.356L269.501 213.299C268.954 215.751 267.588 217.944 265.627 219.515C263.666 221.086 261.229 221.942 258.716 221.942V221.945ZM377.808 221.945H289.848C288.638 221.945 287.443 221.673 286.352 221.149C285.261 220.626 284.302 219.864 283.545 218.919C282.788 217.975 282.253 216.873 281.98 215.694C281.706 214.515 281.701 213.29 281.965 212.109L294.974 153.794C295.521 151.341 296.887 149.148 298.848 147.577C300.809 146.005 303.247 145.149 305.759 145.15H339.3C341.178 145.15 343.021 145.658 344.634 146.621C346.246 147.583 347.568 148.965 348.459 150.618L382.595 213.926C384.548 217.545 381.925 221.942 377.808 221.942V221.945Z" fill="#FFC200"/>
<path d="M469.401 295.363V298.868C469.401 299.69 469.074 300.479 468.493 301.06C467.911 301.641 467.123 301.968 466.3 301.968H67.3827C66.9755 301.968 66.5722 301.888 66.1959 301.733C65.8196 301.577 65.4777 301.348 65.1897 301.061C64.9017 300.773 64.6732 300.431 64.5173 300.055C64.3614 299.678 64.2812 299.275 64.2812 298.868V295.363C64.281 294.955 64.3611 294.552 64.5169 294.176C64.6727 293.799 64.9012 293.457 65.1893 293.17C65.4773 292.882 65.8193 292.653 66.1957 292.498C66.5721 292.342 66.9754 292.262 67.3827 292.262H466.3C466.708 292.262 467.111 292.342 467.487 292.498C467.863 292.654 468.205 292.882 468.493 293.17C468.781 293.458 469.009 293.8 469.165 294.176C469.321 294.552 469.401 294.955 469.401 295.363V295.363Z" fill="white" stroke="#59221D" stroke-width="0.701071" stroke-miterlimit="10"/>
<path d="M370.142 295.363V298.868C370.142 299.69 369.815 300.479 369.234 301.06C368.652 301.641 367.864 301.968 367.041 301.968H67.3827C66.9755 301.968 66.5722 301.888 66.1959 301.733C65.8196 301.577 65.4777 301.348 65.1897 301.061C64.9017 300.773 64.6732 300.431 64.5173 300.055C64.3614 299.678 64.2812 299.275 64.2812 298.868V295.363C64.281 294.955 64.3611 294.552 64.5169 294.176C64.6727 293.799 64.9012 293.457 65.1893 293.17C65.4773 292.882 65.8193 292.653 66.1957 292.498C66.5721 292.342 66.9754 292.262 67.3827 292.262H367.041C367.449 292.262 367.852 292.342 368.228 292.498C368.604 292.654 368.946 292.882 369.234 293.17C369.522 293.458 369.75 293.8 369.906 294.176C370.062 294.552 370.142 294.955 370.142 295.363Z" fill="white" stroke="#59221D" stroke-width="0.701071" stroke-miterlimit="10"/>
<path d="M450.912 274.506C455.514 274.506 459.245 269.603 459.245 263.554C459.245 257.505 455.514 252.602 450.912 252.602C446.31 252.602 442.579 257.505 442.579 263.554C442.579 269.603 446.31 274.506 450.912 274.506Z" fill="white"/>
<path d="M449.531 273.035C454.298 273.035 458.162 268.279 458.162 262.412C458.162 256.546 454.298 251.79 449.531 251.79C444.764 251.79 440.899 256.546 440.899 262.412C440.899 268.279 444.764 273.035 449.531 273.035Z" stroke="#59221D" stroke-width="0.701071" stroke-miterlimit="10" stroke-linecap="round"/>
<path d="M449.074 251.79H446.634C441.867 251.79 438.002 256.546 438.002 262.412C438.002 268.279 441.867 273.035 446.634 273.035H449.074" stroke="#59221D" stroke-width="0.701071" stroke-miterlimit="10" stroke-linecap="round"/>
<path d="M371.462 274.506C376.065 274.506 379.795 269.603 379.795 263.554C379.795 257.505 376.065 252.602 371.462 252.602C366.86 252.602 363.13 257.505 363.13 263.554C363.13 269.603 366.86 274.506 371.462 274.506Z" fill="white"/>
<path d="M370.081 273.035C374.848 273.035 378.713 268.279 378.713 262.412C378.713 256.546 374.848 251.79 370.081 251.79C365.314 251.79 361.45 256.546 361.45 262.412C361.45 268.279 365.314 273.035 370.081 273.035Z" stroke="#59221D" stroke-width="0.701071" stroke-miterlimit="10" stroke-linecap="round"/>
<path d="M369.624 251.79H367.184C362.417 251.79 358.553 256.546 358.553 262.413C358.553 268.279 362.417 273.035 367.184 273.035H369.624" stroke="#59221D" stroke-width="0.701071" stroke-miterlimit="10" stroke-linecap="round"/>
<path d="M354.23 292.263V263.669C354.23 261.209 353.562 258.795 352.299 256.684C351.035 254.573 349.222 252.844 347.054 251.682L292.947 226.496" stroke="#59221D" stroke-width="0.701071" stroke-miterlimit="10" stroke-linecap="round"/>
<path d="M168.397 286.102L200.036 144.394C200.22 143.575 200.677 142.842 201.332 142.316C201.988 141.791 202.803 141.505 203.643 141.505H285.069C285.756 141.505 286.433 141.66 287.052 141.957C287.671 142.254 288.215 142.687 288.644 143.222C289.073 143.758 289.377 144.383 289.532 145.052C289.688 145.72 289.691 146.415 289.542 147.085L258.504 286.098" stroke="#59221D" stroke-width="0.701071" stroke-miterlimit="10" stroke-linecap="round"/>
<path d="M170.821 226.496H105.392" stroke="#59221D" stroke-width="0.701071" stroke-miterlimit="10" stroke-linecap="round"/>
<path d="M108.852 141.505H348.555" stroke="#59221D" stroke-width="0.701071" stroke-miterlimit="10" stroke-linecap="round"/>
<path d="M383.399 259.885H435.027" stroke="#59221D" stroke-width="0.701071" stroke-miterlimit="10" stroke-linecap="round"/>
<path d="M302.441 226.496H386.437" stroke="#59221D" stroke-width="0.701071" stroke-miterlimit="10" stroke-linecap="round"/>
<path d="M87.9647 284.916C93.384 272.269 105.433 263.463 119.425 263.463C133.903 263.463 146.298 272.884 151.424 286.241H272.411C277.161 272.255 289.726 263.463 303.718 263.463C318.196 263.463 330.591 272.884 335.716 286.241" stroke="#59221D" stroke-width="0.701071" stroke-miterlimit="10" stroke-linecap="round"/>
<path d="M427.258 264.742H391.168C389.71 264.742 388.528 265.924 388.528 267.382V282.337C388.528 283.795 389.71 284.977 391.168 284.977H427.258C428.716 284.977 429.898 283.795 429.898 282.337V267.382C429.898 265.924 428.716 264.742 427.258 264.742Z" stroke="white" stroke-width="0.841285" stroke-miterlimit="10" stroke-linecap="round"/>
<path d="M394.327 270.408H424.097" stroke="#59221D" stroke-width="0.701071" stroke-miterlimit="10" stroke-linecap="round"/>
<path d="M394.327 275.135H424.097" stroke="#59221D" stroke-width="0.701071" stroke-miterlimit="10" stroke-linecap="round"/>
<path d="M394.327 279.861H424.097" stroke="#59221D" stroke-width="0.701071" stroke-miterlimit="10" stroke-linecap="round"/>
<path d="M146.489 292.263H92.366C95.2222 279.55 106.256 270.073 119.427 270.073C132.599 270.073 143.633 279.55 146.489 292.263Z" fill="#59221D"/>
<path d="M140.185 298.724C140.185 309.907 132.418 318.973 121.842 318.973H116.955C127.157 318.973 135.429 309.907 135.429 298.724C135.429 287.54 127.156 278.474 116.955 278.474H121.846C132.418 278.474 140.185 287.54 140.185 298.724Z" fill="#A74602" stroke="#59221D" stroke-width="0.701071" stroke-miterlimit="10"/>
<path d="M116.955 318.973C127.158 318.973 135.429 309.907 135.429 298.724C135.429 287.54 127.158 278.474 116.955 278.474C106.753 278.474 98.4821 287.54 98.4821 298.724C98.4821 309.907 106.753 318.973 116.955 318.973Z" fill="white" stroke="#59221D" stroke-width="0.701071" stroke-miterlimit="10"/>
<path d="M118.298 312.378C124.483 312.378 129.496 306.882 129.496 300.103C129.496 293.325 124.483 287.829 118.298 287.829C112.114 287.829 107.101 293.325 107.101 300.103C107.101 306.882 112.114 312.378 118.298 312.378Z" fill="#A74602"/>
<path d="M116.955 311.156C123.139 311.156 128.153 305.661 128.153 298.882C128.153 292.103 123.139 286.608 116.955 286.608C110.771 286.608 105.758 292.103 105.758 298.882C105.758 305.661 110.771 311.156 116.955 311.156Z" stroke="#59221D" stroke-width="0.701071" stroke-miterlimit="10"/>
<path d="M116.924 300.698C117.931 300.698 118.747 299.882 118.747 298.875C118.747 297.868 117.931 297.052 116.924 297.052C115.918 297.052 115.102 297.868 115.102 298.875C115.102 299.882 115.918 300.698 116.924 300.698Z" stroke="#59221D" stroke-width="0.701071" stroke-miterlimit="10"/>
<path d="M330.782 292.263H276.659C279.515 279.549 290.549 270.072 303.721 270.072C316.892 270.072 327.926 279.549 330.782 292.263Z" fill="#59221D"/>
<path d="M324.478 298.724C324.478 309.907 316.711 318.973 306.135 318.973H301.249C311.451 318.973 319.722 309.907 319.722 298.724C319.722 287.54 311.449 278.474 301.249 278.474H306.135C316.711 278.474 324.478 287.54 324.478 298.724Z" fill="#A74602" stroke="#59221D" stroke-width="0.701071" stroke-miterlimit="10"/>
<path d="M301.249 318.973C311.451 318.973 319.722 309.907 319.722 298.724C319.722 287.54 311.451 278.474 301.249 278.474C291.046 278.474 282.775 287.54 282.775 298.724C282.775 309.907 291.046 318.973 301.249 318.973Z" fill="white" stroke="#59221D" stroke-width="0.701071" stroke-miterlimit="10"/>
<path d="M302.592 312.378C308.776 312.378 313.789 306.882 313.789 300.103C313.789 293.325 308.776 287.829 302.592 287.829C296.408 287.829 291.394 293.325 291.394 300.103C291.394 306.882 296.408 312.378 302.592 312.378Z" fill="#A74602"/>
<path d="M301.249 311.156C307.433 311.156 312.446 305.661 312.446 298.882C312.446 292.103 307.433 286.608 301.249 286.608C295.064 286.608 290.051 292.103 290.051 298.882C290.051 305.661 295.064 311.156 301.249 311.156Z" stroke="#59221D" stroke-width="0.701071" stroke-miterlimit="10"/>
<path d="M301.218 300.698C302.224 300.698 303.04 299.882 303.04 298.875C303.04 297.868 302.224 297.052 301.218 297.052C300.211 297.052 299.395 297.868 299.395 298.875C299.395 299.882 300.211 300.698 301.218 300.698Z" stroke="#59221D" stroke-width="0.701071" stroke-miterlimit="10"/>
<path d="M300.838 110.503V130.013C300.838 130.592 300.724 131.165 300.502 131.7C300.28 132.235 299.955 132.722 299.546 133.131C299.136 133.541 298.65 133.865 298.115 134.087C297.58 134.309 297.007 134.423 296.428 134.423H154.287C153.708 134.423 153.135 134.309 152.6 134.087C152.065 133.865 151.579 133.54 151.169 133.131C150.76 132.721 150.435 132.235 150.214 131.7C149.993 131.165 149.879 130.592 149.879 130.013V110.502C149.879 109.923 149.993 109.35 150.214 108.815C150.435 108.28 150.76 107.794 151.17 107.385C151.579 106.975 152.065 106.65 152.6 106.429C153.135 106.207 153.708 106.094 154.287 106.094H296.426C297.596 106.094 298.718 106.558 299.545 107.385C300.372 108.212 300.837 109.334 300.838 110.503V110.503Z" fill="#7EBAD2"/>
<path d="M300.838 110.503V130.013C300.838 130.592 300.724 131.165 300.502 131.7C300.28 132.235 299.956 132.722 299.546 133.131C299.137 133.541 298.65 133.865 298.115 134.087C297.58 134.309 297.007 134.423 296.428 134.423H247.447C246.278 134.422 245.156 133.957 244.33 133.131C243.503 132.304 243.039 131.182 243.039 130.013V110.502C243.039 109.333 243.503 108.212 244.33 107.385C245.156 106.558 246.278 106.094 247.447 106.094H296.427C297.596 106.094 298.718 106.558 299.545 107.385C300.372 108.212 300.837 109.334 300.838 110.503V110.503Z" fill="#A74602"/>
<path d="M299.002 111.701V128.815C299.002 130.952 297.164 132.684 294.895 132.684H249.285C247.018 132.684 245.18 130.952 245.18 128.815V111.699C245.18 109.562 247.018 107.831 249.285 107.831H294.894C297.163 107.825 299.002 109.564 299.002 111.701Z" stroke="#7EBAD2" stroke-width="0.701071" stroke-miterlimit="10" stroke-linecap="round"/>
<path d="M245.169 120.181H298.554" stroke="#7EBAD2" stroke-width="0.701071" stroke-miterlimit="10" stroke-linecap="round"/>
<path d="M267.268 47.7153H267.528C267.923 47.7153 268.302 47.8722 268.581 48.1515C268.861 48.4307 269.017 48.8095 269.017 49.2044V58.0379H265.78V49.2044C265.78 48.8095 265.937 48.4307 266.216 48.1515C266.495 47.8722 266.874 47.7153 267.269 47.7153H267.268Z" stroke="#59221D" stroke-width="0.701071" stroke-miterlimit="10" stroke-linecap="round"/>
<path d="M257.235 57.5793H277.364C278.413 57.5793 279.418 57.9958 280.159 58.737C280.901 59.4783 281.317 60.4837 281.317 61.532V106.093H253.283V61.532C253.283 60.4837 253.699 59.4783 254.44 58.737C255.182 57.9958 256.187 57.5793 257.235 57.5793V57.5793Z" fill="#59221D"/>
<path d="M281.316 61.532V62.3158L267.788 75.4454V106.093H267.087V75.4202L253.283 62.3032V61.532C253.283 61.4675 253.283 61.4044 253.283 61.3413L267.087 74.4541V57.5793H267.788V74.4681L281.31 61.3441C281.314 61.4058 281.316 61.4689 281.316 61.532Z" fill="white"/>
<path d="M271.593 134.422V124.709" stroke="#59221D" stroke-width="0.701071" stroke-miterlimit="10"/>
<path d="M129.642 134.422V124.709" stroke="#59221D" stroke-width="0.701071" stroke-miterlimit="10"/>
<path d="M328.16 134.422V124.709" stroke="#59221D" stroke-width="0.701071" stroke-miterlimit="10"/>
<path d="M121.802 124.709H333.47" stroke="#59221D" stroke-width="0.701071" stroke-miterlimit="10" stroke-linecap="round"/>
<path d="M175.751 73.512H247.849C249.29 73.512 250.671 74.0838 251.69 75.1018C252.709 76.1199 253.282 77.5008 253.283 78.9411V106.094H170.814V78.4489C170.814 77.8006 170.942 77.1586 171.19 76.5596C171.438 75.9606 171.802 75.4164 172.26 74.958C172.719 74.4995 173.263 74.1359 173.862 73.8878C174.461 73.6397 175.103 73.512 175.751 73.512V73.512Z" fill="#FFC200"/>
<path d="M252.978 106.094V78.9034C252.978 77.5556 252.443 76.2629 251.491 75.3094C250.538 74.3558 249.246 73.8194 247.898 73.8179H241.904C240.48 73.8179 239.115 74.3835 238.108 75.3904C237.101 76.3972 236.536 77.7628 236.536 79.1867V106.094" stroke="white" stroke-width="0.701071" stroke-miterlimit="10"/>
<path d="M175.42 73.512V106.094" stroke="white" stroke-width="0.701071" stroke-miterlimit="10"/>
<path d="M180.147 73.512V106.094" stroke="white" stroke-width="0.701071" stroke-miterlimit="10"/>
<path d="M184.874 73.512V106.094" stroke="white" stroke-width="0.701071" stroke-miterlimit="10"/>
<path d="M189.6 73.512V106.094" stroke="white" stroke-width="0.701071" stroke-miterlimit="10"/>
<path d="M194.327 73.512V106.094" stroke="white" stroke-width="0.701071" stroke-miterlimit="10"/>
<path d="M199.053 73.512V106.094" stroke="white" stroke-width="0.701071" stroke-miterlimit="10"/>
<path d="M203.78 73.512V106.094" stroke="white" stroke-width="0.701071" stroke-miterlimit="10"/>
<path d="M208.507 73.512V106.094" stroke="white" stroke-width="0.701071" stroke-miterlimit="10"/>
<path d="M213.233 73.512V106.094" stroke="white" stroke-width="0.701071" stroke-miterlimit="10"/>
<path d="M217.96 73.512V106.094" stroke="white" stroke-width="0.701071" stroke-miterlimit="10"/>
<path d="M222.687 73.512V106.094" stroke="white" stroke-width="0.701071" stroke-miterlimit="10"/>
<path d="M227.413 73.512V106.094" stroke="white" stroke-width="0.701071" stroke-miterlimit="10"/>
<path d="M232.14 73.512V106.094" stroke="white" stroke-width="0.701071" stroke-miterlimit="10"/>
<path d="M170.814 101.695H236.15" stroke="white" stroke-width="0.701071" stroke-miterlimit="10"/>
<path d="M170.814 96.9683H236.15" stroke="white" stroke-width="0.701071" stroke-miterlimit="10"/>
<path d="M170.814 92.2417H236.15" stroke="white" stroke-width="0.701071" stroke-miterlimit="10"/>
<path d="M170.814 87.5151H236.15" stroke="white" stroke-width="0.701071" stroke-miterlimit="10"/>
<path d="M170.814 82.7888H236.15" stroke="white" stroke-width="0.701071" stroke-miterlimit="10"/>
<path d="M170.814 78.0615H236.607" stroke="white" stroke-width="0.701071" stroke-miterlimit="10"/>
<path d="M244.753 73.8179V106.094" stroke="white" stroke-width="0.701071" stroke-miterlimit="10"/>
<path d="M218.417 67.3218H218.838C219.481 67.3218 220.098 67.5773 220.553 68.0323C221.008 68.4872 221.263 69.1041 221.263 69.7475V70.1681C221.263 70.8115 221.008 71.4285 220.553 71.8834C220.098 72.3383 219.481 72.5938 218.838 72.5938H215.987V69.7475C215.987 69.4286 216.05 69.1128 216.172 68.8182C216.294 68.5237 216.473 68.2561 216.699 68.0308C216.925 67.8055 217.193 67.6269 217.487 67.5052C217.782 67.3836 218.098 67.3212 218.417 67.3218Z" stroke="#59221D" stroke-width="0.701071" stroke-miterlimit="10" stroke-linecap="round"/>
<path d="M212.378 65.1633H212.915C213.731 65.1633 214.513 65.4873 215.089 66.0639C215.666 66.6406 215.99 67.4227 215.99 68.2382V72.5975H212.378C211.563 72.5975 210.78 72.2735 210.204 71.6969C209.627 71.1202 209.303 70.3381 209.303 69.5226V68.2382C209.303 67.4227 209.627 66.6406 210.204 66.0639C210.78 65.4873 211.563 65.1633 212.378 65.1633V65.1633Z" stroke="#59221D" stroke-width="0.701071" stroke-miterlimit="10" stroke-linecap="round"/>
<path d="M215.991 72.5979C214.31 72.5978 212.673 73.1379 211.322 74.1386C209.972 75.1393 208.978 76.5477 208.488 78.156L194.599 124.707" stroke="#59221D" stroke-width="0.701071" stroke-miterlimit="10" stroke-linecap="round"/>
<path d="M396.129 206.883C399.676 206.883 402.551 202.893 402.551 197.971C402.551 193.049 399.676 189.059 396.129 189.059C392.582 189.059 389.707 193.049 389.707 197.971C389.707 202.893 392.582 206.883 396.129 206.883Z" fill="#FFC200"/>
<path d="M394.567 206.059C398.113 206.059 400.989 202.069 400.989 197.147C400.989 192.225 398.113 188.235 394.567 188.235C391.02 188.235 388.145 192.225 388.145 197.147C388.145 202.069 391.02 206.059 394.567 206.059Z" stroke="#59221D" stroke-width="0.701071" stroke-miterlimit="10" stroke-linecap="round"/>
<path d="M389.111 217.034C389.113 210.034 391.711 203.285 396.402 198.091" stroke="#59221D" stroke-width="0.701071" stroke-miterlimit="10" stroke-linecap="round"/>
<path d="M211.708 182.317L246.184 176.586L256.202 201.504C256.931 203.318 257.125 205.302 256.758 207.223C256.392 209.143 255.482 210.917 254.137 212.335L252.414 214.158V221.95H211.191L211.708 182.317Z" fill="#59221D"/>
<path d="M254.137 212.335C255.482 210.917 256.392 209.142 256.758 207.222C257.125 205.302 256.931 203.317 256.202 201.503L246.184 176.586C248.598 176.185 251.078 176.576 253.252 177.701C255.425 178.826 257.176 180.625 258.242 182.828L269.049 205.164C272.803 212.927 267.149 221.942 258.532 221.942H252.414V214.151L254.137 212.335Z" fill="#A74602"/>
<path d="M210.766 182.45C208.772 182.788 206.888 183.6 205.273 184.818C203.658 186.035 202.36 187.623 201.486 189.448L191.655 209.996C183.838 226.332 201.367 243.189 217.385 234.74L241.642 221.942H268.019C268.592 221.942 269.142 221.715 269.547 221.309C269.952 220.904 270.18 220.355 270.18 219.782V219.782C270.18 219.381 270.069 218.989 269.859 218.649C269.649 218.308 269.349 218.032 268.991 217.852L257.17 211.895C253.051 209.819 248.503 208.739 243.891 208.738H218.427L218.747 189.303C218.763 188.299 218.558 187.304 218.147 186.388C217.735 185.472 217.126 184.658 216.365 184.004C215.603 183.349 214.706 182.871 213.738 182.602C212.771 182.334 211.756 182.282 210.766 182.45V182.45Z" fill="#A74602"/>
<path d="M268.019 221.485C269.213 221.485 270.18 220.975 270.18 219.782C270.18 219.381 270.069 218.989 269.859 218.648C269.649 218.308 269.349 218.032 268.991 217.852L257.17 211.895C253.051 209.819 248.503 208.738 243.891 208.738H222.432C218.512 208.738 214.664 209.789 211.287 211.78" stroke="#59221D" stroke-width="0.701071" stroke-miterlimit="10" stroke-linecap="round"/>
<path d="M238.598 217.977C238.598 218.907 238.967 219.798 239.625 220.456C240.282 221.113 241.174 221.482 242.104 221.482" stroke="#59221D" stroke-width="0.701071" stroke-miterlimit="10" stroke-linecap="round"/>
<path d="M255.617 215.447L264.451 219.065C264.931 219.262 265.341 219.597 265.63 220.028C265.919 220.459 266.073 220.966 266.073 221.485" stroke="#59221D" stroke-width="0.701071" stroke-miterlimit="10" stroke-linecap="round"/>
<path d="M249.766 216.235L256.673 219.065C257.153 219.262 257.564 219.597 257.853 220.028C258.142 220.459 258.296 220.966 258.296 221.485" stroke="#59221D" stroke-width="0.701071" stroke-miterlimit="10" stroke-linecap="round"/>
<path d="M246.684 176.515L228.848 179.475C227.154 186.626 220.795 191.037 213.768 188.614C198.484 183.345 224.746 162.182 229.254 158.249C234.075 154.043 240.472 153.922 241.951 157.699C243.321 161.187 240.479 162.747 238.445 163.036C238.67 164.648 240.23 174.235 246.684 176.515Z" fill="#FFC200"/>
<path d="M237.123 170.857V179.175C237.123 180.415 236.631 181.604 235.754 182.48C234.877 183.357 233.688 183.85 232.449 183.85V183.85C231.209 183.85 230.02 183.357 229.143 182.48C228.266 181.604 227.774 180.415 227.774 179.175V166.8L237.123 170.857Z" fill="#A74602"/>
<path d="M227.774 166.8L237.123 170.857V178.108L231.457 174.555C230.306 173.617 229.378 172.434 228.741 171.093C228.104 169.751 227.774 168.285 227.774 166.8V166.8Z" fill="#59221D"/>
<path d="M238.106 163.028V168.661C238.106 169.143 238.011 169.62 237.827 170.066C237.643 170.511 237.372 170.915 237.032 171.256C236.691 171.597 236.286 171.867 235.841 172.052C235.396 172.236 234.919 172.331 234.437 172.331H233.587C232.594 172.331 231.618 172.078 230.751 171.594C229.885 171.109 229.156 170.411 228.636 169.566H226.093C225.455 169.551 224.848 169.286 224.403 168.83C223.957 168.373 223.707 167.761 223.707 167.123C223.707 166.485 223.957 165.872 224.403 165.415C224.848 164.959 225.455 164.695 226.093 164.679H226.855C227.216 164.678 227.568 164.791 227.861 165L232.097 160.157C234.789 163.193 238.106 163.028 238.106 163.028Z" fill="#A74602"/>
<path d="M227.37 167.475C227.37 167.057 227.204 166.656 226.908 166.361C226.613 166.065 226.212 165.899 225.794 165.899" stroke="#59221D" stroke-width="0.701071" stroke-miterlimit="10" stroke-linecap="round"/>
<path d="M237.803 163.755C237.803 163.755 236.362 163.597 235.42 164.668C234.814 165.358 234.789 167.052 235.573 168.165" stroke="#59221D" stroke-width="0.701071" stroke-miterlimit="10" stroke-linecap="round"/>
<path d="M232.493 166.735C232.737 166.735 232.934 166.466 232.934 166.135C232.934 165.803 232.737 165.534 232.493 165.534C232.25 165.534 232.053 165.803 232.053 166.135C232.053 166.466 232.25 166.735 232.493 166.735Z" fill="#59221D"/>
<path d="M236.591 166.735C236.834 166.735 237.031 166.466 237.031 166.135C237.031 165.803 236.834 165.534 236.591 165.534C236.347 165.534 236.15 165.803 236.15 166.135C236.15 166.466 236.347 166.735 236.591 166.735Z" fill="#59221D"/>
<path d="M235.42 169.592C235.42 169.592 233.786 170.013 233.583 168.839" stroke="#59221D" stroke-width="0.701071" stroke-miterlimit="10" stroke-linecap="round"/>
<path d="M230.467 164.347C230.467 164.347 231.707 163.385 233.272 163.688" stroke="#59221D" stroke-width="0.701071" stroke-miterlimit="10" stroke-linecap="round"/>
<path d="M185.608 185.426L179.323 213.548C178.809 215.843 177.556 217.907 175.755 219.421C173.954 220.935 171.706 221.815 169.356 221.925C169.189 221.925 169.02 221.938 168.85 221.938H109.281C108.283 221.938 107.298 221.713 106.399 221.281C105.499 220.848 104.709 220.219 104.086 219.439C103.463 218.659 103.023 217.749 102.8 216.776C102.576 215.804 102.575 214.793 102.795 213.82L106.142 199.045C107.017 195.179 109.18 191.724 112.277 189.25C115.374 186.775 119.221 185.427 123.185 185.426H185.608Z" fill="#7EBAD2"/>
<path d="M115.137 221.942C119.764 213.277 130.165 207.24 142.249 207.24C154.332 207.24 164.262 213.269 168.899 221.93L115.137 221.942Z" fill="white"/>
<path d="M153.874 209.262L150.382 221.934V221.943H149.666V221.934L150.043 208.119C151.343 208.419 152.622 208.801 153.874 209.262V209.262Z" fill="#59221D"/>
<path d="M168.966 201.402V221.942H150.35L156.083 201.402C156.083 202.586 158.944 203.545 162.474 203.545C166.005 203.545 168.544 202.507 168.966 201.402Z" fill="white"/>
<path d="M168.966 201.402C168.546 202.507 166.004 203.545 162.475 203.545C158.945 203.545 156.084 202.586 156.084 201.402V192.569C156.084 192.569 157.065 192.189 158.275 193.682C159.485 195.175 160.378 194.644 160.931 193.402C161.549 192.025 163.816 185.409 167.002 185.409C169.592 185.409 169.246 190.54 169.097 192.047C169.095 192.071 169.101 192.095 169.114 192.116C169.127 192.136 169.146 192.152 169.168 192.16C169.191 192.169 169.216 192.17 169.239 192.164C169.262 192.157 169.283 192.143 169.297 192.124C169.754 191.526 170.733 190.332 171.227 190.409C171.884 190.524 169.168 200.876 168.966 201.402Z" fill="#A74602"/>
<path d="M166.147 185.949L163.815 193.282" stroke="#59221D" stroke-width="0.701071" stroke-miterlimit="10" stroke-linecap="round"/>
<path d="M167.977 186.419L165.798 193.588" stroke="#59221D" stroke-width="0.701071" stroke-miterlimit="10" stroke-linecap="round"/>
<path d="M169.17 192.161L168.613 193.839" stroke="#59221D" stroke-width="0.701071" stroke-miterlimit="10" stroke-linecap="round"/>
<path d="M136.749 204.1H146.572V207.246C146.572 208.462 146.09 209.628 145.23 210.487C144.37 211.347 143.205 211.83 141.989 211.83H141.335C140.12 211.83 138.954 211.347 138.094 210.487C137.235 209.628 136.752 208.462 136.752 207.246V204.1H136.749Z" fill="#A74602"/>
<path d="M136.749 204.1H146.572V207.279C146.573 207.955 146.422 208.623 146.131 209.234C145.839 209.844 145.416 210.382 144.89 210.808L139.66 208.543C138.794 208.167 138.058 207.546 137.541 206.756C137.024 205.967 136.748 205.044 136.749 204.1V204.1Z" fill="#59221D"/>
<path d="M136.763 201.537C136.763 201.655 136.81 201.768 136.893 201.852C136.977 201.935 137.09 201.982 137.208 201.983H137.447C137.566 201.983 137.679 201.936 137.763 201.852C137.846 201.769 137.893 201.655 137.893 201.537V201.014C137.893 200.379 138.018 199.75 138.262 199.163C138.505 198.576 138.861 198.043 139.31 197.594C139.759 197.145 140.293 196.789 140.88 196.546C141.466 196.303 142.095 196.178 142.731 196.178H148.085L148.422 202.363C148.454 202.948 148.366 203.534 148.164 204.084C147.962 204.634 147.65 205.137 147.247 205.563C146.844 205.988 146.359 206.327 145.82 206.559C145.282 206.79 144.702 206.91 144.116 206.91H141.134C140.402 206.91 139.682 206.724 139.042 206.369C138.402 206.014 137.863 205.502 137.475 204.881H134.727C134.415 204.881 134.106 204.819 133.818 204.699C133.53 204.579 133.268 204.403 133.048 204.182C132.828 203.96 132.654 203.697 132.537 203.408C132.419 203.119 132.359 202.81 132.362 202.497C132.377 201.866 132.64 201.265 133.094 200.826C133.548 200.386 134.157 200.143 134.789 200.149H135.374C135.741 200.149 136.094 200.295 136.355 200.554C136.615 200.814 136.762 201.166 136.763 201.534V201.537Z" fill="#A74602"/>
<path d="M137.893 201.537C137.893 201.655 137.846 201.769 137.763 201.852C137.679 201.936 137.566 201.983 137.447 201.983H137.208C137.09 201.982 136.976 201.935 136.893 201.852C136.81 201.768 136.763 201.655 136.763 201.537C136.763 201.17 136.617 200.817 136.357 200.558C136.097 200.298 135.745 200.152 135.378 200.152L135.058 197.86C135.058 195.914 136.453 194.337 138.174 194.337C138.495 194.337 138.814 194.392 139.116 194.501C139.406 192.867 140.768 191.629 142.404 191.629C143.151 191.63 143.874 191.891 144.45 192.367C144.687 191.583 145.169 190.896 145.825 190.407C146.481 189.917 147.277 189.651 148.095 189.647C150.198 189.647 151.912 191.394 151.912 193.55C151.912 195.707 150.203 197.454 148.095 197.454C147.561 197.453 147.033 197.339 146.547 197.119C146.06 196.899 145.626 196.578 145.273 196.178H142.738C141.491 196.177 140.292 196.658 139.391 197.52C138.49 198.382 137.958 199.559 137.904 200.805L137.893 201.537Z" fill="#FFC200"/>
<path d="M135.835 202.31C135.785 202.018 135.634 201.754 135.408 201.563C135.182 201.372 134.896 201.267 134.601 201.266" stroke="#59221D" stroke-width="0.701071" stroke-miterlimit="10" stroke-linecap="round"/>
<path d="M147.712 198.892C147.712 198.892 146.353 198.307 145.341 199.512C144.749 200.213 144.463 201.982 145.037 202.856" stroke="#59221D" stroke-width="0.701071" stroke-miterlimit="10" stroke-linecap="round"/>
<path d="M142.258 201.732C142.501 201.732 142.698 201.463 142.698 201.132C142.698 200.8 142.501 200.531 142.258 200.531C142.015 200.531 141.818 200.8 141.818 201.132C141.818 201.463 142.015 201.732 142.258 201.732Z" fill="#59221D"/>
<path d="M146.354 201.732C146.597 201.732 146.794 201.463 146.794 201.132C146.794 200.8 146.597 200.531 146.354 200.531C146.11 200.531 145.913 200.8 145.913 201.132C145.913 201.463 146.11 201.732 146.354 201.732Z" fill="#59221D"/>
<path d="M144.873 204.432C144.873 204.432 143.352 204.584 143.036 203.831" stroke="#59221D" stroke-width="0.701071" stroke-miterlimit="10" stroke-linecap="round"/>
<path d="M140.383 199.648C140.383 199.648 141.024 198.678 142.735 198.685" stroke="#59221D" stroke-width="0.701071" stroke-miterlimit="10" stroke-linecap="round"/>
<path d="M428.061 42.3503C439.64 42.3503 449.026 32.964 449.026 21.3855C449.026 9.80692 439.64 0.420654 428.061 0.420654C416.483 0.420654 407.096 9.80692 407.096 21.3855C407.096 32.964 416.483 42.3503 428.061 42.3503Z" stroke="#FFC200" stroke-width="0.841285" stroke-miterlimit="10"/>
</g>
<defs>
<clipPath id="clip0">
<rect width="575" height="328.477" fill="white"/>
</clipPath>
</defs>
</svg>
