<svg width="686" height="390" viewBox="0 0 686 390" fill="none" xmlns="http://www.w3.org/2000/svg">
<path d="M180.048 297.256L17.1361 389.486H666.694L439.515 296.471L180.048 297.256Z" fill="#CEE4ED"/>
<path d="M152.542 304.819L4.38536 387.719" stroke="#59221D" stroke-width="0.810602" stroke-miterlimit="10" stroke-linecap="round"/>
<path d="M683.007 389L489.13 311.947" stroke="#59221D" stroke-width="0.810602" stroke-miterlimit="10" stroke-linecap="round"/>
<path d="M642.683 171.076V284.885H409.965V128.237C409.965 125.376 411.102 122.631 413.125 120.608C415.148 118.584 417.893 117.447 420.754 117.447H468.721V57.261H565.787V171.07L642.683 171.076Z" fill="#CEE4ED"/>
<path d="M436.015 155.913H431.723V160.204H436.015V155.913Z" fill="white"/>
<path d="M442.352 155.913H438.061V160.204H442.352V155.913Z" fill="white"/>
<path d="M436.015 162.017H431.723V166.308H436.015V162.017Z" fill="white"/>
<path d="M442.352 162.017H438.061V166.308H442.352V162.017Z" fill="white"/>
<path d="M459.166 155.913H454.874V160.204H459.166V155.913Z" fill="#FFC200"/>
<path d="M465.504 155.913H461.213V160.204H465.504V155.913Z" fill="#FFC200"/>
<path d="M459.166 162.017H454.874V166.308H459.166V162.017Z" fill="#FFC200"/>
<path d="M465.504 162.017H461.213V166.308H465.504V162.017Z" fill="#FFC200"/>
<path d="M459.166 177.297H454.874V181.588H459.166V177.297Z" fill="white"/>
<path d="M465.504 177.297H461.213V181.588H465.504V177.297Z" fill="white"/>
<path d="M459.166 183.4H454.874V187.692H459.166V183.4Z" fill="white"/>
<path d="M465.504 183.4H461.213V187.692H465.504V183.4Z" fill="white"/>
<path d="M436.015 132.407H431.723V136.698H436.015V132.407Z" fill="white"/>
<path d="M442.352 132.407H438.061V136.698H442.352V132.407Z" fill="white"/>
<path d="M436.015 138.511H431.723V142.802H436.015V138.511Z" fill="white"/>
<path d="M442.352 138.511H438.061V142.802H442.352V138.511Z" fill="white"/>
<path d="M594.08 57.261H565.787V171.076H594.08V57.261Z" fill="#98C8DB"/>
<path d="M565.787 165.596H642.683" stroke="#CEE4ED" stroke-width="0.972722" stroke-miterlimit="10"/>
<path d="M602.426 194.559C603.033 194.559 603.524 194.068 603.524 193.462C603.524 192.855 603.033 192.364 602.426 192.364C601.82 192.364 601.329 192.855 601.329 193.462C601.329 194.068 601.82 194.559 602.426 194.559Z" fill="white"/>
<path d="M595.17 194.559C595.776 194.559 596.267 194.068 596.267 193.462C596.267 192.855 595.776 192.364 595.17 192.364C594.564 192.364 594.072 192.855 594.072 193.462C594.072 194.068 594.564 194.559 595.17 194.559Z" fill="white"/>
<path d="M609.683 194.559C610.289 194.559 610.78 194.068 610.78 193.462C610.78 192.855 610.289 192.364 609.683 192.364C609.077 192.364 608.585 192.855 608.585 193.462C608.585 194.068 609.077 194.559 609.683 194.559Z" fill="white"/>
<path d="M616.939 194.559C617.546 194.559 618.037 194.068 618.037 193.462C618.037 192.855 617.546 192.364 616.939 192.364C616.333 192.364 615.842 192.855 615.842 193.462C615.842 194.068 616.333 194.559 616.939 194.559Z" fill="white"/>
<path d="M624.196 194.559C624.802 194.559 625.294 194.068 625.294 193.462C625.294 192.855 624.802 192.364 624.196 192.364C623.59 192.364 623.098 192.855 623.098 193.462C623.098 194.068 623.59 194.559 624.196 194.559Z" fill="white"/>
<path d="M631.453 194.559C632.059 194.559 632.55 194.068 632.55 193.462C632.55 192.855 632.059 192.364 631.453 192.364C630.846 192.364 630.355 192.855 630.355 193.462C630.355 194.068 630.846 194.559 631.453 194.559Z" fill="white"/>
<path d="M602.426 188.124C603.033 188.124 603.524 187.633 603.524 187.027C603.524 186.421 603.033 185.929 602.426 185.929C601.82 185.929 601.329 186.421 601.329 187.027C601.329 187.633 601.82 188.124 602.426 188.124Z" fill="white"/>
<path d="M595.17 188.124C595.776 188.124 596.267 187.633 596.267 187.027C596.267 186.421 595.776 185.929 595.17 185.929C594.564 185.929 594.072 186.421 594.072 187.027C594.072 187.633 594.564 188.124 595.17 188.124Z" fill="white"/>
<path d="M609.683 188.124C610.289 188.124 610.78 187.633 610.78 187.027C610.78 186.421 610.289 185.929 609.683 185.929C609.077 185.929 608.585 186.421 608.585 187.027C608.585 187.633 609.077 188.124 609.683 188.124Z" fill="white"/>
<path d="M616.939 188.124C617.546 188.124 618.037 187.633 618.037 187.027C618.037 186.421 617.546 185.929 616.939 185.929C616.333 185.929 615.842 186.421 615.842 187.027C615.842 187.633 616.333 188.124 616.939 188.124Z" fill="white"/>
<path d="M624.196 188.124C624.802 188.124 625.294 187.633 625.294 187.027C625.294 186.421 624.802 185.929 624.196 185.929C623.59 185.929 623.098 186.421 623.098 187.027C623.098 187.633 623.59 188.124 624.196 188.124Z" fill="white"/>
<path d="M631.453 188.124C632.059 188.124 632.55 187.633 632.55 187.027C632.55 186.421 632.059 185.929 631.453 185.929C630.846 185.929 630.355 186.421 630.355 187.027C630.355 187.633 630.846 188.124 631.453 188.124Z" fill="white"/>
<path d="M602.426 200.994C603.033 200.994 603.524 200.502 603.524 199.896C603.524 199.29 603.033 198.799 602.426 198.799C601.82 198.799 601.329 199.29 601.329 199.896C601.329 200.502 601.82 200.994 602.426 200.994Z" fill="white"/>
<path d="M595.17 200.994C595.776 200.994 596.267 200.502 596.267 199.896C596.267 199.29 595.776 198.799 595.17 198.799C594.564 198.799 594.072 199.29 594.072 199.896C594.072 200.502 594.564 200.994 595.17 200.994Z" fill="white"/>
<path d="M609.683 200.994C610.289 200.994 610.78 200.502 610.78 199.896C610.78 199.29 610.289 198.799 609.683 198.799C609.077 198.799 608.585 199.29 608.585 199.896C608.585 200.502 609.077 200.994 609.683 200.994Z" fill="white"/>
<path d="M616.939 200.994C617.546 200.994 618.037 200.502 618.037 199.896C618.037 199.29 617.546 198.799 616.939 198.799C616.333 198.799 615.842 199.29 615.842 199.896C615.842 200.502 616.333 200.994 616.939 200.994Z" fill="white"/>
<path d="M624.196 200.994C624.802 200.994 625.294 200.502 625.294 199.896C625.294 199.29 624.802 198.799 624.196 198.799C623.59 198.799 623.098 199.29 623.098 199.896C623.098 200.502 623.59 200.994 624.196 200.994Z" fill="white"/>
<path d="M631.453 200.994C632.059 200.994 632.55 200.502 632.55 199.896C632.55 199.29 632.059 198.799 631.453 198.799C630.846 198.799 630.355 199.29 630.355 199.896C630.355 200.502 630.846 200.994 631.453 200.994Z" fill="white"/>
<path d="M595.17 207.43C595.776 207.43 596.267 206.938 596.267 206.332C596.267 205.726 595.776 205.235 595.17 205.235C594.564 205.235 594.072 205.726 594.072 206.332C594.072 206.938 594.564 207.43 595.17 207.43Z" fill="white"/>
<path d="M602.426 207.43C603.033 207.43 603.524 206.938 603.524 206.332C603.524 205.726 603.033 205.235 602.426 205.235C601.82 205.235 601.329 205.726 601.329 206.332C601.329 206.938 601.82 207.43 602.426 207.43Z" fill="white"/>
<path d="M609.683 207.43C610.289 207.43 610.78 206.938 610.78 206.332C610.78 205.726 610.289 205.235 609.683 205.235C609.077 205.235 608.585 205.726 608.585 206.332C608.585 206.938 609.077 207.43 609.683 207.43Z" fill="white"/>
<path d="M616.939 207.43C617.546 207.43 618.037 206.938 618.037 206.332C618.037 205.726 617.546 205.235 616.939 205.235C616.333 205.235 615.842 205.726 615.842 206.332C615.842 206.938 616.333 207.43 616.939 207.43Z" fill="white"/>
<path d="M624.196 207.43C624.802 207.43 625.294 206.938 625.294 206.332C625.294 205.726 624.802 205.235 624.196 205.235C623.59 205.235 623.098 205.726 623.098 206.332C623.098 206.938 623.59 207.43 624.196 207.43Z" fill="white"/>
<path d="M631.453 207.43C632.059 207.43 632.55 206.938 632.55 206.332C632.55 205.726 632.059 205.235 631.453 205.235C630.846 205.235 630.355 205.726 630.355 206.332C630.355 206.938 630.846 207.43 631.453 207.43Z" fill="white"/>
<path d="M602.426 213.97C603.033 213.97 603.524 213.478 603.524 212.872C603.524 212.266 603.033 211.775 602.426 211.775C601.82 211.775 601.329 212.266 601.329 212.872C601.329 213.478 601.82 213.97 602.426 213.97Z" fill="white"/>
<path d="M595.17 213.97C595.776 213.97 596.267 213.478 596.267 212.872C596.267 212.266 595.776 211.775 595.17 211.775C594.564 211.775 594.072 212.266 594.072 212.872C594.072 213.478 594.564 213.97 595.17 213.97Z" fill="white"/>
<path d="M609.683 213.97C610.289 213.97 610.78 213.478 610.78 212.872C610.78 212.266 610.289 211.775 609.683 211.775C609.077 211.775 608.585 212.266 608.585 212.872C608.585 213.478 609.077 213.97 609.683 213.97Z" fill="white"/>
<path d="M616.939 213.97C617.546 213.97 618.037 213.478 618.037 212.872C618.037 212.266 617.546 211.775 616.939 211.775C616.333 211.775 615.842 212.266 615.842 212.872C615.842 213.478 616.333 213.97 616.939 213.97Z" fill="white"/>
<path d="M624.196 213.97C624.802 213.97 625.294 213.478 625.294 212.872C625.294 212.266 624.802 211.775 624.196 211.775C623.59 211.775 623.098 212.266 623.098 212.872C623.098 213.478 623.59 213.97 624.196 213.97Z" fill="white"/>
<path d="M631.453 213.97C632.059 213.97 632.55 213.478 632.55 212.872C632.55 212.266 632.059 211.775 631.453 211.775C630.846 211.775 630.355 212.266 630.355 212.872C630.355 213.478 630.846 213.97 631.453 213.97Z" fill="white"/>
<path d="M602.426 220.406C603.033 220.406 603.524 219.915 603.524 219.308C603.524 218.702 603.033 218.211 602.426 218.211C601.82 218.211 601.329 218.702 601.329 219.308C601.329 219.915 601.82 220.406 602.426 220.406Z" fill="white"/>
<path d="M595.17 220.406C595.776 220.406 596.267 219.915 596.267 219.308C596.267 218.702 595.776 218.211 595.17 218.211C594.564 218.211 594.072 218.702 594.072 219.308C594.072 219.915 594.564 220.406 595.17 220.406Z" fill="white"/>
<path d="M609.683 220.406C610.289 220.406 610.78 219.915 610.78 219.308C610.78 218.702 610.289 218.211 609.683 218.211C609.077 218.211 608.585 218.702 608.585 219.308C608.585 219.915 609.077 220.406 609.683 220.406Z" fill="white"/>
<path d="M616.939 220.406C617.546 220.406 618.037 219.915 618.037 219.308C618.037 218.702 617.546 218.211 616.939 218.211C616.333 218.211 615.842 218.702 615.842 219.308C615.842 219.915 616.333 220.406 616.939 220.406Z" fill="white"/>
<path d="M624.196 220.406C624.802 220.406 625.294 219.915 625.294 219.308C625.294 218.702 624.802 218.211 624.196 218.211C623.59 218.211 623.098 218.702 623.098 219.308C623.098 219.915 623.59 220.406 624.196 220.406Z" fill="white"/>
<path d="M631.453 220.406C632.059 220.406 632.55 219.915 632.55 219.308C632.55 218.702 632.059 218.211 631.453 218.211C630.846 218.211 630.355 218.702 630.355 219.308C630.355 219.915 630.846 220.406 631.453 220.406Z" fill="white"/>
<path d="M595.17 226.84C595.776 226.84 596.267 226.349 596.267 225.743C596.267 225.137 595.776 224.645 595.17 224.645C594.564 224.645 594.072 225.137 594.072 225.743C594.072 226.349 594.564 226.84 595.17 226.84Z" fill="white"/>
<path d="M602.426 226.84C603.033 226.84 603.524 226.349 603.524 225.743C603.524 225.137 603.033 224.645 602.426 224.645C601.82 224.645 601.329 225.137 601.329 225.743C601.329 226.349 601.82 226.84 602.426 226.84Z" fill="white"/>
<path d="M609.683 226.84C610.289 226.84 610.78 226.349 610.78 225.743C610.78 225.137 610.289 224.645 609.683 224.645C609.077 224.645 608.585 225.137 608.585 225.743C608.585 226.349 609.077 226.84 609.683 226.84Z" fill="white"/>
<path d="M616.939 226.84C617.546 226.84 618.037 226.349 618.037 225.743C618.037 225.137 617.546 224.645 616.939 224.645C616.333 224.645 615.842 225.137 615.842 225.743C615.842 226.349 616.333 226.84 616.939 226.84Z" fill="white"/>
<path d="M624.196 226.84C624.802 226.84 625.294 226.349 625.294 225.743C625.294 225.137 624.802 224.645 624.196 224.645C623.59 224.645 623.098 225.137 623.098 225.743C623.098 226.349 623.59 226.84 624.196 226.84Z" fill="white"/>
<path d="M631.453 226.84C632.059 226.84 632.55 226.349 632.55 225.743C632.55 225.137 632.059 224.645 631.453 224.645C630.846 224.645 630.355 225.137 630.355 225.743C630.355 226.349 630.846 226.84 631.453 226.84Z" fill="white"/>
<path d="M573.452 194.559C574.058 194.559 574.55 194.068 574.55 193.462C574.55 192.855 574.058 192.364 573.452 192.364C572.846 192.364 572.355 192.855 572.355 193.462C572.355 194.068 572.846 194.559 573.452 194.559Z" fill="white"/>
<path d="M580.709 194.559C581.315 194.559 581.806 194.068 581.806 193.462C581.806 192.855 581.315 192.364 580.709 192.364C580.103 192.364 579.611 192.855 579.611 193.462C579.611 194.068 580.103 194.559 580.709 194.559Z" fill="white"/>
<path d="M587.967 194.559C588.573 194.559 589.064 194.068 589.064 193.462C589.064 192.855 588.573 192.364 587.967 192.364C587.361 192.364 586.869 192.855 586.869 193.462C586.869 194.068 587.361 194.559 587.967 194.559Z" fill="white"/>
<path d="M573.452 188.124C574.058 188.124 574.55 187.633 574.55 187.027C574.55 186.421 574.058 185.929 573.452 185.929C572.846 185.929 572.355 186.421 572.355 187.027C572.355 187.633 572.846 188.124 573.452 188.124Z" fill="white"/>
<path d="M580.709 188.124C581.315 188.124 581.806 187.633 581.806 187.027C581.806 186.421 581.315 185.929 580.709 185.929C580.103 185.929 579.611 186.421 579.611 187.027C579.611 187.633 580.103 188.124 580.709 188.124Z" fill="white"/>
<path d="M587.967 188.124C588.573 188.124 589.064 187.633 589.064 187.027C589.064 186.421 588.573 185.929 587.967 185.929C587.361 185.929 586.869 186.421 586.869 187.027C586.869 187.633 587.361 188.124 587.967 188.124Z" fill="white"/>
<path d="M573.452 200.994C574.058 200.994 574.55 200.502 574.55 199.896C574.55 199.29 574.058 198.799 573.452 198.799C572.846 198.799 572.355 199.29 572.355 199.896C572.355 200.502 572.846 200.994 573.452 200.994Z" fill="white"/>
<path d="M580.709 200.994C581.315 200.994 581.806 200.502 581.806 199.896C581.806 199.29 581.315 198.799 580.709 198.799C580.103 198.799 579.611 199.29 579.611 199.896C579.611 200.502 580.103 200.994 580.709 200.994Z" fill="white"/>
<path d="M587.967 200.994C588.573 200.994 589.064 200.502 589.064 199.896C589.064 199.29 588.573 198.799 587.967 198.799C587.361 198.799 586.869 199.29 586.869 199.896C586.869 200.502 587.361 200.994 587.967 200.994Z" fill="white"/>
<path d="M573.452 207.43C574.058 207.43 574.55 206.938 574.55 206.332C574.55 205.726 574.058 205.235 573.452 205.235C572.846 205.235 572.355 205.726 572.355 206.332C572.355 206.938 572.846 207.43 573.452 207.43Z" fill="white"/>
<path d="M580.709 207.43C581.315 207.43 581.806 206.938 581.806 206.332C581.806 205.726 581.315 205.235 580.709 205.235C580.103 205.235 579.611 205.726 579.611 206.332C579.611 206.938 580.103 207.43 580.709 207.43Z" fill="white"/>
<path d="M587.967 207.43C588.573 207.43 589.064 206.938 589.064 206.332C589.064 205.726 588.573 205.235 587.967 205.235C587.361 205.235 586.869 205.726 586.869 206.332C586.869 206.938 587.361 207.43 587.967 207.43Z" fill="white"/>
<path d="M573.452 213.97C574.058 213.97 574.55 213.478 574.55 212.872C574.55 212.266 574.058 211.775 573.452 211.775C572.846 211.775 572.355 212.266 572.355 212.872C572.355 213.478 572.846 213.97 573.452 213.97Z" fill="white"/>
<path d="M580.709 213.97C581.315 213.97 581.806 213.478 581.806 212.872C581.806 212.266 581.315 211.775 580.709 211.775C580.103 211.775 579.611 212.266 579.611 212.872C579.611 213.478 580.103 213.97 580.709 213.97Z" fill="white"/>
<path d="M587.967 213.97C588.573 213.97 589.064 213.478 589.064 212.872C589.064 212.266 588.573 211.775 587.967 211.775C587.361 211.775 586.869 212.266 586.869 212.872C586.869 213.478 587.361 213.97 587.967 213.97Z" fill="white"/>
<path d="M573.452 220.406C574.058 220.406 574.55 219.915 574.55 219.308C574.55 218.702 574.058 218.211 573.452 218.211C572.846 218.211 572.355 218.702 572.355 219.308C572.355 219.915 572.846 220.406 573.452 220.406Z" fill="white"/>
<path d="M580.709 220.406C581.315 220.406 581.806 219.915 581.806 219.308C581.806 218.702 581.315 218.211 580.709 218.211C580.103 218.211 579.611 218.702 579.611 219.308C579.611 219.915 580.103 220.406 580.709 220.406Z" fill="white"/>
<path d="M587.967 220.406C588.573 220.406 589.064 219.915 589.064 219.308C589.064 218.702 588.573 218.211 587.967 218.211C587.361 218.211 586.869 218.702 586.869 219.308C586.869 219.915 587.361 220.406 587.967 220.406Z" fill="white"/>
<path d="M573.452 226.84C574.058 226.84 574.55 226.349 574.55 225.743C574.55 225.137 574.058 224.645 573.452 224.645C572.846 224.645 572.355 225.137 572.355 225.743C572.355 226.349 572.846 226.84 573.452 226.84Z" fill="white"/>
<path d="M580.709 226.84C581.315 226.84 581.806 226.349 581.806 225.743C581.806 225.137 581.315 224.645 580.709 224.645C580.103 224.645 579.611 225.137 579.611 225.743C579.611 226.349 580.103 226.84 580.709 226.84Z" fill="white"/>
<path d="M587.967 226.84C588.573 226.84 589.064 226.349 589.064 225.743C589.064 225.137 588.573 224.645 587.967 224.645C587.361 224.645 586.869 225.137 586.869 225.743C586.869 226.349 587.361 226.84 587.967 226.84Z" fill="white"/>
<path d="M126.981 169.304L61.5766 204.651" stroke="#CEE4ED" stroke-width="0.972722" stroke-miterlimit="10"/>
<path d="M267.199 96.2996V297.843H61.5766V210.136L126.981 174.793V137.609C126.981 136.407 127.218 135.217 127.678 134.107C128.138 132.996 128.812 131.987 129.662 131.137C130.512 130.287 131.521 129.613 132.631 129.153C133.742 128.693 134.932 128.456 136.134 128.456H210.341V96.2996H267.199Z" fill="#CEE4ED"/>
<path d="M227.886 116.049C228.492 116.049 228.984 115.558 228.984 114.951C228.984 114.345 228.492 113.854 227.886 113.854C227.28 113.854 226.789 114.345 226.789 114.951C226.789 115.558 227.28 116.049 227.886 116.049Z" fill="white"/>
<path d="M220.63 116.049C221.236 116.049 221.727 115.558 221.727 114.951C221.727 114.345 221.236 113.854 220.63 113.854C220.024 113.854 219.532 114.345 219.532 114.951C219.532 115.558 220.024 116.049 220.63 116.049Z" fill="white"/>
<path d="M235.143 116.049C235.749 116.049 236.24 115.558 236.24 114.951C236.24 114.345 235.749 113.854 235.143 113.854C234.537 113.854 234.045 114.345 234.045 114.951C234.045 115.558 234.537 116.049 235.143 116.049Z" fill="white"/>
<path d="M242.399 116.049C243.005 116.049 243.497 115.558 243.497 114.951C243.497 114.345 243.005 113.854 242.399 113.854C241.793 113.854 241.302 114.345 241.302 114.951C241.302 115.558 241.793 116.049 242.399 116.049Z" fill="white"/>
<path d="M249.656 116.049C250.262 116.049 250.753 115.558 250.753 114.951C250.753 114.345 250.262 113.854 249.656 113.854C249.05 113.854 248.558 114.345 248.558 114.951C248.558 115.558 249.05 116.049 249.656 116.049Z" fill="white"/>
<path d="M256.912 116.049C257.518 116.049 258.01 115.558 258.01 114.951C258.01 114.345 257.518 113.854 256.912 113.854C256.306 113.854 255.815 114.345 255.815 114.951C255.815 115.558 256.306 116.049 256.912 116.049Z" fill="white"/>
<path d="M227.886 109.614C228.492 109.614 228.984 109.123 228.984 108.517C228.984 107.911 228.492 107.419 227.886 107.419C227.28 107.419 226.789 107.911 226.789 108.517C226.789 109.123 227.28 109.614 227.886 109.614Z" fill="white"/>
<path d="M220.63 109.614C221.236 109.614 221.727 109.123 221.727 108.517C221.727 107.911 221.236 107.419 220.63 107.419C220.024 107.419 219.532 107.911 219.532 108.517C219.532 109.123 220.024 109.614 220.63 109.614Z" fill="white"/>
<path d="M235.143 109.614C235.749 109.614 236.24 109.123 236.24 108.517C236.24 107.911 235.749 107.419 235.143 107.419C234.537 107.419 234.045 107.911 234.045 108.517C234.045 109.123 234.537 109.614 235.143 109.614Z" fill="white"/>
<path d="M242.399 109.614C243.005 109.614 243.497 109.123 243.497 108.517C243.497 107.911 243.005 107.419 242.399 107.419C241.793 107.419 241.302 107.911 241.302 108.517C241.302 109.123 241.793 109.614 242.399 109.614Z" fill="white"/>
<path d="M249.656 109.614C250.262 109.614 250.753 109.123 250.753 108.517C250.753 107.911 250.262 107.419 249.656 107.419C249.05 107.419 248.558 107.911 248.558 108.517C248.558 109.123 249.05 109.614 249.656 109.614Z" fill="white"/>
<path d="M256.912 109.614C257.518 109.614 258.01 109.123 258.01 108.517C258.01 107.911 257.518 107.419 256.912 107.419C256.306 107.419 255.815 107.911 255.815 108.517C255.815 109.123 256.306 109.614 256.912 109.614Z" fill="white"/>
<path d="M227.886 122.485C228.492 122.485 228.984 121.994 228.984 121.388C228.984 120.782 228.492 120.29 227.886 120.29C227.28 120.29 226.789 120.782 226.789 121.388C226.789 121.994 227.28 122.485 227.886 122.485Z" fill="white"/>
<path d="M220.63 122.485C221.236 122.485 221.727 121.994 221.727 121.388C221.727 120.782 221.236 120.29 220.63 120.29C220.024 120.29 219.532 120.782 219.532 121.388C219.532 121.994 220.024 122.485 220.63 122.485Z" fill="white"/>
<path d="M235.143 122.485C235.749 122.485 236.24 121.994 236.24 121.388C236.24 120.782 235.749 120.29 235.143 120.29C234.537 120.29 234.045 120.782 234.045 121.388C234.045 121.994 234.537 122.485 235.143 122.485Z" fill="white"/>
<path d="M242.399 122.485C243.005 122.485 243.497 121.994 243.497 121.388C243.497 120.782 243.005 120.29 242.399 120.29C241.793 120.29 241.302 120.782 241.302 121.388C241.302 121.994 241.793 122.485 242.399 122.485Z" fill="white"/>
<path d="M249.656 122.485C250.262 122.485 250.753 121.994 250.753 121.388C250.753 120.782 250.262 120.29 249.656 120.29C249.05 120.29 248.558 120.782 248.558 121.388C248.558 121.994 249.05 122.485 249.656 122.485Z" fill="white"/>
<path d="M256.912 122.485C257.518 122.485 258.01 121.994 258.01 121.388C258.01 120.782 257.518 120.29 256.912 120.29C256.306 120.29 255.815 120.782 255.815 121.388C255.815 121.994 256.306 122.485 256.912 122.485Z" fill="white"/>
<path d="M220.63 128.92C221.236 128.92 221.727 128.428 221.727 127.822C221.727 127.216 221.236 126.725 220.63 126.725C220.024 126.725 219.532 127.216 219.532 127.822C219.532 128.428 220.024 128.92 220.63 128.92Z" fill="white"/>
<path d="M227.886 128.92C228.492 128.92 228.984 128.428 228.984 127.822C228.984 127.216 228.492 126.725 227.886 126.725C227.28 126.725 226.789 127.216 226.789 127.822C226.789 128.428 227.28 128.92 227.886 128.92Z" fill="white"/>
<path d="M235.143 128.92C235.749 128.92 236.24 128.428 236.24 127.822C236.24 127.216 235.749 126.725 235.143 126.725C234.537 126.725 234.045 127.216 234.045 127.822C234.045 128.428 234.537 128.92 235.143 128.92Z" fill="white"/>
<path d="M242.399 128.92C243.005 128.92 243.497 128.428 243.497 127.822C243.497 127.216 243.005 126.725 242.399 126.725C241.793 126.725 241.302 127.216 241.302 127.822C241.302 128.428 241.793 128.92 242.399 128.92Z" fill="white"/>
<path d="M249.656 128.92C250.262 128.92 250.753 128.428 250.753 127.822C250.753 127.216 250.262 126.725 249.656 126.725C249.05 126.725 248.558 127.216 248.558 127.822C248.558 128.428 249.05 128.92 249.656 128.92Z" fill="white"/>
<path d="M256.912 128.92C257.518 128.92 258.01 128.428 258.01 127.822C258.01 127.216 257.518 126.725 256.912 126.725C256.306 126.725 255.815 127.216 255.815 127.822C255.815 128.428 256.306 128.92 256.912 128.92Z" fill="white"/>
<path d="M209.774 92.7993H267.199" stroke="#CEE4ED" stroke-width="0.972722" stroke-miterlimit="10"/>
<path d="M91.7861 209.549H87.4948V213.84H91.7861V209.549Z" fill="white"/>
<path d="M98.125 209.549H93.8337V213.84H98.125V209.549Z" fill="white"/>
<path d="M91.7861 215.653H87.4948V219.944H91.7861V215.653Z" fill="white"/>
<path d="M98.125 215.653H93.8337V219.944H98.125V215.653Z" fill="white"/>
<path d="M91.7861 231.728H87.4948V236.02H91.7861V231.728Z" fill="white"/>
<path d="M98.125 231.728H93.8337V236.02H98.125V231.728Z" fill="white"/>
<path d="M91.7861 237.832H87.4948V242.124H91.7861V237.832Z" fill="white"/>
<path d="M98.125 237.832H93.8337V242.124H98.125V237.832Z" fill="white"/>
<path d="M124.127 209.549H119.836V213.84H124.127V209.549Z" fill="#FFC200"/>
<path d="M130.466 209.549H126.175V213.84H130.466V209.549Z" fill="#FFC200"/>
<path d="M124.127 215.653H119.836V219.944H124.127V215.653Z" fill="#FFC200"/>
<path d="M130.466 215.653H126.175V219.944H130.466V215.653Z" fill="#FFC200"/>
<path d="M651.64 51.59C653.128 55.0001 653.895 58.681 653.893 62.4018C653.893 78.2134 640.226 91.0322 623.369 91.0322C607.389 91.0322 594.277 79.5217 592.954 64.8482C587.503 65.8859 581.861 64.8219 577.163 61.87C568.699 73.4584 553.526 81.1818 536.216 81.1818C517.553 81.1818 501.375 72.2036 493.409 59.0848C490.474 63.5123 485.745 66.9428 480.074 68.6418C480.074 68.778 480.084 68.9141 480.084 69.0519C480.084 71.3488 479.171 73.5517 477.547 75.1758C475.923 76.8 473.72 77.7124 471.423 77.7124C469.127 77.7124 466.924 76.8 465.3 75.1758C463.675 73.5517 462.763 71.3488 462.763 69.0519C462.763 68.799 462.774 68.5478 462.797 68.2997C453.707 65.1724 447.29 57.5025 447.29 48.547C447.29 36.7997 458.339 27.2768 471.97 27.2768C478.552 27.2768 484.532 29.4978 488.958 33.1131C493.109 14.2666 512.688 0 536.216 0C555.484 0 572.105 9.5651 579.775 23.3875C582.6 22.1078 585.665 21.4422 588.766 21.4344C591.868 21.4266 594.935 22.0769 597.767 23.3424C600.599 24.6079 603.129 26.4597 605.192 28.7756C607.255 31.0914 608.804 33.8186 609.735 36.777C614.695 34.4724 620.16 33.4659 625.616 33.8518C631.072 34.2378 636.34 36.0036 640.927 38.9835C641.654 37.8373 642.64 36.8781 643.806 36.1832C644.972 35.4883 646.285 35.0772 647.639 34.983C648.993 34.8889 650.35 35.1143 651.601 35.6411C652.852 36.168 653.962 36.9814 654.841 38.0159C655.719 39.0505 656.343 40.277 656.66 41.5967C656.978 42.9164 656.98 44.2922 656.669 45.6132C656.357 46.9342 655.738 48.1634 654.864 49.2016C653.99 50.2397 652.884 51.0579 651.635 51.59H651.64Z" fill="#F5BBBB"/>
<path d="M464.757 56.0872C465.808 56.0872 466.66 55.2351 466.66 54.1839C466.66 53.1328 465.808 52.2806 464.757 52.2806C463.706 52.2806 462.854 53.1328 462.854 54.1839C462.854 55.2351 463.706 56.0872 464.757 56.0872Z" fill="#A74602"/>
<path d="M479.341 42.4934C480.393 42.4934 481.245 41.6412 481.245 40.5901C481.245 39.5389 480.393 38.6868 479.341 38.6868C478.29 38.6868 477.438 39.5389 477.438 40.5901C477.438 41.6412 478.29 42.4934 479.341 42.4934Z" fill="#A74602"/>
<path d="M486.238 47.4268C487.289 47.4268 488.141 46.5747 488.141 45.5235C488.141 44.4724 487.289 43.6202 486.238 43.6202C485.187 43.6202 484.335 44.4724 484.335 45.5235C484.335 46.5747 485.187 47.4268 486.238 47.4268Z" fill="#A74602"/>
<path d="M505.744 42.4934C506.795 42.4934 507.648 41.6412 507.648 40.5901C507.648 39.5389 506.795 38.6868 505.744 38.6868C504.693 38.6868 503.841 39.5389 503.841 40.5901C503.841 41.6412 504.693 42.4934 505.744 42.4934Z" fill="#A74602"/>
<path d="M504.562 57.9905C505.614 57.9905 506.466 57.1384 506.466 56.0873C506.466 55.0361 505.614 54.184 504.562 54.184C503.511 54.184 502.659 55.0361 502.659 56.0873C502.659 57.1384 503.511 57.9905 504.562 57.9905Z" fill="#A74602"/>
<path d="M525.812 52.2806C526.863 52.2806 527.715 51.4285 527.715 50.3773C527.715 49.3261 526.863 48.474 525.812 48.474C524.76 48.474 523.908 49.3261 523.908 50.3773C523.908 51.4285 524.76 52.2806 525.812 52.2806Z" fill="#A74602"/>
<path d="M521.228 59.1641C522.28 59.1641 523.132 58.312 523.132 57.2608C523.132 56.2097 522.28 55.3575 521.228 55.3575C520.177 55.3575 519.325 56.2097 519.325 57.2608C519.325 58.312 520.177 59.1641 521.228 59.1641Z" fill="#A74602"/>
<path d="M522.316 26.8698C523.367 26.8698 524.22 26.0177 524.22 24.9665C524.22 23.9154 523.367 23.0632 522.316 23.0632C521.265 23.0632 520.413 23.9154 520.413 24.9665C520.413 26.0177 521.265 26.8698 522.316 26.8698Z" fill="#A74602"/>
<path d="M528.803 23.1719C529.854 23.1719 530.706 22.3198 530.706 21.2687C530.706 20.2175 529.854 19.3654 528.803 19.3654C527.752 19.3654 526.899 20.2175 526.899 21.2687C526.899 22.3198 527.752 23.1719 528.803 23.1719Z" fill="#A74602"/>
<path d="M517.59 17.71C518.642 17.71 519.494 16.8579 519.494 15.8067C519.494 14.7556 518.642 13.9034 517.59 13.9034C516.539 13.9034 515.687 14.7556 515.687 15.8067C515.687 16.8579 516.539 17.71 517.59 17.71Z" fill="#A74602"/>
<path d="M545.43 36.8646C546.481 36.8646 547.333 36.0124 547.333 34.9613C547.333 33.9101 546.481 33.058 545.43 33.058C544.379 33.058 543.526 33.9101 543.526 34.9613C543.526 36.0124 544.379 36.8646 545.43 36.8646Z" fill="#A74602"/>
<path d="M539.258 67.139C540.309 67.139 541.161 66.2869 541.161 65.2357C541.161 64.1845 540.309 63.3324 539.258 63.3324C538.207 63.3324 537.355 64.1845 537.355 65.2357C537.355 66.2869 538.207 67.139 539.258 67.139Z" fill="#A74602"/>
<path d="M553.001 138.08C554.052 138.08 554.904 137.228 554.904 136.176C554.904 135.125 554.052 134.273 553.001 134.273C551.95 134.273 551.097 135.125 551.097 136.176C551.097 137.228 551.95 138.08 553.001 138.08Z" fill="#A74602"/>
<path d="M614.149 30.6749C615.201 30.6749 616.053 29.8227 616.053 28.7716C616.053 27.7204 615.201 26.8683 614.149 26.8683C613.098 26.8683 612.246 27.7204 612.246 28.7716C612.246 29.8227 613.098 30.6749 614.149 30.6749Z" fill="#A74602"/>
<path d="M458.391 74.2496C459.442 74.2496 460.294 73.3974 460.294 72.3463C460.294 71.2951 459.442 70.443 458.391 70.443C457.339 70.443 456.487 71.2951 456.487 72.3463C456.487 73.3974 457.339 74.2496 458.391 74.2496Z" fill="#A74602"/>
<path d="M558.711 17.1038C559.762 17.1038 560.614 16.2517 560.614 15.2005C560.614 14.1494 559.762 13.2972 558.711 13.2972C557.66 13.2972 556.807 14.1494 556.807 15.2005C556.807 16.2517 557.66 17.1038 558.711 17.1038Z" fill="#A74602"/>
<path d="M560.612 25.9766C561.663 25.9766 562.516 25.1245 562.516 24.0733C562.516 23.0222 561.663 22.17 560.612 22.17C559.561 22.17 558.709 23.0222 558.709 24.0733C558.709 25.1245 559.561 25.9766 560.612 25.9766Z" fill="#A74602"/>
<path d="M556.807 52.2806C557.859 52.2806 558.711 51.4285 558.711 50.3773C558.711 49.3261 557.859 48.474 556.807 48.474C555.756 48.474 554.904 49.3261 554.904 50.3773C554.904 51.4285 555.756 52.2806 556.807 52.2806Z" fill="#A74602"/>
<path d="M575.908 42.4934C576.96 42.4934 577.812 41.6412 577.812 40.5901C577.812 39.5389 576.96 38.6868 575.908 38.6868C574.857 38.6868 574.005 39.5389 574.005 40.5901C574.005 41.6412 574.857 42.4934 575.908 42.4934Z" fill="#A74602"/>
<path d="M579.713 47.4268C580.765 47.4268 581.617 46.5747 581.617 45.5235C581.617 44.4724 580.765 43.6202 579.713 43.6202C578.662 43.6202 577.81 44.4724 577.81 45.5235C577.81 46.5747 578.662 47.4268 579.713 47.4268Z" fill="#A74602"/>
<path d="M598.607 34.9614C599.658 34.9614 600.51 34.1092 600.51 33.0581C600.51 32.0069 599.658 31.1548 598.607 31.1548C597.556 31.1548 596.704 32.0069 596.704 33.0581C596.704 34.1092 597.556 34.9614 598.607 34.9614Z" fill="#A74602"/>
<path d="M605.132 70.1301C606.183 70.1301 607.036 69.2779 607.036 68.2268C607.036 67.1756 606.183 66.3235 605.132 66.3235C604.081 66.3235 603.229 67.1756 603.229 68.2268C603.229 69.2779 604.081 70.1301 605.132 70.1301Z" fill="#A74602"/>
<path d="M613.653 65.9603C614.704 65.9603 615.557 65.1081 615.557 64.057C615.557 63.0058 614.704 62.1537 613.653 62.1537C612.602 62.1537 611.75 63.0058 611.75 64.057C611.75 65.1081 612.602 65.9603 613.653 65.9603Z" fill="#A74602"/>
<path d="M620.579 79.5038C621.63 79.5038 622.482 78.6517 622.482 77.6006C622.482 76.5494 621.63 75.6973 620.579 75.6973C619.528 75.6973 618.676 76.5494 618.676 77.6006C618.676 78.6517 619.528 79.5038 620.579 79.5038Z" fill="#A74602"/>
<path d="M648.247 45.525C649.298 45.525 650.15 44.6728 650.15 43.6217C650.15 42.5705 649.298 41.7184 648.247 41.7184C647.195 41.7184 646.343 42.5705 646.343 43.6217C646.343 44.6728 647.195 45.525 648.247 45.525Z" fill="#A74602"/>
<path d="M633.787 61.066C634.838 61.066 635.69 60.2139 635.69 59.1627C635.69 58.1115 634.838 57.2594 633.787 57.2594C632.736 57.2594 631.884 58.1115 631.884 59.1627C631.884 60.2139 632.736 61.066 633.787 61.066Z" fill="#A74602"/>
<path d="M560.488 141.405V133.646C560.488 130.522 563.657 127.989 567.564 127.989V130.134C567.564 134.573 564.941 138.752 560.488 141.405Z" fill="#F5BBBB"/>
<path d="M560.937 134.279C558.734 133.279 556.867 131.665 555.557 129.632C554.247 127.598 553.55 125.23 553.55 122.811V117.354C555.509 117.354 557.388 118.132 558.773 119.517C560.158 120.903 560.937 122.781 560.937 124.74V134.279Z" fill="#F5BBBB"/>
<path d="M487.053 24.6877C487.034 24.8304 487.01 24.9731 486.982 25.1125C486.393 25.1658 485.8 25.1511 485.215 25.0687C480.929 24.4754 477.944 20.4759 478.544 16.1391C478.565 15.9965 478.588 15.8538 478.615 15.7144C479.204 15.6614 479.797 15.6755 480.382 15.7565C484.669 16.3499 487.658 20.3494 487.053 24.6877Z" fill="#F5BBBB"/>
<path d="M579.485 71.7303C579.611 71.7984 579.738 71.8697 579.859 71.9443C579.706 72.5149 579.488 73.0664 579.211 73.5882C577.175 77.4045 572.39 78.8279 568.527 76.7674C568.399 76.6993 568.274 76.6279 568.153 76.555C568.305 75.9836 568.523 75.4315 568.801 74.9095C570.837 71.0931 575.62 69.6697 579.485 71.7303Z" fill="#F5BBBB"/>
<path d="M625.483 100.605C625.611 100.674 625.736 100.743 625.858 100.818C625.705 101.389 625.487 101.94 625.209 102.462C623.175 106.28 618.39 107.703 614.526 105.643C614.399 105.574 614.273 105.503 614.151 105.429C614.305 104.858 614.522 104.306 614.799 103.785C616.836 99.9667 621.62 98.5449 625.483 100.605Z" fill="#F5BBBB"/>
<path d="M584.293 64.7623V284.803" stroke="#59221D" stroke-width="0.810602" stroke-miterlimit="10"/>
<path d="M616.727 90.3496C616.727 90.3496 611.205 114.16 592.928 122.725C590.357 123.914 588.18 125.812 586.65 128.195C585.121 130.579 584.303 133.349 584.293 136.181" stroke="#59221D" stroke-width="0.810602" stroke-miterlimit="10"/>
<path d="M548.588 79.825C548.588 79.825 556.097 96.632 575.842 103.906C578.326 104.83 580.468 106.492 581.979 108.67C583.49 110.848 584.298 113.436 584.293 116.086" stroke="#59221D" stroke-width="0.810602" stroke-miterlimit="10"/>
<path d="M512.66 75.6989V79.6368C512.66 80.8953 512.908 82.1415 513.389 83.3042C513.871 84.467 514.577 85.5235 515.467 86.4134C516.357 87.3033 517.413 88.0092 518.576 88.4907C519.739 88.9722 520.985 89.2199 522.243 89.2197H548.507C552.371 89.2188 556.088 90.7076 558.883 93.3765" stroke="#59221D" stroke-width="0.810602" stroke-miterlimit="10"/>
<path d="M560.414 133.477V144.764C560.414 147.895 561.101 150.987 562.426 153.824C563.751 156.661 565.682 159.172 568.083 161.182L576.299 168.075C578.803 170.176 580.816 172.799 582.197 175.761C583.578 178.723 584.294 181.951 584.293 185.219" stroke="#59221D" stroke-width="0.810602" stroke-miterlimit="10"/>
<path d="M114.536 108.65V296.661" stroke="#59221D" stroke-width="0.810602" stroke-miterlimit="10"/>
<path d="M153.042 118.024C150.381 125.186 142.405 139.625 123.019 145.621C120.562 146.384 118.414 147.912 116.888 149.983C115.363 152.055 114.541 154.56 114.543 157.132" stroke="#59221D" stroke-width="0.810602" stroke-miterlimit="10" stroke-linecap="round"/>
<path d="M96.828 120.618C96.828 120.618 97.8802 126.778 109.068 128.803C112.148 129.361 114.564 132.002 114.564 135.126" stroke="#59221D" stroke-width="0.810602" stroke-miterlimit="10"/>
<path d="M125.895 106.584V113.322C125.896 114.89 125.402 116.419 124.483 117.689C123.565 118.96 122.269 119.909 120.78 120.4L119.11 120.951C117.793 121.385 116.646 122.223 115.834 123.346C115.021 124.469 114.583 125.82 114.583 127.206" stroke="#59221D" stroke-width="0.810602" stroke-miterlimit="10"/>
<path d="M164.737 119.505C164.738 120.148 164.612 120.784 164.367 121.377C164.122 121.971 163.762 122.51 163.308 122.965C162.854 123.419 162.315 123.78 161.722 124.026C161.129 124.272 160.493 124.398 159.851 124.398H153.108C152.17 124.398 151.248 124.632 150.423 125.079C149.599 125.525 148.899 126.171 148.387 126.957" stroke="#59221D" stroke-width="0.810602" stroke-miterlimit="10"/>
<path d="M59.8402 132.036C59.9764 132.075 60.1126 132.117 60.2455 132.164C60.2154 132.747 60.1191 133.324 59.9586 133.885C58.78 137.995 54.4465 140.359 50.2946 139.167C50.1568 139.128 50.0206 139.086 49.8877 139.039C49.9182 138.456 50.0151 137.878 50.1762 137.316C51.3532 133.208 55.6802 130.844 59.8402 132.036Z" fill="#F5BBBB"/>
<path d="M151.612 69.6534C151.557 69.072 151.568 68.4862 151.646 67.9074C152.215 63.6696 156.154 60.7044 160.442 61.2799C160.583 61.2994 160.725 61.3221 160.862 61.348C160.917 61.9294 160.906 62.5152 160.828 63.0941C160.259 67.3319 156.32 70.2971 152.032 69.7215C151.891 69.7021 151.745 69.6794 151.612 69.6534Z" fill="#F5BBBB"/>
<path d="M186.537 95.7808C186.536 101.843 184.24 107.681 180.109 112.118C175.979 116.556 170.321 119.265 164.275 119.701C158.228 120.136 152.24 118.266 147.517 114.466C142.793 110.666 139.684 105.218 138.814 99.2178C132.601 105.114 124.017 108.759 114.536 108.759C111.087 108.762 107.654 108.271 104.344 107.299C103.23 112.575 100.524 117.351 96.6853 121.226C97.7283 125.497 97.0722 130.006 94.8553 133.802C92.6384 137.599 89.0339 140.386 84.8017 141.577C80.5696 142.767 76.0405 142.268 72.1693 140.184C68.2981 138.1 65.3873 134.595 64.0505 130.406C49.5083 127.312 38.6997 115.705 38.6997 101.86C38.6997 85.6483 53.5208 72.5036 71.8047 72.5036C74.6735 72.501 77.5329 72.8307 80.3258 73.486C81.7751 56.7665 96.5378 43.6283 114.533 43.6283C133.459 43.6283 148.805 58.1543 148.864 76.0929C152.46 73.5928 156.673 72.1254 161.045 71.8499C165.416 71.5743 169.78 72.5012 173.662 74.53C177.544 76.5587 180.796 79.6118 183.066 83.3581C185.336 87.1043 186.536 91.4006 186.537 95.7808Z" fill="#F5BBBB"/>
<path d="M54.6556 111.007C55.6423 111.007 56.4422 110.207 56.4422 109.221C56.4422 108.234 55.6423 107.434 54.6556 107.434C53.6689 107.434 52.8691 108.234 52.8691 109.221C52.8691 110.207 53.6689 111.007 54.6556 111.007Z" fill="#A74602"/>
<path d="M57.9256 91.8316C58.9123 91.8316 59.7122 91.0317 59.7122 90.045C59.7122 89.0583 58.9123 88.2584 57.9256 88.2584C56.9389 88.2584 56.139 89.0583 56.139 90.045C56.139 91.0317 56.9389 91.8316 57.9256 91.8316Z" fill="#A74602"/>
<path d="M63.7262 95.4031C64.7129 95.4031 65.5128 94.6032 65.5128 93.6165C65.5128 92.6298 64.7129 91.83 63.7262 91.83C62.7396 91.83 61.9397 92.6298 61.9397 93.6165C61.9397 94.6032 62.7396 95.4031 63.7262 95.4031Z" fill="#A74602"/>
<path d="M82.0313 90.7728C83.018 90.7728 83.8178 89.973 83.8178 88.9863C83.8178 87.9996 83.018 87.1997 82.0313 87.1997C81.0446 87.1997 80.2447 87.9996 80.2447 88.9863C80.2447 89.973 81.0446 90.7728 82.0313 90.7728Z" fill="#A74602"/>
<path d="M76.0166 116.365C77.0033 116.365 77.8032 115.565 77.8032 114.579C77.8032 113.592 77.0033 112.792 76.0166 112.792C75.0299 112.792 74.2301 113.592 74.2301 114.579C74.2301 115.565 75.0299 116.365 76.0166 116.365Z" fill="#A74602"/>
<path d="M100.86 98.2111C101.847 98.2111 102.647 97.4112 102.647 96.4245C102.647 95.4378 101.847 94.6379 100.86 94.6379C99.8732 94.6379 99.0734 95.4378 99.0734 96.4245C99.0734 97.4112 99.8732 98.2111 100.86 98.2111Z" fill="#A74602"/>
<path d="M96.5605 104.67C97.5472 104.67 98.3471 103.87 98.3471 102.883C98.3471 101.897 97.5472 101.097 96.5605 101.097C95.5738 101.097 94.7739 101.897 94.7739 102.883C94.7739 103.87 95.5738 104.67 96.5605 104.67Z" fill="#A74602"/>
<path d="M101.054 73.032C102.041 73.032 102.841 72.2321 102.841 71.2454C102.841 70.2587 102.041 69.4589 101.054 69.4589C100.068 69.4589 99.2679 70.2587 99.2679 71.2454C99.2679 72.2321 100.068 73.032 101.054 73.032Z" fill="#A74602"/>
<path d="M107.14 69.5625C108.127 69.5625 108.927 68.7626 108.927 67.7759C108.927 66.7893 108.127 65.9894 107.14 65.9894C106.154 65.9894 105.354 66.7893 105.354 67.7759C105.354 68.7626 106.154 69.5625 107.14 69.5625Z" fill="#A74602"/>
<path d="M96.6205 64.4364C97.6072 64.4364 98.4071 63.6365 98.4071 62.6498C98.4071 61.6632 97.6072 60.8633 96.6205 60.8633C95.6338 60.8633 94.8339 61.6632 94.8339 62.6498C94.8339 63.6365 95.6338 64.4364 96.6205 64.4364Z" fill="#A74602"/>
<path d="M119.269 85.491C120.255 85.491 121.055 84.6911 121.055 83.7044C121.055 82.7177 120.255 81.9178 119.269 81.9178C118.282 81.9178 117.482 82.7177 117.482 83.7044C117.482 84.6911 118.282 85.491 119.269 85.491Z" fill="#A74602"/>
<path d="M119.792 114.399C120.831 114.399 121.673 113.557 121.673 112.518C121.673 111.479 120.831 110.637 119.792 110.637C118.754 110.637 117.912 111.479 117.912 112.518C117.912 113.557 118.754 114.399 119.792 114.399Z" fill="#A74602"/>
<path d="M74.23 67.8702C75.2687 67.8702 76.1106 67.0282 76.1106 65.9896C76.1106 64.951 75.2687 64.109 74.23 64.109C73.1914 64.109 72.3494 64.951 72.3494 65.9896C72.3494 67.0282 73.1914 67.8702 74.23 67.8702Z" fill="#A74602"/>
<path d="M131.731 66.9476C132.718 66.9476 133.517 66.1478 133.517 65.1611C133.517 64.1744 132.718 63.3745 131.731 63.3745C130.744 63.3745 129.944 64.1744 129.944 65.1611C129.944 66.1478 130.744 66.9476 131.731 66.9476Z" fill="#A74602"/>
<path d="M136.235 74.2837C137.221 74.2837 138.021 73.4838 138.021 72.4971C138.021 71.5104 137.221 70.7106 136.235 70.7106C135.248 70.7106 134.448 71.5104 134.448 72.4971C134.448 73.4838 135.248 74.2837 136.235 74.2837Z" fill="#A74602"/>
<path d="M129.944 99.9569C130.931 99.9569 131.731 99.157 131.731 98.1703C131.731 97.1837 130.931 96.3838 129.944 96.3838C128.958 96.3838 128.158 97.1837 128.158 98.1703C128.158 99.157 128.958 99.9569 129.944 99.9569Z" fill="#A74602"/>
<path d="M147.868 90.7728C148.855 90.7728 149.655 89.973 149.655 88.9863C149.655 87.9996 148.855 87.1997 147.868 87.1997C146.882 87.1997 146.082 87.9996 146.082 88.9863C146.082 89.973 146.882 90.7728 147.868 90.7728Z" fill="#A74602"/>
<path d="M151.44 95.4031C152.427 95.4031 153.226 94.6032 153.226 93.6165C153.226 92.6298 152.427 91.83 151.44 91.83C150.453 91.83 149.653 92.6298 149.653 93.6165C149.653 94.6032 150.453 95.4031 151.44 95.4031Z" fill="#A74602"/>
<path d="M169.168 87.2776C170.154 87.2776 170.954 86.4777 170.954 85.491C170.954 84.5043 170.154 83.7045 169.168 83.7045C168.181 83.7045 167.381 84.5043 167.381 85.491C167.381 86.4777 168.181 87.2776 169.168 87.2776Z" fill="#A74602"/>
<path d="M162.777 114.579C163.764 114.579 164.564 113.779 164.564 112.792C164.564 111.805 163.764 111.005 162.777 111.005C161.79 111.005 160.99 111.805 160.99 112.792C160.99 113.779 161.79 114.579 162.777 114.579Z" fill="#A74602"/>
<path d="M85.6028 134.432C86.5895 134.432 87.3893 133.632 87.3893 132.645C87.3893 131.659 86.5895 130.859 85.6028 130.859C84.6161 130.859 83.8162 131.659 83.8162 132.645C83.8162 133.632 84.6161 134.432 85.6028 134.432Z" fill="#A74602"/>
<path d="M50.862 131.726C51.9006 131.726 52.7426 130.884 52.7426 129.846C52.7426 128.807 51.9006 127.965 50.862 127.965C49.8234 127.965 48.9814 128.807 48.9814 129.846C48.9814 130.884 49.8234 131.726 50.862 131.726Z" fill="#A74602"/>
<path d="M685.769 278.037C685.771 280.539 685.434 283.03 684.767 285.442H627.634C626.968 283.03 626.631 280.539 626.633 278.037C626.633 262.249 639.871 249.453 656.203 249.453C672.535 249.453 685.769 262.253 685.769 278.037Z" fill="#FFC200"/>
<path d="M626.663 274.872L638.642 285.713" stroke="white" stroke-width="0.810602" stroke-miterlimit="10" stroke-linecap="round"/>
<path d="M685.756 277.156L673.722 273.011L656.607 277.613V285.452H655.796V268.162L642.945 252.483C643.195 252.362 643.447 252.244 643.702 252.128L655.796 266.881V249.458H656.607V259.261L666.334 251.178C666.629 251.286 666.922 251.394 667.211 251.502L656.609 260.313V276.765L684.365 269.3C684.451 269.556 684.527 269.815 684.608 270.075L675.056 272.644L685.717 276.286C685.734 276.577 685.748 276.866 685.756 277.156Z" fill="white"/>
<path d="M671.002 285.53L488.161 284.891C488.161 284.891 501.704 247.618 570.205 245.184C596.266 244.259 583.111 266.169 589.76 263.029C604.062 256.275 614.277 252.681 620.777 256.183C631.332 261.868 619.224 273.411 625.674 272.949C632.125 272.487 641.754 266.464 649.02 271.096C656.286 275.728 645.469 280.36 649.02 280.823C652.57 281.287 670.692 272.348 671.002 285.53Z" fill="#98C8DB"/>
<path d="M142.601 297.843H13.4333C13.4333 291.961 20.4904 285.214 32.2393 287.052C32.0071 286.1 31.8901 285.124 31.8907 284.144C31.8907 276.577 38.7744 270.444 47.2646 270.444C48.3733 270.445 49.4794 270.553 50.567 270.769C51.0801 268.895 51.7915 267.08 52.6891 265.357C59.7933 251.671 76.9586 246.177 91.0306 253.086C102.763 258.845 108.642 271.406 106.153 283.351C109.778 281.427 113.808 280.39 117.911 280.325C122.015 280.26 126.075 281.169 129.76 282.976C136.199 286.143 140.657 291.614 142.601 297.843Z" fill="#98C8DB"/>
<path d="M383.861 94.5665H482.889C486.578 94.5665 490.232 95.2933 493.641 96.7053C497.049 98.1174 500.147 100.187 502.756 102.796C505.365 105.405 507.434 108.503 508.846 111.911C510.258 115.32 510.984 118.974 510.984 122.664V284.891" stroke="#59221D" stroke-width="0.810602" stroke-miterlimit="10"/>
<path d="M411.335 96.7471H385.613C384.167 96.7471 382.995 97.9193 382.995 99.3653V99.8387C382.995 101.285 384.167 102.457 385.613 102.457H411.335C412.781 102.457 413.953 101.285 413.953 99.8387V99.3653C413.953 97.9193 412.781 96.7471 411.335 96.7471Z" fill="#FFC200"/>
<path d="M501.675 136.817H486.737V187.692H501.675V136.817Z" fill="white"/>
<path d="M501.675 140.08H510.984" stroke="#59221D" stroke-width="0.810602" stroke-miterlimit="10"/>
<path d="M501.675 184.43H510.984" stroke="#59221D" stroke-width="0.810602" stroke-miterlimit="10"/>
<path d="M501.675 144.449H494.206V168.805H501.675V144.449Z" fill="#FED4C7"/>
<path d="M490.255 149.157H498.699" stroke="#A74602" stroke-width="0.810602" stroke-miterlimit="10"/>
<path d="M490.255 152.961H498.699" stroke="#A74602" stroke-width="0.810602" stroke-miterlimit="10"/>
<path d="M490.255 156.764H498.699" stroke="#A74602" stroke-width="0.810602" stroke-miterlimit="10"/>
<path d="M490.255 160.569H498.699" stroke="#A74602" stroke-width="0.810602" stroke-miterlimit="10"/>
<path d="M494.43 180.727C496.649 180.727 498.447 178.928 498.447 176.71C498.447 174.491 496.649 172.692 494.43 172.692C492.211 172.692 490.413 174.491 490.413 176.71C490.413 178.928 492.211 180.727 494.43 180.727Z" fill="#FFC200"/>
<path d="M169.725 31.7998L206.519 31.7998C208.588 31.7998 210.265 30.1224 210.265 28.0532V27.3788C210.265 25.3096 208.588 23.6322 206.519 23.6322L169.725 23.6322C167.656 23.6322 165.979 25.3096 165.979 27.3788V28.0532C165.979 30.1224 167.656 31.7998 169.725 31.7998Z" fill="#FFC200"/>
<path d="M209.027 20.5146H67.361C45.1635 20.5146 27.1681 38.51 27.1681 60.7092V374.641" stroke="#59221D" stroke-width="0.810602" stroke-miterlimit="10"/>
<path d="M66.1451 382.139C66.1459 384.65 65.7682 387.146 65.0249 389.545H1.12025C0.376911 387.146 -0.000746987 384.65 1.10923e-06 382.139C1.10923e-06 366.352 14.8065 353.556 33.0726 353.556C51.3387 353.556 66.1451 366.352 66.1451 382.139Z" fill="#FFC200"/>
<path d="M13.3522 389.545H12.0812L0.12484 379.655C0.155643 379.331 0.19293 379.007 0.238324 378.696L13.3522 389.545Z" fill="white"/>
<path d="M64.8822 374.294L33.4779 381.717V389.545H32.6673V375.811L22.4683 364.625C22.4406 364.632 22.4123 364.635 22.384 364.635H6.93064C7.17598 364.361 7.42727 364.091 7.6845 363.824H21.7387L16.0807 357.617C16.3293 357.487 16.58 357.36 16.833 357.237L32.6673 374.612V353.557H33.4779V363.158L41.2288 354.431C41.5304 354.497 41.8287 354.567 42.127 354.64L33.4779 364.379V380.882L52.2319 376.444C52.2345 376.437 52.2378 376.43 52.2417 376.424L59.2128 364.622C59.4058 364.834 59.5922 365.048 59.7754 365.27L53.3246 376.191L64.6147 373.525C64.7087 373.778 64.7979 374.036 64.8822 374.294Z" fill="white"/>
<path d="M548.1 297.079C548.1 297.079 540.969 304.276 532.846 304.092L511.039 237.662L532.011 236.836L548.1 297.079Z" fill="#59221D"/>
<path d="M544.521 272.894L520.423 296.653C519.681 295.746 514.299 288.904 514.351 279.886L530.736 262.937L522.009 253.713C515.937 247.232 513.117 243.935 511.039 237.662L533.5 231.34L546.988 254.987C548.608 257.826 549.245 261.121 548.799 264.36C548.352 267.598 546.848 270.599 544.521 272.894Z" fill="#A74602"/>
<path d="M525.965 234.181C525.855 235.002 524.403 244.71 516.953 248.095C516.247 247.246 515.611 246.429 515.031 245.615C522.705 241.527 525.499 233.709 525.499 233.709C525.65 233.871 525.806 234.029 525.965 234.181Z" fill="#59221D"/>
<path d="M530.465 262.937L533.161 260.303" stroke="#59221D" stroke-width="0.312466" stroke-linecap="round" stroke-linejoin="round"/>
<path d="M555.406 306.327V306.488H533.82L532.715 303.149C542.514 303.206 547.901 296.972 547.901 296.972L553.745 302.498C554.784 303.503 555.382 304.881 555.406 306.327Z" fill="white" stroke="#592D29" stroke-width="0.312466" stroke-linecap="round" stroke-linejoin="round"/>
<path d="M533.432 305.314H555.274" stroke="#592D29" stroke-width="0.312466" stroke-linecap="round" stroke-linejoin="round"/>
<path d="M550.722 305.163C550.717 304.433 550.879 303.711 551.195 303.053C551.511 302.395 551.973 301.818 552.546 301.365" stroke="#592D29" stroke-width="0.312466" stroke-linecap="round" stroke-linejoin="round"/>
<path d="M546.634 300.134L549.064 297.822C549.171 297.72 549.313 297.664 549.461 297.666C549.608 297.668 549.749 297.727 549.854 297.831V297.831C549.955 297.933 550.014 298.069 550.019 298.212C550.024 298.355 549.974 298.495 549.88 298.603" stroke="#592D29" stroke-width="0.312466" stroke-linecap="round" stroke-linejoin="round"/>
<path d="M547.65 301.014L550.079 298.702C550.185 298.6 550.328 298.544 550.476 298.546C550.623 298.548 550.764 298.607 550.869 298.711V298.711C550.97 298.812 551.03 298.948 551.035 299.092C551.04 299.235 550.99 299.375 550.895 299.482" stroke="#592D29" stroke-width="0.312466" stroke-linecap="round" stroke-linejoin="round"/>
<path d="M512.25 306.48L511.033 306.488L511.003 283.102L514.353 280.04C514.203 289.838 520.382 296.628 520.382 296.628L513.894 305.782C513.679 306.001 513.423 306.175 513.141 306.295C512.859 306.414 512.556 306.477 512.25 306.48Z" fill="white" stroke="#592D29" stroke-width="0.312466" stroke-linecap="round" stroke-linejoin="round"/>
<path d="M512.304 300.776C513.012 300.955 513.669 301.294 514.227 301.765C514.784 302.237 515.227 302.829 515.521 303.498" stroke="#592D29" stroke-width="0.312466" stroke-linecap="round" stroke-linejoin="round"/>
<path d="M512.276 281.939V306.48" stroke="#592D29" stroke-width="0.312466" stroke-linecap="round" stroke-linejoin="round"/>
<path d="M517.063 296.511L519.254 299.052C519.351 299.163 519.401 299.309 519.392 299.456C519.382 299.603 519.316 299.741 519.206 299.84C519.099 299.936 518.961 299.988 518.817 299.986C518.674 299.984 518.537 299.927 518.434 299.828" stroke="#592D29" stroke-width="0.312466" stroke-linecap="round" stroke-linejoin="round"/>
<path d="M516.134 297.481L518.326 300.022C518.423 300.134 518.472 300.279 518.463 300.426C518.454 300.574 518.387 300.712 518.277 300.81V300.81C518.171 300.907 518.032 300.959 517.889 300.957C517.746 300.954 517.609 300.898 517.505 300.799" stroke="#592D29" stroke-width="0.312466" stroke-linecap="round" stroke-linejoin="round"/>
<path d="M536.709 212.414V231.167C536.709 231.799 536.96 232.406 537.407 232.852C537.854 233.299 538.46 233.551 539.092 233.551C539.724 233.551 540.331 233.3 540.778 232.853C541.225 232.406 541.476 231.799 541.476 231.167V220.571" stroke="#59221D" stroke-width="0.312466" stroke-linecap="round" stroke-linejoin="round"/>
<path d="M545.622 216.649L543.762 221.52C541.918 226.24 537.504 229.347 532.436 229.347L537.709 238.721C537.709 238.721 529.823 238.363 525.499 233.707C525.499 233.707 521.749 244.2 511.008 247.23L511.039 237.659V209.836C511.039 201.876 517.494 195.425 525.454 195.429H525.486C528.012 195.429 530.443 196.395 532.28 198.129C534.117 199.863 535.221 202.235 535.366 204.757L535.624 209.228L535.716 210.836C535.716 210.836 535.907 217.166 545.622 216.649Z" fill="#98C8DB"/>
<path d="M512.59 203.329V246.714C512.5 246.747 512.41 246.781 512.318 246.812V203.891C512.336 203.854 512.353 203.817 512.37 203.78C512.412 203.69 512.455 203.599 512.5 203.51C512.528 203.448 512.558 203.389 512.59 203.329Z" fill="#CEE4ED"/>
<path d="M514.238 200.781V246.014C514.148 246.057 514.058 246.099 513.967 246.139V201.129C514.056 201.012 514.149 200.897 514.238 200.781Z" fill="#CEE4ED"/>
<path d="M515.885 199.058V245.133C515.796 245.187 515.706 245.24 515.615 245.292V199.304C515.704 199.219 515.794 199.139 515.885 199.058Z" fill="#CEE4ED"/>
<path d="M517.534 197.795V244.04C517.445 244.102 517.354 244.17 517.263 244.235V197.977C517.353 197.915 517.444 197.855 517.534 197.795Z" fill="#CEE4ED"/>
<path d="M519.183 196.858V242.704C519.093 242.784 519.003 242.864 518.911 242.943V196.993C518.991 196.952 519.071 196.912 519.151 196.874C519.161 196.868 519.172 196.863 519.183 196.858Z" fill="#CEE4ED"/>
<path d="M520.83 196.184V241.074C520.743 241.171 520.652 241.268 520.56 241.364V196.282C520.648 196.246 520.74 196.215 520.83 196.184Z" fill="#CEE4ED"/>
<path d="M522.479 195.735V239.071C522.39 239.19 522.3 239.31 522.208 239.431V195.794C522.298 195.774 522.388 195.754 522.479 195.735Z" fill="#CEE4ED"/>
<path d="M524.127 195.488V236.546C524.092 236.608 524.055 236.671 524.018 236.733C523.966 236.822 523.913 236.912 523.858 237.004V195.515C523.946 195.505 524.036 195.496 524.127 195.488Z" fill="#CEE4ED"/>
<path d="M525.776 195.432V233.996C525.684 233.904 525.593 233.808 525.505 233.716V195.429C525.596 195.429 525.686 195.43 525.776 195.432Z" fill="#CEE4ED"/>
<path d="M527.424 195.619V235.374L527.382 235.346C527.305 235.291 527.229 235.236 527.153 235.18V195.569C527.244 195.584 527.335 195.601 527.424 195.619Z" fill="#CEE4ED"/>
<path d="M529.072 196.099V236.374C528.981 236.327 528.891 236.279 528.801 236.229V195.999C528.892 196.032 528.982 196.064 529.072 196.099Z" fill="#CEE4ED"/>
<path d="M530.72 196.925V237.133C530.63 237.097 530.539 237.059 530.449 237.022V196.762C530.512 196.798 530.574 196.836 530.637 196.874C530.665 196.891 530.693 196.907 530.72 196.925Z" fill="#CEE4ED"/>
<path d="M532.369 198.215V237.715C532.279 237.687 532.189 237.659 532.098 237.629V197.962C532.161 198.017 532.219 198.072 532.28 198.129C532.309 198.157 532.339 198.185 532.369 198.215Z" fill="#CEE4ED"/>
<path d="M534.017 232.158V238.157C533.927 238.137 533.837 238.115 533.746 238.095V231.677L533.765 231.71L533.917 231.98L534.017 232.158Z" fill="#CEE4ED"/>
<path d="M534.017 200.306V229.245C533.927 229.257 533.837 229.268 533.746 229.278V199.873C533.815 199.977 533.882 200.084 533.948 200.192C533.972 200.229 533.995 200.268 534.017 200.306Z" fill="#CEE4ED"/>
<path d="M535.665 210.145V228.913C535.575 228.938 535.485 228.961 535.394 228.984V210.145H535.665Z" fill="#CEE4ED"/>
<path d="M535.665 235.09V238.486C535.576 238.473 535.486 238.457 535.394 238.441V234.609L535.657 235.077L535.665 235.09Z" fill="#CEE4ED"/>
<path d="M537.313 214.257V228.324C537.262 228.348 537.21 228.37 537.158 228.391L537.042 228.439V213.957C537.127 214.057 537.217 214.158 537.313 214.257Z" fill="#CEE4ED"/>
<path d="M537.313 238.018V238.695C537.234 238.688 537.143 238.68 537.042 238.668V237.537L537.313 238.018Z" fill="#CEE4ED"/>
<path d="M538.962 215.499V227.435C538.872 227.494 538.782 227.55 538.69 227.605V215.342L538.77 215.389C538.834 215.428 538.896 215.463 538.962 215.499Z" fill="#CEE4ED"/>
<path d="M540.61 216.172V226.158C540.522 226.241 540.43 226.322 540.339 226.401V216.086C540.428 216.116 540.521 216.145 540.61 216.172Z" fill="#CEE4ED"/>
<path d="M542.258 216.529V224.296C542.171 224.42 542.08 224.539 541.988 224.658V216.486C542.076 216.5 542.166 216.514 542.258 216.529Z" fill="#CEE4ED"/>
<path d="M543.906 216.669V221.142L543.762 221.517C543.731 221.596 543.699 221.676 543.666 221.754C543.656 221.778 543.646 221.803 543.636 221.827V216.654C543.725 216.663 543.815 216.666 543.906 216.669Z" fill="#CEE4ED"/>
<path d="M545.555 216.654V216.828L545.469 217.052L545.281 217.537V216.665C545.373 216.662 545.463 216.658 545.555 216.654Z" fill="#CEE4ED"/>
<path d="M533.917 231.98H511.039V231.71H533.765L533.917 231.98Z" fill="#CEE4ED"/>
<path d="M532.984 230.322H511.039V230.051H532.831L532.984 230.322Z" fill="#CEE4ED"/>
<path d="M537.158 228.391L537.043 228.439C536.851 228.519 536.656 228.594 536.459 228.663H511.039V228.391H537.158Z" fill="#CEE4ED"/>
<path d="M539.94 226.733C539.824 226.826 539.707 226.917 539.587 227.004H511.039V226.733H539.94Z" fill="#CEE4ED"/>
<path d="M541.65 225.074C541.572 225.165 541.493 225.256 541.413 225.344H511.042V225.074H541.65Z" fill="#CEE4ED"/>
<path d="M542.833 223.415C542.779 223.506 542.723 223.597 542.666 223.686H511.039V223.415H542.833Z" fill="#CEE4ED"/>
<path d="M543.666 221.756C543.656 221.781 543.646 221.805 543.636 221.829C543.609 221.896 543.58 221.961 543.55 222.027H511.039V221.756H543.666Z" fill="#CEE4ED"/>
<path d="M544.305 220.097L544.202 220.368H511.039V220.097H544.305Z" fill="#CEE4ED"/>
<path d="M544.939 218.439L544.835 218.709H511.039V218.439H544.939Z" fill="#CEE4ED"/>
<path d="M545.572 216.78L545.555 216.827L545.468 217.051H511.039V216.78H545.572Z" fill="#CEE4ED"/>
<path d="M538.771 215.391H511.039V215.121H538.34C538.452 215.197 538.569 215.273 538.69 215.345L538.771 215.391Z" fill="#CEE4ED"/>
<path d="M536.864 213.733H511.039V213.462H536.669C536.731 213.552 536.794 213.642 536.864 213.733Z" fill="#CEE4ED"/>
<path d="M535.98 212.074H511.039V211.804H535.896C535.918 211.891 535.947 211.981 535.98 212.074Z" fill="#CEE4ED"/>
<path d="M535.691 210.415H511.039V210.145H535.677L535.691 210.415Z" fill="#CEE4ED"/>
<path d="M535.597 208.756H511.079C511.086 208.666 511.093 208.576 511.101 208.486H535.584L535.597 208.756Z" fill="#CEE4ED"/>
<path d="M535.501 207.098H511.299C511.317 207.007 511.335 206.917 511.353 206.827H535.485L535.501 207.098Z" fill="#CEE4ED"/>
<path d="M535.405 205.439H511.72C511.749 205.348 511.779 205.258 511.81 205.168H535.396V205.238L535.405 205.439Z" fill="#CEE4ED"/>
<path d="M535.262 203.781H512.37C512.412 203.69 512.455 203.6 512.5 203.51H535.215C535.232 203.6 535.248 203.69 535.262 203.781Z" fill="#CEE4ED"/>
<path d="M534.852 202.122H513.274C513.331 202.031 513.39 201.94 513.45 201.851H534.753C534.788 201.941 534.821 202.031 534.852 202.122Z" fill="#CEE4ED"/>
<path d="M534.107 200.462H514.506C514.583 200.371 514.662 200.281 514.743 200.192H533.948C533.972 200.229 533.995 200.268 534.017 200.306C534.047 200.358 534.077 200.409 534.107 200.462Z" fill="#CEE4ED"/>
<path d="M532.93 198.804H516.182C516.29 198.712 516.402 198.621 516.514 198.533H532.685C532.768 198.621 532.85 198.712 532.93 198.804Z" fill="#CEE4ED"/>
<path d="M531.056 197.145H518.62C518.715 197.093 518.812 197.042 518.909 196.993C518.988 196.952 519.068 196.912 519.148 196.874H530.635C530.663 196.891 530.691 196.908 530.718 196.925C530.834 196.995 530.945 197.068 531.056 197.145Z" fill="#CEE4ED"/>
<path d="M516.062 245.026L515.885 245.132C515.796 245.186 515.706 245.239 515.615 245.291V245.297H511.015V245.026H516.062Z" fill="#CEE4ED"/>
<path d="M518.404 243.369C518.293 243.46 518.18 243.55 518.065 243.64H511.02V243.369H518.404Z" fill="#CEE4ED"/>
<path d="M520.226 241.71C520.137 241.8 520.047 241.891 519.955 241.98H511.024V241.71H520.226Z" fill="#CEE4ED"/>
<path d="M521.716 240.051C521.642 240.141 521.567 240.232 521.491 240.322H511.03V240.051H521.716Z" fill="#CEE4ED"/>
<path d="M522.96 238.393C522.898 238.482 522.835 238.573 522.773 238.663H511.035V238.393H522.96Z" fill="#CEE4ED"/>
<path d="M537.676 238.663H536.988C536.646 238.626 536.196 238.57 535.667 238.484C535.579 238.47 535.488 238.455 535.396 238.438C535.305 238.422 535.227 238.409 535.14 238.393H537.521L537.676 238.663Z" fill="#CEE4ED"/>
<path d="M524.018 236.734C523.966 236.822 523.913 236.912 523.858 237.004H511.039V236.734H524.018Z" fill="#CEE4ED"/>
<path d="M536.743 237.004H530.408C530.205 236.918 530.001 236.828 529.798 236.734H536.59L536.743 237.004Z" fill="#CEE4ED"/>
<path d="M524.904 235.074C524.862 235.161 524.817 235.251 524.771 235.346H511.039V235.074H524.904Z" fill="#CEE4ED"/>
<path d="M535.81 235.346H527.382C527.305 235.291 527.229 235.236 527.153 235.18L527.014 235.074H535.657L535.665 235.087L535.81 235.346Z" fill="#CEE4ED"/>
<path d="M534.876 233.686H511.039V233.415H534.724L534.876 233.686Z" fill="#CEE4ED"/>
<path d="M520.371 196.349L522.552 193.754C522.655 193.632 522.785 193.536 522.931 193.473C523.078 193.411 523.237 193.384 523.397 193.395L529.266 193.797C529.436 193.809 529.601 193.863 529.744 193.955C529.888 194.048 530.006 194.174 530.087 194.324L531.962 197.78C531.962 197.78 529.362 195.44 525.039 195.525C522.249 195.579 520.371 196.349 520.371 196.349Z" fill="#7EBAD2"/>
<path d="M532.032 197.713C532.032 197.713 529.275 195.44 524.803 195.526C521.915 195.58 519.972 196.349 519.972 196.349" stroke="white" stroke-width="0.312466" stroke-linecap="round" stroke-linejoin="round"/>
<path d="M545.465 216.809C534.528 216.916 535.643 210.292 535.643 210.292L529.991 216.087" stroke="white" stroke-width="0.312466" stroke-linecap="round" stroke-linejoin="round"/>
<path d="M519.286 213.872C519.286 213.872 522.488 229.426 532.999 229.536" stroke="white" stroke-width="0.312466" stroke-linecap="round" stroke-linejoin="round"/>
<path d="M529.96 192.568L529.573 193.866C529.476 193.828 529.373 193.804 529.269 193.797L523.398 193.395C523.369 193.395 523.341 193.395 523.313 193.395L525.969 188.439L529.96 192.568Z" fill="#FFC200"/>
<path d="M529.96 192.568L529.573 193.866C529.476 193.828 529.373 193.804 529.269 193.797L528.12 193.72C527.713 193.322 527.506 192.778 527.515 192.157L527.526 191.349L527.699 190.231L529.96 192.568Z" fill="#A74602"/>
<path d="M528.117 188.058C528.117 188.058 530.475 188.458 531.89 187.308C533.518 185.989 533.005 183.838 531.582 183.694C530.004 183.535 529.737 185.045 529.855 185.2C529.855 185.2 529.37 185.496 528.144 185.262C527.213 185.085 526.474 184.904 525.536 185.673C524.556 186.475 524.735 188.644 526.315 189.218C527.277 189.57 528.117 188.058 528.117 188.058Z" fill="#A74602"/>
<path d="M528.217 188.071C530.966 188.361 532.015 187.187 532.015 187.187C532.741 188 532.64 190.537 532.64 190.537C531.314 191.145 531.243 192.902 531.243 192.902C530.73 192.938 530.216 192.936 529.703 192.896C529.202 192.857 528.734 192.628 528.395 192.257C528.056 191.886 527.871 191.399 527.878 190.896L527.884 190.444H527.756C527.596 190.447 527.438 190.419 527.289 190.36C527.141 190.302 527.005 190.214 526.891 190.103C526.777 189.991 526.686 189.858 526.625 189.711C526.563 189.564 526.531 189.406 526.531 189.246C526.531 189.086 526.563 188.928 526.625 188.781C526.686 188.634 526.777 188.501 526.891 188.389C527.005 188.278 527.141 188.19 527.289 188.131C527.438 188.073 527.596 188.045 527.756 188.048L528.217 188.071Z" fill="#FFC200"/>
<path d="M530.46 188.509C530.46 188.509 531.109 188.086 531.716 188.141" stroke="#59221D" stroke-width="0.312466" stroke-linecap="round" stroke-linejoin="round"/>
<path d="M531.183 189.48C531.301 189.48 531.397 189.326 531.397 189.137C531.397 188.947 531.301 188.794 531.183 188.794C531.065 188.794 530.969 188.947 530.969 189.137C530.969 189.326 531.065 189.48 531.183 189.48Z" fill="#59221D"/>
<path d="M530.777 191.085C530.777 191.085 530.79 191.495 531.476 191.527" stroke="#59221D" stroke-width="0.312466" stroke-linecap="round" stroke-linejoin="round"/>
<path d="M527.369 189.202C527.369 189.133 527.383 189.064 527.409 189C527.436 188.935 527.475 188.877 527.524 188.828C527.573 188.778 527.632 188.739 527.696 188.713C527.761 188.686 527.83 188.672 527.899 188.672" stroke="#59221D" stroke-width="0.312466" stroke-linecap="round" stroke-linejoin="round"/>
<path d="M527.954 187.745H527.478C526.77 187.745 526.196 188.318 526.196 189.026V189.502C526.196 190.21 526.77 190.784 527.478 190.784H527.954C528.661 190.784 529.235 190.21 529.235 189.502V189.026C529.235 188.318 528.661 187.745 527.954 187.745Z" fill="white" stroke="#59221D" stroke-width="0.312466" stroke-linecap="round" stroke-linejoin="round"/>
<path d="M527.807 187.685V185.095C527.807 184.992 527.848 184.892 527.921 184.818C527.995 184.745 528.095 184.704 528.199 184.704V184.704C528.302 184.704 528.402 184.745 528.476 184.818C528.549 184.892 528.59 184.992 528.59 185.095" stroke="#59221D" stroke-width="0.312466" stroke-linecap="round" stroke-linejoin="round"/>
<path d="M527.647 190.818V192.778C527.647 193.596 527.886 194.396 528.334 195.08C528.783 195.765 529.421 196.303 530.171 196.63V196.63C534.14 198.361 536.706 202.415 536.706 206.746V210.371" stroke="#59221D" stroke-width="0.312466" stroke-linecap="round" stroke-linejoin="round"/>
<path d="M545.81 216.399C536.095 216.916 535.841 210.525 535.841 210.525L544.291 197.165C544.624 196.634 545.087 196.196 545.635 195.893C546.184 195.589 546.8 195.43 547.427 195.43H548.525L548.342 195.769C548.274 195.894 548.24 196.034 548.244 196.177C548.247 196.319 548.287 196.458 548.359 196.58C548.432 196.703 548.536 196.804 548.66 196.874C548.783 196.945 548.923 196.982 549.066 196.982H549.852C550.001 196.982 550.148 196.941 550.276 196.864C550.405 196.787 550.509 196.676 550.579 196.544L552.565 192.771L553.231 194.83C553.446 195.493 553.427 196.211 553.178 196.862L545.81 216.399Z" fill="#FFC200"/>
<path d="M552.503 192.886L550.582 196.541C550.512 196.673 550.408 196.784 550.28 196.861C550.151 196.938 550.005 196.979 549.855 196.978H549.042C548.902 196.978 548.763 196.942 548.641 196.873C548.518 196.804 548.415 196.705 548.342 196.585C548.268 196.465 548.227 196.328 548.222 196.187C548.216 196.047 548.247 195.907 548.311 195.782L549.811 192.893C549.898 192.724 550.03 192.582 550.193 192.482C550.355 192.383 550.541 192.331 550.732 192.33H552.169C552.234 192.33 552.298 192.347 552.355 192.38C552.412 192.412 552.459 192.458 552.493 192.514C552.527 192.57 552.545 192.634 552.547 192.699C552.549 192.764 552.534 192.829 552.503 192.886Z" fill="#59221D"/>
<path d="M548.242 210.02C548.242 210.02 549.121 216.644 545.329 216.674C535.413 216.743 535.716 210.901 535.716 210.901C535.716 208.236 538.074 206.937 538.074 206.937C538.074 206.937 538.215 209.43 542.043 210.535C545.872 211.641 548.242 210.02 548.242 210.02Z" fill="#7EBAD2"/>
<path d="M186.586 382.559C236.629 382.559 277.197 380.156 277.197 377.192C277.197 374.227 236.629 371.824 186.586 371.824C136.543 371.824 95.9753 374.227 95.9753 377.192C95.9753 380.156 136.543 382.559 186.586 382.559Z" fill="#CEE4ED"/>
<path d="M225.099 378.069H207.086C206.713 378.066 206.353 377.93 206.071 377.686L203.216 375.254C203.139 375.187 203.045 375.141 202.944 375.121C202.844 375.1 202.74 375.106 202.642 375.138C202.544 375.169 202.456 375.225 202.387 375.3C202.317 375.375 202.268 375.467 202.244 375.567L201.782 377.49C201.742 377.656 201.647 377.803 201.513 377.909C201.379 378.015 201.213 378.072 201.042 378.072H193.781C193.669 378.072 193.558 378.047 193.457 378C193.356 377.952 193.266 377.883 193.195 377.796C193.123 377.71 193.072 377.609 193.044 377.501C193.016 377.392 193.013 377.279 193.034 377.169L195.248 365.581H213.586L225.099 378.069Z" fill="#59221D"/>
<path d="M122.069 366.456L111.109 351.941C110.952 351.733 110.875 351.475 110.89 351.215L111.135 347.241C111.141 347.145 111.123 347.048 111.081 346.961C111.039 346.874 110.975 346.799 110.896 346.743C110.816 346.688 110.724 346.653 110.628 346.644C110.531 346.634 110.434 346.65 110.346 346.689L108.596 347.451C108.408 347.533 108.197 347.549 107.998 347.497C107.799 347.444 107.624 347.326 107.5 347.162L103.285 341.579C103.206 341.474 103.15 341.352 103.121 341.224C103.092 341.095 103.092 340.962 103.12 340.833C103.148 340.704 103.203 340.582 103.282 340.477C103.362 340.371 103.463 340.284 103.579 340.222L114.167 334.487L125.601 349.701L122.069 366.456Z" fill="#59221D"/>
<path d="M241.884 216.675L240.275 232.887C239.88 236.494 238.118 239.813 235.351 242.16C232.584 244.508 229.022 245.706 225.399 245.508C221.775 245.311 218.366 243.732 215.871 241.097C213.376 238.462 211.985 234.971 211.985 231.342V222.821C211.985 224.6 211.279 226.306 210.021 227.564C208.762 228.822 207.056 229.529 205.277 229.529H180.438C178.938 229.529 177.498 228.933 176.437 227.872C175.376 226.811 174.779 225.372 174.779 223.871V213.59C174.779 213.411 174.722 213.237 174.617 213.092C174.512 212.948 174.364 212.84 174.194 212.785C174.024 212.73 173.841 212.73 173.671 212.785C173.502 212.84 173.353 212.947 173.248 213.092L135.799 264.549C136.502 256.405 123.335 250.835 122.153 252.523L161.174 196.737C162.978 194.158 165.379 192.052 168.171 190.598C170.964 189.145 174.066 188.387 177.214 188.388H181.862C182.81 188.388 183.738 188.112 184.531 187.592C185.324 187.072 185.947 186.331 186.325 185.462L186.973 183.952H197.641L198.306 185.517C198.68 186.395 199.304 187.143 200.1 187.669C200.896 188.194 201.829 188.474 202.783 188.474H206.387C211.576 188.474 216.553 190.535 220.222 194.204C223.891 197.873 225.952 202.85 225.952 208.038V214.163L239.293 213.873C239.654 213.865 240.012 213.934 240.344 214.075C240.676 214.216 240.974 214.426 241.219 214.691C241.464 214.956 241.65 215.269 241.764 215.611C241.879 215.953 241.92 216.316 241.884 216.675Z" fill="#F3B304"/>
<path d="M211.984 222.824V209.626" stroke="#59221D" stroke-width="0.810602" stroke-linecap="round" stroke-linejoin="round"/>
<path d="M223.799 217.717L221.803 227.024" stroke="#59221D" stroke-width="0.810602" stroke-linecap="round" stroke-linejoin="round"/>
<path d="M207.43 229.847H179.09V233.953H207.43V229.847Z" fill="white" stroke="#59221D" stroke-width="0.810602" stroke-linejoin="round"/>
<path d="M204.567 229.847H182.011V233.953H204.567V229.847Z" stroke="#59221D" stroke-width="0.810602" stroke-linejoin="round"/>
<path d="M201.59 229.847H184.932V233.953H201.59V229.847Z" stroke="#59221D" stroke-width="0.810602" stroke-linejoin="round"/>
<path d="M198.675 229.847H187.88V233.953H198.675V229.847Z" stroke="#59221D" stroke-width="0.810602" stroke-linejoin="round"/>
<path d="M195.302 229.847H191.253V233.953H195.302V229.847Z" stroke="#59221D" stroke-width="0.810602" stroke-linejoin="round"/>
<path d="M180.991 233.955H204.576C206.278 233.955 207.916 234.602 209.157 235.766C210.398 236.93 211.149 238.523 211.257 240.221L218.532 353.705C218.603 354.817 218.445 355.932 218.069 356.981C217.692 358.03 217.104 358.99 216.342 359.803C215.58 360.615 214.659 361.263 213.636 361.706C212.613 362.149 211.511 362.377 210.397 362.377H196.967C194.911 362.377 192.931 361.6 191.423 360.202C189.916 358.805 188.992 356.889 188.838 354.839L184.161 292.782C184.161 292.782 172.935 331.866 134.151 348.876C132.921 349.415 131.545 349.521 130.246 349.177C128.948 348.834 127.805 348.061 127.002 346.984L117.043 333.635C116.254 332.579 115.907 331.258 116.074 329.951C116.242 328.644 116.91 327.453 117.939 326.63C126.65 319.658 147.583 301.462 155.376 281.779C162.54 263.688 169.657 247.126 173.161 239.073C173.826 237.55 174.921 236.255 176.312 235.346C177.703 234.437 179.329 233.953 180.991 233.955Z" fill="white" stroke="#59221D" stroke-width="0.810602" stroke-linejoin="round"/>
<path d="M213.188 362.377H195.645V365.77H213.188V362.377Z" fill="white" stroke="#59221D" stroke-width="0.810602" stroke-linejoin="round"/>
<path d="M210.491 362.377V365.77" stroke="#59221D" stroke-width="0.810602" stroke-linejoin="round"/>
<path d="M207.501 362.377V365.77" stroke="#59221D" stroke-width="0.810602" stroke-linejoin="round"/>
<path d="M204.513 362.377V365.77" stroke="#59221D" stroke-width="0.810602" stroke-linejoin="round"/>
<path d="M201.525 362.377V365.77" stroke="#59221D" stroke-width="0.810602" stroke-linejoin="round"/>
<path d="M198.537 362.377V365.77" stroke="#59221D" stroke-width="0.810602" stroke-linejoin="round"/>
<path d="M127.633 347.797L116.585 333.161L113.905 335.184L124.954 349.82L127.633 347.797Z" fill="white" stroke="#59221D" stroke-width="0.810602" stroke-linejoin="round"/>
<path d="M115.662 337.514L118.34 335.491" stroke="#59221D" stroke-width="0.810602" stroke-linejoin="round"/>
<path d="M117.589 340.021L120.269 337.997" stroke="#59221D" stroke-width="0.810602" stroke-linejoin="round"/>
<path d="M119.517 342.527L122.197 340.504" stroke="#59221D" stroke-width="0.810602" stroke-linejoin="round"/>
<path d="M121.446 345.033L124.124 343.01" stroke="#59221D" stroke-width="0.810602" stroke-linejoin="round"/>
<path d="M123.181 347.538L125.859 345.517" stroke="#59221D" stroke-width="0.810602" stroke-linejoin="round"/>
<path d="M184.161 292.782C188.256 284.849 195.42 261.817 199.001 261.817" stroke="#59221D" stroke-width="0.810602" stroke-linecap="round" stroke-linejoin="round"/>
<path d="M207.43 188.501L175.589 257.855" stroke="#59221D" stroke-width="0.810602" stroke-linecap="round" stroke-linejoin="round"/>
<path d="M171.431 267.507H161.686L164.964 259.448H174.378C174.59 259.449 174.799 259.502 174.985 259.602C175.172 259.703 175.331 259.847 175.449 260.023C175.568 260.199 175.641 260.401 175.662 260.612C175.684 260.822 175.654 261.035 175.575 261.232L173.618 266.042C173.44 266.476 173.137 266.847 172.748 267.108C172.358 267.369 171.9 267.508 171.431 267.507Z" fill="#F5BBBB"/>
<path d="M170.729 265.915H161.863L165.141 257.855H175.593L172.914 264.443C172.738 264.878 172.435 265.25 172.046 265.512C171.657 265.775 171.198 265.915 170.729 265.915V265.915Z" stroke="#59221D" stroke-width="0.810602" stroke-linecap="round" stroke-linejoin="round"/>
<path d="M163.881 260.917H174.331" stroke="#59221D" stroke-width="0.810602" stroke-linecap="round" stroke-linejoin="round"/>
<path d="M135.803 264.551C135.803 264.551 130.523 269.434 122.156 268.093C113.789 266.752 110.856 257.732 111.816 254.917C112.776 252.103 116.031 253.637 116.031 256.196C116.031 256.196 120.974 254.215 122.154 252.528C123.335 250.84 136.507 256.406 135.803 264.551Z" fill="#A74602"/>
<path d="M112.278 258.495C112.278 258.495 113.03 261.992 119.684 259.502" stroke="#59221D" stroke-width="0.810602" stroke-linecap="round" stroke-linejoin="round"/>
<path d="M114.4 262.743C114.4 262.743 115.885 265.922 121.997 263.553" stroke="#59221D" stroke-width="0.810602" stroke-linecap="round" stroke-linejoin="round"/>
<path d="M119.588 266.998C120.618 267.193 122.85 267.53 125.274 266.442" stroke="#59221D" stroke-width="0.810602" stroke-linecap="round" stroke-linejoin="round"/>
<path d="M224.702 216.907L233.197 216.9C233.859 216.899 234.395 216.362 234.394 215.701L234.38 199.534C234.38 198.872 233.843 198.337 233.181 198.337L224.686 198.344C224.024 198.345 223.488 198.882 223.489 199.544L223.503 215.71C223.504 216.372 224.041 216.908 224.702 216.907Z" fill="#59221D"/>
<path d="M240.4 213.959C237.524 220.133 232.336 221.3 228.241 220.463L224.848 219.77C223.852 219.48 222.982 218.866 222.377 218.024C221.771 217.183 221.465 216.162 221.507 215.126L221.927 204.841C221.943 204.429 222.113 204.037 222.403 203.742C222.694 203.448 223.083 203.273 223.496 203.251V204.272C223.497 204.932 223.755 205.564 224.217 206.035C224.679 206.505 225.306 206.777 225.965 206.79L231.814 206.91H231.866C233.257 206.91 234.387 205.409 234.387 204.011L237.821 204.14C238.836 204.177 240.102 204.986 240.224 206.151L240.4 213.959Z" fill="#A74602"/>
<path d="M222.491 206.878C222.403 209.01 224.864 209.843 227.268 210.12" stroke="#59221D" stroke-width="0.810602" stroke-miterlimit="10" stroke-linecap="round"/>
<path d="M222.397 210.172C222.309 212.304 224.77 213.139 227.174 213.415" stroke="#59221D" stroke-width="0.810602" stroke-miterlimit="10" stroke-linecap="round"/>
<path d="M222.137 213.59C222.051 215.721 224.511 216.441 226.917 216.717" stroke="#59221D" stroke-width="0.810602" stroke-miterlimit="10" stroke-linecap="round"/>
<path d="M225.561 201.09C225.911 201.09 226.194 200.807 226.194 200.458C226.194 200.109 225.911 199.826 225.561 199.826C225.212 199.826 224.929 200.109 224.929 200.458C224.929 200.807 225.212 201.09 225.561 201.09Z" fill="#98C8DB"/>
<path d="M225.749 201.09C226.099 201.09 226.382 200.807 226.382 200.458C226.382 200.109 226.099 199.826 225.749 199.826C225.4 199.826 225.117 200.109 225.117 200.458C225.117 200.807 225.4 201.09 225.749 201.09Z" fill="#98C8DB"/>
<path d="M177.848 183.952H204.863C204.863 183.952 207.036 182.138 205.953 179.65C204.87 177.161 199.661 175.961 199.601 171.689C199.541 167.418 195.548 164.094 190.746 165.835C186.237 167.468 187.951 172.819 185.534 174.478C183.117 176.136 175.886 176.738 177.848 183.952Z" fill="#59221D"/>
<path d="M197.636 183.954H186.975L188.638 178.409H196.48L197.636 183.954Z" fill="#A74602"/>
<path d="M197.641 183.952H196.438C195.298 183.952 194.174 183.685 193.156 183.173C192.137 182.661 191.253 181.918 190.573 181.003L188.643 178.409H196.485L197.641 183.952Z" fill="#59221D"/>
<path d="M198.792 175.075C198.377 177.873 197.364 181.721 194.94 181.721C192.377 181.721 190.034 179.776 189.086 178.863H186.855C186.245 178.847 185.665 178.593 185.239 178.156C184.813 177.719 184.574 177.132 184.574 176.521C184.574 175.911 184.813 175.324 185.239 174.887C185.665 174.449 186.245 174.196 186.855 174.18H188.638C188.638 174.18 195.353 174.12 197.37 170.316C197.943 170.956 198.367 171.714 198.612 172.537C198.858 173.359 198.92 174.226 198.792 175.075Z" fill="#A74602"/>
<path d="M187.868 176.834C187.868 176.662 187.835 176.492 187.769 176.334C187.703 176.175 187.607 176.031 187.486 175.91C187.364 175.789 187.22 175.693 187.062 175.627C186.903 175.562 186.733 175.528 186.562 175.528" stroke="#59221D" stroke-width="0.486361" stroke-miterlimit="10" stroke-linecap="round"/>
<path d="M198.32 173.577C198.32 173.577 196.921 173.067 196.102 174.121C195.563 174.815 195.321 177.163 195.67 177.657" stroke="#59221D" stroke-width="0.486361" stroke-miterlimit="10" stroke-linecap="round"/>
<path d="M193.108 175.905C193.34 175.905 193.528 175.648 193.528 175.331C193.528 175.014 193.34 174.757 193.108 174.757C192.876 174.757 192.688 175.014 192.688 175.331C192.688 175.648 192.876 175.905 193.108 175.905Z" fill="#59221D"/>
<path d="M197.216 175.905C197.448 175.905 197.636 175.648 197.636 175.331C197.636 175.014 197.448 174.757 197.216 174.757C196.984 174.757 196.796 175.014 196.796 175.331C196.796 175.648 196.984 175.905 197.216 175.905Z" fill="#59221D"/>
<path d="M195.705 179.022C195.705 179.022 194.361 179.306 193.76 178.301" stroke="#59221D" stroke-width="0.486361" stroke-miterlimit="10" stroke-linecap="round"/>
<path d="M444.024 342.733L448.872 356.063H431.968L427.547 345.199L444.024 342.733Z" fill="#A0505A"/>
<path d="M428.166 346.648L427.547 345.199L444.024 342.733L446.203 348.923L428.166 346.648Z" fill="#423C52"/>
<path d="M448.588 356.063L451.847 364.867C451.98 365.227 452.027 365.616 451.984 366C451.94 366.384 451.807 366.751 451.596 367.069C451.386 367.388 451.103 367.648 450.774 367.828C450.444 368.008 450.077 368.102 449.705 368.102H422.739V366.791C422.739 366.233 422.85 365.681 423.064 365.169C423.278 364.657 423.591 364.196 423.984 363.815L431.968 356.063H448.588Z" fill="white" stroke="#423C52" stroke-width="0.810602" stroke-miterlimit="10" stroke-linecap="round"/>
<path d="M451.28 363.249C451.413 363.61 451.46 363.999 451.416 364.382C451.372 364.766 451.239 365.132 451.028 365.451C450.818 365.769 450.535 366.029 450.206 366.209C449.877 366.389 449.51 366.483 449.138 366.483H422.882" stroke="#423C52" stroke-width="0.810602" stroke-miterlimit="10" stroke-linecap="round"/>
<path d="M442.917 356.063L446.661 366.483" stroke="#423C52" stroke-width="0.810602" stroke-miterlimit="10" stroke-linecap="round"/>
<path d="M441.216 356.063L444.96 366.483" stroke="#423C52" stroke-width="0.810602" stroke-miterlimit="10" stroke-linecap="round"/>
<path d="M439.515 356.063L443.258 366.483" stroke="#423C52" stroke-width="0.810602" stroke-miterlimit="10" stroke-linecap="round"/>
<path d="M427.236 360.433V359.43C427.238 358.984 427.41 358.558 427.714 358.244C428.018 357.93 428.43 357.753 428.859 357.754H432.774C432.987 357.754 433.198 357.797 433.395 357.882C433.592 357.966 433.771 358.09 433.922 358.246C434.072 358.403 434.192 358.588 434.273 358.793C434.355 358.997 434.397 359.216 434.396 359.437" stroke="#423C52" stroke-width="0.810602" stroke-miterlimit="10" stroke-linecap="round"/>
<path d="M424.482 362.776V361.77C424.483 361.324 424.654 360.896 424.958 360.58C425.262 360.265 425.674 360.087 426.104 360.087H430.021C430.451 360.087 430.863 360.265 431.167 360.58C431.472 360.896 431.643 361.324 431.643 361.77" stroke="#423C52" stroke-width="0.810602" stroke-miterlimit="10" stroke-linecap="round"/>
<path d="M380.591 345.928V356.534H397.493V347.149C391.836 347.247 386.181 346.839 380.591 345.928Z" fill="#A0505A"/>
<path d="M380.591 345.928V347.555L397.493 351.969V347.149C391.836 347.247 386.181 346.839 380.591 345.928Z" fill="#423C52"/>
<path d="M397.211 355.942L399.802 365.328C399.896 365.649 399.917 365.989 399.862 366.32C399.807 366.651 399.678 366.963 399.485 367.233C399.293 367.503 399.042 367.722 398.753 367.873C398.464 368.024 398.145 368.102 397.822 368.102H366.486V366.417C366.486 365.809 366.652 365.213 366.963 364.698C367.275 364.183 367.72 363.769 368.248 363.505L380.597 355.944L397.211 355.942Z" fill="white" stroke="#423C52" stroke-width="0.810602" stroke-miterlimit="10" stroke-linecap="round"/>
<path d="M399.323 363.709C399.417 364.03 399.438 364.37 399.383 364.701C399.328 365.031 399.2 365.344 399.007 365.614C398.815 365.884 398.564 366.103 398.275 366.254C397.986 366.405 397.667 366.483 397.344 366.483H366.575" stroke="#423C52" stroke-width="0.810602" stroke-miterlimit="10" stroke-linecap="round"/>
<path d="M392.164 356.063L394.49 366.483" stroke="#423C52" stroke-width="0.810602" stroke-miterlimit="10" stroke-linecap="round"/>
<path d="M390.462 356.063L392.788 366.483" stroke="#423C52" stroke-width="0.810602" stroke-miterlimit="10" stroke-linecap="round"/>
<path d="M388.761 356.063L391.087 366.483" stroke="#423C52" stroke-width="0.810602" stroke-miterlimit="10" stroke-linecap="round"/>
<path d="M373.09 360.517V359.512C373.09 359.065 373.261 358.637 373.565 358.322C373.869 358.006 374.282 357.828 374.712 357.828H377.635C378.065 357.829 378.478 358.006 378.782 358.322C379.086 358.638 379.257 359.066 379.257 359.512" stroke="#423C52" stroke-width="0.810602" stroke-miterlimit="10" stroke-linecap="round"/>
<path d="M370.051 361.854C370.051 361.633 370.093 361.414 370.175 361.21C370.257 361.005 370.376 360.82 370.527 360.663C370.678 360.507 370.857 360.383 371.054 360.298C371.251 360.214 371.462 360.171 371.675 360.171H374.882C375.312 360.171 375.725 360.348 376.029 360.664C376.333 360.98 376.504 361.408 376.504 361.854" stroke="#423C52" stroke-width="0.810602" stroke-miterlimit="10" stroke-linecap="round"/>
<path d="M374.748 191.854C369.566 192.622 365.017 196.84 364.023 202.183L358.439 230.581C358.127 231.919 357.97 233.292 357.97 234.669V235.898C357.97 240.516 359.737 244.945 362.884 248.21C366.03 251.476 370.298 253.31 374.748 253.31V191.854Z" fill="#A0505A"/>
<path d="M404.562 227.147H457.809C457.809 226.469 458.858 204.226 439.211 203.381C424.799 202.761 433.982 188.12 423.61 180.86C415.533 175.208 399.825 182.684 399.047 176.427C398.158 169.304 395.339 166.333 390.353 166.336C386.611 166.336 382.281 168.718 382.281 170.237C382.281 170.237 385.772 174.974 392.005 174.182L392.142 178.288C392.142 178.288 391.825 190.203 408.66 191.53L404.562 227.147Z" fill="#F5BBBB"/>
<path d="M434.771 196.27C433.496 194.625 433.297 192.596 434.326 191.737C435.355 190.878 437.222 191.515 438.497 193.16C439.772 194.805 439.972 196.835 438.943 197.694C437.914 198.553 436.046 197.915 434.771 196.27Z" fill="#F5BBBB"/>
<path d="M374.748 220.086V344.759C374.748 344.759 387.998 348.218 402.969 346.836C402.969 346.836 409.187 341.632 406.904 333.913C405.414 328.873 399.955 327.158 404.745 320.918C407.13 317.811 406.714 312.464 405.552 307.564L401.725 296.5C401.829 296.72 404.199 301.837 405.552 307.564L418.807 345.867C429.933 345.51 448.873 341.8 448.873 341.8C451.437 336.26 451.044 330.896 446.138 327.968C441.389 325.13 447.877 320.101 445.24 312.242C442.913 305.31 438.225 305.82 434.474 300.332C428.059 290.959 405.024 228.384 405.024 228.384L411.157 191.846L403.042 190.524L387.68 206.358L379.394 191.22L374.745 191.908V192.551L370.754 209.987C369.871 213.85 371.462 217.86 374.748 220.086Z" fill="#F3B304"/>
<path d="M418.806 345.728L385.857 250.911H382.428" stroke="#423C52" stroke-width="0.810602" stroke-miterlimit="10" stroke-linecap="round"/>
<path d="M371.458 217.148C372.723 219.388 374.942 220.554 377.935 220.911" stroke="#423C52" stroke-width="0.810602" stroke-miterlimit="10" stroke-linecap="round"/>
<path d="M411.161 191.854C413.644 191.853 416.076 192.583 418.176 193.957C420.276 195.332 421.958 197.296 423.027 199.621L435.693 233.253C436.393 234.865 436.754 236.612 436.754 238.379C436.754 241.695 435.485 244.874 433.226 247.219C430.967 249.563 427.903 250.88 424.708 250.88H424.564C422.734 250.88 420.928 250.447 419.282 249.615L393.494 236.555V225.097L411.852 226.419L407.855 211.841L411.161 191.854Z" fill="#A0505A"/>
<path d="M383.233 223.224H395.371C396.821 223.224 397.997 224.445 397.997 225.95V234.013C397.997 235.519 396.821 236.739 395.371 236.739H383.233C381.782 236.739 380.606 235.519 380.606 234.013V225.95C380.606 224.445 381.782 223.224 383.233 223.224Z" fill="#A0505A"/>
<path d="M383.233 223.224H395.371C396.821 223.224 397.997 224.445 397.997 225.95V234.013C397.997 235.519 396.821 236.739 395.371 236.739H383.233C381.782 236.739 380.606 235.519 380.606 234.013V225.95C380.606 224.445 381.782 223.224 383.233 223.224Z" stroke="#423C52" stroke-width="0.810602" stroke-miterlimit="10" stroke-linecap="round"/>
<path d="M394.29 226.197V236.665" stroke="#423C52" stroke-width="0.810602" stroke-miterlimit="10" stroke-linecap="round"/>
<path d="M389.789 226.195V235.407C389.789 235.76 389.924 236.099 390.165 236.349C390.406 236.599 390.732 236.739 391.073 236.739H391.772" stroke="#423C52" stroke-width="0.810602" stroke-miterlimit="10" stroke-linecap="round"/>
<path d="M385.219 226.195V235.407C385.219 235.76 385.354 236.099 385.595 236.349C385.836 236.599 386.162 236.739 386.503 236.739H387.201" stroke="#423C52" stroke-width="0.810602" stroke-miterlimit="10" stroke-linecap="round"/>
<path d="M400.949 229.98H341.819" stroke="#423C52" stroke-width="0.810602" stroke-miterlimit="10" stroke-linecap="round"/>
<path d="M338.698 379.036C330.535 379.036 323.917 372.168 323.917 363.696C323.917 355.224 330.535 348.355 338.698 348.355C346.862 348.355 353.48 355.224 353.48 363.696C353.48 372.168 346.862 379.036 338.698 379.036Z" stroke="#423C52" stroke-width="0.810602" stroke-miterlimit="10" stroke-linecap="round"/>
<path d="M326.609 364.426C326.608 366.097 326.987 367.745 327.714 369.236C328.442 370.726 329.498 372.018 330.796 373.006" stroke="#423C52" stroke-width="0.810602" stroke-miterlimit="10" stroke-linecap="round"/>
<path d="M479.309 379.036C471.145 379.036 464.527 372.168 464.527 363.696C464.527 355.224 471.145 348.355 479.309 348.355C487.473 348.355 494.091 355.224 494.091 363.696C494.091 372.168 487.473 379.036 479.309 379.036Z" stroke="#423C52" stroke-width="0.810602" stroke-miterlimit="10" stroke-linecap="round"/>
<path d="M467.635 363.923C467.634 361.852 468.15 359.817 469.134 358.015C470.118 356.214 471.536 354.709 473.248 353.646" stroke="#423C52" stroke-width="0.810602" stroke-miterlimit="10" stroke-linecap="round"/>
<path d="M479.309 366.532C477.832 366.532 476.635 365.29 476.635 363.757C476.635 362.224 477.832 360.982 479.309 360.982C480.786 360.982 481.983 362.224 481.983 363.757C481.983 365.29 480.786 366.532 479.309 366.532Z" fill="white" stroke="#423C52" stroke-width="0.810602" stroke-miterlimit="10" stroke-linecap="round"/>
<path d="M338.776 344.441C341.579 344.441 344.354 345.013 346.943 346.126C349.532 347.239 351.885 348.871 353.866 350.927C355.848 352.984 357.42 355.425 358.493 358.112C359.565 360.799 360.117 363.679 360.117 366.588L360.098 368.102H457.24C457.536 368.102 457.829 368.042 458.103 367.924C458.376 367.807 458.625 367.634 458.834 367.417C459.043 367.2 459.209 366.942 459.322 366.658C459.436 366.374 459.494 366.07 459.494 365.763V363.021C459.494 357.921 461.446 353.029 464.921 349.423C468.396 345.817 473.109 343.791 478.024 343.791" stroke="#423C52" stroke-width="0.810602" stroke-miterlimit="10" stroke-linecap="round"/>
<path d="M380.555 229.98C377.561 229.98 374.653 231.024 372.299 232.944C369.944 234.864 368.279 237.55 367.571 240.569L338.698 363.696" stroke="#423C52" stroke-width="0.810602" stroke-miterlimit="10" stroke-linecap="round"/>
<path d="M367.34 241.35C367.651 239.994 367.663 238.583 367.373 237.222C367.084 235.86 366.501 234.585 365.669 233.491C364.836 232.397 363.776 231.512 362.567 230.904C361.358 230.296 360.033 229.981 358.689 229.98H358.439" stroke="#423C52" stroke-width="0.810602" stroke-miterlimit="10" stroke-linecap="round"/>
<path d="M338.641 366.532C337.164 366.532 335.967 365.29 335.967 363.757C335.967 362.224 337.164 360.982 338.641 360.982C340.118 360.982 341.315 362.224 341.315 363.757C341.315 365.29 340.118 366.532 338.641 366.532Z" fill="white" stroke="#423C52" stroke-width="0.810602" stroke-miterlimit="10" stroke-linecap="round"/>
<path d="M347.207 223.275H358.995C360.527 223.275 361.77 224.564 361.77 226.155V233.868C361.77 235.459 360.527 236.748 358.995 236.748H347.207C345.674 236.748 344.432 235.459 344.432 233.868V226.155C344.432 224.564 345.674 223.275 347.207 223.275Z" fill="#A0505A"/>
<path d="M344.595 233.463C344.595 234.334 344.929 235.17 345.523 235.787C346.117 236.403 346.922 236.749 347.762 236.749H358.764C359.604 236.749 360.409 236.403 361.003 235.787C361.597 235.17 361.931 234.334 361.931 233.463V226.564C361.931 225.692 361.597 224.856 361.003 224.24C360.409 223.624 359.604 223.277 358.764 223.277" stroke="#423C52" stroke-width="0.810602" stroke-miterlimit="10" stroke-linecap="round"/>
<path d="M352.693 226.239V235.42C352.693 235.595 352.726 235.768 352.79 235.929C352.854 236.09 352.948 236.237 353.067 236.36C353.186 236.484 353.327 236.582 353.483 236.648C353.638 236.715 353.804 236.75 353.973 236.75H354.669" stroke="#423C52" stroke-width="0.810602" stroke-miterlimit="10" stroke-linecap="round"/>
<path d="M356.982 226.239V235.42C356.982 235.595 357.015 235.768 357.079 235.929C357.143 236.09 357.238 236.237 357.356 236.36C357.475 236.484 357.616 236.582 357.772 236.648C357.927 236.715 358.094 236.75 358.262 236.75H358.958" stroke="#423C52" stroke-width="0.810602" stroke-miterlimit="10" stroke-linecap="round"/>
<path d="M348.674 226.239V235.42C348.674 235.595 348.707 235.768 348.771 235.929C348.836 236.09 348.93 236.237 349.049 236.36C349.167 236.484 349.309 236.582 349.464 236.648C349.619 236.715 349.786 236.75 349.954 236.75H350.651" stroke="#423C52" stroke-width="0.810602" stroke-miterlimit="10" stroke-linecap="round"/>
<path d="M381.337 190.941L379.397 191.228L387.68 206.365L403.042 190.532L402.995 190.524C400.757 189.764 397.033 188.202 395.585 185.411L392.489 178.848L385.317 182.544V186.178C385.318 187.336 384.915 188.456 384.184 189.331C383.453 190.206 382.442 190.778 381.337 190.941Z" fill="#A0505A"/>
<path d="M401.595 192.371L402.997 190.524C400.759 189.764 397.035 188.052 395.587 185.262L392.491 178.854L385.316 182.544V186.03L401.595 192.371Z" fill="#423C52"/>
<path d="M381.528 178.66L381.816 178.706C382.091 178.751 382.341 178.896 382.521 179.115C382.702 179.334 382.801 179.613 382.801 179.901V181.361C382.801 181.876 382.998 182.369 383.349 182.734C383.7 183.098 384.176 183.302 384.672 183.302H387.636C388.731 183.302 389.791 182.901 390.629 182.17C391.467 181.438 392.029 180.423 392.217 179.304C392.236 179.19 392.25 179.077 392.26 178.962H393.75C394.361 178.962 394.946 178.71 395.378 178.262C395.81 177.814 396.053 177.206 396.053 176.572C396.053 175.938 395.81 175.33 395.378 174.882C394.946 174.434 394.361 174.182 393.75 174.182H391.998C386.127 174.603 382.276 170.239 382.276 170.239C382.048 173.747 381.641 175.688 380.836 177.251C380.767 177.389 380.731 177.541 380.731 177.696C380.73 177.85 380.765 178.003 380.833 178.141C380.9 178.279 380.999 178.398 381.12 178.488C381.241 178.578 381.381 178.637 381.528 178.66Z" fill="#A0505A"/>
<path d="M392.691 176.972C392.691 176.533 392.858 176.113 393.157 175.802C393.456 175.492 393.861 175.318 394.284 175.317" stroke="#423C52" stroke-width="0.648482" stroke-miterlimit="10" stroke-linecap="round"/>
<path d="M383.146 173.552C383.146 173.552 384.853 173.552 385.77 174.857" stroke="#423C52" stroke-width="0.648482" stroke-miterlimit="10" stroke-linecap="round"/>
<path d="M383.974 176.763C383.777 176.763 383.617 176.445 383.617 176.052C383.617 175.659 383.777 175.341 383.974 175.341C384.171 175.341 384.331 175.659 384.331 176.052C384.331 176.445 384.171 176.763 383.974 176.763Z" fill="#423C52"/>
</svg>
