<svg width="550" height="304" viewBox="0 0 550 304" fill="none" xmlns="http://www.w3.org/2000/svg">
<path d="M319.643 63.2853C315.682 63.4028 311.766 62.3939 308.339 60.3724C307.5 62.2354 306.186 63.8367 304.533 65.0103C302.879 66.1838 300.947 66.8869 298.936 67.0466C296.925 67.2063 294.908 66.8168 293.095 65.9185C291.282 65.0201 289.739 63.6457 288.625 61.9377C287.512 60.2297 286.868 58.2503 286.762 56.2047C286.655 54.1591 287.089 52.1218 288.019 50.304C288.949 48.4862 290.341 46.9542 292.051 45.8668C293.76 44.7793 295.725 44.176 297.742 44.1194H297.832C299.416 44.0865 300.989 44.3926 302.449 45.018C303.909 45.6433 305.224 46.5738 306.306 47.7489C305.379 46.2398 304.12 44.9699 302.627 44.0394C301.135 43.109 299.449 42.5434 297.705 42.3874C297.705 42.3243 297.705 42.264 297.705 42.2009C297.588 37.9123 298.726 33.6849 300.976 30.0532C303.225 26.4216 306.484 23.5488 310.341 21.7982C314.199 20.0476 318.48 19.4978 322.645 20.2182C326.81 20.9387 330.671 22.8972 333.74 25.8459C336.809 28.7947 338.948 32.6012 339.886 36.7843C340.824 40.9674 340.52 45.3391 339.011 49.3465C337.503 53.354 334.858 56.8172 331.411 59.2983C327.965 61.7794 323.871 63.1669 319.648 63.2853H319.643Z" fill="#FED4C7"/>
<path d="M174.355 61.5476C176.395 61.5476 178.048 59.8685 178.048 57.7972C178.048 55.726 176.395 54.0469 174.355 54.0469C172.315 54.0469 170.662 55.726 170.662 57.7972C170.662 59.8685 172.315 61.5476 174.355 61.5476Z" fill="#FED4C7"/>
<path d="M358.457 31.2329H492.811C492.809 30.3957 492.632 29.5684 492.291 28.8061C491.95 28.0439 491.453 27.3642 490.833 26.8124C490.213 26.2605 489.485 25.8492 488.696 25.6059C487.907 25.3626 487.076 25.2928 486.259 25.4013L475.648 26.8206C475.086 26.8959 474.515 26.8485 473.973 26.6817C473.431 26.5149 472.93 26.2324 472.504 25.8532C472.078 25.474 471.737 25.0068 471.503 24.4829C471.269 23.9589 471.148 23.3903 471.148 22.8151C471.148 21.9926 470.967 21.1805 470.619 20.4379C470.271 19.6953 469.764 19.0409 469.135 18.5224C468.507 18.0039 467.772 17.6343 466.985 17.4407C466.198 17.247 465.378 17.2341 464.585 17.4028L450.706 20.3691C449.836 20.5543 448.936 20.5401 448.072 20.3275C447.208 20.1149 446.401 19.7093 445.711 19.1401C445.021 18.571 444.464 17.8527 444.082 17.0376C443.7 16.2225 443.501 15.331 443.501 14.4281C443.501 10.8118 442.087 7.34368 439.568 4.7866C437.05 2.22951 433.635 0.792955 430.074 0.792955C429.85 0.792955 429.627 0.792955 429.404 0.792955C423.253 0.889728 417.208 2.41986 411.668 5.14072L358.457 31.2329Z" fill="#FED4C7"/>
<path d="M346.738 286.759H549.842C549.842 286.759 549.842 220.265 490.828 218.981C444.112 217.966 448.867 259.425 415.342 259.969C398.508 260.242 346.738 237.886 346.738 286.759Z" fill="#F3B304"/>
<path d="M511.874 281.295C511.876 283.139 511.639 284.976 511.17 286.757H471.048C470.282 283.858 470.135 280.825 470.616 277.863C471.097 274.901 472.196 272.078 473.838 269.581C475.48 267.085 477.628 264.973 480.138 263.388C482.648 261.802 485.463 260.779 488.394 260.387C491.325 259.995 494.304 260.242 497.133 261.114C499.963 261.985 502.576 263.459 504.799 265.439C507.021 267.418 508.802 269.856 510.023 272.591C511.243 275.325 511.874 278.292 511.874 281.295V281.295Z" fill="white"/>
<path d="M491.11 260.197V286.467" stroke="#F3B304" stroke-width="0.690551" stroke-miterlimit="10" stroke-linecap="round"/>
<path d="M496.206 260.992L491.11 268.078" stroke="#F3B304" stroke-width="0.690551" stroke-miterlimit="10" stroke-linecap="round"/>
<path d="M480.504 263.075L491.11 276.51" stroke="#F3B304" stroke-width="0.690551" stroke-miterlimit="10" stroke-linecap="round"/>
<path d="M507.739 268.686L503.364 277.236" stroke="#F3B304" stroke-width="0.690551" stroke-miterlimit="10" stroke-linecap="round"/>
<path d="M474.677 268.077H484.399" stroke="#F3B304" stroke-width="0.690551" stroke-miterlimit="10" stroke-linecap="round"/>
<path d="M470.502 278.819L478.915 286.528" stroke="#F3B304" stroke-width="0.690551" stroke-miterlimit="10" stroke-linecap="round"/>
<path d="M491.11 280.746L511.068 275.124" stroke="#F3B304" stroke-width="0.690551" stroke-miterlimit="10" stroke-linecap="round"/>
<path d="M120.768 262.011C139.118 262.011 153.994 234.735 153.994 201.09C153.994 167.444 139.118 140.169 120.768 140.169C102.417 140.169 87.541 167.444 87.541 201.09C87.541 234.735 102.417 262.011 120.768 262.011Z" fill="#FED4C7"/>
<path d="M106.768 160.265V286.467" stroke="#59221D" stroke-width="0.690551" stroke-miterlimit="10" stroke-linecap="round"/>
<path d="M113.165 168.18C113.165 169.206 113.087 169.784 112.662 170.715L108.242 180.41C107.274 182.53 106.773 184.839 106.773 187.177" stroke="#59221D" stroke-width="0.690551" stroke-miterlimit="10" stroke-linecap="round"/>
<path d="M96.5309 182.611V187.468C96.5308 190.867 97.8359 194.131 100.169 196.568L103.193 199.729C105.486 202.122 106.768 205.329 106.768 208.667" stroke="#59221D" stroke-width="0.690551" stroke-miterlimit="10" stroke-linecap="round"/>
<path d="M116.705 206.91V213.719C116.704 216.716 115.618 219.608 113.652 221.844L109.354 226.733C107.689 228.628 106.768 231.078 106.768 233.618" stroke="#59221D" stroke-width="0.690551" stroke-miterlimit="10" stroke-linecap="round"/>
<path d="M92.7591 224.304C92.759 226.392 93.3525 228.435 94.4682 230.189C95.5839 231.943 97.1744 233.332 99.0487 234.19L102.392 235.722C103.695 236.319 104.801 237.284 105.577 238.503C106.353 239.722 106.766 241.143 106.768 242.594" stroke="#59221D" stroke-width="0.690551" stroke-miterlimit="10" stroke-linecap="round"/>
<path d="M122.146 197.848H125.515V201.268C125.515 202.748 124.936 204.166 123.906 205.212C122.876 206.258 121.479 206.846 120.022 206.846H116.652V203.425C116.652 202.693 116.794 201.967 117.071 201.291C117.347 200.614 117.751 199.999 118.262 199.481C118.772 198.963 119.377 198.552 120.044 198.272C120.711 197.992 121.425 197.847 122.146 197.848Z" stroke="#59221D" stroke-width="0.690551" stroke-miterlimit="10" stroke-linecap="round"/>
<path d="M118.657 162.811H118.851V163.007C118.851 164.486 118.272 165.905 117.242 166.952C116.212 167.998 114.815 168.585 113.358 168.585H113.165V168.389C113.165 166.91 113.743 165.491 114.774 164.444C115.804 163.398 117.201 162.811 118.657 162.811Z" stroke="#59221D" stroke-width="0.690551" stroke-miterlimit="10" stroke-linecap="round"/>
<path d="M111.294 204.999L111.378 204.822L111.552 204.907C112.867 205.544 113.878 206.686 114.364 208.081C114.849 209.475 114.769 211.009 114.141 212.344L114.058 212.521L113.884 212.436C112.569 211.799 111.558 210.657 111.072 209.262C110.587 207.867 110.667 206.334 111.294 204.999V204.999Z" fill="#59221D"/>
<path d="M99.6207 171.296L99.7904 171.197L99.8867 171.366C100.613 172.643 100.808 174.162 100.431 175.587C100.053 177.012 99.1327 178.228 97.8725 178.967L97.7052 179.065L97.6089 178.896C96.8831 177.619 96.6874 176.102 97.0646 174.677C97.4419 173.252 98.3613 172.036 99.6207 171.296Z" fill="#59221D"/>
<path d="M116.677 245.313L116.857 245.384L116.787 245.567C116.256 246.944 115.208 248.05 113.873 248.642C112.538 249.234 111.027 249.263 109.671 248.724L109.49 248.652L109.561 248.469C110.092 247.093 111.14 245.987 112.475 245.395C113.809 244.803 115.321 244.773 116.677 245.313V245.313Z" fill="#59221D"/>
<path d="M100.225 224.371L100.311 224.187L100.485 224.272C101.8 224.909 102.811 226.051 103.297 227.446C103.782 228.84 103.702 230.374 103.075 231.709L102.991 231.886L102.817 231.801C101.503 231.164 100.493 230.024 100.007 228.631C99.5206 227.237 99.599 225.705 100.225 224.371V224.371Z" fill="#59221D"/>
<path d="M96.4344 182.946H95.7963C94.3395 182.946 92.9425 182.359 91.9124 181.313C90.8823 180.267 90.3036 178.848 90.3036 177.369V176.721H90.939C92.3957 176.721 93.7928 177.309 94.8228 178.355C95.8529 179.401 96.4316 180.819 96.4316 182.298V182.946H96.4344Z" stroke="#59221D" stroke-width="0.690551" stroke-miterlimit="10" stroke-linecap="round"/>
<path d="M104.97 151.123L106.628 149.44L108.285 151.123C109.309 152.162 109.884 153.571 109.884 155.04C109.884 156.509 109.309 157.919 108.285 158.958L106.632 160.636L104.974 158.954C103.951 157.915 103.376 156.507 103.375 155.039C103.375 153.571 103.948 152.162 104.97 151.123V151.123Z" stroke="#59221D" stroke-width="0.690551" stroke-miterlimit="10" stroke-linecap="round"/>
<path d="M105.075 215.109L106.732 213.429L108.388 215.109C109.41 216.147 109.985 217.554 109.985 219.021C109.985 220.489 109.41 221.896 108.388 222.934L106.732 224.614L105.075 222.934C104.053 221.896 103.478 220.489 103.478 219.021C103.478 217.554 104.053 216.147 105.075 215.109V215.109Z" stroke="#59221D" stroke-width="0.690551" stroke-miterlimit="10" stroke-linecap="round"/>
<path d="M122.178 170.738L122.307 170.882L122.166 171.013C121.098 172.005 119.687 172.526 118.243 172.461C116.799 172.397 115.44 171.753 114.465 170.671L114.336 170.527L114.477 170.395C115.545 169.404 116.956 168.883 118.4 168.947C119.844 169.012 121.203 169.656 122.178 170.738Z" fill="#59221D"/>
<path d="M389.06 266.583C402.768 266.583 413.88 249.369 413.88 228.134C413.88 206.9 402.768 189.686 389.06 189.686C375.352 189.686 364.24 206.9 364.24 228.134C364.24 249.369 375.352 266.583 389.06 266.583Z" fill="white" stroke="#59221D" stroke-width="0.690551" stroke-miterlimit="10" stroke-linecap="round"/>
<path d="M387.535 196.524V286.619" stroke="#59221D" stroke-width="0.690551" stroke-miterlimit="10" stroke-linecap="round"/>
<path d="M394.308 206.738C394.309 209.233 393.634 211.68 392.358 213.812L389.034 219.363C388.053 221.001 387.535 222.88 387.535 224.797" stroke="#59221D" stroke-width="0.690551" stroke-miterlimit="10" stroke-linecap="round"/>
<path d="M380.851 209.9V222.889C380.851 225.704 381.651 228.458 383.157 230.821L385.343 234.256C386.774 236.503 387.536 239.123 387.535 241.799" stroke="#59221D" stroke-width="0.690551" stroke-miterlimit="10" stroke-linecap="round"/>
<path d="M394.308 231.37V236.98C394.307 239.473 393.708 241.928 392.563 244.133L388.472 252.005C387.857 253.189 387.536 254.506 387.535 255.844" stroke="#59221D" stroke-width="0.690551" stroke-miterlimit="10" stroke-linecap="round"/>
<path d="M395.035 270.501H398.403V273.922C398.403 275.401 397.824 276.82 396.794 277.866C395.764 278.912 394.367 279.5 392.91 279.5H389.542V276.079C389.542 274.599 390.121 273.181 391.151 272.135C392.181 271.089 393.578 270.501 395.035 270.501Z" stroke="#59221D" stroke-width="0.690551" stroke-miterlimit="10" stroke-linecap="round"/>
<path d="M387.535 281.325L395.061 274.244" stroke="#59221D" stroke-width="0.690551" stroke-miterlimit="10" stroke-linecap="round"/>
<path d="M394.271 228.676L394.114 228.594C393.527 228.286 393.006 227.865 392.58 227.353C392.154 226.841 391.831 226.249 391.63 225.611C391.43 224.973 391.355 224.301 391.41 223.634C391.465 222.966 391.649 222.316 391.951 221.721L392.032 221.562L392.19 221.645C393.375 222.266 394.268 223.338 394.674 224.627C395.079 225.916 394.964 227.315 394.353 228.517L394.272 228.677L394.271 228.676Z" fill="#F3B304"/>
<path d="M394.457 206.931L394.413 206.752C394.093 205.439 394.3 204.05 394.988 202.892C395.677 201.733 396.791 200.899 398.085 200.574L398.256 200.531L398.299 200.705C398.619 202.018 398.412 203.407 397.724 204.565C397.035 205.724 395.921 206.558 394.627 206.883L394.456 206.927L394.457 206.931Z" fill="#F3B304"/>
<path d="M394.272 206.902L394.119 206.813C392.967 206.137 392.125 205.026 391.778 203.724C391.432 202.422 391.61 201.036 392.272 199.87L392.36 199.716L392.518 199.808C393.67 200.484 394.512 201.595 394.858 202.897C395.205 204.199 395.027 205.585 394.364 206.751L394.276 206.905L394.272 206.902Z" stroke="#59221D" stroke-width="0.690551" stroke-miterlimit="10" stroke-linecap="round"/>
<path d="M382.425 246.421L382.249 246.411C381.59 246.375 380.944 246.208 380.348 245.918C379.753 245.629 379.219 245.223 378.778 244.724C378.337 244.225 377.997 243.643 377.778 243.011C377.558 242.379 377.464 241.709 377.499 241.039L377.508 240.86L377.685 240.87C379.016 240.942 380.265 241.549 381.156 242.557C382.046 243.564 382.506 244.89 382.435 246.242L382.425 246.421Z" fill="#F3B304"/>
<path d="M396.34 229.076L396.32 228.86C396.168 227.236 396.659 225.617 397.683 224.36C398.707 223.103 400.181 222.31 401.78 222.157L401.993 222.136L402.013 222.353C402.165 223.977 401.674 225.596 400.65 226.853C399.626 228.11 398.152 228.902 396.553 229.056L396.34 229.076Z" stroke="#59221D" stroke-width="0.690551" stroke-miterlimit="10" stroke-linecap="round"/>
<path d="M382.584 246.019L382.434 245.866C381.307 244.721 380.674 243.169 380.674 241.55C380.674 239.931 381.307 238.378 382.434 237.233L382.584 237.081L382.734 237.233C383.862 238.378 384.495 239.931 384.495 241.55C384.495 243.169 383.862 244.721 382.734 245.866L382.584 246.019Z" stroke="#59221D" stroke-width="0.690551" stroke-miterlimit="10" stroke-linecap="round"/>
<path d="M375.8 217.16V218.121C375.8 218.865 376.091 219.578 376.609 220.104C377.127 220.63 377.83 220.926 378.562 220.926V220.926C379.171 220.926 379.755 221.171 380.185 221.609C380.616 222.046 380.858 222.639 380.858 223.257" stroke="#59221D" stroke-width="0.690551" stroke-miterlimit="10" stroke-linecap="round"/>
<path d="M194.921 204.729H248.745V205.747C248.745 207.838 247.927 209.843 246.471 211.322C245.015 212.8 243.041 213.631 240.982 213.631H188.148V211.605C188.147 210.702 188.322 209.808 188.662 208.973C189.002 208.138 189.501 207.38 190.13 206.742C190.759 206.103 191.506 205.596 192.328 205.251C193.15 204.906 194.031 204.729 194.921 204.729Z" fill="#A74602"/>
<path d="M338.825 295.821C350.564 295.821 360.08 286.157 360.08 274.237C360.08 262.316 350.564 252.652 338.825 252.652C327.086 252.652 317.57 262.316 317.57 274.237C317.57 286.157 327.086 295.821 338.825 295.821Z" fill="#A74602"/>
<path d="M321.658 286.967C318.56 282.654 317.147 277.328 317.69 272.018C318.234 266.708 320.696 261.791 324.6 258.217C328.505 254.642 333.576 252.664 338.833 252.664C344.09 252.664 349.161 254.642 353.065 258.216L321.658 286.967Z" fill="#59221D"/>
<path d="M338.825 280.427C342.187 280.427 344.913 277.659 344.913 274.245C344.913 270.83 342.187 268.062 338.825 268.062C335.463 268.062 332.737 270.83 332.737 274.245C332.737 277.659 335.463 280.427 338.825 280.427Z" stroke="white" stroke-width="0.690551" stroke-miterlimit="10"/>
<path d="M170.761 295.821C182.5 295.821 192.016 286.157 192.016 274.237C192.016 262.316 182.5 252.652 170.761 252.652C159.022 252.652 149.506 262.316 149.506 274.237C149.506 286.157 159.022 295.821 170.761 295.821Z" fill="#A74602"/>
<path d="M150.608 267.358C152.216 262.506 155.47 258.392 159.789 255.75C164.107 253.109 169.21 252.112 174.186 252.938C179.161 253.764 183.686 256.358 186.952 260.258C190.218 264.159 192.013 269.111 192.016 274.23L150.608 267.358Z" fill="#59221D"/>
<path d="M170.771 280.427C174.133 280.427 176.859 277.659 176.859 274.245C176.859 270.83 174.133 268.062 170.771 268.062C167.408 268.062 164.683 270.83 164.683 274.245C164.683 277.659 167.408 280.427 170.771 280.427Z" stroke="white" stroke-width="0.690551" stroke-miterlimit="10"/>
<path d="M321.518 170.842C321.518 173.288 320.662 175.653 319.101 177.515C317.541 179.378 315.379 180.615 313.002 181.007C310.626 181.398 308.189 180.918 306.129 179.652C304.07 178.385 302.521 176.416 301.76 174.096L318.87 163.904C320.577 165.799 321.522 168.275 321.518 170.842V170.842Z" fill="#F3B304"/>
<path d="M318.87 163.905L301.76 174.097C301.025 171.859 301.07 169.431 301.888 167.222C302.705 165.013 304.244 163.156 306.249 161.962C308.254 160.768 310.601 160.309 312.899 160.663C315.196 161.017 317.305 162.162 318.87 163.905V163.905Z" fill="white" stroke="#59221D" stroke-width="0.690551" stroke-miterlimit="10" stroke-linecap="round"/>
<path d="M231.679 272.117V213.632H191.877C163.005 213.632 138.98 236.172 136.708 265.4H186.428C189.773 265.4 193.08 266.115 196.135 267.499C199.19 268.882 201.923 270.903 204.159 273.429L211.392 281.605C212.826 283.227 214.581 284.525 216.542 285.413C218.504 286.302 220.627 286.76 222.775 286.76H322.226C326.169 286.76 330.04 285.692 333.441 283.666L387.195 251.64C387.195 251.64 381.361 232.545 357.12 237.66L315.574 168.644C314.815 167.385 313.752 166.345 312.484 165.623C311.217 164.902 309.788 164.523 308.335 164.522H300.615V168.301H303.876C305.508 168.3 307.106 168.778 308.477 169.676C309.849 170.574 310.937 171.855 311.61 173.365L336.978 230.322C347.422 253.765 330.54 280.335 305.203 280.335H239.768C238.705 280.335 237.653 280.123 236.671 279.71C235.689 279.297 234.797 278.691 234.046 277.928C233.295 277.165 232.699 276.259 232.293 275.262C231.887 274.264 231.678 273.196 231.679 272.117V272.117Z" fill="white" stroke="#59221D" stroke-width="0.690551" stroke-miterlimit="10" stroke-linecap="round"/>
<path d="M141.642 265.262C143.93 250.957 156.157 240.027 170.895 240.027C187.264 240.027 200.533 253.502 200.533 270.125" stroke="#59221D" stroke-width="0.690551" stroke-miterlimit="10"/>
<path d="M331.378 237.525C325.457 239.261 320.579 243.185 317.832 248.28" stroke="#59221D" stroke-width="0.690551" stroke-miterlimit="10"/>
<path d="M288.01 169.145C290.348 169.145 292.243 167.221 292.243 164.847C292.243 162.473 290.348 160.549 288.01 160.549C285.672 160.549 283.777 162.473 283.777 164.847C283.777 167.221 285.672 169.145 288.01 169.145Z" fill="#59221D"/>
<path d="M292.076 135.775C294.965 131.814 296.106 127.699 294.624 126.585C293.142 125.47 289.599 127.779 286.711 131.74C283.822 135.702 282.681 139.817 284.163 140.931C285.644 142.045 289.187 139.737 292.076 135.775Z" fill="#F3B304"/>
<path d="M291.03 134.87C294.011 130.782 295.187 126.536 293.658 125.386C292.128 124.236 288.472 126.618 285.491 130.705C282.51 134.793 281.334 139.039 282.863 140.19C284.392 141.34 288.049 138.958 291.03 134.87Z" stroke="#59221D" stroke-width="0.690551" stroke-miterlimit="10" stroke-linecap="round"/>
<path d="M299.907 165.883V149.348C299.906 147.094 299.084 144.921 297.599 143.247L288.413 132.899" stroke="#59221D" stroke-width="0.690551" stroke-miterlimit="10" stroke-linecap="round"/>
<path d="M231.68 213.633V223.213L188.149 213.773V213.763C189.381 213.677 190.624 213.634 191.878 213.635L231.68 213.633Z" fill="#59221D"/>
<path d="M170.761 295.822H406.85" stroke="#59221D" stroke-width="0.690551" stroke-miterlimit="10"/>
<path d="M238.464 303.412H374.195" stroke="#59221D" stroke-width="0.690551" stroke-miterlimit="10"/>
<path d="M148.663 274.279C147.421 268.793 144.383 263.896 140.045 260.389C135.708 256.883 130.328 254.974 124.784 254.974C120.092 254.974 115.493 253.653 111.496 251.158C107.5 248.663 104.263 245.092 102.145 240.841L95.2545 227.006C91.9685 220.41 86.5892 215.131 79.9852 212.022C73.3811 208.912 65.9378 208.153 58.857 209.868C51.7762 211.583 45.4712 215.672 40.96 221.473C36.4489 227.275 33.9949 234.451 33.9943 241.844V247.074C37.8157 247.338 41.5041 248.605 44.6994 250.749C47.8947 252.894 50.4876 255.844 52.2249 259.31C50.1528 256.668 47.5201 254.535 44.523 253.07C41.5259 251.605 38.2418 250.846 34.9155 250.849C34.6076 250.849 34.2996 250.856 33.9943 250.869C28.2837 251.107 22.8849 253.578 18.9273 257.765C14.9696 261.953 12.7596 267.532 12.7596 273.336C12.7596 279.14 14.9696 284.719 18.9273 288.907C22.8849 293.094 28.2837 295.565 33.9943 295.804L181.391 295.823C161.005 295.819 151.521 286.886 148.663 274.279ZM31.1576 265.187C30.5965 265.187 30.048 265.018 29.5815 264.701C29.115 264.385 28.7514 263.935 28.5367 263.409C28.322 262.882 28.2658 262.303 28.3753 261.744C28.4847 261.185 28.7549 260.672 29.1517 260.269C29.5484 259.866 30.0539 259.592 30.6041 259.481C31.1544 259.37 31.7248 259.427 32.2431 259.645C32.7615 259.863 33.2045 260.232 33.5163 260.706C33.828 261.179 33.9943 261.736 33.9943 262.306C33.9943 263.07 33.6955 263.803 33.1635 264.343C32.6315 264.883 31.9099 265.187 31.1576 265.187V265.187Z" fill="#98C8DB"/>
<path d="M5.03687 295.203C7.81866 295.203 10.0737 292.913 10.0737 290.088C10.0737 287.263 7.81866 284.973 5.03687 284.973C2.25508 284.973 0 287.263 0 290.088C0 292.913 2.25508 295.203 5.03687 295.203Z" fill="#98C8DB"/>
<path d="M289.781 269.685C274.43 274.063 258.844 271.174 254.741 270.267C254.755 270.235 254.768 270.201 254.784 270.167L288.817 198.92V265.755C288.818 267.125 289.149 268.474 289.781 269.685V269.685Z" fill="#59221D"/>
<path d="M296.062 279.055V280.333H260.913C255.803 280.333 252.396 274.994 254.455 270.268C258.564 271.175 274.144 274.064 289.495 269.686C290.059 270.766 290.849 271.709 291.81 272.447L293.442 273.709C294.256 274.334 294.916 275.142 295.37 276.07C295.825 276.997 296.062 278.019 296.062 279.055V279.055Z" fill="#A74602" stroke="#59221D" stroke-width="0.690551" stroke-miterlimit="10"/>
<path d="M299.728 204.516L269.933 266.978C269.399 268.099 269.301 269.383 269.656 270.574C269.656 270.574 250.532 278.428 232.746 276.095C232.129 274.984 231.774 273.742 231.71 272.468C231.646 271.194 231.874 269.923 232.378 268.754L257.204 210.409C257.487 209.745 257.603 209.02 257.541 208.299C257.479 207.578 257.242 206.884 256.85 206.279C256.459 205.674 255.926 205.177 255.298 204.834C254.671 204.49 253.97 204.31 253.257 204.31H217.625C214.42 204.31 211.252 203.613 208.333 202.267C205.415 200.921 202.814 198.957 200.705 196.506L248.832 174.443H281.169C296.386 174.442 306.362 190.604 299.728 204.516Z" fill="white" stroke="#59221D" stroke-width="0.690551" stroke-miterlimit="10" stroke-linecap="round"/>
<path d="M247.889 183.169C263.106 183.169 273.082 199.333 266.448 213.239L236.652 275.701" stroke="#59221D" stroke-width="0.690551" stroke-miterlimit="10" stroke-linecap="round" stroke-dasharray="2.76 2.76"/>
<path d="M262.304 280.333H226.872C225.418 280.338 223.99 279.947 222.736 279.2C221.482 278.454 220.448 277.379 219.742 276.089C237.528 278.418 256.652 270.568 256.652 270.568C256.903 271.417 257.375 272.182 258.017 272.783L259.749 274.41C260.555 275.164 261.198 276.08 261.637 277.099C262.077 278.119 262.304 279.22 262.304 280.333Z" fill="white" stroke="#59221D" stroke-width="0.690551" stroke-miterlimit="10"/>
<path d="M244.332 110.267L240.106 116.355C237.517 114.549 234.449 113.585 231.308 113.59H224.776C224.424 113.59 224.073 113.595 223.722 113.607L232.941 105.085L244.332 110.267Z" fill="white" stroke="#59221D" stroke-width="0.690551" stroke-miterlimit="10" stroke-linecap="round"/>
<path d="M247.614 99.3138L248.643 105.736C248.683 106.088 248.596 106.443 248.398 106.735C248.199 107.027 247.903 107.236 247.564 107.322L247.477 107.343C247.139 107.427 246.834 107.612 246.602 107.875C246.37 108.138 246.221 108.466 246.176 108.816L245.9 110.95C245.842 111.391 245.615 111.79 245.268 112.062C244.921 112.333 244.482 112.454 244.048 112.397C241.676 112.076 237.461 110.922 236.294 106.771C234.644 100.9 240.791 99.3096 240.791 99.3096L247.614 99.3138Z" fill="white" stroke="#59221D" stroke-width="0.690551" stroke-miterlimit="10" stroke-linecap="round"/>
<path d="M242.33 101.483C242.33 101.483 243.671 100.699 244.856 100.679" stroke="#59221D" stroke-width="0.690551" stroke-miterlimit="10" stroke-linecap="round"/>
<path d="M244.129 104.172C244.365 104.172 244.557 103.831 244.557 103.412C244.557 102.992 244.365 102.652 244.129 102.652C243.892 102.652 243.701 102.992 243.701 103.412C243.701 103.831 243.892 104.172 244.129 104.172Z" fill="#59221D"/>
<path d="M246.131 108.872C244.521 108.872 244.18 107.306 244.18 107.306" stroke="#59221D" stroke-width="0.690551" stroke-miterlimit="10" stroke-linecap="round"/>
<path d="M232.124 104.346L231.935 103.925C231.022 101.906 230.936 99.601 231.695 97.5169C232.454 95.4329 233.996 93.74 235.983 92.8099L237.042 92.3134C237.986 91.8712 239.013 91.6423 240.053 91.6426C241.092 91.6429 242.12 91.8723 243.063 92.315C244.007 92.7578 244.845 93.4033 245.519 94.2069C246.193 95.0106 246.687 95.9533 246.967 96.9699L247.613 99.3121H242.407C241.736 99.3121 241.092 99.5828 240.618 100.065C240.143 100.547 239.876 101.2 239.876 101.882V102.737C239.876 103.759 239.477 104.739 238.765 105.461C238.054 106.184 237.089 106.59 236.083 106.59H235.572C234.846 106.59 234.135 106.379 233.524 105.981C232.913 105.583 232.427 105.016 232.124 104.346V104.346Z" fill="#59221D"/>
<path d="M242.454 113.622C242.416 113.622 242.379 113.619 242.342 113.615C241.496 113.508 239.622 112.985 237.954 111.699C235.929 110.137 234.932 108.002 235.069 105.528C235.082 105.286 235.19 105.06 235.367 104.898C235.545 104.737 235.779 104.654 236.017 104.667C236.255 104.681 236.478 104.79 236.637 104.971C236.796 105.151 236.878 105.389 236.864 105.63C236.618 110.088 241.374 111.661 242.565 111.801C242.804 111.816 243.026 111.926 243.184 112.108C243.342 112.289 243.423 112.527 243.409 112.769C243.394 113.01 243.286 113.236 243.107 113.397C242.928 113.558 242.694 113.639 242.456 113.625L242.454 113.622Z" fill="#59221D"/>
<path d="M236.014 105.495C237.246 105.495 238.244 104.488 238.244 103.247C238.244 102.005 237.246 100.998 236.014 100.998C234.782 100.998 233.783 102.005 233.783 103.247C233.783 104.488 234.782 105.495 236.014 105.495Z" stroke="white" stroke-width="0.690551" stroke-miterlimit="10"/>
<path d="M241.305 99.6845C240.23 99.8837 243.535 98.4686 245.862 97.2064C245.721 96.8151 245.649 96.4016 245.649 95.9849C245.649 93.9303 247.358 92.2656 249.464 92.2656C251.57 92.2656 253.28 93.9303 253.28 95.9849C253.28 98.0394 251.572 99.7027 249.464 99.7027L241.305 99.6845Z" fill="#F3B304"/>
<path d="M255.676 97.013C256.418 97.013 257.019 96.412 257.019 95.6706C257.019 94.9291 256.418 94.3281 255.676 94.3281C254.935 94.3281 254.334 94.9291 254.334 95.6706C254.334 96.412 254.935 97.013 255.676 97.013Z" fill="#F3B304"/>
<path d="M286.265 175.073C286.265 175.073 251.529 194.513 232.859 181.764C232.859 181.764 215.054 194.041 200.706 196.505V162.404C200.706 155.228 203.865 144.524 207.335 134.929C209.646 128.545 213.831 123.036 219.324 119.144C224.817 115.253 231.353 113.167 238.051 113.169H244.589C248.717 113.169 252.676 114.834 255.595 117.799C258.514 120.763 260.154 124.783 260.154 128.975V147.097C260.154 147.651 260.274 148.197 260.506 148.698C260.738 149.199 261.076 149.641 261.496 149.994C261.915 150.347 262.407 150.601 262.935 150.739C263.462 150.877 264.013 150.895 264.549 150.791L285.314 146.78C283.611 148.463 282.35 154.504 282.35 161.011C282.347 168.687 284.101 175.073 286.265 175.073Z" fill="#F3B304"/>
<path d="M276.493 161.012C276.493 168.687 274.739 175.073 272.574 175.073C270.41 175.073 268.656 168.687 268.656 161.012C268.656 153.336 270.41 147.018 272.574 147.018C274.739 147.018 276.493 153.336 276.493 161.012Z" fill="white" stroke="#F3B304" stroke-width="0.690551" stroke-miterlimit="10"/>
<path d="M296.592 153.56V167.313H294.676C294.032 167.313 293.415 167.053 292.96 166.59C292.504 166.128 292.248 165.501 292.248 164.847C292.248 163.707 291.803 162.614 291.009 161.807C290.216 161.001 289.139 160.548 288.017 160.547C286.894 160.548 285.818 161.001 285.024 161.808C284.231 162.614 283.784 163.707 283.784 164.847C283.784 166.19 283.524 167.52 283.018 168.761C282.512 170.001 281.77 171.129 280.835 172.079C279.9 173.028 278.79 173.781 277.568 174.295C276.346 174.809 275.037 175.073 273.714 175.073H273.273H273.17C271.054 174.872 269.355 168.571 269.355 161.015C269.355 157.555 269.713 154.372 270.301 151.919L275.48 149.473L278.374 148.107C279.863 147.403 281.538 147.211 283.144 147.558L293.606 149.816C294.45 149.999 295.207 150.471 295.75 151.152C296.294 151.833 296.591 152.683 296.592 153.56V153.56Z" fill="white" stroke="#59221D" stroke-width="0.690551" stroke-miterlimit="10" stroke-linecap="round"/>
<path d="M286.774 153.79L293.599 155.263C294.444 155.446 295.202 155.918 295.746 156.6C296.29 157.283 296.586 158.134 296.586 159.012V167.173" stroke="#59221D" stroke-width="0.690551" stroke-miterlimit="10" stroke-linecap="round"/>
<path d="M277.183 161.013C277.183 168.69 275.429 175.073 273.265 175.073H273.162C271.046 174.873 269.347 168.572 269.347 161.017C269.347 157.557 269.705 154.373 270.293 151.92L275.472 149.475C276.507 152 277.183 156.244 277.183 161.013Z" fill="#59221D"/>
<path d="M222.138 183.478C215.569 179.13 209.283 172.003 211.146 150.486" stroke="white" stroke-width="0.690551" stroke-miterlimit="10" stroke-linecap="round"/>
</svg>
