<svg width="889" height="584" viewBox="0 0 889 584" fill="none" xmlns="http://www.w3.org/2000/svg">
<rect y="2" width="876" height="582" fill="white"/>
<mask id="mask0" mask-type="alpha" maskUnits="userSpaceOnUse" x="11" y="0" width="878" height="582">
<rect x="11" width="878" height="582" fill="#C4C4C4"/>
</mask>
<g mask="url(#mask0)">
<path fill-rule="evenodd" clip-rule="evenodd" d="M147.715 513.496C147.715 513.496 153.461 513.868 155.71 505.336C155.71 505.336 163.054 512.6 168.318 511.825C168.318 511.825 168.426 510.15 168.557 508.12C168.678 506.245 168.047 504.399 166.804 502.99C165.561 501.581 163.808 500.724 161.932 500.611C159.234 500.446 156.246 500.264 153.895 500.122C151.195 499.957 148.542 500.892 146.542 502.714C140.256 508.44 126.687 520.8 126.687 520.8L142.373 524.382L144.34 519.795C144.34 519.795 139.983 514.064 144.865 511.773C144.865 511.773 146.774 510.666 147.715 513.496Z" fill="black"/>
<path fill-rule="evenodd" clip-rule="evenodd" d="M160.956 528.536C160.956 528.536 162.84 528.722 164.553 526.685L163.554 537.824L158.553 535.441L160.956 528.536Z" fill="black"/>
<path fill-rule="evenodd" clip-rule="evenodd" d="M71.3425 659.885L71.3712 660.03C65.5003 663.644 58.5487 665.738 51.1004 665.738C30.0722 665.738 13 649.053 13 628.501C13 615.069 20.2931 603.288 31.2188 596.737C28.2895 592.531 26.6124 587.648 26.6124 582.44C26.6124 566.698 41.9382 553.917 60.8158 553.917C68.878 553.917 76.2929 556.249 82.1405 560.145L97.0913 548.691L100.686 549.57L84.5646 561.922C85.0925 562.347 85.604 562.786 86.0988 563.239L100.831 550.799C101.192 550.264 101.539 549.833 101.866 549.532C101.866 549.532 101.821 549.706 101.742 550.03L102.222 549.625L101.241 552.226C99.7308 559.249 96.5227 577.937 103.762 583.245C103.762 583.245 100.065 582.401 95.0166 582.754L95.0156 582.822C92.3553 583.068 89.3084 583.583 86.298 584.593C79.7012 587.052 72.9451 592.424 69.4378 603.677C67.8393 609.5 66.6059 618.511 67.4624 631.983C67.627 633.771 67.8355 635.616 68.0906 637.53L71.7966 659.724L71.3425 659.885Z" fill="black"/>
<path fill-rule="evenodd" clip-rule="evenodd" d="M94.5172 513.486L84.3042 545.552L101.335 549.273C101.335 549.273 95.269 574.497 102.937 582.766L146.781 602.235C146.781 602.235 157.392 602.383 164.545 592.148L176.527 610.165L197.64 584.007C197.64 584.007 181.761 548.69 162.314 537.063C162.314 537.063 160.735 550.375 143.492 544.111C136.415 541.54 134.202 537.426 126.69 520.511L94.5172 513.486Z" fill="#FFD274"/>
<path fill-rule="evenodd" clip-rule="evenodd" d="M162.237 538.27C162.237 538.27 159.342 550.405 143.978 544.264C143.978 544.264 134.511 543.899 127.002 520.933L142.552 524.289L144.612 520.33C144.612 520.33 138.715 511.448 146.535 512.133L148.109 513.323C148.109 513.323 154.176 512.487 155.655 505.414C155.655 505.414 164.718 512.963 167.717 511.556C167.717 511.556 170.379 526.611 160.956 528.74L158.352 535.163L162.237 538.27Z" fill="white"/>
<path fill-rule="evenodd" clip-rule="evenodd" d="M142.013 523.532L143.644 520.226C143.821 519.867 144.256 519.719 144.615 519.897C144.974 520.074 145.122 520.509 144.945 520.868L143.06 524.689C142.911 524.991 142.574 525.151 142.246 525.075L127.459 522.136L126.792 520.523L142.013 523.532Z" fill="#3766B7"/>
<path fill-rule="evenodd" clip-rule="evenodd" d="M166.882 512.027C166.882 512.027 166.727 516.014 166.568 520.115C166.458 522.954 164.951 525.554 162.542 527.059C160.134 528.565 157.136 528.781 154.536 527.636C153.911 527.361 153.316 527.027 152.769 526.621C152.447 526.383 151.993 526.451 151.754 526.772C151.516 527.094 151.584 527.548 151.905 527.787C152.538 528.256 153.227 528.645 153.952 528.964C156.991 530.302 160.495 530.05 163.311 528.289C166.127 526.529 167.889 523.49 168.018 520.171C168.177 516.07 168.331 512.083 168.331 512.083C168.346 511.683 168.034 511.345 167.634 511.33C167.234 511.315 166.897 511.627 166.882 512.027Z" fill="#3766B7"/>
<path fill-rule="evenodd" clip-rule="evenodd" d="M160.428 528.468L156.507 537.722C156.351 538.09 156.523 538.517 156.892 538.673C157.261 538.829 157.687 538.656 157.843 538.288L161.764 529.034C161.92 528.665 161.747 528.239 161.379 528.082C161.01 527.926 160.584 528.099 160.428 528.468Z" fill="#3766B7"/>
<path fill-rule="evenodd" clip-rule="evenodd" d="M157.934 536.276C159.247 536.854 160.558 537.514 161.868 538.262C161.997 538.336 162.251 538.5 162.251 538.5C162.41 537.928 162.467 537.058 162.467 537.058C162.467 537.058 159.811 535.518 158.519 534.949C158.153 534.787 157.724 534.953 157.563 535.32C157.402 535.686 157.568 536.114 157.934 536.276Z" fill="#3766B7"/>
<path fill-rule="evenodd" clip-rule="evenodd" d="M159.989 519.982C159.114 519.284 158.104 519.118 157.362 519.401C156.794 519.618 156.338 520.08 156.155 520.832C156.06 521.221 156.299 521.614 156.688 521.708C157.077 521.803 157.469 521.564 157.564 521.176C157.729 520.502 158.485 520.638 159.085 521.117C159.397 521.366 159.854 521.315 160.104 521.002C160.353 520.689 160.302 520.232 159.989 519.982Z" fill="#3766B7"/>
<path fill-rule="evenodd" clip-rule="evenodd" d="M156.206 520.829C155.975 521.78 156.321 522.661 156.954 523.323C157.533 523.929 158.353 524.337 159.093 524.435C159.695 524.515 160.248 524.393 160.652 524.088C161.072 523.77 161.375 523.247 161.351 522.436C161.339 522.012 161.182 520.891 160.04 519.98C159.728 519.73 159.271 519.782 159.021 520.095C158.771 520.408 158.823 520.864 159.136 521.114C159.778 521.626 159.894 522.241 159.901 522.479C159.907 522.691 159.887 522.848 159.777 522.931C159.651 523.026 159.472 523.022 159.284 522.997C158.839 522.938 158.351 522.685 158.003 522.321C157.708 522.013 157.508 521.615 157.616 521.173C157.71 520.784 157.472 520.391 157.083 520.297C156.694 520.202 156.301 520.44 156.206 520.829Z" fill="#3766B7"/>
<path fill-rule="evenodd" clip-rule="evenodd" d="M145.893 519.986C145.893 519.986 144.579 518.912 143.737 517.419C142.977 516.072 142.614 514.342 144.319 512.826C144.545 512.624 144.826 512.496 145.126 512.456C145.434 512.414 145.829 512.425 146.164 512.702C146.584 513.05 146.879 513.734 146.98 514.939C147.014 515.338 147.365 515.635 147.764 515.601C148.163 515.568 148.459 515.217 148.426 514.818C148.277 513.047 147.706 512.096 147.088 511.585C146.385 511.002 145.569 510.931 144.932 511.019C144.349 511.095 143.797 511.348 143.355 511.742C140.979 513.853 141.415 516.254 142.474 518.132C143.45 519.864 144.975 521.109 144.975 521.109C145.285 521.363 145.743 521.316 145.996 521.006C146.249 520.696 146.203 520.239 145.893 519.986Z" fill="#3766B7"/>
<path fill-rule="evenodd" clip-rule="evenodd" d="M136.019 448.015C136.019 448.015 146.384 440.961 146.721 439.947C146.721 439.947 149.11 446.335 143.368 451.59C143.368 451.59 144.883 460.348 141.136 465.7L138.712 482.73L79.8338 513.287L93.9543 515.148L84.4594 545.722C84.4594 545.722 66.5039 541.684 50.8814 538.171C38.3446 535.352 30.4482 522.925 33.2208 510.378C33.2211 510.378 33.2211 510.377 33.2211 510.377C34.8653 502.936 39.741 496.616 46.5207 493.136C62.4236 484.975 90.4369 470.598 90.4369 470.598L123.611 454.746" fill="white"/>
<path fill-rule="evenodd" clip-rule="evenodd" d="M85.2629 512.064L94.4873 513.729L93.942 515.672L82.2277 513.394C81.8325 513.316 81.5301 512.996 81.474 512.597C81.4179 512.199 81.6203 511.808 81.9786 511.624L143.413 480.068C143.877 479.829 144.448 480.013 144.686 480.477C144.925 480.942 144.742 481.512 144.277 481.751L85.2629 512.064Z" fill="#3768BE"/>
<path fill-rule="evenodd" clip-rule="evenodd" d="M124.109 455.836L47.58 492.92C36.9007 498.095 31.2474 509.992 33.9802 521.54C33.9802 521.541 33.9802 521.541 33.9802 521.541C35.814 529.29 41.9296 535.301 49.709 537C68.7881 541.169 101.615 548.34 101.615 548.34L101.259 550.242C101.259 550.242 68.3841 543.018 49.3053 538.849C40.8145 536.994 34.1404 530.434 32.1389 521.977C32.1389 521.976 32.1389 521.976 32.1389 521.976C29.2017 509.565 35.2776 496.779 46.7551 491.217C74.6038 477.722 123.301 454.125 123.301 454.125L123.339 454.108C134.608 449.256 146.098 439.233 146.098 439.233C146.298 439.059 146.562 438.976 146.825 439.006C147.088 439.035 147.327 439.174 147.484 439.388C149.023 441.493 148.787 444.055 147.86 446.374C146.586 449.562 144.044 452.245 144.044 452.245C143.685 452.624 143.085 452.64 142.706 452.28C142.328 451.921 142.312 451.322 142.671 450.943C142.671 450.943 144.959 448.535 146.103 445.672C146.66 444.279 146.966 442.766 146.451 441.413C143.507 443.864 133.729 451.69 124.109 455.836Z" fill="#3768BE"/>
<path fill-rule="evenodd" clip-rule="evenodd" d="M153.181 455.814C153.181 455.814 145.204 458.88 147.362 462.19L149.159 463.445C149.159 463.445 143.486 467.508 147.971 470.436C147.971 470.436 141.61 473.775 146.407 477.2C143.856 477.765 142.852 484.085 146.69 482.881C147.677 482.572 153.488 478.351 153.488 478.351C153.488 478.351 153.722 476.214 151.688 475.383C151.688 475.383 157.245 469.777 153.296 469.17L152.97 467.625C152.97 467.625 159.332 463.204 153.505 462.075C153.505 462.075 164.384 454.716 153.506 452.041L151.838 452.149L151.419 456.851" fill="white"/>
<path fill-rule="evenodd" clip-rule="evenodd" d="M156.441 463.312C155.327 461.488 153.134 460.74 151.546 461.641L146.552 464.477C144.964 465.379 144.579 467.592 145.694 469.416C145.999 469.917 146.602 470.123 147.038 469.875C147.474 469.628 147.579 469.02 147.273 468.519C146.771 467.697 146.945 466.699 147.661 466.292L152.654 463.456C153.37 463.05 154.359 463.387 154.862 464.21C155.168 464.711 155.77 464.916 156.206 464.668C156.641 464.421 156.747 463.813 156.441 463.312Z" fill="#3768BE"/>
<path fill-rule="evenodd" clip-rule="evenodd" d="M145.491 469.175C146.605 470.999 148.799 471.748 150.387 470.846L155.381 468.01C156.969 467.108 157.353 464.895 156.239 463.071C155.933 462.57 155.331 462.364 154.895 462.612C154.459 462.86 154.353 463.467 154.659 463.968C155.162 464.791 154.988 465.788 154.272 466.195L149.278 469.031C148.562 469.438 147.573 469.1 147.071 468.278C146.765 467.777 146.163 467.571 145.727 467.819C145.291 468.066 145.185 468.674 145.491 469.175Z" fill="#3768BE"/>
<path fill-rule="evenodd" clip-rule="evenodd" d="M152.475 454.944L147.81 457.55C146.227 458.442 145.844 460.631 146.955 462.434C148.065 464.238 150.251 464.979 151.834 464.087L157.023 461.163C157.816 460.716 160.494 458.424 158.794 455.082C157.513 452.565 155.516 451.785 152.733 451.399C152.211 451.327 151.796 451.705 151.806 452.243C151.816 452.781 152.248 453.277 152.769 453.349C154.746 453.623 156.242 453.996 157.152 455.784C157.64 456.745 157.474 457.547 157.141 458.142C156.767 458.814 156.195 459.255 155.938 459.399L150.748 462.323C150.02 462.734 149.013 462.393 148.502 461.562C147.991 460.732 148.167 459.724 148.896 459.314C148.893 459.315 153.556 456.711 153.556 456.711C153.984 456.472 154.089 455.882 153.791 455.395C153.493 454.907 152.903 454.705 152.475 454.944Z" fill="#3768BE"/>
<path fill-rule="evenodd" clip-rule="evenodd" d="M154.918 470.148C153.886 468.382 151.811 467.613 150.286 468.431L144.926 471.308C143.401 472.127 143 474.225 144.032 475.991C144.33 476.502 144.931 476.725 145.372 476.488C145.814 476.251 145.93 475.643 145.631 475.132C145.197 474.389 145.365 473.505 146.008 473.16L151.368 470.284C152.01 469.939 152.884 470.263 153.318 471.007C153.617 471.518 154.218 471.74 154.659 471.504C155.1 471.267 155.216 470.659 154.918 470.148Z" fill="#3768BE"/>
<path fill-rule="evenodd" clip-rule="evenodd" d="M143.861 475.742C144.892 477.508 146.967 478.277 148.492 477.459L153.853 474.582C155.378 473.764 155.778 471.665 154.747 469.899C154.448 469.388 153.848 469.166 153.406 469.402C152.965 469.639 152.849 470.247 153.148 470.758C153.582 471.501 153.413 472.385 152.771 472.73L147.411 475.606C146.768 475.951 145.895 475.627 145.46 474.883C145.162 474.372 144.561 474.15 144.12 474.386C143.678 474.623 143.562 475.231 143.861 475.742Z" fill="#3768BE"/>
<path fill-rule="evenodd" clip-rule="evenodd" d="M153.916 476.668C152.987 475.077 151.118 474.383 149.745 475.121L144.329 478.029C142.955 478.767 142.594 480.658 143.523 482.249C143.822 482.761 144.423 482.984 144.865 482.747C145.307 482.51 145.423 481.901 145.124 481.39C144.793 480.822 144.921 480.148 145.411 479.885L150.827 476.976C151.317 476.713 151.984 476.96 152.315 477.528C152.614 478.04 153.215 478.263 153.657 478.026C154.099 477.788 154.215 477.18 153.916 476.668Z" fill="#3768BE"/>
<path fill-rule="evenodd" clip-rule="evenodd" d="M143.328 482.055C144.257 483.646 146.126 484.34 147.499 483.602L152.915 480.693C154.289 479.956 154.65 478.065 153.721 476.474C153.422 475.962 152.821 475.739 152.379 475.976C151.937 476.213 151.821 476.821 152.12 477.333C152.451 477.901 152.323 478.575 151.833 478.838L146.417 481.747C145.927 482.01 145.26 481.763 144.929 481.195C144.63 480.683 144.029 480.46 143.587 480.698C143.145 480.935 143.029 481.543 143.328 482.055Z" fill="#3768BE"/>
<path fill-rule="evenodd" clip-rule="evenodd" d="M137.54 471.375C137.748 471.083 137.912 470.833 138.019 470.654C139.145 468.771 140.577 465.931 141.631 462.89C142.932 459.136 143.71 455.069 142.412 452.223C142.196 451.748 142.405 451.186 142.88 450.97C143.355 450.753 143.917 450.963 144.134 451.438C145.601 454.656 144.889 459.265 143.419 463.509C142.318 466.688 140.82 469.657 139.642 471.626C139.515 471.838 139.319 472.134 139.069 472.479C139.97 473.389 140.628 474.606 141.03 475.899C141.185 476.398 140.906 476.928 140.407 477.083C139.908 477.238 139.378 476.959 139.223 476.46C138.937 475.541 138.496 474.642 137.88 473.963C136.944 475.027 135.785 476.11 134.683 476.593C133.474 477.124 132.317 477.051 131.386 476.058C130.887 475.527 130.695 474.979 130.684 474.459C130.673 473.946 130.846 473.442 131.169 472.981C131.913 471.921 133.552 471.097 134.587 470.95C135.701 470.792 136.687 470.965 137.54 471.375ZM136.3 472.922C135.865 472.789 135.383 472.748 134.853 472.824C134.304 472.901 133.489 473.281 132.957 473.794C132.757 473.987 132.571 474.183 132.576 474.418C132.578 474.535 132.653 474.643 132.766 474.764C133.27 475.302 133.926 474.936 134.586 474.481C135.186 474.068 135.777 473.502 136.3 472.922Z" fill="#3768BE"/>
<path fill-rule="evenodd" clip-rule="evenodd" d="M83.126 510.935C83.126 510.935 78.5341 513.302 73.9704 515.654C73.3088 515.995 72.9969 516.769 73.2369 517.474C73.4768 518.178 74.1968 518.6 74.929 518.466C82.5971 517.063 91.9003 515.359 91.9003 515.359L83.126 510.935Z" fill="#3768BE"/>
<path fill-rule="evenodd" clip-rule="evenodd" d="M79.6898 695.831C70.2113 659.238 67.6213 637.548 67.6213 637.548C59.3986 573.834 103.015 582.774 103.015 582.774L147.633 602.045C173.003 639.475 189.357 687.38 198.484 720.211C200.94 729.211 199.029 738.845 193.318 746.228C187.605 753.607 178.759 757.877 169.427 757.754L192.369 844.98L137.99 854.043C121.161 818.727 108.219 786.041 98.3088 757.322L42.2368 751.491L46.9368 694.841L79.6895 695.831H79.6898Z" fill="#658EDC"/>
<path fill-rule="evenodd" clip-rule="evenodd" d="M178.956 607.257C178.956 607.257 193.585 635.525 218.324 625.396C218.324 625.396 230.437 624.174 235.173 604.127L246.192 513.77C246.192 513.77 245.555 513.187 243.726 514.595C241.9 516.003 243.899 513.457 243.899 513.457L243.726 514.595C243.726 514.595 246.741 499.647 247.649 497.227L249.014 492.721C249.014 492.721 247.898 488.518 238.803 500.854L230.667 522.41L203.039 593.753L197.521 585.245L196.552 585.747L178.956 607.257Z" fill="white"/>
<path fill-rule="evenodd" clip-rule="evenodd" d="M245.306 514.3C244.769 514.402 244.221 514.809 243.615 515.494C243.322 515.829 242.83 515.911 242.439 515.69C242.051 515.468 241.868 515.004 242.007 514.578C242.007 514.578 245.413 503.979 247.302 498.109C247.377 497.869 247.28 497.607 247.065 497.475C246.851 497.343 246.573 497.373 246.4 497.546C241.991 501.936 236.548 512.233 231.058 524.478C218.116 553.326 205.032 592.958 205.032 592.958C204.868 593.454 204.335 593.723 203.837 593.56C203.342 593.396 203.074 592.861 203.235 592.365C203.235 592.365 216.356 552.628 229.33 523.703C234.943 511.188 240.556 500.693 245.069 496.2C245.87 495.414 247.103 495.275 248.059 495.865C249.014 496.454 249.446 497.619 249.102 498.688L244.659 512.507C245.362 512.303 246.04 512.347 246.69 512.581C247.109 512.732 247.368 513.155 247.308 513.597C247.308 513.597 239.172 574.383 234.77 607.256C233.13 619.504 222.733 628.682 210.377 628.791C200.04 628.882 190.214 624.307 183.63 616.338C180.974 613.123 177.589 608.969 177.589 608.969L178.971 607.256C178.971 607.256 181.682 611.009 185.089 615.133C191.311 622.662 200.595 626.985 210.362 626.899C221.777 626.798 231.38 618.32 232.893 607.005L245.306 514.3Z" fill="#3768BE"/>
<path fill-rule="evenodd" clip-rule="evenodd" d="M245.432 491.966C246.107 490.903 247.444 490.462 248.623 490.926C249.838 491.404 250.519 492.696 250.229 493.966C249.626 496.612 249.15 498.699 249.15 498.699C249.033 499.208 248.526 499.527 248.018 499.411C247.507 499.295 247.189 498.787 247.305 498.278C247.305 498.278 247.781 496.191 248.384 493.546C248.466 493.187 248.273 492.822 247.93 492.687C247.589 492.552 247.198 492.688 247.015 493.006C247.012 493.007 247.012 493.007 247.012 493.007C246.981 493.062 246.946 493.113 246.902 493.16C246.902 493.16 242.878 497.694 240.632 500.224C239.75 501.217 239.09 502.387 238.699 503.655C237.381 507.903 234.546 517.06 234.546 517.06C234.392 517.559 233.862 517.838 233.364 517.684C232.865 517.529 232.585 516.999 232.739 516.5C232.739 516.5 235.574 507.344 236.889 503.095C237.362 501.569 238.157 500.162 239.217 498.968L245.432 491.966Z" fill="#3768BE"/>
<path fill-rule="evenodd" clip-rule="evenodd" d="M237.371 527.513C237.371 527.513 240.386 519.105 243.316 515.83C243.631 515.476 243.943 515.187 244.249 515C244.429 514.891 244.596 514.809 244.766 514.825C244.996 514.847 245.167 515.056 245.362 515.368C245.64 515.811 246.223 515.945 246.665 515.667C247.109 515.389 247.242 514.805 246.964 514.363C246.365 513.406 245.652 513.009 244.943 512.942C244.013 512.853 242.931 513.422 241.906 514.569C238.816 518.024 235.593 526.869 235.593 526.869C235.416 527.36 235.668 527.903 236.16 528.081C236.652 528.258 237.195 528.004 237.371 527.513Z" fill="#3768BE"/>
<path fill-rule="evenodd" clip-rule="evenodd" d="M239.505 721.296L156.136 788.744C149.972 784.676 143.346 782.121 138.256 786.161L178.744 831.827L267.385 772.528L322.754 850.054C313.799 851.123 307.154 853.59 305.978 859.36H383.11C359.78 818.86 335.227 779.249 309.614 740.41L370.537 686.652C403.049 646.933 385.68 618.214 360.947 613.608C370.953 605.57 377.077 596.015 381.151 585.656C381.151 585.656 435.663 585.719 437.896 583.408C438.867 582.403 439.428 580.235 440.759 580.446C470.935 585.223 463.912 556.545 463.912 556.545L401.078 495.373L381.747 520.135L412.264 549.273L367.137 550.797C359.2 551.666 352.142 552.838 347.052 554.689L343.419 545.03C343.419 545.03 352.927 540.333 346.33 535.233C345.608 534.675 344.208 536.963 344.208 536.963L343.325 532.25C342.379 524.743 337.712 522.84 331.663 523.017C321.831 507.44 311.178 492.317 299.743 477.624C291.73 484.365 285.628 491.569 280.195 498.936L326.807 524.06C320.651 526.164 319.907 530.778 320.607 536.062C320.881 540.439 320.601 547.047 326.807 550.258V558.22C298.986 562.832 285.66 574.444 270.611 590.631C270.611 590.631 269.4 563.702 268.066 544.829C267.704 539.682 267.063 531.864 266.225 525.868C265.701 522.15 268.221 512.33 266.66 509.443C263.093 502.845 259.933 499.015 257.474 495.373C254.279 490.637 251.324 489.842 250.17 490.352L251.595 510.332L247.739 508.242L242.324 550.797C238.789 587.991 223.343 663.616 305.609 599.289C309.525 608.178 314.792 614.865 323.133 616.526C300.424 628.936 281.942 648.652 263.219 667.955C242.248 692.968 237.84 707.967 239.505 721.296Z" fill="white"/>
<path fill-rule="evenodd" clip-rule="evenodd" d="M242.297 550.795L269.824 544.413L271.174 589.388C271.174 589.388 295.251 562.42 317.887 560.045C318.41 559.99 318.792 559.851 319.328 559.837C319.328 559.837 341.614 574.234 363.2 550.795L412.237 549.27L379.402 520.955L400.225 494.608C400.225 494.608 442.236 533.417 460.508 550.293C465.701 555.093 468.155 562.174 467.038 569.159V569.159C465.815 576.821 459.357 582.555 451.602 582.862C427.954 583.799 381.124 585.654 381.124 585.654C381.124 585.654 374.568 605.681 360.92 613.606C360.92 613.606 361.358 613.66 362.118 613.754C376.302 615.515 387.479 626.688 389.244 640.873C390.739 652.891 387.39 665.01 379.942 674.559C375.066 680.806 370.509 686.65 370.509 686.65C370.509 686.65 365.574 667.615 348.867 668.498L263.192 667.953C263.192 667.953 300.268 625.627 323.106 616.524C323.106 616.524 309.054 613.46 305.582 599.286C305.582 599.286 287.686 613.508 276.809 622.151C271.54 626.339 264.964 628.541 258.235 628.369C258.232 628.369 258.232 628.369 258.232 628.369C251.322 628.193 244.82 625.065 240.367 619.776C235.917 614.487 233.947 607.545 234.952 600.706C238.213 578.55 242.297 550.795 242.297 550.795Z" fill="#FF7766"/>
<path fill-rule="evenodd" clip-rule="evenodd" d="M349.165 599.979C347.796 600.196 346.52 599.253 346.317 597.874C346.113 596.496 347.058 595.2 348.427 594.983C348.427 594.983 358.594 593.426 362.984 585.233C364.876 581.705 365.619 576.953 364.132 570.599C363.816 569.244 364.649 567.875 365.995 567.541C367.341 567.21 368.693 568.042 369.01 569.398C370.863 577.313 369.745 583.216 367.388 587.61C361.871 597.907 349.165 599.979 349.165 599.979Z" fill="#FCD8C8"/>
<path fill-rule="evenodd" clip-rule="evenodd" d="M447.473 538.253L451.173 541.668C450.163 543.091 449.315 544.731 448.779 546.603C447.685 550.438 447.981 555.221 450.826 561.094C451.434 562.347 450.908 563.857 449.656 564.464C448.401 565.071 446.893 564.546 446.285 563.293C442.743 555.977 442.563 549.994 443.926 545.217C444.695 542.53 445.972 540.217 447.473 538.253Z" fill="#FCD8C8"/>
<path fill-rule="evenodd" clip-rule="evenodd" d="M423.257 558.651C422.874 560.123 421.504 561.192 420.198 561.039C418.892 560.886 418.141 559.569 418.524 558.097C418.524 558.097 421.413 547.182 416.004 540.487C413.675 537.602 409.78 535.583 403.531 535.445C402.198 535.415 401.336 534.193 401.605 532.715C401.877 531.237 403.182 530.059 404.515 530.089C412.299 530.259 417.055 532.97 419.956 536.563C426.756 544.977 423.256 558.651 423.257 558.651Z" fill="#FCD8C8"/>
<path fill-rule="evenodd" clip-rule="evenodd" d="M383.544 550.163C383.674 550.237 383.926 550.355 384.055 550.425C387.572 552.31 392.308 553.034 398.653 551.502C400.006 551.176 401.371 552.009 401.696 553.363C402.024 554.716 401.188 556.08 399.836 556.407C391.936 558.315 386.048 557.22 381.671 554.872C379.458 553.684 377.657 552.071 376.146 550.405L383.544 550.163Z" fill="#FCD8C8"/>
<path fill-rule="evenodd" clip-rule="evenodd" d="M330.298 563.768C331.651 563.959 333.736 564.192 335.987 564.221C335.735 564.555 335.495 564.903 335.265 565.266C333.13 568.634 332.064 573.306 333.13 579.744C333.357 581.118 332.427 582.418 331.055 582.646C329.68 582.873 328.381 581.943 328.154 580.569C326.946 573.291 328.088 567.849 330.298 563.768ZM335.161 557.84L334.549 558.374C334.751 558.191 334.953 558.013 335.161 557.84Z" fill="#FCD8C8"/>
<path fill-rule="evenodd" clip-rule="evenodd" d="M293.533 570.04C295.828 572.143 298.95 574.148 302.858 574.744C306.799 575.346 311.504 574.445 316.973 570.881C318.139 570.121 319.704 570.45 320.464 571.617C321.224 572.783 320.896 574.347 319.729 575.108C312.917 579.547 307.004 580.481 302.094 579.732C296.623 578.897 292.353 575.885 289.383 572.957C290.433 572.207 292.113 571.015 293.533 570.04Z" fill="#FCD8C8"/>
<path fill-rule="evenodd" clip-rule="evenodd" d="M240.246 564.834C242.794 567.027 244.529 569.432 245.689 571.871C250.681 582.381 244.731 593.873 244.731 593.875C244.084 595.109 242.558 595.586 241.325 594.941C240.092 594.295 239.613 592.769 240.259 591.536C240.259 591.536 245.103 582.398 241.133 574.036C240.659 573.046 240.063 572.072 239.322 571.127L240.246 564.834Z" fill="#FCD8C8"/>
<path fill-rule="evenodd" clip-rule="evenodd" d="M270.439 563.866C261.663 565.97 252.65 563.162 252.65 563.162C251.322 562.74 250.588 561.32 251.01 559.993C251.433 558.666 252.852 557.932 254.18 558.354C254.18 558.354 262.707 561.138 270.285 558.692L270.439 563.866Z" fill="#FCD8C8"/>
<path fill-rule="evenodd" clip-rule="evenodd" d="M394.77 501.47C395.833 503.468 397.274 505.464 399.112 507.179C402.685 510.515 407.945 512.896 415.612 513.081C417.002 513.115 418.106 514.272 418.071 515.664C418.037 517.056 416.879 518.159 415.489 518.125C406.258 517.902 399.973 514.886 395.669 510.867C393.972 509.283 392.531 507.555 391.396 505.739L394.77 501.47Z" fill="#FCD8C8"/>
<path fill-rule="evenodd" clip-rule="evenodd" d="M427.679 583.812C432.088 577.216 437.055 574.064 441.782 572.8C451.977 570.076 461.384 576.3 463.043 577.494C461.343 579.367 459.82 580.292 458.877 580.83C456.259 579.162 449.915 575.849 443.087 577.675C440.113 578.469 437.08 580.266 434.207 583.553L427.679 583.812Z" fill="#FCD8C8"/>
<path fill-rule="evenodd" clip-rule="evenodd" d="M406.602 584.648C405.829 582.091 404.486 579.408 402.19 577.181C399.33 574.404 394.971 572.407 388.45 572.139C387.059 572.082 385.978 570.906 386.034 569.515C386.091 568.124 387.267 567.04 388.658 567.098C396.782 567.432 402.139 570.1 405.703 573.559C409.049 576.803 410.802 580.808 411.707 584.446L406.602 584.648Z" fill="#FCD8C8"/>
<path fill-rule="evenodd" clip-rule="evenodd" d="M271.189 589.382C271.189 589.382 271.488 595.458 271.756 600.862C271.791 601.558 272.321 602.128 273.011 602.214C273.702 602.299 274.355 601.875 274.557 601.209C277.215 592.478 281.129 579.611 281.129 579.611L271.189 589.382Z" fill="#FE4A3D"/>
<path fill-rule="evenodd" clip-rule="evenodd" d="M412.211 549.269C412.211 549.269 423.418 557.699 431.57 563.828C431.964 564.126 432.068 564.676 431.807 565.097C431.548 565.518 431.009 565.672 430.567 565.452C418.521 559.465 399.073 549.799 399.073 549.799L412.211 549.269Z" fill="#FE4A3D"/>
<path fill-rule="evenodd" clip-rule="evenodd" d="M381.09 585.646C381.09 585.646 381.506 583.275 381.575 579.504C381.6 578.744 382.096 578.079 382.815 577.838C383.537 577.597 384.331 577.829 384.808 578.422C386.542 580.562 388.403 583.216 388.939 585.273C388.942 585.288 388.939 585.304 388.929 585.317C388.92 585.329 388.904 585.337 388.891 585.337C388.141 585.367 381.09 585.646 381.09 585.646Z" fill="#FE4A3D"/>
<path fill-rule="evenodd" clip-rule="evenodd" d="M367.18 464.53C367.18 464.53 362.314 468.251 368.76 477.179L367.18 464.53Z" fill="white"/>
<path fill-rule="evenodd" clip-rule="evenodd" d="M359.737 476.54C359.737 476.54 351.67 475.624 353.067 481.902L355.262 484.586L356.886 485.899C356.886 485.899 351.692 487.329 355.262 491.364L357.293 493.006C357.293 493.006 350.642 493.619 356.886 498.841L358.624 500.185C358.624 500.185 352.127 499.653 355.262 503.806L361.783 508.239L363.171 506.23L360.453 502.3L363.95 500.702C363.527 499.985 363.915 499.042 363.193 498.248C362.137 497.083 360.093 496.117 361.128 495.664C362.064 495.252 363.644 493.824 363.278 492.377C362.859 490.718 360.405 489.046 360.405 489.046C361.884 489.195 363.773 487.239 363.3 485.277C362.868 483.478 360.131 481.664 360.131 481.664L359.737 476.54Z" fill="white"/>
<path fill-rule="evenodd" clip-rule="evenodd" d="M362.158 493.582C361.588 494.282 360.594 494.423 359.941 493.898L355.381 490.234C354.983 489.914 354.378 490.001 354.031 490.427C353.684 490.853 353.725 491.458 354.123 491.778L358.683 495.442C360.133 496.607 362.336 496.293 363.6 494.741C363.947 494.315 363.905 493.709 363.507 493.39C363.109 493.07 362.505 493.156 362.158 493.582Z" fill="black"/>
<path fill-rule="evenodd" clip-rule="evenodd" d="M355.28 490.283C354.629 489.76 354.561 488.769 355.129 488.072C355.697 487.376 356.686 487.235 357.338 487.758L361.881 491.407C362.532 491.93 362.6 492.92 362.033 493.617C361.687 494.042 361.728 494.645 362.125 494.963C362.521 495.282 363.124 495.196 363.47 494.772C364.729 493.226 364.579 491.029 363.134 489.869L358.591 486.22C357.146 485.06 354.951 485.373 353.691 486.918C352.432 488.464 352.582 490.66 354.027 491.821C354.424 492.139 355.027 492.053 355.372 491.629C355.718 491.205 355.677 490.601 355.28 490.283Z" fill="black"/>
<path fill-rule="evenodd" clip-rule="evenodd" d="M357.427 480.969L361.746 484.411C362.418 484.951 362.488 485.976 361.9 486.697C361.312 487.419 360.287 487.565 359.613 487.023L354.809 483.167C354.571 482.976 354.054 482.434 353.755 481.703C353.489 481.054 353.407 480.233 353.986 479.379C355.064 477.79 356.574 477.705 358.546 477.808C359.066 477.835 359.541 477.428 359.606 476.901C359.671 476.373 359.302 475.922 358.782 475.895C356.005 475.75 353.961 476.142 352.443 478.379C350.428 481.348 352.827 484.109 353.56 484.698L358.364 488.555C359.829 489.731 362.055 489.414 363.332 487.847C364.609 486.281 364.457 484.054 362.992 482.878C362.99 482.876 358.671 479.434 358.671 479.434C358.275 479.118 357.675 479.205 357.331 479.629C356.988 480.053 357.031 480.653 357.427 480.969Z" fill="black"/>
<path fill-rule="evenodd" clip-rule="evenodd" d="M362.788 500.339C362.289 500.979 361.406 501.131 360.816 500.679L355.894 496.905C355.304 496.453 355.231 495.567 355.73 494.928C356.073 494.488 356.022 493.879 355.617 493.568C355.212 493.257 354.604 493.362 354.261 493.802C353.076 495.32 353.251 497.425 354.651 498.499L359.573 502.272C360.973 503.346 363.072 502.984 364.257 501.465C364.6 501.026 364.55 500.417 364.144 500.106C363.739 499.795 363.131 499.9 362.788 500.339Z" fill="black"/>
<path fill-rule="evenodd" clip-rule="evenodd" d="M355.676 495.042C356.175 494.402 357.059 494.25 357.649 494.702L362.571 498.476C363.161 498.928 363.234 499.814 362.735 500.454C362.392 500.893 362.443 501.503 362.848 501.813C363.253 502.124 363.861 502.019 364.204 501.58C365.389 500.061 365.214 497.956 363.814 496.883L358.892 493.109C357.492 492.036 355.393 492.397 354.208 493.916C353.865 494.356 353.915 494.965 354.32 495.275C354.726 495.586 355.333 495.482 355.676 495.042Z" fill="black"/>
<path fill-rule="evenodd" clip-rule="evenodd" d="M362.318 506.616C361.937 507.103 361.263 507.219 360.813 506.875L355.842 503.063C355.392 502.718 355.336 502.042 355.717 501.554C356.06 501.114 356.009 500.505 355.604 500.194C355.198 499.883 354.59 499.987 354.247 500.427C353.18 501.795 353.338 503.69 354.598 504.657L359.57 508.469C360.83 509.435 362.72 509.11 363.787 507.742C364.13 507.302 364.079 506.693 363.674 506.382C363.268 506.071 362.661 506.176 362.318 506.616Z" fill="black"/>
<path fill-rule="evenodd" clip-rule="evenodd" d="M355.667 501.658C356.048 501.17 356.722 501.054 357.171 501.399L362.143 505.211C362.592 505.556 362.649 506.232 362.268 506.719C361.925 507.159 361.975 507.769 362.381 508.08C362.786 508.391 363.394 508.286 363.738 507.846C364.804 506.479 364.647 504.583 363.386 503.617L358.415 499.805C357.154 498.838 355.264 499.164 354.198 500.531C353.854 500.971 353.905 501.581 354.31 501.892C354.716 502.203 355.324 502.098 355.667 501.658Z" fill="black"/>
<path fill-rule="evenodd" clip-rule="evenodd" d="M369.228 498.99C369.068 498.615 368.947 498.295 368.873 498.067C368.185 495.951 367.402 492.788 367.017 489.455C366.503 485.006 366.747 480.268 368.696 477.167C368.984 476.709 369.533 476.556 369.922 476.825C370.31 477.095 370.392 477.685 370.104 478.143C368.38 480.886 368.301 485.082 368.756 489.018C369.124 492.206 369.873 495.231 370.531 497.255C370.593 497.447 370.693 497.718 370.825 498.035C371.677 497.711 372.603 497.639 373.582 497.917C374.491 498.175 375.816 499.181 376.285 500.333C376.489 500.834 376.549 501.362 376.44 501.879C376.329 502.404 376.05 502.938 375.496 503.424C374.462 504.329 373.4 504.281 372.407 503.617C371.502 503.011 370.661 501.793 370.018 500.617C369.33 501.239 368.757 502.103 368.321 503.003C368.084 503.491 367.55 503.717 367.128 503.508C366.707 503.298 366.556 502.732 366.793 502.244C367.406 500.978 368.236 499.816 369.228 498.99ZM371.65 499.731C372.012 500.373 372.438 501.008 372.902 501.49C373.412 502.02 373.935 502.459 374.496 501.968C375 501.527 374.617 501.039 374.255 500.645C373.87 500.225 373.368 499.895 372.98 499.784C372.514 499.652 372.07 499.643 371.65 499.731Z" fill="black"/>
<path fill-rule="evenodd" clip-rule="evenodd" d="M368.839 476.846C369.041 476.939 369.208 477.104 369.306 477.323C369.514 477.802 369.296 478.36 368.817 478.569C368.58 478.672 368.271 478.716 367.915 478.526C367.713 478.42 367.322 478.045 366.931 477.375C366.111 475.978 364.9 473.048 364.563 469.965C364.33 467.828 364.519 465.624 365.477 463.772C365.481 463.764 365.487 463.755 365.49 463.747C365.768 463.248 366.272 462.916 366.84 462.857C367.404 462.798 367.966 463.019 368.341 463.45L368.366 463.478C371.721 467.659 377.016 477.331 399.491 495.287C399.557 495.34 399.69 495.446 399.69 495.446L398.51 496.925C398.51 496.925 398.391 496.831 398.331 496.783C375.982 478.929 370.451 469.189 367.048 464.864C366.045 467.006 366.275 469.669 366.84 471.955C367.411 474.261 368.331 476.2 368.839 476.846ZM368.114 476.814L368.111 476.815L368.123 476.81L368.114 476.814ZM368.171 476.795L368.164 476.797L368.174 476.794L368.171 476.795Z" fill="black"/>
<path fill-rule="evenodd" clip-rule="evenodd" d="M362.694 505.915L379.704 520.873L380.988 519.259L363.94 504.492C363.546 504.148 362.95 504.188 362.603 504.58C362.259 504.973 362.3 505.571 362.694 505.915Z" fill="black"/>
<path fill-rule="evenodd" clip-rule="evenodd" d="M242.373 550.811L244.255 550.375L248.462 510.13C248.468 510.063 248.509 510.006 248.569 509.978C248.632 509.951 248.702 509.958 248.755 509.996C250.408 511.231 252.921 514.873 254.551 525.25C254.63 525.766 255.116 526.119 255.633 526.038C256.147 525.957 256.5 525.473 256.421 524.957C254.652 513.687 251.685 509.824 249.872 508.468C249.25 508.026 248.465 507.949 247.793 508.253C247.119 508.558 246.655 509.197 246.579 509.932L242.373 550.811Z" fill="black"/>
<path fill-rule="evenodd" clip-rule="evenodd" d="M266.287 545.271L268.161 544.837C268.161 544.837 266.805 522.035 262.973 507.584C261.024 500.227 258.344 493.8 254.783 490.397C253.812 489.467 252.374 489.221 251.151 489.773C249.924 490.326 249.158 491.568 249.211 492.912C249.46 499.073 249.905 509.952 249.905 509.952C249.927 510.474 250.368 510.88 250.889 510.859C251.412 510.838 251.816 510.397 251.797 509.875C251.797 509.875 251.352 498.996 251.103 492.835C251.078 492.262 251.406 491.734 251.926 491.498C252.45 491.262 253.062 491.368 253.475 491.764C256.843 494.985 259.299 501.106 261.144 508.069C265.035 522.75 266.287 545.271 266.287 545.271Z" fill="black"/>
<path fill-rule="evenodd" clip-rule="evenodd" d="M256.092 494.757C256.092 494.757 260.053 500.835 262.888 505.185C264.606 507.822 265.455 510.933 265.313 514.078C265.064 519.603 264.701 527.602 264.701 527.602C264.679 528.123 265.082 528.566 265.603 528.589C266.126 528.613 266.568 528.209 266.593 527.687C266.593 527.687 266.953 519.689 267.202 514.164C267.363 510.623 266.407 507.121 264.474 504.151C261.639 499.802 257.678 493.724 257.678 493.724C257.394 493.286 256.808 493.163 256.369 493.448C255.931 493.733 255.808 494.319 256.092 494.757Z" fill="black"/>
<path fill-rule="evenodd" clip-rule="evenodd" d="M250.74 491.908L250.758 491.893C250.358 492.227 249.762 492.172 249.428 491.77C249.093 491.369 249.147 490.772 249.551 490.438C249.551 490.438 250.415 489.684 251.73 489.923C252.452 490.053 253.366 490.492 254.312 491.736C256.198 494.226 258.463 500.508 259.658 515.751C259.699 516.272 259.308 516.728 258.787 516.768C258.267 516.809 257.81 516.42 257.769 515.899C256.627 501.309 254.612 495.262 252.805 492.88C252.269 492.175 251.802 491.859 251.392 491.784C251.039 491.72 250.787 491.873 250.74 491.908L250.736 491.912C250.736 491.912 250.736 491.911 250.74 491.908V491.908Z" fill="black"/>
<path fill-rule="evenodd" clip-rule="evenodd" d="M321.911 535.767C321.907 535.806 321.904 535.875 321.901 535.942C321.873 536.604 321.848 538.196 321.86 538.591C321.892 539.607 321.964 540.618 322.097 541.621C322.226 542.615 322.418 543.6 322.686 544.575C323.333 546.933 324.906 548.224 326.827 548.761C328.807 549.314 331.141 549.095 333.257 548.441C333.639 548.323 334.045 548.537 334.162 548.92C334.282 549.302 334.067 549.709 333.683 549.827C330.772 550.727 327.502 550.845 325.017 549.619C323.292 548.766 321.923 547.282 321.286 544.96C321.002 543.921 320.797 542.87 320.656 541.811C320.517 540.76 320.441 539.7 320.41 538.634C320.4 538.223 320.422 536.568 320.451 535.88C320.457 535.719 320.466 535.601 320.473 535.547C320.501 535.328 320.592 535.214 320.621 535.176C320.823 534.911 321.069 534.873 321.27 534.892C321.431 534.908 321.636 534.969 321.8 535.205C321.917 535.375 321.952 535.579 321.911 535.767ZM321.696 536.145C321.671 536.169 321.643 536.192 321.611 536.213C321.485 536.299 321.343 536.341 321.201 536.34C321.359 536.343 321.539 536.303 321.696 536.145ZM320.627 536.058C320.763 536.239 320.927 536.304 321.069 536.328C320.898 536.297 320.738 536.204 320.627 536.058ZM321.699 536.142V536.143V536.142Z" fill="black"/>
<path fill-rule="evenodd" clip-rule="evenodd" d="M326.157 550.409C326.044 550.173 326.066 549.885 326.233 549.662C326.476 549.343 326.93 549.28 327.248 549.521C327.318 549.572 327.504 549.754 327.583 550.141C327.649 550.458 327.728 551.132 327.803 551.993C328.024 554.501 328.254 558.657 328.216 559.993C328.207 560.393 327.873 560.71 327.472 560.699C327.072 560.688 326.756 560.355 326.766 559.955C326.807 558.452 326.504 553.308 326.261 551.152C326.227 550.839 326.173 550.506 326.157 550.409Z" fill="black"/>
<path fill-rule="evenodd" clip-rule="evenodd" d="M344.538 544.623C344.607 544.817 344.696 545.088 344.721 545.188L345.333 547.404C345.708 548.71 346.067 550.03 346.449 551.34C346.701 552.206 346.963 553.068 347.25 553.919C347.376 554.298 347.171 554.71 346.793 554.837C346.411 554.964 346.001 554.76 345.875 554.38C345.582 553.51 345.314 552.63 345.055 551.746C344.673 550.434 344.317 549.114 343.939 547.807L343.317 545.545C343.27 545.367 343.087 544.912 343.043 544.695C343.002 544.511 343.021 544.367 343.04 544.281C343.1 544.047 343.232 543.906 343.377 543.818C343.529 543.725 343.882 543.55 344.311 543.928C344.513 544.108 344.591 544.375 344.538 544.623ZM343.387 545.045L343.39 545.049L343.384 545.042L343.387 545.045Z" fill="black"/>
<path fill-rule="evenodd" clip-rule="evenodd" d="M343.888 533.391C343.882 533.426 343.857 533.547 343.85 533.635C343.819 533.994 343.85 534.47 343.898 534.949C343.98 535.777 344.121 536.614 344.172 536.972C344.226 537.368 343.948 537.735 343.554 537.79C343.157 537.845 342.791 537.568 342.734 537.172C342.655 536.6 342.356 534.853 342.39 533.759C342.406 533.188 342.548 532.75 342.725 532.53C342.974 532.218 343.431 532.167 343.743 532.418C344.04 532.656 344.099 533.082 343.888 533.391Z" fill="black"/>
<path fill-rule="evenodd" clip-rule="evenodd" d="M343.219 536.948C343.319 536.729 343.49 536.362 343.591 536.231C343.865 535.879 344.168 535.542 344.521 535.279C344.789 535.08 345.085 534.922 345.42 534.822C346.161 534.599 346.877 534.798 347.504 535.244C348.239 535.766 348.844 536.643 349.176 537.297C350.027 538.969 349.589 540.857 348.469 542.337C347.4 543.751 345.716 544.765 344.098 544.849C343.701 544.869 343.357 544.561 343.338 544.162C343.316 543.762 343.625 543.42 344.026 543.4C345.249 543.337 346.501 542.533 347.312 541.462C348.094 540.429 348.475 539.122 347.883 537.954C347.674 537.543 347.328 537.008 346.896 536.615C346.583 536.331 346.23 536.092 345.836 536.211C345.622 536.275 345.442 536.392 345.278 536.531C345.076 536.704 344.902 536.91 344.738 537.121C344.616 537.276 344.464 537.736 344.401 537.846C344.193 538.202 343.881 538.229 343.777 538.233C343.546 538.242 343.332 538.164 343.165 537.941C343.124 537.885 342.985 537.715 343.026 537.367C343.042 537.203 343.114 537.059 343.219 536.948ZM344.47 537.466V537.484V537.477V537.466ZM344.47 537.424V537.441V537.43V537.424Z" fill="black"/>
<path fill-rule="evenodd" clip-rule="evenodd" d="M321.807 559.166C321.372 559.249 319.145 559.865 319.145 559.865L321.019 560.784C321.019 560.784 321.999 560.602 322.652 560.479C324.617 560.111 324.986 559.988 327.458 559.598C327.852 559.535 328.123 559.164 328.06 558.768C327.997 558.373 327.625 558.103 327.231 558.165C324.481 558.599 323.929 558.762 321.807 559.166Z" fill="black"/>
<path fill-rule="evenodd" clip-rule="evenodd" d="M346.555 553.292C346.577 553.285 346.599 553.28 346.625 553.276C346.883 553.232 347.425 553.136 348.17 553.005C351.342 552.45 358.334 551.2 363.149 550.795C363.281 550.784 362.815 551.093 362.48 551.508C362.149 551.917 361.531 552.476 361.531 552.476C361.531 552.476 351.225 553.943 348.419 554.434C347.668 554.565 347.126 554.662 346.867 554.706C346.022 554.848 345.855 553.904 345.858 553.886C345.921 553.542 346.218 553.299 346.555 553.292Z" fill="black"/>
<path fill-rule="evenodd" clip-rule="evenodd" d="M336.404 540.242C336.007 539.942 335.584 539.912 335.1 540.089C334.667 540.247 334.15 540.642 333.511 541.098C332.836 541.58 332.249 542.089 331.939 542.596C331.629 543.102 331.533 543.621 331.707 544.152C331.831 544.53 332.227 544.7 332.592 544.533C332.957 544.365 333.153 543.923 333.029 543.546C332.989 543.424 333.083 543.323 333.175 543.208C333.419 542.903 333.798 542.613 334.208 542.32C334.573 542.06 334.887 541.816 335.166 541.643C335.257 541.587 335.341 541.54 335.422 541.507C335.463 541.491 335.499 541.465 335.532 541.489C335.832 541.717 336.272 541.622 336.512 541.278C336.753 540.934 336.704 540.469 336.404 540.242Z" fill="black"/>
<path fill-rule="evenodd" clip-rule="evenodd" d="M331.803 544.167C332.104 545.087 332.784 545.389 333.606 545.266C334.222 545.173 334.945 544.793 335.569 544.259C336.33 543.608 336.926 542.736 337.08 541.991C337.22 541.309 337.07 540.692 336.497 540.258C336.196 540.03 335.757 540.125 335.517 540.47C335.276 540.814 335.325 541.278 335.625 541.505C335.768 541.613 335.736 541.789 335.668 541.964C335.51 542.367 335.16 542.783 334.762 543.123C334.369 543.459 333.925 543.727 333.537 543.785C333.354 543.813 333.191 543.766 333.124 543.561C333.001 543.184 332.604 543.013 332.24 543.18C331.875 543.348 331.68 543.79 331.803 544.167Z" fill="black"/>
<path fill-rule="evenodd" clip-rule="evenodd" d="M324.609 523.869C323.65 523.398 322.66 522.913 322.562 522.864C320.203 521.683 317.854 520.496 315.511 519.291C313.165 518.085 310.828 516.86 308.507 515.606C305.688 514.083 302.878 512.542 300.071 510.992C295.868 508.67 291.673 506.327 287.476 503.999C286.908 503.685 283.717 502.114 281.923 500.99C281.406 500.667 280.999 500.371 280.759 500.143C280.51 499.907 280.381 499.68 280.324 499.514C280.22 499.204 280.201 498.84 280.289 498.436C280.387 497.988 280.633 497.461 280.977 496.915C281.86 495.519 283.424 493.925 283.862 493.355C285.6 491.098 287.422 488.862 289.343 486.712C291.267 484.554 293.288 482.482 295.42 480.564C296.044 479.999 297.243 478.617 298.397 478.007C299.248 477.555 300.096 477.482 300.822 477.899C302.042 478.599 303.335 479.843 304.606 481.34C307.11 484.295 309.551 488.251 311.2 490.495C313.155 493.15 315.035 495.857 316.876 498.591C319.626 502.679 322.288 506.827 324.981 510.955C326.706 513.596 328.73 516.223 330.462 518.959C331.111 519.988 331.72 521.032 332.256 522.097C333.804 522.029 337.661 522.116 340.578 524.327C342.637 525.886 344.277 528.475 344.299 532.807C344.299 533.192 344.069 533.539 343.713 533.686C343.713 533.686 337.642 536.155 332.912 534.342C331.237 533.7 329.714 532.55 328.652 530.607C327.917 531.699 326.781 533.129 325.29 534.257C324.057 535.191 322.587 535.916 320.91 536.119C320.657 536.15 320.405 536.077 320.206 535.917C320.008 535.758 319.882 535.525 319.856 535.272C319.856 535.272 319.386 530.311 321.726 526.653C322.42 525.564 323.357 524.586 324.609 523.869ZM342.388 532.162C342.227 528.999 341.016 527.032 339.437 525.835C336.277 523.441 331.805 524.024 331.805 524.024C331.401 524.075 331.01 523.861 330.834 523.492C330.263 522.292 329.588 521.122 328.863 519.97C327.138 517.242 325.113 514.622 323.398 511.989C320.711 507.868 318.053 503.728 315.306 499.647C313.48 496.936 311.616 494.251 309.677 491.616C308.046 489.399 305.64 485.485 303.162 482.563C302.055 481.257 300.945 480.151 299.879 479.54C299.746 479.464 299.601 479.535 299.447 479.6C299.15 479.725 298.854 479.936 298.564 480.173C297.804 480.793 297.107 481.588 296.684 481.969C294.606 483.842 292.635 485.865 290.753 487.972C288.867 490.088 287.072 492.289 285.36 494.51C284.988 494.993 283.777 496.231 282.907 497.441C282.62 497.837 282.374 498.226 282.225 498.578C282.194 498.656 282.166 498.763 282.147 498.841C282.2 498.888 282.27 498.944 282.333 498.989C282.916 499.416 283.906 499.981 284.912 500.526C286.442 501.354 288.012 502.133 288.394 502.344C292.591 504.672 296.785 507.014 300.986 509.336C303.786 510.883 306.59 512.421 309.406 513.941C311.717 515.19 314.041 516.408 316.375 517.608C318.712 518.81 321.058 519.994 323.41 521.172C323.565 521.25 325.968 522.426 326.923 522.902C327.103 522.991 327.232 523.057 327.292 523.089C328.358 523.649 327.201 524.844 327.141 524.86C324.814 525.496 323.489 527.069 322.732 528.771C321.868 530.703 321.711 532.801 321.704 534.028C322.95 533.657 324.022 532.924 324.908 532.113C326.867 530.322 327.939 528.119 327.939 528.119C328.106 527.771 328.469 527.561 328.853 527.587C329.238 527.613 329.569 527.871 329.689 528.237C330.471 530.629 331.922 531.935 333.59 532.575C336.87 533.832 340.887 532.683 342.388 532.162Z" fill="#FFD274"/>
<path fill-rule="evenodd" clip-rule="evenodd" d="M28.8709 495.483C28.8709 495.483 18.7698 508.474 25.0463 526.084C25.2509 526.657 25.8829 526.957 26.4565 526.753C27.0305 526.548 27.3304 525.916 27.1257 525.342C21.28 508.942 30.6163 496.834 30.6163 496.834C30.9894 496.353 30.9011 495.659 30.4196 495.286C29.9377 494.913 29.2439 495.001 28.8709 495.483Z" fill="#88C9D4"/>
<path fill-rule="evenodd" clip-rule="evenodd" d="M22.0188 529.249C22.0188 529.249 15.0389 506.678 27.7267 491.611C28.119 491.144 28.0591 490.448 27.5933 490.055C27.1272 489.663 26.4303 489.723 26.038 490.189C12.6469 506.091 19.9085 529.897 19.9085 529.897C20.0873 530.48 20.7054 530.807 21.2875 530.629C21.87 530.45 22.1977 529.832 22.0188 529.249Z" fill="#88C9D4"/>
<path fill-rule="evenodd" clip-rule="evenodd" d="M53.6374 85.9077C54.0493 97.4923 58.1015 103.29 62.75 106.112C70.109 110.58 79.2371 107.578 79.2371 107.578C79.853 107.374 80.1904 106.707 79.9864 106.091C79.7824 105.474 79.1155 105.14 78.4957 105.344C78.4957 105.344 70.4503 108.036 63.9699 104.1C59.5922 101.441 56.046 95.7537 55.9597 84.3633C55.9558 83.9863 55.7714 83.6333 55.4654 83.4144C55.1555 83.1955 54.7633 83.1367 54.4063 83.2563C49.0283 85.0588 42.0576 83.3367 35.5968 79.041C20.1021 68.736 7.69456 43.534 26.1627 13.6711C26.504 13.118 26.3353 12.3923 25.7822 12.0511C25.2291 11.7098 24.5034 11.8785 24.1621 12.4316C4.78386 43.7722 18.0348 70.1862 34.2945 81.0008C40.8533 85.3616 47.9181 87.1763 53.6374 85.9077Z" fill="#FFD274"/>
<path fill-rule="evenodd" clip-rule="evenodd" d="M151 29.2335L187.457 -100.216C187.633 -100.834 188.283 -101.196 188.909 -101.022C189.534 -100.847 189.898 -100.203 189.723 -99.572L153.351 29.9182L151 29.2335Z" fill="#EF7B58"/>
<path fill-rule="evenodd" clip-rule="evenodd" d="M206.027 -97.4056C206.082 -98.7981 206.424 -99.4493 206.9 -99.6886C207.148 -99.8102 207.438 -99.8102 207.69 -99.6886C209.917 -98.6177 211.59 -97.2369 212.828 -95.911C214.765 -93.8202 215.51 -90.886 214.805 -88.1244C208.678 -64.082 182.428 37.5973 182.428 37.5973L184.708 38.1786C184.708 38.1786 210.958 -63.5015 217.086 -87.5399C217.987 -91.0782 217.035 -94.8323 214.552 -97.5154C213.141 -99.0256 211.24 -100.595 208.711 -101.807C207.812 -102.242 206.763 -102.242 205.856 -101.799C204.899 -101.32 203.765 -100.222 203.673 -97.4251C203.672 -97.3938 203.672 -97.3624 203.673 -97.331C203.673 -97.331 203.788 -93.9222 207.522 -87.7047C207.857 -87.1476 208.581 -86.9672 209.137 -87.3006C209.694 -87.638 209.874 -88.3597 209.54 -88.9168C206.428 -94.0987 206.062 -97.0525 206.027 -97.4056Z" fill="#EF7B58"/>
<path fill-rule="evenodd" clip-rule="evenodd" d="M115.651 126.516L85.626 151.666L56.4645 117.66L83.8647 98.1668C83.8647 98.1668 77.0352 79.7045 94.099 60.1368L129.651 38.5552C129.651 38.5552 144.008 43.2212 145.365 47.6551L148.107 28.4808L184.788 38.188C184.788 38.188 177.967 63.4154 173.573 79.6735C171.216 88.3894 166.081 96.0991 158.946 101.633C151.963 107.049 144.235 113.044 144.235 113.044C144.235 113.044 130.757 99.4358 119.248 106.736C115.968 108.815 107.856 117.469 115.651 126.516Z" fill="#6D92DD"/>
<path fill-rule="evenodd" clip-rule="evenodd" d="M100.215 101.626C106.192 101.626 111.046 96.773 111.046 90.7952C111.046 84.8175 106.192 79.9644 100.215 79.9644C98.7009 79.9644 97.4717 78.7342 97.4717 77.2185C97.4717 75.7034 98.7009 74.4726 100.215 74.4726C109.226 74.4726 116.538 81.7866 116.538 90.7952C116.538 99.8038 109.226 107.118 100.215 107.118C98.7009 107.118 97.4717 105.887 97.4717 104.372C97.4717 102.856 98.7009 101.626 100.215 101.626Z" fill="#426FC0"/>
<path fill-rule="evenodd" clip-rule="evenodd" d="M100.215 79.9644C94.2377 79.9644 89.3842 84.8175 89.3842 90.7952C89.3842 96.773 94.2377 101.626 100.215 101.626C101.729 101.626 102.964 102.856 102.964 104.372C102.964 105.887 101.729 107.118 100.215 107.118C91.2095 107.118 83.8923 99.8038 83.8923 90.7952C83.8923 81.7866 91.2095 74.4726 100.215 74.4726C101.729 74.4726 102.964 75.7034 102.964 77.2185C102.964 78.7342 101.729 79.9644 100.215 79.9644Z" fill="#426FC0"/>
<path fill-rule="evenodd" clip-rule="evenodd" d="M109.358 54.014C110.061 62.3769 117.078 68.9553 125.622 68.9553C134.633 68.9553 141.944 61.6418 141.944 52.6329C141.944 48.3951 140.328 44.5328 137.677 41.6292C136.104 40.818 134.456 40.1649 132.738 39.6655C132.738 39.6655 130.977 40.6764 128.419 42.167C133.044 43.4003 136.453 47.6212 136.453 52.6329C136.453 58.6107 131.6 63.4635 125.622 63.4635C119.648 63.4635 114.791 58.6107 114.791 52.6329C114.791 51.7714 114.893 50.9335 115.086 50.1302C112.246 51.8946 110.017 53.366 109.358 54.014ZM174.491 76.2237L175.974 70.664C175.586 70.7064 175.523 71.0571 175.127 71.0571C169.149 71.0571 164.292 66.2043 164.292 60.2264C164.292 54.249 169.149 49.3958 175.127 49.3958C177.677 49.3958 179.163 50.0748 181.015 51.5525L182.733 45.9391C180.289 44.4783 178.179 43.904 175.127 43.904C166.116 43.904 158.8 51.2179 158.8 60.2264C158.8 69.0918 165.681 75.9962 174.491 76.2237ZM144.887 112.59C146.875 111.189 148.99 109.55 151.19 107.746C150.724 107.808 150.245 107.84 149.762 107.84C143.784 107.84 138.932 102.986 138.932 97.009C138.932 91.0312 143.784 86.178 149.762 86.178C155.741 86.178 160.593 91.0312 160.593 97.009C160.593 98.036 160.448 99.0296 160.181 99.9711C162.088 98.2624 164.01 96.5089 165.928 94.7515C164.83 86.8096 158.004 80.6862 149.762 80.6862C140.752 80.6862 133.44 88.0001 133.44 97.009C133.44 101.134 134.974 104.904 137.5 107.779C139.94 109.298 141.952 110.884 143.125 111.924C143.698 112.179 144.282 112.401 144.887 112.59ZM71.2374 134.607C73.5989 131.775 75.0228 128.133 75.0228 124.162C75.0228 118.296 71.057 113.463 66.4085 110.586L61.5601 114.035C65.7927 115.509 69.531 119.431 69.531 124.162C69.531 126.479 68.8014 128.627 67.5579 130.388L71.2374 134.607ZM90.7608 147.364L95.0562 143.766C92.3377 141.798 90.5686 138.599 90.5686 134.99C90.5686 129.013 95.4249 124.16 101.403 124.16C105.691 124.16 109.402 126.659 111.155 130.28L115.45 126.682V126.682C115.125 126.231 114.831 125.784 114.564 125.34C111.59 121.295 106.801 118.668 101.403 118.668C92.3926 118.668 85.0768 125.982 85.0768 134.99C85.0768 139.935 87.2813 144.369 90.7608 147.364Z" fill="#426FC0"/>
<path fill-rule="evenodd" clip-rule="evenodd" d="M83.9077 98.268C85.1708 101.205 86.6458 103.998 88.8386 107.289C89.125 107.72 89.0936 108.287 88.7641 108.685C88.4345 109.083 87.8815 109.219 87.4068 109.02C82.7702 107.09 75.4974 104.056 75.4974 104.056L83.9077 98.268Z" fill="#426FC0"/>
<path fill-rule="evenodd" clip-rule="evenodd" d="M91.1554 63.8124L128.727 42.281C128.727 42.281 149.51 36.5738 167.974 -47.7372C177.62 -91.7659 186.631 -157.224 191.722 -254.5L128.727 -257.003L92.9873 -60.6509L66.7286 -257.003L4.83199 -256.442C4.83199 -256.442 -32.018 73.2658 91.1554 63.8124Z" fill="#426FC0"/>
<path fill-rule="evenodd" clip-rule="evenodd" d="M120.613 159.034C120.613 159.034 116.874 148.099 115.07 142.831C114.062 139.873 114.807 136.597 116.996 134.368C117.267 134.092 117.557 133.833 117.871 133.596C121.295 131.003 126.995 130.077 131.832 131.095C132.318 131.198 132.632 131.677 132.526 132.164C132.424 132.651 131.945 132.964 131.459 132.861C127.132 131.95 122.025 132.715 118.961 135.034C118.718 135.218 118.494 135.419 118.283 135.632C116.572 137.375 115.988 139.935 116.78 142.247C118.581 147.515 122.319 158.45 122.319 158.45C122.48 158.921 122.229 159.435 121.758 159.596C121.287 159.757 120.773 159.505 120.613 159.034Z" fill="#EF7B58"/>
<path fill-rule="evenodd" clip-rule="evenodd" d="M119.361 133.594L116.384 125.845C116.204 125.38 116.435 124.857 116.902 124.679C117.365 124.5 117.89 124.732 118.067 125.197L121.044 132.947C121.225 133.412 120.993 133.934 120.526 134.113C120.064 134.291 119.542 134.059 119.361 133.594Z" fill="#EF7B58"/>
<path fill-rule="evenodd" clip-rule="evenodd" d="M142.752 140.163L137.045 118.194C136.919 117.712 137.21 117.219 137.692 117.094C138.171 116.968 138.665 117.258 138.79 117.74L144.498 139.709C144.624 140.191 144.337 140.684 143.855 140.809C143.372 140.935 142.878 140.645 142.752 140.163Z" fill="#EF7B58"/>
<path fill-rule="evenodd" clip-rule="evenodd" d="M142.333 139.281C142.333 139.281 144.275 139.172 146.075 139.718C147.291 140.086 148.425 140.759 149.021 141.846C149.429 142.595 149.606 143.55 149.343 144.772C149.111 145.83 147.907 147.61 145.93 147.875C144.714 148.038 143.161 147.655 141.38 145.98C141.015 145.639 140.999 145.067 141.34 144.704C141.678 144.342 142.25 144.324 142.615 144.665C143.839 145.816 144.855 146.198 145.691 146.086C146.777 145.941 147.452 144.972 147.578 144.39C147.731 143.691 147.672 143.141 147.436 142.713C147.064 142.033 146.311 141.675 145.55 141.444C144.051 140.99 142.435 141.083 142.435 141.083C141.937 141.111 141.509 140.73 141.482 140.233C141.454 139.736 141.835 139.31 142.333 139.281Z" fill="#EF7B58"/>
<path fill-rule="evenodd" clip-rule="evenodd" d="M137.214 117.237L142.831 111.747C143.431 112.277 143.867 112.68 144.235 113.035L138.508 118.602C138.132 118.96 137.696 118.98 137.335 118.603C136.978 118.227 136.837 117.595 137.214 117.237Z" fill="#EF7B58"/>
<path fill-rule="evenodd" clip-rule="evenodd" d="M133.817 155.083C126.532 153.131 120.833 158.192 120.833 158.192C120.46 158.523 120.425 159.094 120.758 159.466C121.088 159.838 121.656 159.872 122.029 159.542C122.029 159.542 127.588 154.603 134.452 157.18C134.747 157.29 135.076 157.24 135.323 157.047C135.57 156.853 135.7 156.545 135.665 156.233C135.665 156.233 135.194 154.68 135.802 152.985C137.606 147.953 143.008 147.195 143.008 147.195C141.992 146.569 141.278 145.976 141.16 145.449C141.16 145.449 138.842 145.476 136.955 147.103C135.198 148.621 134.35 150.769 134.025 152.682C133.868 153.59 133.821 154.429 133.817 155.083Z" fill="#FFD274"/>
<path fill-rule="evenodd" clip-rule="evenodd" d="M120.358 159.352C122.39 163.839 127.419 166.14 132.138 164.745C137.995 163.023 145.334 159.249 148.096 151.221C151.277 151.032 162.37 149.756 168.404 141.174C171.279 137.084 173.04 131.332 172.193 123.221C178.046 123.118 200.876 121.302 210.534 99.6652C212.683 94.8445 216.461 80.121 205.775 63.1678C209.926 60.6525 224.381 50.7751 226.421 34.0969C227.44 25.7626 225.389 15.7083 217.324 4.02842C213.068 -2.1381 206.281 -6.32758 198.334 -8.46547C197.706 -8.63807 197.059 -8.26541 196.89 -7.63778C196.722 -7.01014 197.094 -6.36287 197.722 -6.1942C205.104 -4.2093 211.436 -0.361121 215.386 5.36605C223.023 16.425 225.052 25.9195 224.087 33.8113C221.839 52.1625 203.567 61.7257 203.567 61.7257C203.273 61.8807 203.057 62.1529 202.974 62.4754C202.892 62.7978 202.951 63.1403 203.135 63.4176C213.97 79.7722 210.447 94.0792 208.384 98.706C197.898 122.193 170.926 120.862 170.926 120.862C170.577 120.845 170.235 120.985 170 121.242C169.765 121.5 169.655 121.849 169.702 122.196C170.792 130.248 169.247 135.886 166.477 139.821C160.044 148.975 147.229 148.901 147.229 148.901C146.707 148.899 146.244 149.243 146.099 149.744C143.824 157.439 136.896 160.893 131.475 162.487C127.878 163.55 124.049 161.798 122.504 158.381L120.358 159.352Z" fill="#FFD274"/>
<path fill-rule="evenodd" clip-rule="evenodd" d="M86.6417 64.0086L87.846 68.9556L137.676 41.6295L132.745 39.6658L86.6417 64.0086Z" fill="#FC5344"/>
<path d="M104.436 50.5206C106.627 48.5901 110.034 48.7434 112.046 50.8631C114.058 52.9828 113.913 56.2661 111.722 58.1966C109.532 60.1271 106.125 59.9737 104.113 57.854C102.101 55.7344 102.246 52.451 104.436 50.5206Z" fill="#FC5344"/>
<path fill-rule="evenodd" clip-rule="evenodd" d="M62.09 124.03C62.09 124.03 50.1374 136.84 41.5035 146.08C36.557 151.372 34.0935 158.514 34.7251 165.728C36.8708 190.288 41.6173 244.62 41.6173 244.62C41.6683 245.201 41.2368 245.714 40.6562 245.765C40.0757 245.816 39.5618 245.385 39.5108 244.803C39.5108 244.803 34.7643 190.472 32.6186 165.912C31.936 158.101 34.6035 150.366 39.958 144.637C48.5919 135.396 60.5444 122.587 60.5444 122.587L62.09 124.03Z" fill="#EF7B58"/>
<path fill-rule="evenodd" clip-rule="evenodd" d="M55.9274 234.808C55.4488 235.231 55.1546 235.61 54.9741 235.928C54.9506 235.966 54.931 236.006 54.9153 236.046C54.476 237.1 54.8486 238.317 55.8215 238.956C58.0103 240.343 60.7876 240.491 63.1295 240.237C66.0872 239.895 68.3075 237.375 68.2722 234.4L67.5151 167.955L85.6106 151.598L84.1945 150.029L65.742 166.705C65.5185 166.908 65.389 167.199 65.3929 167.502C65.3929 167.502 65.9892 219.814 66.1578 234.424C66.1814 236.317 64.7692 237.92 62.8941 238.136C60.9995 238.342 58.7321 238.296 56.9669 237.18C56.8728 237.119 56.8296 237.008 56.8531 236.902C57.3513 236.115 58.8067 235.073 62.5842 233.807C63.1099 233.63 63.408 233.078 63.2707 232.541C63.1334 232.004 62.6039 231.665 62.0586 231.764L56.606 232.758C55.7195 232.222 53.1619 230.581 51.1652 228.35C51.0436 228.214 50.922 228.075 50.8043 227.933C51.7261 226.731 52.24 225.409 52.3263 224.4C52.5577 221.819 51.7105 220.537 50.8318 220.019C50.1571 219.619 49.3725 219.582 48.6546 219.835C47.67 220.182 46.8306 221.092 46.6658 222.2C46.3756 224.154 46.9993 226.055 48.0741 227.764C47.2542 228.407 46.2069 228.879 44.9555 228.969C44.3711 229.01 43.9356 229.517 43.9749 230.098C44.018 230.681 44.524 231.119 45.1046 231.078C46.7992 230.957 48.2075 230.32 49.3176 229.447C49.4078 229.552 49.498 229.657 49.5883 229.759C52.2753 232.764 55.8921 234.791 55.8921 234.791L55.9274 234.808ZM49.5373 226.113C48.9135 224.986 48.5684 223.772 48.7566 222.513C48.7959 222.242 48.9881 222.022 49.2156 221.894C49.3843 221.798 49.5844 221.739 49.757 221.839C49.9099 221.93 50.0119 222.113 50.0982 222.365C50.2473 222.812 50.2904 223.418 50.2237 224.214C50.1727 224.767 49.9413 225.444 49.5373 226.113Z" fill="#EF7B58"/>
<path fill-rule="evenodd" clip-rule="evenodd" d="M43.932 247.174C43.365 247.737 42.3958 246.594 41.7787 244.481L39.9746 238.305C39.3573 236.191 39.373 234.07 39.94 233.507C40.1147 233.333 40.3829 233.631 40.5402 234.169C40.6974 234.708 40.6845 235.284 40.5098 235.458C40.2556 235.71 40.3297 236.73 40.6064 237.677L42.4104 243.854C42.6869 244.801 43.1081 245.476 43.3622 245.224C43.537 245.05 43.8052 245.348 43.9624 245.886C44.1196 246.424 44.1067 247.001 43.932 247.174Z" fill="#EF7B58"/>
<path fill-rule="evenodd" clip-rule="evenodd" d="M41.6845 234.114C42.2512 233.551 43.2187 234.696 43.8356 236.81L45.6386 242.987C46.2554 245.1 46.241 247.22 45.6742 247.783C45.4996 247.957 45.2316 247.659 45.0744 247.121C44.9173 246.582 44.9301 246.006 45.1048 245.832C45.3588 245.58 45.2848 244.56 45.0084 243.613L43.2054 237.435C42.9289 236.488 42.508 235.813 42.2539 236.065C42.0793 236.238 41.8113 235.941 41.6541 235.402C41.4969 234.864 41.5098 234.287 41.6845 234.114Z" fill="#EF7B58"/>
<path fill-rule="evenodd" clip-rule="evenodd" d="M49.0828 247.321C48.5006 247.899 47.5156 246.751 46.8928 244.629L45.0637 238.398C44.4407 236.275 44.4589 234.13 45.0411 233.551C45.2162 233.377 45.4855 233.673 45.6434 234.211C45.8012 234.749 45.7882 235.326 45.6131 235.5C45.3484 235.763 45.4144 236.803 45.6976 237.767L47.5266 243.999C47.8097 244.963 48.2461 245.635 48.5108 245.372C48.686 245.198 48.9553 245.494 49.1131 246.032C49.271 246.57 49.258 247.147 49.0828 247.321Z" fill="#EF7B58"/>
<path fill-rule="evenodd" clip-rule="evenodd" d="M46.8316 234.179C47.4136 233.601 48.3967 234.751 49.0194 236.874L50.8474 243.106C51.4699 245.228 51.453 247.372 50.8711 247.951C50.696 248.125 50.4268 247.828 50.2691 247.29C50.1113 246.753 50.1243 246.176 50.2994 246.002C50.5639 245.739 50.498 244.699 50.2151 243.734L48.3871 237.502C48.104 236.537 47.6678 235.865 47.4033 236.128C47.2282 236.302 46.9591 236.006 46.8013 235.468C46.6436 234.93 46.6565 234.353 46.8316 234.179Z" fill="#EF7B58"/>
<path fill-rule="evenodd" clip-rule="evenodd" d="M54.3854 247.521C53.8007 248.1 52.802 246.897 52.1665 244.694L50.2813 238.159C49.6457 235.956 49.6603 233.748 50.245 233.169C50.4177 232.997 50.6847 233.295 50.8405 233.835C50.9962 234.375 50.9817 234.952 50.809 235.124C50.5339 235.396 50.6085 236.505 50.9069 237.539L52.7921 244.074C53.0904 245.108 53.5462 245.838 53.8213 245.565C53.994 245.394 54.2611 245.693 54.4167 246.232C54.5724 246.772 54.5581 247.349 54.3854 247.521Z" fill="#EF7B58"/>
<path fill-rule="evenodd" clip-rule="evenodd" d="M52.0918 233.801C52.6765 233.221 53.675 234.424 54.3106 236.628L56.1959 243.162C56.8314 245.365 56.8168 247.573 56.2322 248.153C56.0594 248.324 55.7923 248.026 55.6366 247.486C55.481 246.947 55.4953 246.369 55.668 246.198C55.9418 245.926 55.8673 244.818 55.569 243.784L53.6838 237.249C53.3854 236.215 52.9296 235.485 52.6558 235.756C52.4831 235.927 52.2161 235.629 52.0603 235.089C51.9046 234.55 51.9191 233.972 52.0918 233.801Z" fill="#EF7B58"/>
<path fill-rule="evenodd" clip-rule="evenodd" d="M59.6888 239.243L61.2853 243.102C62.166 245.231 62.1813 247.537 61.4294 248.298C61.2105 248.519 60.8666 248.301 60.6634 247.81C60.4601 247.318 60.474 246.739 60.6929 246.517C61.0622 246.144 60.9232 244.954 60.4899 243.907L58.8935 240.048C58.6902 239.557 58.7039 238.977 58.9228 238.755C59.1417 238.534 59.4856 238.752 59.6888 239.243Z" fill="#EF7B58"/>
<path fill-rule="evenodd" clip-rule="evenodd" d="M59.7783 247.514C59.0823 248.219 57.8474 247.139 57.0379 244.928L55.0701 239.553C54.8833 239.042 54.8955 238.462 55.0996 238.255C55.3023 238.05 55.6195 238.297 55.8063 238.808L57.7742 244.183C58.1724 245.271 58.7579 246.013 59.1013 245.665C59.304 245.46 59.621 245.707 59.8079 246.217C59.9947 246.727 59.9809 247.309 59.7783 247.514Z" fill="#EF7B58"/>
<path fill-rule="evenodd" clip-rule="evenodd" d="M131.275 149.698C131.631 149.468 131.826 148.969 131.885 148.338C131.994 147.217 131.695 145.705 131.032 144.222C130.368 142.74 129.483 141.606 128.645 141.096C128.174 140.808 127.72 140.727 127.363 140.958C127.089 141.135 126.699 140.909 126.495 140.453C126.291 139.997 126.349 139.482 126.623 139.305C127.245 138.903 128.026 138.986 128.851 139.486C129.958 140.16 131.152 141.619 132.029 143.578C132.906 145.538 133.26 147.539 133.117 149.019C133.009 150.122 132.636 150.95 132.014 151.351C131.74 151.528 131.35 151.303 131.146 150.847C130.942 150.39 131 149.876 131.275 149.698Z" fill="black"/>
<path fill-rule="evenodd" clip-rule="evenodd" d="M125.672 140.421C125.315 140.651 125.123 141.149 125.061 141.782C124.952 142.902 125.251 144.415 125.914 145.897C126.578 147.38 127.463 148.513 128.301 149.023C128.775 149.31 129.227 149.392 129.583 149.162C129.858 148.984 130.247 149.21 130.451 149.666C130.656 150.122 130.597 150.637 130.323 150.814C129.704 151.213 128.92 151.133 128.095 150.633C126.988 149.959 125.794 148.5 124.917 146.541C124.041 144.581 123.686 142.58 123.829 141.1C123.937 139.997 124.314 139.167 124.932 138.768C125.206 138.591 125.596 138.817 125.8 139.272C126.004 139.728 125.946 140.244 125.672 140.421Z" fill="black"/>
<path fill-rule="evenodd" clip-rule="evenodd" d="M120.311 154.02C120.621 153.821 120.774 153.354 120.814 152.763C120.887 151.658 120.568 150.146 119.913 148.645C119.258 147.143 118.406 145.975 117.612 145.429C117.187 145.137 116.783 145.029 116.473 145.229C116.201 145.404 115.82 145.172 115.62 144.713C115.42 144.255 115.475 143.742 115.748 143.566C116.327 143.193 117.071 143.306 117.869 143.852C118.904 144.566 120.041 146.051 120.897 148.011C121.753 149.971 122.127 151.948 122.032 153.39C121.957 154.498 121.616 155.309 121.037 155.682C120.764 155.858 120.384 155.626 120.183 155.167C119.983 154.709 120.039 154.196 120.311 154.02Z" fill="black"/>
<path fill-rule="evenodd" clip-rule="evenodd" d="M114.894 144.756C114.584 144.955 114.434 145.42 114.395 146.011C114.322 147.116 114.64 148.628 115.295 150.129C115.951 151.631 116.803 152.799 117.596 153.345C118.021 153.637 118.422 153.747 118.732 153.547C119.005 153.372 119.388 153.602 119.588 154.061C119.789 154.519 119.73 155.034 119.458 155.21C118.878 155.583 118.134 155.47 117.34 154.922C116.304 154.209 115.167 152.723 114.311 150.763C113.455 148.803 113.081 146.826 113.176 145.384C113.248 144.278 113.589 143.467 114.169 143.093C114.441 142.918 114.825 143.148 115.025 143.606C115.225 144.065 115.167 144.58 114.894 144.756Z" fill="black"/>
<path fill-rule="evenodd" clip-rule="evenodd" d="M120.874 147.397L123.963 146.24C124.426 146.065 124.947 146.302 125.122 146.768C125.297 147.234 125.061 147.755 124.597 147.93L121.508 149.086C121.04 149.261 120.524 149.025 120.349 148.558C120.174 148.092 120.41 147.572 120.874 147.397Z" fill="black"/>
</g>
</svg>
