<svg width="50" height="50" viewBox="0 0 50 50" fill="none" xmlns="http://www.w3.org/2000/svg">
<path d="M35.4167 4.16602H14.5833C8.83036 4.16602 4.16666 8.82972 4.16666 14.5827V35.416C4.16666 41.169 8.83036 45.8327 14.5833 45.8327H35.4167C41.1696 45.8327 45.8333 41.169 45.8333 35.416V14.5827C45.8333 8.82972 41.1696 4.16602 35.4167 4.16602Z" stroke="black" stroke-width="6.10084" stroke-linecap="round" stroke-linejoin="round"/>
<path d="M33.3333 23.6872C33.5904 25.421 33.2943 27.1918 32.487 28.7476C31.6797 30.3034 30.4024 31.5651 28.8367 32.3531C27.2711 33.1412 25.4968 33.4155 23.7662 33.137C22.0357 32.8585 20.437 32.0415 19.1976 30.8021C17.9582 29.5627 17.1411 27.964 16.8626 26.2334C16.5842 24.5029 16.8585 22.7286 17.6465 21.1629C18.4346 19.5973 19.6962 18.3199 21.252 17.5127C22.8079 16.7054 24.5787 16.4092 26.3125 16.6663C28.0811 16.9286 29.7184 17.7527 30.9827 19.017C32.2469 20.2812 33.0711 21.9186 33.3333 23.6872Z" stroke="black" stroke-width="6.10084" stroke-linecap="round" stroke-linejoin="round"/>
<path d="M36.4583 13.542H36.4792" stroke="black" stroke-width="6.10084" stroke-linecap="round" stroke-linejoin="round"/>
</svg>
