<svg width="164" height="164" viewBox="0 0 164 164" fill="none" xmlns="http://www.w3.org/2000/svg">
<path d="M82 164C127.287 164 164 127.287 164 82C164 36.7127 127.287 0 82 0C36.7127 0 0 36.7127 0 82C0 127.287 36.7127 164 82 164Z" fill="#FFEDEF"/>
<mask id="mask0" mask-type="alpha" maskUnits="userSpaceOnUse" x="0" y="0" width="164" height="164">
<path d="M82 164C127.287 164 164 127.287 164 82C164 36.7127 127.287 0 82 0C36.7127 0 0 36.7127 0 82C0 127.287 36.7127 164 82 164Z" fill="#C4C4C4"/>
</mask>
<g mask="url(#mask0)">
<path d="M106.19 151.905C100.286 143.705 95.6665 127.852 95.12 119.925L67.035 107.83L55.35 151.905H106.19Z" fill="#F9C9B6" stroke="black" stroke-width="1.64"/>
<mask id="mask1" mask-type="alpha" maskUnits="userSpaceOnUse" x="55" y="107" width="52" height="50">
<path d="M106.19 156.005C100.286 147.805 95.6665 127.852 95.12 119.925L67.035 107.83L55.35 156.005H106.19Z" fill="#AC6651"/>
</mask>
<g mask="url(#mask1)">
<g style="mix-blend-mode:multiply">
<g style="mix-blend-mode:multiply">
<path d="M93.89 129.15C107.25 129.15 118.08 119.238 118.08 107.01C118.08 94.7825 107.25 84.8701 93.89 84.8701C80.5302 84.8701 69.7 94.7825 69.7 107.01C69.7 119.238 80.5302 129.15 93.89 129.15Z" fill="black"/>
</g>
</g>
</g>
<mask id="mask2" mask-type="alpha" maskUnits="userSpaceOnUse" x="48" y="29" width="72" height="93">
<path fill-rule="evenodd" clip-rule="evenodd" d="M118.443 82.7859C118.432 82.7383 118.421 82.6908 118.409 82.6432C118.398 82.5961 118.387 82.5485 118.375 82.5009L111.652 54.4422C111.645 54.4143 111.639 54.3864 111.632 54.3585C111.626 54.3307 111.619 54.3028 111.612 54.2753L111.582 54.1507L111.582 54.1511C107.393 37.1586 90.264 26.7103 73.2186 30.7942C56.1733 34.8782 45.6392 51.9539 49.6051 69.0001H49.6043L56.571 98.0764L56.5767 98.0752C60.9236 114.846 77.9254 125.111 94.8449 121.057C111.765 117.003 122.269 100.148 118.544 83.2283L118.549 83.2271L118.443 82.7859Z" fill="white"/>
</mask>
<g mask="url(#mask2)">
<path fill-rule="evenodd" clip-rule="evenodd" d="M118.443 82.7859C118.432 82.7383 118.421 82.6908 118.409 82.6432C118.398 82.5961 118.387 82.5485 118.375 82.5009L111.652 54.4422C111.645 54.4143 111.639 54.3864 111.632 54.3585C111.626 54.3307 111.619 54.3028 111.612 54.2753L111.582 54.1507L111.582 54.1511C107.393 37.1586 90.264 26.7103 73.2186 30.7942C56.1733 34.8782 45.6392 51.9539 49.6051 69.0001H49.6043L56.571 98.0764L56.5767 98.0752C60.9236 114.846 77.9254 125.111 94.8449 121.057C111.765 117.003 122.269 100.148 118.544 83.2283L118.549 83.2271L118.443 82.7859Z" fill="#F9C9B6"/>
<path d="M118.443 82.7859L116.847 83.1606L116.848 83.1643L116.848 83.168L118.443 82.7859ZM118.375 82.5009L116.78 82.8831L116.781 82.8867L116.782 82.8904L118.375 82.5009ZM111.652 54.4422L110.056 54.8202L110.058 54.8243L111.652 54.4422ZM111.612 54.2753L110.017 54.6574L110.019 54.6615L111.612 54.2753ZM111.582 54.1507L113.177 53.7685L112.796 52.1745L111.201 52.5558L111.582 54.1507ZM111.582 54.1511L109.989 54.5434L110.379 56.1248L111.963 55.746L111.582 54.1511ZM73.2186 30.7942L72.8365 29.1994L73.2186 30.7942ZM49.6051 69L49.988 70.5945L51.5715 70.2145L51.2025 68.6282L49.6051 69ZM49.6043 69L49.2213 67.4056L47.6277 67.7881L48.0094 69.3822L49.6043 69ZM56.571 98.0764L54.9761 98.4586L55.3582 100.054L56.9535 99.6713L56.571 98.0764ZM56.5767 98.0752L58.1643 97.6636L57.76 96.1043L56.1938 96.4803L56.5767 98.0752ZM94.8449 121.057L94.4628 119.462L94.8449 121.057ZM118.544 83.2283L118.162 81.6334L116.596 82.0085L116.942 83.5809L118.544 83.2283ZM118.549 83.227L118.931 84.8219L120.526 84.4398L120.144 82.8449L118.549 83.227ZM120.04 82.4107C120.028 82.3611 120.016 82.3111 120.004 82.2611L116.815 83.0257C116.825 83.0704 116.836 83.1155 116.847 83.1606L120.04 82.4107ZM120.004 82.2611C119.992 82.2115 119.98 82.1619 119.968 82.1118L116.782 82.8904C116.793 82.9351 116.804 82.9802 116.815 83.0257L120.004 82.2611ZM110.058 54.8243L116.78 82.8831L119.97 82.1188L113.247 54.0601L110.058 54.8243ZM113.248 54.0637C113.241 54.035 113.234 54.0059 113.227 53.9764L110.037 54.7407C110.044 54.7669 110.05 54.7935 110.056 54.8202L113.248 54.0637ZM113.227 53.9764C113.22 53.9473 113.213 53.9182 113.206 53.8887L110.019 54.6615C110.025 54.6878 110.031 54.714 110.037 54.7407L113.227 53.9764ZM109.987 54.5328L110.017 54.6574L113.207 53.8932L113.177 53.7685L109.987 54.5328ZM111.963 55.746H111.964L111.201 52.5558H111.201L111.963 55.746ZM113.174 53.7583C108.769 35.8912 90.7593 24.9052 72.8365 29.1994L73.6008 32.3891C89.7691 28.5153 106.016 38.4259 109.989 54.5434L113.174 53.7583ZM72.8365 29.1994C54.9138 33.4935 43.838 51.4484 48.0077 69.3715L51.2025 68.6282C47.4407 52.4598 57.4328 36.2628 73.6008 32.3891L72.8365 29.1994ZM49.9872 70.5949L49.988 70.5945L49.2222 67.4051L49.2213 67.4056L49.9872 70.5949ZM58.1659 97.6943L51.1992 68.6179L48.0094 69.3822L54.9761 98.4586L58.1659 97.6943ZM56.1938 96.4803L56.1881 96.4819L56.9535 99.6713L56.9593 99.6697L56.1938 96.4803ZM54.9892 98.4864C59.5599 116.121 77.4363 126.915 95.227 122.652L94.4628 119.462C78.4142 123.307 62.2872 113.571 58.1643 97.6636L54.9892 98.4864ZM95.227 122.652C113.018 118.389 124.062 100.667 120.146 82.8757L116.942 83.5809C120.475 99.6295 110.512 115.617 94.4628 119.462L95.227 122.652ZM118.167 81.6321L118.162 81.6334L118.926 84.8232L118.931 84.8219L118.167 81.6321ZM116.848 83.168L116.954 83.6092L120.144 82.8449L120.038 82.4038L116.848 83.168Z" fill="black"/>
</g>
<path d="M21.1563 136.061C21.0936 135.901 21.0075 135.676 20.903 135.39C20.6705 134.753 20.347 133.817 19.9869 132.626C19.2665 130.243 18.4011 126.846 17.8241 122.796C16.6691 114.687 16.6775 104.015 21.2666 93.6374C22.0084 91.9597 22.9354 90.2365 23.94 88.3685C27.8219 81.1517 32.8636 71.7787 32.8636 54.5644C32.8636 42.0221 38.9512 31.4595 47.9134 24.0133C56.8838 16.5605 68.6996 12.2634 80.0472 12.2634C86.2509 12.2634 91.2385 12.9742 95.2475 15.3959C99.2315 17.8027 102.368 21.9751 104.698 29.1642C104.935 29.8958 105.719 30.343 106.485 30.0946C111.124 28.5894 118.158 30.1088 124.096 33.985C130.007 37.8443 134.599 43.8888 134.599 51.1737C134.599 57.4984 133.515 61.7722 132.459 65.9341C131.18 70.9726 129.945 75.8393 130.817 83.7683C131.107 86.4124 131.699 88.2877 132.525 89.8424C133.337 91.3722 134.362 92.5562 135.441 93.8047L135.466 93.833C138.038 96.8063 139.209 99.2524 139.587 101.404C139.964 103.55 139.569 105.497 138.835 107.517C138.466 108.532 138.018 109.551 137.543 110.624L137.502 110.717C137.042 111.755 136.56 112.842 136.128 113.987C135.233 116.353 134.535 118.991 134.604 122.119C134.663 124.774 135.134 126.593 135.838 127.97C136.533 129.331 137.432 130.202 138.215 130.961L138.236 130.981C138.951 131.674 139.546 132.257 139.985 133.074C140.379 133.804 140.67 134.768 140.719 136.215C130.875 142.069 121.132 144.489 113.816 145.441C110.112 145.923 107.033 146.028 104.885 146.013C103.812 146.005 102.971 145.968 102.402 145.932C102.201 145.92 102.035 145.907 101.903 145.897C99.3811 142.048 97.0835 135.697 95.3033 129.174C93.5727 122.831 92.357 116.427 91.9003 112.196C107.1 107.802 116.628 92.1134 114.337 75.9274C114.334 75.8979 114.331 75.8774 114.331 75.877C114.328 75.8524 114.323 75.8245 114.318 75.7954C114.313 75.7647 114.307 75.7282 114.3 75.6864C114.293 75.6495 114.286 75.6081 114.278 75.563C114.243 75.3711 114.192 75.1005 114.125 74.7618C113.991 74.0841 113.796 73.1267 113.546 71.9681C113.046 69.6508 112.326 66.5221 111.448 63.2035C110.571 59.8866 109.532 56.3688 108.393 53.2774C107.261 50.2086 106.002 47.4788 104.658 45.7994L104.536 45.6473L104.358 45.5698C103.566 45.2262 102.743 44.8433 101.885 44.4436C97.8129 42.5477 92.9302 40.2742 86.6064 40.0241C78.9086 39.7197 69.1605 42.3923 55.9831 51.9494L55.1536 52.5509L55.9515 53.1934C62.4811 58.4553 63.8928 65.4351 63.591 71.3596C63.361 75.8815 62.1359 79.7282 61.4447 81.6511C60.9687 80.9553 60.6653 80.0807 60.4373 79.0537C60.2794 78.344 60.1646 77.5957 60.0441 76.8122L60.0252 76.6884C59.8994 75.8709 59.7653 75.0177 59.5697 74.194C59.1798 72.5495 58.5201 70.9058 57.0556 69.7418C55.5882 68.5753 53.4492 67.9976 50.3345 68.1715L49.4214 68.2223L49.6121 69.1169L54.2688 90.9753L54.2766 91.0118L54.2881 91.0478C55.9519 96.3213 58.8047 100.892 62.4524 104.501C62.4836 104.553 62.5287 104.629 62.5865 104.728C62.705 104.93 62.876 105.228 63.083 105.601C63.4967 106.347 64.0539 107.396 64.6246 108.603C65.7784 111.042 66.9456 114.037 67.1703 116.482C67.3983 118.963 66.7747 122.164 66.0604 124.809C65.7066 126.118 65.338 127.266 65.0576 128.087C64.9994 128.258 64.9448 128.414 64.8952 128.555C62.8321 127.569 60.9891 127.642 59.4098 128.562C57.7026 129.555 56.4525 131.456 55.5218 133.57C53.8211 137.433 53.0032 142.442 52.6256 145.551C42.4289 143.212 34.5552 140.838 29.1981 139.034C26.4455 138.107 24.3573 137.331 22.9597 136.787C22.2609 136.515 21.7348 136.302 21.3846 136.156C21.2976 136.121 21.2215 136.089 21.1563 136.061Z" fill="#FC909F" stroke="black" stroke-width="1.56695"/>
<path d="M103.525 85.28C109.412 85.28 114.185 80.5073 114.185 74.62C114.185 68.7326 109.412 63.96 103.525 63.96C97.6377 63.96 92.865 68.7326 92.865 74.62C92.865 80.5073 97.6377 85.28 103.525 85.28Z" stroke="black" stroke-width="1.64"/>
<path d="M76.055 88.9699C81.9424 88.9699 86.715 84.1973 86.715 78.3099C86.715 72.4225 81.9424 67.6499 76.055 67.6499C70.1677 67.6499 65.395 72.4225 65.395 78.3099C65.395 84.1973 70.1677 88.9699 76.055 88.9699Z" stroke="black" stroke-width="1.64"/>
<path d="M93.275 77.49C93.275 76.6199 92.9294 75.7856 92.3144 75.1706C91.6994 74.5556 90.865 74.21 89.995 74.21C89.125 74.21 88.2906 74.5556 87.6756 75.1706C87.0606 75.7856 86.715 76.6199 86.715 77.49" stroke="black" stroke-width="1.64"/>
<path d="M65.6 79.1299L53.3 81.3849" stroke="black" stroke-width="1.64"/>
<path d="M55.555 79.2021C54.5997 78.8872 53.5686 78.72 52.5128 78.72C48.2107 78.72 44.7228 81.385 45.1328 86.305C45.56 91.43 48.6207 93.275 52.9228 93.275C53.4017 93.275 53.8703 93.2327 54.325 93.1524C54.8215 93.0646 55.3012 92.931 55.76 92.7563" stroke="#171921" stroke-width="3.28"/>
<path d="M55.965 92.6747C55.0302 93.0614 54.0023 93.275 52.9228 93.275C48.6207 93.275 45.56 91.43 45.1328 86.305C44.7228 81.385 48.2107 78.72 52.5128 78.72C53.799 78.72 55.0495 78.9684 56.17 79.4293L55.965 92.6747Z" fill="#AC6651"/>
<path d="M54.325 82.2051C52.685 81.4536 49.077 81.0571 47.765 85.4851" stroke="#171921" stroke-width="1.64"/>
<path d="M50.02 82.4099C50.9085 83.1614 52.603 85.4849 52.275 88.7649" stroke="#171921" stroke-width="1.64"/>
<path d="M71.4618 82.7615C73.4855 82.521 74.9094 80.5033 74.6422 78.2547C74.375 76.0062 72.5179 74.3783 70.4942 74.6188C68.4705 74.8593 67.0466 76.877 67.3138 79.1256C67.5809 81.3741 69.4381 83.002 71.4618 82.7615Z" fill="black"/>
<path d="M97.6793 78.6638C99.705 78.441 101.147 76.4358 100.899 74.185C100.651 71.9342 98.8086 70.2901 96.7829 70.5129C94.7572 70.7357 93.3157 72.7409 93.5632 74.9917C93.8107 77.2425 95.6536 78.8865 97.6793 78.6638Z" fill="black"/>
<path d="M52.89 88.97C58.3246 88.97 62.73 93.3754 62.73 98.81C62.73 104.245 58.3246 108.65 52.89 108.65C47.4555 108.65 43.05 104.245 43.05 98.81C43.05 96.1897 44.485 94.095 45.7441 92.045L46.125 91.43" stroke="#FFE600" stroke-width="1.64"/>
<path d="M138.045 156.62H25.9836C32.6664 144.59 42.1718 136.933 57.5825 133.419C64.1478 131.922 71.7963 131.175 80.77 131.175C84.647 131.175 87.6638 131.767 90.5264 132.547C91.587 132.836 92.653 133.16 93.7436 133.492C95.5485 134.04 97.4205 134.609 99.4463 135.074L99.5037 135.087L99.5628 135.092C118.474 136.652 129.814 145.052 138.045 156.62Z" fill="#9287FF" stroke="black" stroke-width="1.64"/>
<path d="M52.8617 134.308L56.6144 126.274C56.7038 126.082 56.9269 125.99 57.1265 126.061C72.6762 131.565 86.8224 131.178 99.9318 127.528C100.097 127.482 100.273 127.543 100.374 127.682L106.086 135.493C106.243 135.708 106.163 136.01 105.916 136.108C92.1368 141.518 66.2818 140.599 53.0602 134.851C52.8506 134.759 52.7645 134.515 52.8617 134.308Z" fill="#E0DDFF" stroke="black" stroke-width="1.64"/>
</g>
</svg>
