<svg width="51" height="51" viewBox="0 0 51 51" fill="none" xmlns="http://www.w3.org/2000/svg">
<g clip-path="url(#clip0)">
<path d="M48.2108 6.4853C46.2158 7.89255 44.0069 8.96887 41.6691 9.67281C40.4144 8.23012 38.7469 7.20758 36.8921 6.74348C35.0373 6.27939 33.0848 6.39613 31.2985 7.07792C29.5122 7.7597 27.9784 8.97364 26.9045 10.5555C25.8306 12.1375 25.2685 14.011 25.2941 15.9228V18.0061C21.633 18.1011 18.0051 17.2891 14.7337 15.6425C11.4624 13.9959 8.64897 11.5658 6.54414 8.56864C6.54414 8.56864 -1.78919 27.3186 16.9608 35.652C12.6702 38.5644 7.55905 40.0247 2.37747 39.8186C21.1275 50.2353 44.0441 39.8186 44.0441 15.8603C44.0422 15.28 43.9864 14.7011 43.8775 14.1311C46.0037 12.0342 47.5042 9.38679 48.2108 6.4853V6.4853Z" stroke="black" stroke-width="6.10084" stroke-linecap="round" stroke-linejoin="round"/>
</g>
<defs>
<clipPath id="clip0">
<rect width="50" height="50" fill="white" transform="translate(0.294128 0.235352)"/>
</clipPath>
</defs>
</svg>
