<svg width="780" height="480" viewBox="0 0 780 480" fill="none" xmlns="http://www.w3.org/2000/svg">
<path d="M4.89921 335.997V480H269.119C488.196 480 679.155 421.945 779.463 335.997H4.89921Z" fill="#98C8DB"/>
<path d="M279.079 413.285C278.342 412.547 277.467 411.962 276.503 411.563C275.54 411.164 274.507 410.958 273.464 410.958C272.421 410.958 271.389 411.164 270.425 411.563C269.462 411.962 268.587 412.547 267.85 413.285V413.285C266.361 414.773 264.342 415.609 262.237 415.609C260.132 415.609 258.113 414.773 256.624 413.285V413.285C255.887 412.547 255.012 411.962 254.049 411.563C253.085 411.164 252.053 410.958 251.01 410.958C249.967 410.958 248.934 411.164 247.971 411.563C247.008 411.962 246.132 412.547 245.395 413.285L245.344 413.337C244.607 414.074 243.732 414.66 242.768 415.059C241.805 415.458 240.772 415.664 239.729 415.664C238.686 415.664 237.654 415.458 236.69 415.059C235.727 414.66 234.852 414.074 234.115 413.337L233.953 413.175C232.464 411.687 230.445 410.851 228.34 410.851C226.235 410.851 224.216 411.687 222.727 413.175L222.565 413.337C221.829 414.074 220.954 414.659 219.991 415.059C219.028 415.458 217.995 415.663 216.953 415.663C215.91 415.663 214.878 415.458 213.915 415.059C212.952 414.659 212.077 414.074 211.34 413.337L211.23 413.23C209.741 411.742 207.722 410.906 205.617 410.906C203.512 410.906 201.493 411.742 200.004 413.23L199.898 413.337C199.16 414.074 198.285 414.66 197.322 415.059C196.358 415.458 195.326 415.664 194.283 415.664C193.24 415.664 192.208 415.458 191.244 415.059C190.281 414.66 189.406 414.074 188.668 413.337L188.617 413.285C187.88 412.547 187.005 411.962 186.041 411.563C185.078 411.164 184.045 410.958 183.002 410.958C181.96 410.958 180.927 411.164 179.964 411.563C179 411.962 178.125 412.547 177.388 413.285" stroke="white" stroke-width="1.97627" stroke-miterlimit="10" stroke-linecap="round"/>
<path d="M177.325 413.336C176.588 414.074 175.713 414.659 174.75 415.058C173.787 415.457 172.754 415.663 171.712 415.663C170.669 415.663 169.637 415.457 168.674 415.058C167.711 414.659 166.836 414.074 166.099 413.336L166.044 413.285C165.307 412.547 164.432 411.962 163.469 411.563C162.506 411.164 161.474 410.958 160.431 410.958C159.389 410.958 158.357 411.164 157.393 411.563C156.43 411.962 155.556 412.547 154.819 413.285" stroke="white" stroke-width="1.97627" stroke-miterlimit="10" stroke-linecap="round"/>
<path d="M245.396 423.534L245.344 423.585C244.607 424.323 243.732 424.908 242.769 425.307C241.805 425.707 240.773 425.912 239.73 425.912C238.687 425.912 237.654 425.707 236.691 425.307C235.728 424.908 234.852 424.323 234.115 423.585L233.953 423.423C232.464 421.935 230.445 421.1 228.341 421.1C226.236 421.1 224.217 421.935 222.728 423.423L222.566 423.585C221.829 424.323 220.954 424.908 219.991 425.307C219.028 425.706 217.996 425.912 216.953 425.912C215.911 425.912 214.878 425.706 213.915 425.307C212.952 424.908 212.077 424.323 211.341 423.585L211.23 423.478C209.741 421.991 207.722 421.155 205.617 421.155C203.512 421.155 201.494 421.991 200.005 423.478L199.898 423.585C199.161 424.323 198.286 424.908 197.322 425.307C196.359 425.707 195.326 425.912 194.283 425.912C193.241 425.912 192.208 425.707 191.245 425.307C190.281 424.908 189.406 424.323 188.669 423.585L188.617 423.534C187.88 422.796 187.005 422.211 186.042 421.811C185.078 421.412 184.046 421.207 183.003 421.207C181.96 421.207 180.927 421.412 179.964 421.811C179.001 422.211 178.125 422.796 177.388 423.534" stroke="white" stroke-width="1.97627" stroke-miterlimit="10" stroke-linecap="round"/>
<path d="M403.93 357.206C402.471 355.748 400.494 354.93 398.432 354.93C396.37 354.93 394.392 355.748 392.933 357.206L392.778 357.364C391.319 358.822 389.342 359.64 387.28 359.64C385.217 359.64 383.24 358.822 381.781 357.364L381.676 357.26C380.955 356.537 380.097 355.964 379.154 355.573C378.21 355.182 377.199 354.981 376.178 354.981C375.156 354.981 374.145 355.182 373.202 355.573C372.258 355.964 371.401 356.537 370.679 357.26L370.575 357.364C369.116 358.821 367.139 359.64 365.078 359.64C363.016 359.64 361.039 358.821 359.581 357.364L359.527 357.31C358.069 355.853 356.092 355.035 354.03 355.035C351.969 355.035 349.992 355.853 348.533 357.31" stroke="white" stroke-width="1.93547" stroke-miterlimit="10" stroke-linecap="round"/>
<path d="M392.778 367.402C391.319 368.859 389.341 369.677 387.279 369.677C385.217 369.677 383.24 368.859 381.781 367.402L381.676 367.297C380.954 366.575 380.097 366.001 379.154 365.61C378.21 365.219 377.199 365.018 376.178 365.018C375.156 365.018 374.145 365.219 373.201 365.61C372.258 366.001 371.401 366.575 370.679 367.297L370.574 367.402C369.116 368.859 367.139 369.677 365.078 369.677C363.016 369.677 361.039 368.859 359.581 367.402L359.527 367.347" stroke="white" stroke-width="1.93547" stroke-miterlimit="10" stroke-linecap="round"/>
<path d="M20.2489 335.544H776.653C776.653 335.544 698.525 231.907 616.667 219.803C591.223 216.037 566.306 222.861 549.978 229.186C544.304 231.398 538.113 231.928 532.146 230.714C526.178 229.499 520.687 226.592 516.328 222.339C492.294 198.819 441.801 157.013 386.602 157.013C288.961 156.997 197.093 335.544 20.2489 335.544Z" stroke="#98C8DB" stroke-width="1.93547" stroke-linejoin="round"/>
<path d="M630.449 283.186C629.432 283.186 628.607 282.361 628.607 281.344C628.607 280.326 629.432 279.501 630.449 279.501C631.467 279.501 632.292 280.326 632.292 281.344C632.292 282.361 631.467 283.186 630.449 283.186Z" fill="#98C8DB"/>
<path d="M633.693 290.823C632.676 290.823 631.851 289.998 631.851 288.981C631.851 287.963 632.676 287.138 633.693 287.138C634.711 287.138 635.536 287.963 635.536 288.981C635.536 289.998 634.711 290.823 633.693 290.823Z" fill="#98C8DB"/>
<path d="M634.183 303.001C633.166 303.001 632.341 302.176 632.341 301.158C632.341 300.141 633.166 299.316 634.183 299.316C635.201 299.316 636.026 300.141 636.026 301.158C636.026 302.176 635.201 303.001 634.183 303.001Z" fill="#98C8DB"/>
<path d="M636.91 298.542C635.892 298.542 635.067 297.717 635.067 296.7C635.067 295.682 635.892 294.857 636.91 294.857C637.928 294.857 638.753 295.682 638.753 296.7C638.753 297.717 637.928 298.542 636.91 298.542Z" fill="#98C8DB"/>
<path d="M626.098 294.318C625.081 294.318 624.256 293.493 624.256 292.476C624.256 291.458 625.081 290.633 626.098 290.633C627.116 290.633 627.941 291.458 627.941 292.476C627.941 293.493 627.116 294.318 626.098 294.318Z" fill="#98C8DB"/>
<path d="M637.934 310.483C636.917 310.483 636.092 309.659 636.092 308.641C636.092 307.623 636.917 306.798 637.934 306.798C638.952 306.798 639.777 307.623 639.777 308.641C639.777 309.659 638.952 310.483 637.934 310.483Z" fill="#98C8DB"/>
<path d="M649.423 314.157C648.406 314.157 647.581 313.332 647.581 312.314C647.581 311.297 648.406 310.472 649.423 310.472C650.441 310.472 651.266 311.297 651.266 312.314C651.266 313.332 650.441 314.157 649.423 314.157Z" fill="#98C8DB"/>
<path d="M640.123 306.26C639.105 306.26 638.28 305.435 638.28 304.418C638.28 303.4 639.105 302.575 640.123 302.575C641.14 302.575 641.965 303.4 641.965 304.418C641.965 305.435 641.14 306.26 640.123 306.26Z" fill="#98C8DB"/>
<path d="M629.311 302.034C628.294 302.034 627.469 301.209 627.469 300.191C627.469 299.174 628.294 298.349 629.311 298.349C630.329 298.349 631.154 299.174 631.154 300.191C631.154 301.209 630.329 302.034 629.311 302.034Z" fill="#98C8DB"/>
<path d="M681.18 327.388C680.163 327.388 679.338 326.563 679.338 325.546C679.338 324.528 680.163 323.703 681.18 323.703C682.198 323.703 683.023 324.528 683.023 325.546C683.023 326.563 682.198 327.388 681.18 327.388Z" fill="#98C8DB"/>
<path d="M693.529 335.482C692.511 335.482 691.686 334.657 691.686 333.639C691.686 332.622 692.511 331.797 693.529 331.797C694.546 331.797 695.371 332.622 695.371 333.639C695.371 334.657 694.546 335.482 693.529 335.482Z" fill="#98C8DB"/>
<path d="M641.151 318.202C640.133 318.202 639.308 317.377 639.308 316.36C639.308 315.342 640.133 314.517 641.151 314.517C642.169 314.517 642.994 315.342 642.994 316.36C642.994 317.377 642.169 318.202 641.151 318.202Z" fill="#98C8DB"/>
<path d="M630.339 313.975C629.322 313.975 628.497 313.15 628.497 312.133C628.497 311.115 629.322 310.29 630.339 310.29C631.357 310.29 632.182 311.115 632.182 312.133C632.182 313.15 631.357 313.975 630.339 313.975Z" fill="#98C8DB"/>
<path d="M632.528 309.752C631.51 309.752 630.685 308.928 630.685 307.91C630.685 306.892 631.51 306.067 632.528 306.067C633.546 306.067 634.371 306.892 634.371 307.91C634.371 308.928 633.546 309.752 632.528 309.752Z" fill="#98C8DB"/>
<path d="M621.717 305.525C620.699 305.525 619.874 304.7 619.874 303.682C619.874 302.665 620.699 301.84 621.717 301.84C622.734 301.84 623.559 302.665 623.559 303.682C623.559 304.7 622.734 305.525 621.717 305.525Z" fill="#98C8DB"/>
<path d="M684.393 335.103C683.376 335.103 682.551 334.278 682.551 333.26C682.551 332.242 683.376 331.417 684.393 331.417C685.411 331.417 686.236 332.242 686.236 333.26C686.236 334.278 685.411 335.103 684.393 335.103Z" fill="#98C8DB"/>
<path d="M673.582 330.879C672.564 330.879 671.739 330.055 671.739 329.037C671.739 328.019 672.564 327.194 673.582 327.194C674.599 327.194 675.424 328.019 675.424 329.037C675.424 330.055 674.599 330.879 673.582 330.879Z" fill="#98C8DB"/>
<path d="M674.073 321.222C673.056 321.222 672.231 320.397 672.231 319.379C672.231 318.362 673.056 317.537 674.073 317.537C675.091 317.537 675.916 318.362 675.916 319.379C675.916 320.397 675.091 321.222 674.073 321.222Z" fill="#98C8DB"/>
<path d="M664.628 326.962C663.611 326.962 662.786 326.138 662.786 325.12C662.786 324.102 663.611 323.277 664.628 323.277C665.646 323.277 666.471 324.102 666.471 325.12C666.471 326.138 665.646 326.962 664.628 326.962Z" fill="#98C8DB"/>
<path d="M651.963 322.429C650.945 322.429 650.12 321.604 650.12 320.587C650.12 319.569 650.945 318.744 651.963 318.744C652.98 318.744 653.805 319.569 653.805 320.587C653.805 321.604 652.98 322.429 651.963 322.429Z" fill="#98C8DB"/>
<path d="M644.364 325.921C643.346 325.921 642.521 325.096 642.521 324.078C642.521 323.061 643.346 322.236 644.364 322.236C645.382 322.236 646.206 323.061 646.206 324.078C646.206 325.096 645.382 325.921 644.364 325.921Z" fill="#98C8DB"/>
<path d="M633.552 321.694C632.535 321.694 631.71 320.869 631.71 319.851C631.71 318.834 632.535 318.009 633.552 318.009C634.57 318.009 635.395 318.834 635.395 319.851C635.395 320.869 634.57 321.694 633.552 321.694Z" fill="#98C8DB"/>
<path d="M635.745 317.471C634.727 317.471 633.902 316.646 633.902 315.628C633.902 314.611 634.727 313.786 635.745 313.786C636.762 313.786 637.587 314.611 637.587 315.628C637.587 316.646 636.762 317.471 635.745 317.471Z" fill="#98C8DB"/>
<path d="M624.933 313.244C623.916 313.244 623.091 312.419 623.091 311.401C623.091 310.384 623.916 309.559 624.933 309.559C625.951 309.559 626.776 310.384 626.776 311.401C626.776 312.419 625.951 313.244 624.933 313.244Z" fill="#98C8DB"/>
<path d="M614.122 309.017C613.104 309.017 612.279 308.192 612.279 307.174C612.279 306.156 613.104 305.332 614.122 305.332C615.139 305.332 615.964 306.156 615.964 307.174C615.964 308.192 615.139 309.017 614.122 309.017Z" fill="#98C8DB"/>
<path d="M603.31 304.794C602.293 304.794 601.468 303.969 601.468 302.951C601.468 301.933 602.293 301.108 603.31 301.108C604.328 301.108 605.153 301.933 605.153 302.951C605.153 303.969 604.328 304.794 603.31 304.794Z" fill="#98C8DB"/>
<path d="M666.374 334.371C665.356 334.371 664.532 333.546 664.532 332.529C664.532 331.511 665.356 330.686 666.374 330.686C667.392 330.686 668.217 331.511 668.217 332.529C668.217 333.546 667.392 334.371 666.374 334.371Z" fill="#98C8DB"/>
<path d="M657.018 329.765C656 329.765 655.175 328.94 655.175 327.922C655.175 326.905 656 326.08 657.018 326.08C658.036 326.08 658.861 326.905 658.861 327.922C658.861 328.94 658.036 329.765 657.018 329.765Z" fill="#98C8DB"/>
<path d="M657.018 335.815C656 335.815 655.175 334.99 655.175 333.972C655.175 332.955 656 332.13 657.018 332.13C658.036 332.13 658.861 332.955 658.861 333.972C658.861 334.99 658.036 335.815 657.018 335.815Z" fill="#98C8DB"/>
<path d="M636.769 329.413C635.752 329.413 634.927 328.588 634.927 327.57C634.927 326.552 635.752 325.728 636.769 325.728C637.787 325.728 638.612 326.552 638.612 327.57C638.612 328.588 637.787 329.413 636.769 329.413Z" fill="#98C8DB"/>
<path d="M638.958 325.186C637.94 325.186 637.115 324.361 637.115 323.343C637.115 322.325 637.94 321.5 638.958 321.5C639.975 321.5 640.8 322.325 640.8 323.343C640.8 324.361 639.975 325.186 638.958 325.186Z" fill="#98C8DB"/>
<path d="M628.146 320.962C627.129 320.962 626.304 320.137 626.304 319.119C626.304 318.102 627.129 317.277 628.146 317.277C629.164 317.277 629.989 318.102 629.989 319.119C629.989 320.137 629.164 320.962 628.146 320.962Z" fill="#98C8DB"/>
<path d="M617.335 316.735C616.317 316.735 615.492 315.91 615.492 314.892C615.492 313.875 616.317 313.05 617.335 313.05C618.352 313.05 619.177 313.875 619.177 314.892C619.177 315.91 618.352 316.735 617.335 316.735Z" fill="#98C8DB"/>
<path d="M606.523 312.512C605.505 312.512 604.681 311.687 604.681 310.67C604.681 309.652 605.505 308.827 606.523 308.827C607.541 308.827 608.366 309.652 608.366 310.67C608.366 311.687 607.541 312.512 606.523 312.512Z" fill="#98C8DB"/>
<path d="M647.581 333.635C646.563 333.635 645.738 332.81 645.738 331.793C645.738 330.775 646.563 329.95 647.581 329.95C648.598 329.95 649.423 330.775 649.423 331.793C649.423 332.81 648.598 333.635 647.581 333.635Z" fill="#98C8DB"/>
<path d="M639.982 335.583C638.964 335.583 638.14 334.758 638.14 333.74C638.14 332.722 638.964 331.897 639.982 331.897C641 331.897 641.825 332.722 641.825 333.74C641.825 334.758 641 335.583 639.982 335.583Z" fill="#98C8DB"/>
<path d="M642.174 332.904C641.157 332.904 640.332 332.079 640.332 331.061C640.332 330.044 641.157 329.219 642.174 329.219C643.192 329.219 644.017 330.044 644.017 331.061C644.017 332.079 643.192 332.904 642.174 332.904Z" fill="#98C8DB"/>
<path d="M631.363 328.677C630.345 328.677 629.52 327.852 629.52 326.834C629.52 325.817 630.345 324.992 631.363 324.992C632.38 324.992 633.205 325.817 633.205 326.834C633.205 327.852 632.38 328.677 631.363 328.677Z" fill="#98C8DB"/>
<path d="M620.551 324.454C619.534 324.454 618.709 323.629 618.709 322.611C618.709 321.594 619.534 320.769 620.551 320.769C621.569 320.769 622.394 321.594 622.394 322.611C622.394 323.629 621.569 324.454 620.551 324.454Z" fill="#98C8DB"/>
<path d="M609.74 320.227C608.722 320.227 607.897 319.402 607.897 318.385C607.897 317.367 608.722 316.542 609.74 316.542C610.757 316.542 611.582 317.367 611.582 318.385C611.582 319.402 610.757 320.227 609.74 320.227Z" fill="#98C8DB"/>
<path d="M598.928 316.003C597.911 316.003 597.086 315.179 597.086 314.161C597.086 313.143 597.911 312.318 598.928 312.318C599.946 312.318 600.771 313.143 600.771 314.161C600.771 315.179 599.946 316.003 598.928 316.003Z" fill="#98C8DB"/>
<path d="M634.796 335.835C633.779 335.835 632.954 335.01 632.954 333.992C632.954 332.974 633.779 332.149 634.796 332.149C635.814 332.149 636.639 332.974 636.639 333.992C636.639 335.01 635.814 335.835 634.796 335.835Z" fill="#98C8DB"/>
<path d="M623.985 331.611C622.967 331.611 622.142 330.786 622.142 329.769C622.142 328.751 622.967 327.926 623.985 327.926C625.002 327.926 625.827 328.751 625.827 329.769C625.827 330.786 625.002 331.611 623.985 331.611Z" fill="#98C8DB"/>
<path d="M613.173 327.384C612.156 327.384 611.331 326.559 611.331 325.541C611.331 324.524 612.156 323.699 613.173 323.699C614.191 323.699 615.016 324.524 615.016 325.541C615.016 326.559 614.191 327.384 613.173 327.384Z" fill="#98C8DB"/>
<path d="M602.362 323.161C601.344 323.161 600.519 322.336 600.519 321.319C600.519 320.301 601.344 319.476 602.362 319.476C603.38 319.476 604.204 320.301 604.204 321.319C604.204 322.336 603.38 323.161 602.362 323.161Z" fill="#98C8DB"/>
<path d="M616.344 335.215C615.326 335.215 614.501 334.39 614.501 333.372C614.501 332.355 615.326 331.53 616.344 331.53C617.361 331.53 618.186 332.355 618.186 333.372C618.186 334.39 617.361 335.215 616.344 335.215Z" fill="#98C8DB"/>
<path d="M605.532 330.988C604.515 330.988 603.69 330.163 603.69 329.145C603.69 328.128 604.515 327.303 605.532 327.303C606.55 327.303 607.375 328.128 607.375 329.145C607.375 330.163 606.55 330.988 605.532 330.988Z" fill="#98C8DB"/>
<path d="M594.725 326.765C593.707 326.765 592.882 325.94 592.882 324.922C592.882 323.905 593.707 323.08 594.725 323.08C595.742 323.08 596.567 323.905 596.567 324.922C596.567 325.94 595.742 326.765 594.725 326.765Z" fill="#98C8DB"/>
<path d="M580.023 324.454C579.005 324.454 578.18 323.629 578.18 322.611C578.18 321.594 579.005 320.769 580.023 320.769C581.04 320.769 581.865 321.594 581.865 322.611C581.865 323.629 581.04 324.454 580.023 324.454Z" fill="#98C8DB"/>
<path d="M571.669 331.611C570.652 331.611 569.827 330.786 569.827 329.769C569.827 328.751 570.652 327.926 571.669 327.926C572.687 327.926 573.512 328.751 573.512 329.769C573.512 330.786 572.687 331.611 571.669 331.611Z" fill="#98C8DB"/>
<path d="M597.895 334.592C596.877 334.592 596.052 333.767 596.052 332.749C596.052 331.732 596.877 330.907 597.895 330.907C598.912 330.907 599.737 331.732 599.737 332.749C599.737 333.767 598.912 334.592 597.895 334.592Z" fill="#98C8DB"/>
<path d="M587.083 330.369C586.066 330.369 585.241 329.544 585.241 328.526C585.241 327.509 586.066 326.684 587.083 326.684C588.101 326.684 588.926 327.509 588.926 328.526C588.926 329.544 588.101 330.369 587.083 330.369Z" fill="#98C8DB"/>
<path d="M579.442 333.972C578.424 333.972 577.6 333.147 577.6 332.13C577.6 331.112 578.424 330.287 579.442 330.287C580.46 330.287 581.285 331.112 581.285 332.13C581.285 333.147 580.46 333.972 579.442 333.972Z" fill="#98C8DB"/>
<path d="M424.998 197.75C423.981 197.75 423.156 196.925 423.156 195.908C423.156 194.89 423.981 194.065 424.998 194.065C426.016 194.065 426.841 194.89 426.841 195.908C426.841 196.925 426.016 197.75 424.998 197.75Z" fill="#98C8DB"/>
<path d="M442.41 207.103C441.392 207.103 440.567 206.278 440.567 205.26C440.567 204.242 441.392 203.417 442.41 203.417C443.427 203.417 444.252 204.242 444.252 205.26C444.252 206.278 443.427 207.103 442.41 207.103Z" fill="#98C8DB"/>
<path d="M430.805 203.797C429.787 203.797 428.962 202.972 428.962 201.954C428.962 200.937 429.787 200.112 430.805 200.112C431.822 200.112 432.647 200.937 432.647 201.954C432.647 202.972 431.822 203.797 430.805 203.797Z" fill="#98C8DB"/>
<path d="M436.607 210.23C435.59 210.23 434.765 209.405 434.765 208.387C434.765 207.37 435.59 206.545 436.607 206.545C437.625 206.545 438.45 207.37 438.45 208.387C438.45 209.405 437.625 210.23 436.607 210.23Z" fill="#98C8DB"/>
<path d="M436.607 202.102C435.59 202.102 434.765 201.277 434.765 200.259C434.765 199.241 435.59 198.417 436.607 198.417C437.625 198.417 438.45 199.241 438.45 200.259C438.45 201.277 437.625 202.102 436.607 202.102Z" fill="#98C8DB"/>
<path d="M453.965 216.551C452.947 216.551 452.122 215.726 452.122 214.709C452.122 213.691 452.947 212.866 453.965 212.866C454.982 212.866 455.807 213.691 455.807 214.709C455.807 215.726 454.982 216.551 453.965 216.551Z" fill="#98C8DB"/>
<path d="M442.41 216.165C441.392 216.165 440.567 215.34 440.567 214.322C440.567 213.304 441.392 212.479 442.41 212.479C443.427 212.479 444.252 213.304 444.252 214.322C444.252 215.34 443.427 216.165 442.41 216.165Z" fill="#98C8DB"/>
<path d="M430.805 216.165C429.787 216.165 428.962 215.34 428.962 214.322C428.962 213.304 429.787 212.479 430.805 212.479C431.822 212.479 432.647 213.304 432.647 214.322C432.647 215.34 431.822 216.165 430.805 216.165Z" fill="#98C8DB"/>
<path d="M459.407 222.594C458.389 222.594 457.565 221.769 457.565 220.752C457.565 219.734 458.389 218.909 459.407 218.909C460.425 218.909 461.25 219.734 461.25 220.752C461.25 221.769 460.425 222.594 459.407 222.594Z" fill="#98C8DB"/>
<path d="M448.216 222.18C447.199 222.18 446.374 221.355 446.374 220.337C446.374 219.32 447.199 218.495 448.216 218.495C449.234 218.495 450.059 219.32 450.059 220.337C450.059 221.355 449.234 222.18 448.216 222.18Z" fill="#98C8DB"/>
<path d="M448.216 211.728C447.199 211.728 446.374 210.903 446.374 209.886C446.374 208.868 447.199 208.043 448.216 208.043C449.234 208.043 450.059 208.868 450.059 209.886C450.059 210.903 449.234 211.728 448.216 211.728Z" fill="#98C8DB"/>
<path d="M436.607 222.18C435.59 222.18 434.765 221.355 434.765 220.337C434.765 219.32 435.59 218.495 436.607 218.495C437.625 218.495 438.45 219.32 438.45 220.337C438.45 221.355 437.625 222.18 436.607 222.18Z" fill="#98C8DB"/>
<path d="M424.998 222.18C423.981 222.18 423.156 221.355 423.156 220.337C423.156 219.32 423.981 218.495 424.998 218.495C426.016 218.495 426.841 219.32 426.841 220.337C426.841 221.355 426.016 222.18 424.998 222.18Z" fill="#98C8DB"/>
<path d="M538.681 222.594C537.663 222.594 536.839 221.769 536.839 220.752C536.839 219.734 537.663 218.909 538.681 218.909C539.699 218.909 540.524 219.734 540.524 220.752C540.524 221.769 539.699 222.594 538.681 222.594Z" fill="#98C8DB"/>
<path d="M533.722 227.139C532.705 227.139 531.88 226.314 531.88 225.296C531.88 224.279 532.705 223.454 533.722 223.454C534.74 223.454 535.565 224.279 535.565 225.296C535.565 226.314 534.74 227.139 533.722 227.139Z" fill="#98C8DB"/>
<path d="M547.809 223.419C546.791 223.419 545.966 222.594 545.966 221.576C545.966 220.559 546.791 219.734 547.809 219.734C548.826 219.734 549.651 220.559 549.651 221.576C549.651 222.594 548.826 223.419 547.809 223.419Z" fill="#98C8DB"/>
<path d="M528.648 222.207C527.63 222.207 526.805 221.382 526.805 220.365C526.805 219.347 527.63 218.522 528.648 218.522C529.665 218.522 530.49 219.347 530.49 220.365C530.49 221.382 529.665 222.207 528.648 222.207Z" fill="#98C8DB"/>
<path d="M527.919 223.419C526.901 223.419 526.076 222.594 526.076 221.576C526.076 220.559 526.901 219.734 527.919 219.734C528.936 219.734 529.761 220.559 529.761 221.576C529.761 222.594 528.936 223.419 527.919 223.419Z" fill="#98C8DB"/>
<path d="M465.628 228.199C464.61 228.199 463.785 227.374 463.785 226.357C463.785 225.339 464.61 224.514 465.628 224.514C466.645 224.514 467.47 225.339 467.47 226.357C467.47 227.374 466.645 228.199 465.628 228.199Z" fill="#98C8DB"/>
<path d="M454.019 228.199C453.001 228.199 452.176 227.374 452.176 226.357C452.176 225.339 453.001 224.514 454.019 224.514C455.036 224.514 455.861 225.339 455.861 226.357C455.861 227.374 455.036 228.199 454.019 228.199Z" fill="#98C8DB"/>
<path d="M442.41 228.199C441.392 228.199 440.567 227.374 440.567 226.357C440.567 225.339 441.392 224.514 442.41 224.514C443.427 224.514 444.252 225.339 444.252 226.357C444.252 227.374 443.427 228.199 442.41 228.199Z" fill="#98C8DB"/>
<path d="M430.805 228.199C429.787 228.199 428.962 227.374 428.962 226.357C428.962 225.339 429.787 224.514 430.805 224.514C431.822 224.514 432.647 225.339 432.647 226.357C432.647 227.374 431.822 228.199 430.805 228.199Z" fill="#98C8DB"/>
<path d="M433.024 228.199C432.007 228.199 431.182 227.374 431.182 226.357C431.182 225.339 432.007 224.514 433.024 224.514C434.042 224.514 434.867 225.339 434.867 226.357C434.867 227.374 434.042 228.199 433.024 228.199Z" fill="#98C8DB"/>
<path d="M535.27 230.495C534.252 230.495 533.427 229.67 533.427 228.652C533.427 227.634 534.252 226.81 535.27 226.81C536.287 226.81 537.112 227.634 537.112 228.652C537.112 229.67 536.287 230.495 535.27 230.495Z" fill="#98C8DB"/>
<path d="M535.27 223.527C534.252 223.527 533.427 222.702 533.427 221.684C533.427 220.667 534.252 219.842 535.27 219.842C536.287 219.842 537.112 220.667 537.112 221.684C537.112 222.702 536.287 223.527 535.27 223.527Z" fill="#98C8DB"/>
<path d="M523.661 228.199C522.643 228.199 521.818 227.374 521.818 226.357C521.818 225.339 522.643 224.514 523.661 224.514C524.678 224.514 525.503 225.339 525.503 226.357C525.503 227.374 524.678 228.199 523.661 228.199Z" fill="#98C8DB"/>
<path d="M512.056 228.199C511.038 228.199 510.213 227.374 510.213 226.357C510.213 225.339 511.038 224.514 512.056 224.514C513.073 224.514 513.898 225.339 513.898 226.357C513.898 227.374 513.073 228.199 512.056 228.199Z" fill="#98C8DB"/>
<path d="M471.43 234.214C470.413 234.214 469.588 233.389 469.588 232.372C469.588 231.354 470.413 230.529 471.43 230.529C472.448 230.529 473.273 231.354 473.273 232.372C473.273 233.389 472.448 234.214 471.43 234.214Z" fill="#98C8DB"/>
<path d="M459.821 234.214C458.804 234.214 457.979 233.389 457.979 232.372C457.979 231.354 458.804 230.529 459.821 230.529C460.839 230.529 461.664 231.354 461.664 232.372C461.664 233.389 460.839 234.214 459.821 234.214Z" fill="#98C8DB"/>
<path d="M448.216 234.214C447.199 234.214 446.374 233.389 446.374 232.372C446.374 231.354 447.199 230.529 448.216 230.529C449.234 230.529 450.059 231.354 450.059 232.372C450.059 233.389 449.234 234.214 448.216 234.214Z" fill="#98C8DB"/>
<path d="M436.607 234.214C435.59 234.214 434.765 233.389 434.765 232.372C434.765 231.354 435.59 230.529 436.607 230.529C437.625 230.529 438.45 231.354 438.45 232.372C438.45 233.389 437.625 234.214 436.607 234.214Z" fill="#98C8DB"/>
<path d="M424.998 234.214C423.981 234.214 423.156 233.389 423.156 232.372C423.156 231.354 423.981 230.529 424.998 230.529C426.016 230.529 426.841 231.354 426.841 232.372C426.841 233.389 426.016 234.214 424.998 234.214Z" fill="#98C8DB"/>
<path d="M517.858 234.214C516.84 234.214 516.016 233.389 516.016 232.372C516.016 231.354 516.84 230.529 517.858 230.529C518.876 230.529 519.701 231.354 519.701 232.372C519.701 233.389 518.876 234.214 517.858 234.214Z" fill="#98C8DB"/>
<path d="M506.253 234.214C505.235 234.214 504.411 233.389 504.411 232.372C504.411 231.354 505.235 230.529 506.253 230.529C507.271 230.529 508.096 231.354 508.096 232.372C508.096 233.389 507.271 234.214 506.253 234.214Z" fill="#98C8DB"/>
<path d="M494.644 233.828C493.627 233.828 492.802 233.003 492.802 231.985C492.802 230.968 493.627 230.143 494.644 230.143C495.662 230.143 496.487 230.968 496.487 231.985C496.487 233.003 495.662 233.828 494.644 233.828Z" fill="#98C8DB"/>
<path d="M483.035 234.214C482.018 234.214 481.193 233.389 481.193 232.372C481.193 231.354 482.018 230.529 483.035 230.529C484.053 230.529 484.878 231.354 484.878 232.372C484.878 233.389 484.053 234.214 483.035 234.214Z" fill="#98C8DB"/>
<path d="M477.233 240.234C476.215 240.234 475.39 239.409 475.39 238.391C475.39 237.374 476.215 236.549 477.233 236.549C478.25 236.549 479.075 237.374 479.075 238.391C479.075 239.409 478.25 240.234 477.233 240.234Z" fill="#98C8DB"/>
<path d="M465.628 240.234C464.61 240.234 463.785 239.409 463.785 238.391C463.785 237.374 464.61 236.549 465.628 236.549C466.645 236.549 467.47 237.374 467.47 238.391C467.47 239.409 466.645 240.234 465.628 240.234Z" fill="#98C8DB"/>
<path d="M454.019 240.234C453.001 240.234 452.176 239.409 452.176 238.391C452.176 237.374 453.001 236.549 454.019 236.549C455.036 236.549 455.861 237.374 455.861 238.391C455.861 239.409 455.036 240.234 454.019 240.234Z" fill="#98C8DB"/>
<path d="M442.41 240.234C441.392 240.234 440.567 239.409 440.567 238.391C440.567 237.374 441.392 236.549 442.41 236.549C443.427 236.549 444.252 237.374 444.252 238.391C444.252 239.409 443.427 240.234 442.41 240.234Z" fill="#98C8DB"/>
<path d="M430.805 240.234C429.787 240.234 428.962 239.409 428.962 238.391C428.962 237.374 429.787 236.549 430.805 236.549C431.822 236.549 432.647 237.374 432.647 238.391C432.647 239.409 431.822 240.234 430.805 240.234Z" fill="#98C8DB"/>
<path d="M432.196 240.234C431.178 240.234 430.353 239.409 430.353 238.391C430.353 237.374 431.178 236.549 432.196 236.549C433.213 236.549 434.038 237.374 434.038 238.391C434.038 239.409 433.213 240.234 432.196 240.234Z" fill="#98C8DB"/>
<path d="M512.056 240.234C511.038 240.234 510.213 239.409 510.213 238.391C510.213 237.374 511.038 236.549 512.056 236.549C513.073 236.549 513.898 237.374 513.898 238.391C513.898 239.409 513.073 240.234 512.056 240.234Z" fill="#98C8DB"/>
<path d="M500.447 240.234C499.429 240.234 498.604 239.409 498.604 238.391C498.604 237.374 499.429 236.549 500.447 236.549C501.464 236.549 502.289 237.374 502.289 238.391C502.289 239.409 501.464 240.234 500.447 240.234Z" fill="#98C8DB"/>
<path d="M488.842 240.234C487.824 240.234 486.999 239.409 486.999 238.391C486.999 237.374 487.824 236.549 488.842 236.549C489.859 236.549 490.684 237.374 490.684 238.391C490.684 239.409 489.859 240.234 488.842 240.234Z" fill="#98C8DB"/>
<path d="M471.43 246.249C470.413 246.249 469.588 245.424 469.588 244.407C469.588 243.389 470.413 242.564 471.43 242.564C472.448 242.564 473.273 243.389 473.273 244.407C473.273 245.424 472.448 246.249 471.43 246.249Z" fill="#98C8DB"/>
<path d="M459.821 246.249C458.804 246.249 457.979 245.424 457.979 244.407C457.979 243.389 458.804 242.564 459.821 242.564C460.839 242.564 461.664 243.389 461.664 244.407C461.664 245.424 460.839 246.249 459.821 246.249Z" fill="#98C8DB"/>
<path d="M448.216 246.249C447.199 246.249 446.374 245.424 446.374 244.407C446.374 243.389 447.199 242.564 448.216 242.564C449.234 242.564 450.059 243.389 450.059 244.407C450.059 245.424 449.234 246.249 448.216 246.249Z" fill="#98C8DB"/>
<path d="M436.607 246.249C435.59 246.249 434.765 245.424 434.765 244.407C434.765 243.389 435.59 242.564 436.607 242.564C437.625 242.564 438.45 243.389 438.45 244.407C438.45 245.424 437.625 246.249 436.607 246.249Z" fill="#98C8DB"/>
<path d="M424.998 246.249C423.981 246.249 423.156 245.424 423.156 244.407C423.156 243.389 423.981 242.564 424.998 242.564C426.016 242.564 426.841 243.389 426.841 244.407C426.841 245.424 426.016 246.249 424.998 246.249Z" fill="#98C8DB"/>
<path d="M506.253 246.249C505.235 246.249 504.411 245.424 504.411 244.407C504.411 243.389 505.235 242.564 506.253 242.564C507.271 242.564 508.096 243.389 508.096 244.407C508.096 245.424 507.271 246.249 506.253 246.249Z" fill="#98C8DB"/>
<path d="M494.644 246.249C493.627 246.249 492.802 245.424 492.802 244.407C492.802 243.389 493.627 242.564 494.644 242.564C495.662 242.564 496.487 243.389 496.487 244.407C496.487 245.424 495.662 246.249 494.644 246.249Z" fill="#98C8DB"/>
<path d="M483.035 246.249C482.018 246.249 481.193 245.424 481.193 244.407C481.193 243.389 482.018 242.564 483.035 242.564C484.053 242.564 484.878 243.389 484.878 244.407C484.878 245.424 484.053 246.249 483.035 246.249Z" fill="#98C8DB"/>
<path d="M477.233 252.269C476.215 252.269 475.39 251.444 475.39 250.427C475.39 249.409 476.215 248.584 477.233 248.584C478.25 248.584 479.075 249.409 479.075 250.427C479.075 251.444 478.25 252.269 477.233 252.269Z" fill="#98C8DB"/>
<path d="M465.628 252.269C464.61 252.269 463.785 251.444 463.785 250.427C463.785 249.409 464.61 248.584 465.628 248.584C466.645 248.584 467.47 249.409 467.47 250.427C467.47 251.444 466.645 252.269 465.628 252.269Z" fill="#98C8DB"/>
<path d="M454.019 252.269C453.001 252.269 452.176 251.444 452.176 250.427C452.176 249.409 453.001 248.584 454.019 248.584C455.036 248.584 455.861 249.409 455.861 250.427C455.861 251.444 455.036 252.269 454.019 252.269Z" fill="#98C8DB"/>
<path d="M442.41 252.269C441.392 252.269 440.567 251.444 440.567 250.427C440.567 249.409 441.392 248.584 442.41 248.584C443.427 248.584 444.252 249.409 444.252 250.427C444.252 251.444 443.427 252.269 442.41 252.269Z" fill="#98C8DB"/>
<path d="M430.805 252.269C429.787 252.269 428.962 251.444 428.962 250.427C428.962 249.409 429.787 248.584 430.805 248.584C431.822 248.584 432.647 249.409 432.647 250.427C432.647 251.444 431.822 252.269 430.805 252.269Z" fill="#98C8DB"/>
<path d="M432.196 252.269C431.178 252.269 430.353 251.444 430.353 250.427C430.353 249.409 431.178 248.584 432.196 248.584C433.213 248.584 434.038 249.409 434.038 250.427C434.038 251.444 433.213 252.269 432.196 252.269Z" fill="#98C8DB"/>
<path d="M500.447 252.269C499.429 252.269 498.604 251.444 498.604 250.427C498.604 249.409 499.429 248.584 500.447 248.584C501.464 248.584 502.289 249.409 502.289 250.427C502.289 251.444 501.464 252.269 500.447 252.269Z" fill="#98C8DB"/>
<path d="M488.842 252.269C487.824 252.269 486.999 251.444 486.999 250.427C486.999 249.409 487.824 248.584 488.842 248.584C489.859 248.584 490.684 249.409 490.684 250.427C490.684 251.444 489.859 252.269 488.842 252.269Z" fill="#98C8DB"/>
<path d="M471.43 257.684C470.413 257.684 469.588 256.859 469.588 255.842C469.588 254.824 470.413 253.999 471.43 253.999C472.448 253.999 473.273 254.824 473.273 255.842C473.273 256.859 472.448 257.684 471.43 257.684Z" fill="#98C8DB"/>
<path d="M459.821 257.684C458.804 257.684 457.979 256.859 457.979 255.842C457.979 254.824 458.804 253.999 459.821 253.999C460.839 253.999 461.664 254.824 461.664 255.842C461.664 256.859 460.839 257.684 459.821 257.684Z" fill="#98C8DB"/>
<path d="M448.216 257.684C447.199 257.684 446.374 256.859 446.374 255.842C446.374 254.824 447.199 253.999 448.216 253.999C449.234 253.999 450.059 254.824 450.059 255.842C450.059 256.859 449.234 257.684 448.216 257.684Z" fill="#98C8DB"/>
<path d="M436.607 257.684C435.59 257.684 434.765 256.859 434.765 255.842C434.765 254.824 435.59 253.999 436.607 253.999C437.625 253.999 438.45 254.824 438.45 255.842C438.45 256.859 437.625 257.684 436.607 257.684Z" fill="#98C8DB"/>
<path d="M424.998 257.684C423.981 257.684 423.156 256.859 423.156 255.842C423.156 254.824 423.981 253.999 424.998 253.999C426.016 253.999 426.841 254.824 426.841 255.842C426.841 256.859 426.016 257.684 424.998 257.684Z" fill="#98C8DB"/>
<path d="M415.562 282.238C414.545 282.238 413.72 281.413 413.72 280.395C413.72 279.378 414.545 278.553 415.562 278.553C416.58 278.553 417.405 279.378 417.405 280.395C417.405 281.413 416.58 282.238 415.562 282.238Z" fill="#98C8DB"/>
<path d="M415.562 294.237C414.545 294.237 413.72 293.412 413.72 292.395C413.72 291.377 414.545 290.552 415.562 290.552C416.58 290.552 417.405 291.377 417.405 292.395C417.405 293.412 416.58 294.237 415.562 294.237Z" fill="#98C8DB"/>
<path d="M494.644 257.684C493.627 257.684 492.802 256.859 492.802 255.842C492.802 254.824 493.627 253.999 494.644 253.999C495.662 253.999 496.487 254.824 496.487 255.842C496.487 256.859 495.662 257.684 494.644 257.684Z" fill="#98C8DB"/>
<path d="M483.035 257.684C482.018 257.684 481.193 256.859 481.193 255.842C481.193 254.824 482.018 253.999 483.035 253.999C484.053 253.999 484.878 254.824 484.878 255.842C484.878 256.859 484.053 257.684 483.035 257.684Z" fill="#98C8DB"/>
<path d="M477.233 263.823C476.215 263.823 475.39 262.998 475.39 261.981C475.39 260.963 476.215 260.138 477.233 260.138C478.25 260.138 479.075 260.963 479.075 261.981C479.075 262.998 478.25 263.823 477.233 263.823Z" fill="#98C8DB"/>
<path d="M465.628 263.823C464.61 263.823 463.785 262.998 463.785 261.981C463.785 260.963 464.61 260.138 465.628 260.138C466.645 260.138 467.47 260.963 467.47 261.981C467.47 262.998 466.645 263.823 465.628 263.823Z" fill="#98C8DB"/>
<path d="M454.019 263.823C453.001 263.823 452.176 262.998 452.176 261.981C452.176 260.963 453.001 260.138 454.019 260.138C455.036 260.138 455.861 260.963 455.861 261.981C455.861 262.998 455.036 263.823 454.019 263.823Z" fill="#98C8DB"/>
<path d="M442.41 263.823C441.392 263.823 440.567 262.998 440.567 261.981C440.567 260.963 441.392 260.138 442.41 260.138C443.427 260.138 444.252 260.963 444.252 261.981C444.252 262.998 443.427 263.823 442.41 263.823Z" fill="#98C8DB"/>
<path d="M430.805 263.823C429.787 263.823 428.962 262.998 428.962 261.981C428.962 260.963 429.787 260.138 430.805 260.138C431.822 260.138 432.647 260.963 432.647 261.981C432.647 262.998 431.822 263.823 430.805 263.823Z" fill="#98C8DB"/>
<path d="M432.196 263.823C431.178 263.823 430.353 262.998 430.353 261.981C430.353 260.963 431.178 260.138 432.196 260.138C433.213 260.138 434.038 260.963 434.038 261.981C434.038 262.998 433.213 263.823 432.196 263.823Z" fill="#98C8DB"/>
<path d="M471.43 269.959C470.413 269.959 469.588 269.134 469.588 268.116C469.588 267.098 470.413 266.273 471.43 266.273C472.448 266.273 473.273 267.098 473.273 268.116C473.273 269.134 472.448 269.959 471.43 269.959Z" fill="#98C8DB"/>
<path d="M459.821 269.959C458.804 269.959 457.979 269.134 457.979 268.116C457.979 267.098 458.804 266.273 459.821 266.273C460.839 266.273 461.664 267.098 461.664 268.116C461.664 269.134 460.839 269.959 459.821 269.959Z" fill="#98C8DB"/>
<path d="M448.216 269.959C447.199 269.959 446.374 269.134 446.374 268.116C446.374 267.098 447.199 266.273 448.216 266.273C449.234 266.273 450.059 267.098 450.059 268.116C450.059 269.134 449.234 269.959 448.216 269.959Z" fill="#98C8DB"/>
<path d="M436.607 269.959C435.59 269.959 434.765 269.134 434.765 268.116C434.765 267.098 435.59 266.273 436.607 266.273C437.625 266.273 438.45 267.098 438.45 268.116C438.45 269.134 437.625 269.959 436.607 269.959Z" fill="#98C8DB"/>
<path d="M424.998 269.959C423.981 269.959 423.156 269.134 423.156 268.116C423.156 267.098 423.981 266.273 424.998 266.273C426.016 266.273 426.841 267.098 426.841 268.116C426.841 269.134 426.016 269.959 424.998 269.959Z" fill="#98C8DB"/>
<path d="M426.393 269.959C425.376 269.959 424.551 269.134 424.551 268.116C424.551 267.098 425.376 266.273 426.393 266.273C427.411 266.273 428.236 267.098 428.236 268.116C428.236 269.134 427.411 269.959 426.393 269.959Z" fill="#98C8DB"/>
<path d="M465.628 276.098C464.61 276.098 463.785 275.273 463.785 274.256C463.785 273.238 464.61 272.413 465.628 272.413C466.645 272.413 467.47 273.238 467.47 274.256C467.47 275.273 466.645 276.098 465.628 276.098Z" fill="#98C8DB"/>
<path d="M454.019 276.098C453.001 276.098 452.176 275.273 452.176 274.256C452.176 273.238 453.001 272.413 454.019 272.413C455.036 272.413 455.861 273.238 455.861 274.256C455.861 275.273 455.036 276.098 454.019 276.098Z" fill="#98C8DB"/>
<path d="M442.41 276.098C441.392 276.098 440.567 275.273 440.567 274.256C440.567 273.238 441.392 272.413 442.41 272.413C443.427 272.413 444.252 273.238 444.252 274.256C444.252 275.273 443.427 276.098 442.41 276.098Z" fill="#98C8DB"/>
<path d="M430.805 276.098C429.787 276.098 428.962 275.273 428.962 274.256C428.962 273.238 429.787 272.413 430.805 272.413C431.822 272.413 432.647 273.238 432.647 274.256C432.647 275.273 431.822 276.098 430.805 276.098Z" fill="#98C8DB"/>
<path d="M432.196 276.098C431.178 276.098 430.353 275.273 430.353 274.256C430.353 273.238 431.178 272.413 432.196 272.413C433.213 272.413 434.038 273.238 434.038 274.256C434.038 275.273 433.213 276.098 432.196 276.098Z" fill="#98C8DB"/>
<path d="M420.591 276.098C419.573 276.098 418.748 275.273 418.748 274.256C418.748 273.238 419.573 272.413 420.591 272.413C421.608 272.413 422.433 273.238 422.433 274.256C422.433 275.273 421.608 276.098 420.591 276.098Z" fill="#98C8DB"/>
<path d="M448.216 282.238C447.199 282.238 446.374 281.413 446.374 280.395C446.374 279.378 447.199 278.553 448.216 278.553C449.234 278.553 450.059 279.378 450.059 280.395C450.059 281.413 449.234 282.238 448.216 282.238Z" fill="#98C8DB"/>
<path d="M436.607 282.238C435.59 282.238 434.765 281.413 434.765 280.395C434.765 279.378 435.59 278.553 436.607 278.553C437.625 278.553 438.45 279.378 438.45 280.395C438.45 281.413 437.625 282.238 436.607 282.238Z" fill="#98C8DB"/>
<path d="M424.998 282.238C423.981 282.238 423.156 281.413 423.156 280.395C423.156 279.378 423.981 278.553 424.998 278.553C426.016 278.553 426.841 279.378 426.841 280.395C426.841 281.413 426.016 282.238 424.998 282.238Z" fill="#98C8DB"/>
<path d="M426.393 282.238C425.376 282.238 424.551 281.413 424.551 280.395C424.551 279.378 425.376 278.553 426.393 278.553C427.411 278.553 428.236 279.378 428.236 280.395C428.236 281.413 427.411 282.238 426.393 282.238Z" fill="#98C8DB"/>
<path d="M426.506 293.413C425.488 293.413 424.663 292.588 424.663 291.57C424.663 290.552 425.488 289.728 426.506 289.728C427.523 289.728 428.348 290.552 428.348 291.57C428.348 292.588 427.523 293.413 426.506 293.413Z" fill="#98C8DB"/>
<path d="M442.41 287.548C441.392 287.548 440.567 286.723 440.567 285.706C440.567 284.688 441.392 283.863 442.41 283.863C443.427 283.863 444.252 284.688 444.252 285.706C444.252 286.723 443.427 287.548 442.41 287.548Z" fill="#98C8DB"/>
<path d="M430.805 288.373C429.787 288.373 428.962 287.548 428.962 286.531C428.962 285.513 429.787 284.688 430.805 284.688C431.822 284.688 432.647 285.513 432.647 286.531C432.647 287.548 431.822 288.373 430.805 288.373Z" fill="#98C8DB"/>
<path d="M432.196 288.373C431.178 288.373 430.353 287.548 430.353 286.531C430.353 285.513 431.178 284.688 432.196 284.688C433.213 284.688 434.038 285.513 434.038 286.531C434.038 287.548 433.213 288.373 432.196 288.373Z" fill="#98C8DB"/>
<path d="M420.591 288.373C419.573 288.373 418.748 287.548 418.748 286.531C418.748 285.513 419.573 284.688 420.591 284.688C421.608 284.688 422.433 285.513 422.433 286.531C422.433 287.548 421.608 288.373 420.591 288.373Z" fill="#98C8DB"/>
<path d="M408.591 288.373C407.573 288.373 406.748 287.548 406.748 286.531C406.748 285.513 407.573 284.688 408.591 284.688C409.609 284.688 410.433 285.513 410.433 286.531C410.433 287.548 409.609 288.373 408.591 288.373Z" fill="#98C8DB"/>
<path d="M408.591 296.502C407.573 296.502 406.748 295.677 406.748 294.659C406.748 293.642 407.573 292.817 408.591 292.817C409.609 292.817 410.433 293.642 410.433 294.659C410.433 295.677 409.609 296.502 408.591 296.502Z" fill="#98C8DB"/>
<path d="M184.325 191.963H214.22V313.468H184.325V191.963Z" fill="white" stroke="#F3B304" stroke-width="1.93547" stroke-miterlimit="10"/>
<path d="M200.219 167.824H198.322C196.483 167.824 194.663 168.186 192.964 168.89C191.265 169.594 189.722 170.625 188.422 171.925C187.122 173.225 186.09 174.769 185.387 176.467C184.683 178.166 184.321 179.987 184.321 181.825V187.74H214.216V181.81C214.212 178.1 212.736 174.543 210.111 171.921C207.487 169.299 203.929 167.825 200.219 167.824V167.824Z" fill="white" stroke="#F3B304" stroke-width="1.93547" stroke-miterlimit="10"/>
<path d="M180.071 187.755H218.47V191.959H180.071V187.755Z" fill="white" stroke="#F3B304" stroke-width="1.93547" stroke-miterlimit="10"/>
<path d="M206.284 182.359H213.117V186.931H206.284V182.359Z" fill="#98C8DB"/>
<path d="M185.424 182.359H192.256V186.931H185.424V182.359Z" fill="#98C8DB"/>
<path d="M195.852 182.359H202.685V186.931H195.852V182.359Z" fill="#98C8DB"/>
<path d="M201.554 236.967V243.799H196.983V236.967H201.554Z" fill="#59221D"/>
<path d="M201.554 197.87V204.703H196.983V197.87H201.554Z" fill="#59221D"/>
<path d="M201.554 279.934V286.766H196.983V279.934H201.554Z" fill="#59221D"/>
<path d="M185.393 269.641V289.48C186.542 286.18 188.423 283.183 190.894 280.712L207.152 264.454C209.913 261.694 211.964 258.306 213.128 254.579V234.749C211.963 238.471 209.912 241.856 207.152 244.612L190.894 260.87C188.421 263.341 186.541 266.339 185.393 269.641V269.641Z" fill="#C1DEE9"/>
<path d="M185.049 313.464H201.306L207.163 307.244C209.925 304.484 211.976 301.096 213.14 297.369V277.546C211.974 281.269 209.923 284.655 207.163 287.413L190.905 303.671C188.424 306.125 186.19 309.168 185.049 313.464Z" fill="#C1DEE9"/>
<path d="M185.393 227.638V247.476C186.541 244.176 188.422 241.179 190.894 238.709L207.152 222.451C209.914 219.692 211.965 216.303 213.128 212.576V192.772C211.962 196.496 209.911 199.881 207.152 202.639L190.894 218.897C188.425 221.36 186.545 224.347 185.393 227.638V227.638Z" fill="#C1DEE9"/>
<path d="M155.486 334.301H359.039V328.255H238.514L228.291 314.606C227.743 313.873 227.031 313.278 226.213 312.868C225.394 312.458 224.491 312.245 223.576 312.245H174.965C174.05 312.245 173.147 312.459 172.329 312.869C171.51 313.279 170.799 313.873 170.25 314.606L155.486 334.301Z" fill="#59221D"/>
<path d="M156.648 333.531H176.389L189.992 315.361C190.541 314.629 191.252 314.034 192.071 313.624C192.889 313.214 193.791 313.001 194.707 313H174.965C174.05 313.001 173.147 313.214 172.329 313.624C171.51 314.034 170.799 314.629 170.25 315.361L156.648 333.531Z" fill="white" stroke="#59221D" stroke-width="1.54837" stroke-miterlimit="10"/>
<path d="M199.271 167.824V155.758" stroke="#F3B304" stroke-width="1.93547" stroke-miterlimit="10"/>
<path d="M190.243 157.771C189.132 157.771 188.231 156.87 188.231 155.758C188.231 154.647 189.132 153.746 190.243 153.746C191.355 153.746 192.256 154.647 192.256 155.758C192.256 156.87 191.355 157.771 190.243 157.771Z" stroke="#F3B304" stroke-width="1.93547" stroke-miterlimit="10"/>
<path d="M207.276 157.771C206.164 157.771 205.263 156.87 205.263 155.758C205.263 154.647 206.164 153.746 207.276 153.746C208.387 153.746 209.288 154.647 209.288 155.758C209.288 156.87 208.387 157.771 207.276 157.771Z" stroke="#F3B304" stroke-width="1.93547" stroke-miterlimit="10"/>
<path d="M206.288 155.758H192.256" stroke="#F3B304" stroke-width="1.93547" stroke-miterlimit="10"/>
<path d="M319.518 292.408L313.056 327.053H298.322C307.716 318.109 316.544 306.017 319.518 292.408Z" fill="#FED4C7" stroke="#F3B304" stroke-width="0.994066" stroke-linejoin="round"/>
<path d="M328.226 306.916C329.648 311.684 331.299 317.226 335.442 323.291C335.482 323.765 335.732 324.198 336.022 324.576C336.325 324.971 336.718 325.361 337.088 325.727C337.109 325.748 337.129 325.769 337.15 325.789C337.548 326.185 337.912 326.552 338.169 326.91C338.313 327.111 338.409 327.29 338.462 327.45H320.331C320.331 325.524 320.333 324.007 320.335 322.62C320.339 320.026 320.342 317.884 320.331 314.366C320.331 312.221 320.5 310.161 320.695 308.166C320.736 307.741 320.779 307.319 320.821 306.899C320.977 305.354 321.13 303.846 321.205 302.381C321.374 299.107 321.163 295.996 319.736 293.031C324.352 295.874 326.023 299.783 327.539 304.646C327.769 305.382 327.994 306.139 328.226 306.916Z" fill="#FED4C7" stroke="#F3B304" stroke-width="0.795253"/>
<path d="M288 342.737C288.749 343.485 289.764 343.906 290.823 343.906C291.882 343.906 292.897 343.485 293.646 342.737L293.674 342.709C294.423 341.961 295.439 341.541 296.497 341.541C297.556 341.541 298.572 341.961 299.32 342.709" stroke="white" stroke-width="0.994066" stroke-miterlimit="10" stroke-linecap="round"/>
<path d="M316.659 328.013L319.488 292.377" stroke="#0E0100" stroke-width="0.754196"/>
<path d="M271.608 291.411L264.718 326.315H249.007C259.024 317.303 268.436 305.121 271.608 291.411Z" fill="#FED4C7" stroke="#F3B304" stroke-width="0.98012" stroke-linejoin="round"/>
<path d="M280.926 306.031C282.442 310.835 284.203 316.418 288.62 322.528C288.664 323.008 288.931 323.445 289.238 323.823C289.561 324.22 289.979 324.612 290.373 324.981C290.395 325.002 290.418 325.022 290.44 325.043C290.864 325.441 291.253 325.812 291.528 326.174C291.684 326.38 291.787 326.561 291.842 326.723H272.443C272.443 324.779 272.445 323.248 272.447 321.848C272.451 319.235 272.454 317.077 272.443 313.533C272.443 311.373 272.623 309.297 272.831 307.288C272.875 306.86 272.92 306.435 272.966 306.012C273.132 304.456 273.294 302.935 273.375 301.46C273.556 298.143 273.327 294.991 271.785 291.989C274.101 293.323 275.721 294.885 276.953 296.654C278.393 298.721 279.316 301.086 280.194 303.744C280.438 304.485 280.679 305.248 280.926 306.031Z" fill="#FED4C7" stroke="#F3B304" stroke-width="0.784096"/>
<path d="M238 342.116C238.799 342.87 239.881 343.293 241.01 343.293C242.139 343.293 243.222 342.87 244.021 342.116L244.05 342.088C244.849 341.334 245.932 340.91 247.061 340.91C248.19 340.91 249.272 341.334 250.071 342.088" stroke="white" stroke-width="0.98012" stroke-miterlimit="10" stroke-linecap="round"/>
<path d="M268.56 327.281L271.576 291.38" stroke="#0E0100" stroke-width="0.743615"/>
<path d="M49.9506 99.901C22.3637 99.901 9.91821e-05 77.5374 9.91821e-05 49.9505C9.91821e-05 22.3636 22.3637 0 49.9506 0C77.5376 0 99.9012 22.3636 99.9012 49.9505C99.9012 77.5374 77.5376 99.901 49.9506 99.901Z" fill="#FFC200"/>
<path d="M8.29158 105.94V105.166C13.4167 91.7298 27.1934 82.1067 43.3855 82.1067C48.2524 82.0971 53.0791 82.9868 57.6227 84.7312C59.5582 85.4821 61.6679 84.1118 61.6679 82.1531V82.1067C61.66 77.9591 62.4485 73.8486 63.9904 69.9984C69.2627 56.8372 82.8961 47.4502 98.8869 47.4502C114.878 47.4502 128.507 56.8295 133.783 69.9984C133.907 70.2964 134.023 70.6023 134.136 70.9081C134.585 70.5945 135.041 70.2926 135.506 69.9984C141.768 66.1168 148.989 64.0603 156.357 64.0603C163.724 64.0603 170.945 66.1168 177.207 69.9984C187.098 76.2306 193.593 86.7673 193.593 98.7207V98.771C193.593 100.401 195.637 101.314 196.984 100.269C204.416 94.5014 214.403 90.9788 225.35 90.9788C239.549 90.9788 252.083 96.8975 259.596 105.936L8.29158 105.94Z" fill="white"/>
<path d="M163.329 77.2139C162.311 77.2139 161.486 76.389 161.486 75.3714C161.486 74.3538 162.311 73.5288 163.329 73.5288C164.346 73.5288 165.171 74.3538 165.171 75.3714C165.171 76.389 164.346 77.2139 163.329 77.2139Z" fill="#98C8DB"/>
<path d="M151.755 76.3736C150.737 76.3736 149.912 75.5487 149.912 74.531C149.912 73.5134 150.737 72.6885 151.755 72.6885C152.772 72.6885 153.597 73.5134 153.597 74.531C153.597 75.5487 152.772 76.3736 151.755 76.3736Z" fill="#98C8DB"/>
<path d="M140.177 75.5333C139.159 75.5333 138.334 74.7083 138.334 73.6907C138.334 72.6731 139.159 71.8481 140.177 71.8481C141.194 71.8481 142.019 72.6731 142.019 73.6907C142.019 74.7083 141.194 75.5333 140.177 75.5333Z" fill="#98C8DB"/>
<path d="M128.599 74.69C127.581 74.69 126.756 73.8651 126.756 72.8475C126.756 71.8298 127.581 71.0049 128.599 71.0049C129.617 71.0049 130.441 71.8298 130.441 72.8475C130.441 73.8651 129.617 74.69 128.599 74.69Z" fill="#98C8DB"/>
<path d="M118.96 73.8497C117.942 73.8497 117.117 73.0247 117.117 72.0071C117.117 70.9895 117.942 70.1646 118.96 70.1646C119.978 70.1646 120.803 70.9895 120.803 72.0071C120.803 73.0247 119.978 73.8497 118.96 73.8497Z" fill="#98C8DB"/>
<path d="M168.682 83.6353C167.665 83.6353 166.84 82.8104 166.84 81.7928C166.84 80.7751 167.665 79.9502 168.682 79.9502C169.7 79.9502 170.525 80.7751 170.525 81.7928C170.525 82.8104 169.7 83.6353 168.682 83.6353Z" fill="#98C8DB"/>
<path d="M157.108 82.7955C156.091 82.7955 155.266 81.9705 155.266 80.9529C155.266 79.9353 156.091 79.1104 157.108 79.1104C158.126 79.1104 158.951 79.9353 158.951 80.9529C158.951 81.9705 158.126 82.7955 157.108 82.7955Z" fill="#98C8DB"/>
<path d="M145.53 81.9556C144.513 81.9556 143.688 81.1307 143.688 80.1131C143.688 79.0955 144.513 78.2705 145.53 78.2705C146.548 78.2705 147.373 79.0955 147.373 80.1131C147.373 81.1307 146.548 81.9556 145.53 81.9556Z" fill="#98C8DB"/>
<path d="M145.917 70.3429C144.9 70.3429 144.075 69.5179 144.075 68.5003C144.075 67.4827 144.9 66.6577 145.917 66.6577C146.935 66.6577 147.76 67.4827 147.76 68.5003C147.76 69.5179 146.935 70.3429 145.917 70.3429Z" fill="#98C8DB"/>
<path d="M133.952 81.1114C132.935 81.1114 132.11 80.2865 132.11 79.2688C132.11 78.2512 132.935 77.4263 133.952 77.4263C134.97 77.4263 135.795 78.2512 135.795 79.2688C135.795 80.2865 134.97 81.1114 133.952 81.1114Z" fill="#98C8DB"/>
<path d="M122.374 80.2716C121.357 80.2716 120.532 79.4466 120.532 78.429C120.532 77.4114 121.357 76.5864 122.374 76.5864C123.392 76.5864 124.217 77.4114 124.217 78.429C124.217 79.4466 123.392 80.2716 122.374 80.2716Z" fill="#98C8DB"/>
<path d="M174.036 90.0572C173.018 90.0572 172.193 89.2323 172.193 88.2146C172.193 87.197 173.018 86.3721 174.036 86.3721C175.053 86.3721 175.878 87.197 175.878 88.2146C175.878 89.2323 175.053 90.0572 174.036 90.0572Z" fill="#98C8DB"/>
<path d="M162.458 89.2174C161.44 89.2174 160.615 88.3924 160.615 87.3748C160.615 86.3572 161.44 85.5322 162.458 85.5322C163.475 85.5322 164.3 86.3572 164.3 87.3748C164.3 88.3924 163.475 89.2174 162.458 89.2174Z" fill="#98C8DB"/>
<path d="M150.884 88.377C149.866 88.377 149.041 87.5521 149.041 86.5345C149.041 85.5168 149.866 84.6919 150.884 84.6919C151.901 84.6919 152.726 85.5168 152.726 86.5345C152.726 87.5521 151.901 88.377 150.884 88.377Z" fill="#98C8DB"/>
<path d="M139.306 87.5372C138.288 87.5372 137.463 86.7122 137.463 85.6946C137.463 84.677 138.288 83.8521 139.306 83.8521C140.323 83.8521 141.148 84.677 141.148 85.6946C141.148 86.7122 140.323 87.5372 139.306 87.5372Z" fill="#98C8DB"/>
<path d="M167.854 95.0391C166.836 95.0391 166.011 94.2142 166.011 93.1966C166.011 92.179 166.836 91.354 167.854 91.354C168.871 91.354 169.696 92.179 169.696 93.1966C169.696 94.2142 168.871 95.0391 167.854 95.0391Z" fill="#98C8DB"/>
<path d="M156.28 94.1993C155.262 94.1993 154.437 93.3743 154.437 92.3567C154.437 91.3391 155.262 90.5142 156.28 90.5142C157.297 90.5142 158.122 91.3391 158.122 92.3567C158.122 93.3743 157.297 94.1993 156.28 94.1993Z" fill="#98C8DB"/>
<path d="M144.702 93.3595C143.684 93.3595 142.859 92.5345 142.859 91.5169C142.859 90.4993 143.684 89.6743 144.702 89.6743C145.719 89.6743 146.544 90.4993 146.544 91.5169C146.544 92.5345 145.719 93.3595 144.702 93.3595Z" fill="#98C8DB"/>
<path d="M133.124 92.5152C132.106 92.5152 131.281 91.6903 131.281 90.6726C131.281 89.655 132.106 88.8301 133.124 88.8301C134.142 88.8301 134.966 89.655 134.966 90.6726C134.966 91.6903 134.142 92.5152 133.124 92.5152Z" fill="#98C8DB"/>
<path d="M121.546 91.6754C120.528 91.6754 119.703 90.8504 119.703 89.8328C119.703 88.8152 120.528 87.9902 121.546 87.9902C122.564 87.9902 123.388 88.8152 123.388 89.8328C123.388 90.8504 122.564 91.6754 121.546 91.6754Z" fill="#98C8DB"/>
<path d="M173.2 101.581C172.182 101.581 171.357 100.756 171.357 99.7386C171.357 98.7209 172.182 97.896 173.2 97.896C174.217 97.896 175.042 98.7209 175.042 99.7386C175.042 100.756 174.217 101.581 173.2 101.581Z" fill="#98C8DB"/>
<path d="M161.622 100.741C160.604 100.741 159.779 99.9163 159.779 98.8987C159.779 97.8811 160.604 97.0562 161.622 97.0562C162.639 97.0562 163.464 97.8811 163.464 98.8987C163.464 99.9163 162.639 100.741 161.622 100.741Z" fill="#98C8DB"/>
<path d="M150.044 99.901C149.026 99.901 148.201 99.076 148.201 98.0584C148.201 97.0408 149.026 96.2158 150.044 96.2158C151.061 96.2158 151.886 97.0408 151.886 98.0584C151.886 99.076 151.061 99.901 150.044 99.901Z" fill="#98C8DB"/>
<path d="M138.47 99.0572C137.452 99.0572 136.627 98.2323 136.627 97.2146C136.627 96.197 137.452 95.3721 138.47 95.3721C139.487 95.3721 140.312 96.197 140.312 97.2146C140.312 98.2323 139.487 99.0572 138.47 99.0572Z" fill="#98C8DB"/>
<path d="M126.892 98.2174C125.874 98.2174 125.049 97.3924 125.049 96.3748C125.049 95.3572 125.874 94.5322 126.892 94.5322C127.909 94.5322 128.734 95.3572 128.734 96.3748C128.734 97.3924 127.909 98.2174 126.892 98.2174Z" fill="#98C8DB"/>
<path d="M115.314 97.377C114.296 97.377 113.471 96.5521 113.471 95.5345C113.471 94.5168 114.296 93.6919 115.314 93.6919C116.331 93.6919 117.156 94.5168 117.156 95.5345C117.156 96.5521 116.331 97.377 115.314 97.377Z" fill="#98C8DB"/>
<path d="M166.967 107.283C165.95 107.283 165.125 106.458 165.125 105.44C165.125 104.423 165.95 103.598 166.967 103.598C167.985 103.598 168.81 104.423 168.81 105.44C168.81 106.458 167.985 107.283 166.967 107.283Z" fill="#98C8DB"/>
<path d="M155.39 106.443C154.372 106.443 153.547 105.618 153.547 104.6C153.547 103.583 154.372 102.758 155.39 102.758C156.407 102.758 157.232 103.583 157.232 104.6C157.232 105.618 156.407 106.443 155.39 106.443Z" fill="#98C8DB"/>
<path d="M143.812 105.603C142.794 105.603 141.969 104.778 141.969 103.761C141.969 102.743 142.794 101.918 143.812 101.918C144.829 101.918 145.654 102.743 145.654 103.761C145.654 104.778 144.829 105.603 143.812 105.603Z" fill="#98C8DB"/>
<path d="M132.233 104.759C131.216 104.759 130.391 103.934 130.391 102.916C130.391 101.899 131.216 101.074 132.233 101.074C133.251 101.074 134.076 101.899 134.076 102.916C134.076 103.934 133.251 104.759 132.233 104.759Z" fill="#98C8DB"/>
<path d="M120.66 103.919C119.642 103.919 118.817 103.094 118.817 102.076C118.817 101.059 119.642 100.234 120.66 100.234C121.677 100.234 122.502 101.059 122.502 102.076C122.502 103.094 121.677 103.919 120.66 103.919Z" fill="#98C8DB"/>
<path d="M160.731 112.985C159.714 112.985 158.889 112.16 158.889 111.142C158.889 110.125 159.714 109.3 160.731 109.3C161.749 109.3 162.574 110.125 162.574 111.142C162.574 112.16 161.749 112.985 160.731 112.985Z" fill="#98C8DB"/>
<path d="M137.579 111.301C136.562 111.301 135.737 110.476 135.737 109.458C135.737 108.441 136.562 107.616 137.579 107.616C138.597 107.616 139.422 108.441 139.422 109.458C139.422 110.476 138.597 111.301 137.579 111.301Z" fill="#98C8DB"/>
<path d="M126.001 110.461C124.984 110.461 124.159 109.636 124.159 108.618C124.159 107.601 124.984 106.776 126.001 106.776C127.019 106.776 127.844 107.601 127.844 108.618C127.844 109.636 127.019 110.461 126.001 110.461Z" fill="#98C8DB"/>
<path d="M114.427 109.621C113.41 109.621 112.585 108.796 112.585 107.779C112.585 106.761 113.41 105.936 114.427 105.936C115.445 105.936 116.27 106.761 116.27 107.779C116.27 108.796 115.445 109.621 114.427 109.621Z" fill="#98C8DB"/>
<path d="M115.849 108.781C114.832 108.781 114.007 107.956 114.007 106.938C114.007 105.921 114.832 105.096 115.849 105.096C116.867 105.096 117.692 105.921 117.692 106.938C117.692 107.956 116.867 108.781 115.849 108.781Z" fill="#98C8DB"/>
<path d="M131.347 117.002C130.329 117.002 129.504 116.178 129.504 115.16C129.504 114.142 130.329 113.317 131.347 113.317C132.365 113.317 133.19 114.142 133.19 115.16C133.19 116.178 132.365 117.002 131.347 117.002Z" fill="#98C8DB"/>
<path d="M108.191 115.323C107.174 115.323 106.349 114.498 106.349 113.48C106.349 112.463 107.174 111.638 108.191 111.638C109.209 111.638 110.034 112.463 110.034 113.48C110.034 114.498 109.209 115.323 108.191 115.323Z" fill="#98C8DB"/>
<path d="M136.751 122.72C135.733 122.72 134.908 121.895 134.908 120.877C134.908 119.86 135.733 119.035 136.751 119.035C137.768 119.035 138.593 119.86 138.593 120.877C138.593 121.895 137.768 122.72 136.751 122.72Z" fill="#98C8DB"/>
<path d="M114.959 121.025C113.941 121.025 113.116 120.2 113.116 119.182C113.116 118.165 113.941 117.34 114.959 117.34C115.977 117.34 116.802 118.165 116.802 119.182C116.802 120.2 115.977 121.025 114.959 121.025Z" fill="#98C8DB"/>
<path d="M102.99 120.154C101.972 120.154 101.148 119.329 101.148 118.311C101.148 117.294 101.972 116.469 102.99 116.469C104.008 116.469 104.833 117.294 104.833 118.311C104.833 119.329 104.008 120.154 102.99 120.154Z" fill="#98C8DB"/>
<path d="M8.29158 105.173C13.4167 91.7371 27.1934 82.114 43.3855 82.114C48.2524 82.1044 53.0791 82.9942 57.6227 84.7385C59.5582 85.4894 61.6679 84.1191 61.6679 82.1604V82.114C61.66 77.9664 62.4485 73.856 63.9904 70.0057C69.2627 56.8445 82.8961 47.4575 98.8869 47.4575C114.878 47.4575 128.507 56.8368 133.783 70.0057C133.907 70.3038 134.023 70.6096 134.136 70.9154C134.585 70.6018 135.041 70.2999 135.506 70.0057C141.768 66.1242 148.989 64.0676 156.357 64.0676C163.724 64.0676 170.945 66.1242 177.207 70.0057C187.098 76.2379 193.593 86.7746 193.593 98.728V98.7784C193.593 100.408 195.637 101.322 196.984 100.276C204.416 94.5087 214.403 90.9862 225.35 90.9862C239.549 90.9862 252.083 96.9048 259.596 105.943" stroke="#98C8DB" stroke-width="1.93547" stroke-linejoin="round"/>
<path d="M526.271 334.305V185.948" stroke="#59221D" stroke-width="1.93547" stroke-miterlimit="10"/>
<path d="M592.874 175.98C586.332 170.398 575.25 166.729 562.681 166.729C542.571 166.729 526.271 176.123 526.271 187.709" stroke="#F3B304" stroke-width="1.93547" stroke-miterlimit="10" stroke-linecap="round"/>
<path d="M585.713 171.684V177.014" stroke="#F3B304" stroke-width="1.93547" stroke-miterlimit="10" stroke-linecap="round"/>
<path d="M580.023 169.547V175.775" stroke="#F3B304" stroke-width="1.93547" stroke-miterlimit="10" stroke-linecap="round"/>
<path d="M573.516 167.944V176.603" stroke="#F3B304" stroke-width="1.93547" stroke-miterlimit="10" stroke-linecap="round"/>
<path d="M566.881 166.841V178.667" stroke="#F3B304" stroke-width="1.93547" stroke-miterlimit="10" stroke-linecap="round"/>
<path d="M559.987 166.841V180.734" stroke="#F3B304" stroke-width="1.93547" stroke-miterlimit="10" stroke-linecap="round"/>
<path d="M553.085 167.53V180.324" stroke="#F3B304" stroke-width="1.93547" stroke-miterlimit="10" stroke-linecap="round"/>
<path d="M547.704 168.691V179.495" stroke="#F3B304" stroke-width="1.93547" stroke-miterlimit="10" stroke-linecap="round"/>
<path d="M541.979 170.615V178.666" stroke="#F3B304" stroke-width="1.93547" stroke-miterlimit="10" stroke-linecap="round"/>
<path d="M536.947 172.868V176.604" stroke="#F3B304" stroke-width="1.93547" stroke-miterlimit="10" stroke-linecap="round"/>
<path d="M540.329 187.671C530.265 182.84 516.786 182.696 504.035 188.317C491.284 193.938 482.296 203.99 479.075 214.674" stroke="#F3B304" stroke-width="1.93547" stroke-miterlimit="10" stroke-linecap="round"/>
<path d="M534.441 185.483V192.397" stroke="#F3B304" stroke-width="1.93547" stroke-miterlimit="10" stroke-linecap="round"/>
<path d="M529.467 184.473V193.337" stroke="#F3B304" stroke-width="1.93547" stroke-miterlimit="10" stroke-linecap="round"/>
<path d="M524.156 184.07V194.901" stroke="#F3B304" stroke-width="1.93547" stroke-miterlimit="10" stroke-linecap="round"/>
<path d="M517.634 184.473V197.092" stroke="#F3B304" stroke-width="1.93547" stroke-miterlimit="10" stroke-linecap="round"/>
<path d="M511.46 185.7V199.45" stroke="#F3B304" stroke-width="1.93547" stroke-miterlimit="10" stroke-linecap="round"/>
<path d="M505.432 187.725V201.629" stroke="#F3B304" stroke-width="1.93547" stroke-miterlimit="10" stroke-linecap="round"/>
<path d="M498.825 190.98V203.142" stroke="#F3B304" stroke-width="1.93547" stroke-miterlimit="10" stroke-linecap="round"/>
<path d="M492.74 195.176V205.535" stroke="#F3B304" stroke-width="1.93547" stroke-miterlimit="10" stroke-linecap="round"/>
<path d="M487.177 200.437V208.341" stroke="#F3B304" stroke-width="1.93547" stroke-miterlimit="10" stroke-linecap="round"/>
<path d="M487.239 154.624C492.265 152.39 497.706 151.241 503.207 151.253C523.723 151.253 540.333 166.818 540.333 186.017" stroke="#F3B304" stroke-width="1.93547" stroke-miterlimit="10" stroke-linecap="round"/>
<path d="M538.951 176.604L535.943 179.611" stroke="#F3B304" stroke-width="1.93547" stroke-miterlimit="10" stroke-linecap="round"/>
<path d="M537.298 172.469L532.13 177.637" stroke="#F3B304" stroke-width="1.93547" stroke-miterlimit="10" stroke-linecap="round"/>
<path d="M534.817 168.335L528.004 175.148" stroke="#F3B304" stroke-width="1.93547" stroke-miterlimit="10" stroke-linecap="round"/>
<path d="M531.925 164.201L524.385 171.741" stroke="#F3B304" stroke-width="1.93547" stroke-miterlimit="10" stroke-linecap="round"/>
<path d="M528.205 160.895L520.456 168.645" stroke="#F3B304" stroke-width="1.93547" stroke-miterlimit="10" stroke-linecap="round"/>
<path d="M524.485 157.589L517.25 164.82" stroke="#F3B304" stroke-width="1.93547" stroke-miterlimit="10" stroke-linecap="round"/>
<path d="M519.937 155.522L513.368 162.091" stroke="#F3B304" stroke-width="1.93547" stroke-miterlimit="10" stroke-linecap="round"/>
<path d="M515.392 153.455L509.311 159.536" stroke="#F3B304" stroke-width="1.93547" stroke-miterlimit="10" stroke-linecap="round"/>
<path d="M509.605 152.216L504.438 157.384" stroke="#F3B304" stroke-width="1.93547" stroke-miterlimit="10" stroke-linecap="round"/>
<path d="M504.233 151.802L499.065 156.97" stroke="#F3B304" stroke-width="1.93547" stroke-miterlimit="10" stroke-linecap="round"/>
<path d="M498.446 151.802L493.278 156.97" stroke="#F3B304" stroke-width="1.93547" stroke-miterlimit="10" stroke-linecap="round"/>
<path d="M425.321 162.389V334.305" stroke="#59221D" stroke-width="1.93547" stroke-miterlimit="10"/>
<path d="M425.232 160.957C433.404 154.245 445.57 151.28 458.162 153.9C468.103 155.987 476.456 161.189 481.961 167.94" stroke="#F3B304" stroke-width="1.93547" stroke-miterlimit="10" stroke-linecap="round"/>
<path d="M430.14 157.636L431.457 164.197" stroke="#F3B304" stroke-width="1.93547" stroke-miterlimit="10" stroke-linecap="round"/>
<path d="M421.445 155.623L423.129 164.038" stroke="#F3B304" stroke-width="1.93547" stroke-miterlimit="10" stroke-linecap="round"/>
<path d="M426.167 154.125L428.227 164.402" stroke="#F3B304" stroke-width="1.93547" stroke-miterlimit="10" stroke-linecap="round"/>
<path d="M432.14 153.123L434.54 165.107" stroke="#F3B304" stroke-width="1.93547" stroke-miterlimit="10" stroke-linecap="round"/>
<path d="M437.954 152.987L440.567 166.04" stroke="#F3B304" stroke-width="1.93547" stroke-miterlimit="10" stroke-linecap="round"/>
<path d="M443.788 153.638L446.432 166.834" stroke="#F3B304" stroke-width="1.93547" stroke-miterlimit="10" stroke-linecap="round"/>
<path d="M450.38 155.329L452.695 166.876" stroke="#F3B304" stroke-width="1.93547" stroke-miterlimit="10" stroke-linecap="round"/>
<path d="M456.682 158.026L458.652 167.859" stroke="#F3B304" stroke-width="1.93547" stroke-miterlimit="10" stroke-linecap="round"/>
<path d="M462.709 161.843L463.936 167.967" stroke="#F3B304" stroke-width="1.93547" stroke-miterlimit="10" stroke-linecap="round"/>
<path d="M477.602 119.561C472.155 117.447 466.291 116.625 460.473 117.161C438.951 119.135 423.169 138.912 425.224 161.332" stroke="#F3B304" stroke-width="1.93547" stroke-miterlimit="10" stroke-linecap="round"/>
<path d="M425.666 150.204L429.146 153.428" stroke="#F3B304" stroke-width="1.93547" stroke-miterlimit="10" stroke-linecap="round"/>
<path d="M426.958 145.218L432.935 150.758" stroke="#F3B304" stroke-width="1.93547" stroke-miterlimit="10" stroke-linecap="round"/>
<path d="M429.095 140.24L436.977 147.537" stroke="#F3B304" stroke-width="1.93547" stroke-miterlimit="10" stroke-linecap="round"/>
<path d="M431.689 135.134L440.41 143.213" stroke="#F3B304" stroke-width="1.93547" stroke-miterlimit="10" stroke-linecap="round"/>
<path d="M421.94 130.617L430.905 138.92" stroke="#F3B304" stroke-width="1.93547" stroke-miterlimit="10" stroke-linecap="round"/>
<path d="M425.792 126.695L434.157 134.445" stroke="#F3B304" stroke-width="1.93547" stroke-miterlimit="10" stroke-linecap="round"/>
<path d="M430.298 123.362L437.896 130.4" stroke="#F3B304" stroke-width="1.93547" stroke-miterlimit="10" stroke-linecap="round"/>
<path d="M435.26 120.556L442.294 127.071" stroke="#F3B304" stroke-width="1.93547" stroke-miterlimit="10" stroke-linecap="round"/>
<path d="M440.335 118.872L446.316 124.408" stroke="#F3B304" stroke-width="1.93547" stroke-miterlimit="10" stroke-linecap="round"/>
<path d="M445.975 117.459L451.956 122.999" stroke="#F3B304" stroke-width="1.93547" stroke-miterlimit="10" stroke-linecap="round"/>
<path d="M452.416 117.359L458.397 122.898" stroke="#F3B304" stroke-width="1.93547" stroke-miterlimit="10" stroke-linecap="round"/>
<path d="M367.114 146.46C369.816 143.847 372.929 141.693 376.327 140.085C394.311 131.569 416.163 140.004 425.131 158.936" stroke="#F3B304" stroke-width="1.93547" stroke-miterlimit="10" stroke-linecap="round"/>
<path d="M419.522 150.223L418.291 154.442" stroke="#F3B304" stroke-width="1.93547" stroke-miterlimit="10" stroke-linecap="round"/>
<path d="M416.143 146.836L414.022 154.078" stroke="#F3B304" stroke-width="1.93547" stroke-miterlimit="10" stroke-linecap="round"/>
<path d="M412.284 144.014L409.605 153.169" stroke="#F3B304" stroke-width="1.93547" stroke-miterlimit="10" stroke-linecap="round"/>
<path d="M407.813 141.142L404.84 151.314" stroke="#F3B304" stroke-width="1.93547" stroke-miterlimit="10" stroke-linecap="round"/>
<path d="M403.679 139.269L400.501 150.13" stroke="#F3B304" stroke-width="1.93547" stroke-miterlimit="10" stroke-linecap="round"/>
<path d="M398.198 137.716L395.349 147.455" stroke="#F3B304" stroke-width="1.93547" stroke-miterlimit="10" stroke-linecap="round"/>
<path d="M393.053 137.158L390.475 145.968" stroke="#F3B304" stroke-width="1.93547" stroke-miterlimit="10" stroke-linecap="round"/>
<path d="M388.098 137.012L385.392 146.252" stroke="#F3B304" stroke-width="1.93547" stroke-miterlimit="10" stroke-linecap="round"/>
<path d="M382.443 138.192L380.112 146.154" stroke="#F3B304" stroke-width="1.93547" stroke-miterlimit="10" stroke-linecap="round"/>
<path d="M377.651 139.62L375.862 145.752" stroke="#F3B304" stroke-width="1.93547" stroke-miterlimit="10" stroke-linecap="round"/>
<path d="M429.949 329.277C436.24 335.73 454.433 334.848 454.433 334.848L462.976 334.658C477.21 334.658 488.826 324.028 488.826 324.028C483.941 323.048 478.897 323.196 474.078 324.462C480.856 314.816 482.358 303.76 482.358 303.76C475.81 307.196 470.162 312.121 465.868 318.141C466.216 306.183 462.999 297.497 462.999 297.497C456.965 305.452 454.421 313.109 453.531 319.395C444.628 310.879 433.278 307.027 433.278 307.027C433.195 314.131 435.93 320.978 440.885 326.068C437.811 326.03 434.188 326.901 429.949 329.277Z" fill="#FFC200"/>
<path d="M590.365 334.383C589.662 330.311 587.97 326.474 585.438 323.208C582.906 319.943 579.611 317.349 575.842 315.654C572.073 313.959 567.946 313.216 563.823 313.489C559.699 313.762 555.706 315.043 552.193 317.22L541.742 323.541C538.591 325.455 534.977 326.471 531.29 326.479C527.549 326.483 523.883 325.421 520.723 323.417C517.673 321.482 514.135 320.456 510.523 320.46C505.326 320.47 500.345 322.541 496.673 326.219C490.684 332.188 482.737 334.554 472.491 330.315C470.62 329.55 468.523 329.547 466.649 330.307C464.776 331.067 463.274 332.53 462.465 334.383H590.365Z" fill="#FFC200"/>
</svg>
